<?xml version="1.0" encoding="UTF-8" standalone="no"?><svg xmlns="http://www.w3.org/2000/svg" xmlns:xlink="http://www.w3.org/1999/xlink" clip-rule="evenodd" stroke-miterlimit="4.00" viewBox="0 0 1024 768"><desc>SVG generated by Keynote</desc><defs></defs><g transform="matrix(1.00, 0.00, -0.00, -1.00, 0.0, 768.0)"><path d="M 0.0 768.0 L 1024.0 768.0 L 1024.0 0.0 L 0.0 0.0 Z M 0.0 768.0 " fill="#FEFFFF"></path><path d="M 538.1 533.8 L 949.2 533.8 L 949.2 177.8 L 538.1 177.8 Z M 538.1 533.8 " fill="#FEFFFF"></path><path d="M 0.0 0.0 L 411.1 0.0 L 411.1 356.0 L 0.0 356.0 Z M 0.0 0.0 " fill="none" stroke="#000000" stroke-width="7.00" transform="matrix(1.00, 0.00, 0.00, -1.00, 538.1, 533.8)"></path><text xml:space="preserve" font-family="Verdana" font-size="32.0" fill="#000000" transform="matrix(1.00, 0.00, -0.00, -1.00, 610.0, 557.0)">C</text><text xml:space="preserve" font-family="Verdana" font-size="32.0" fill="#000000" transform="matrix(1.00, 0.00, -0.00, -1.00, 632.4, 557.0)">o</text><text xml:space="preserve" font-family="Verdana" font-size="32.0" fill="#000000" transform="matrix(1.00, 0.00, -0.00, -1.00, 651.8, 557.0)">m</text><text xml:space="preserve" font-family="Verdana" font-size="32.0" fill="#000000" transform="matrix(1.00, 0.00, -0.00, -1.00, 682.9, 557.0)">p</text><text xml:space="preserve" font-family="Verdana" font-size="32.0" fill="#000000" transform="matrix(1.00, 0.00, -0.00, -1.00, 702.8, 557.0)">l</text><text xml:space="preserve" font-family="Verdana" font-size="32.0" fill="#000000" transform="matrix(1.00, 0.00, -0.00, -1.00, 711.6, 557.0)">e</text><text xml:space="preserve" font-family="Verdana" font-size="32.0" fill="#000000" transform="matrix(1.00, 0.00, -0.00, -1.00, 730.7, 557.0)">x</text><text xml:space="preserve" font-family="Verdana" font-size="32.0" fill="#000000" transform="matrix(1.00, 0.00, -0.00, -1.00, 749.6, 557.0)"> </text><text xml:space="preserve" font-family="Verdana" font-size="32.0" fill="#000000" transform="matrix(1.00, 0.00, -0.00, -1.00, 760.8, 557.0)">s</text><text xml:space="preserve" font-family="Verdana" font-size="32.0" fill="#000000" transform="matrix(1.00, 0.00, -0.00, -1.00, 777.5, 557.0)">y</text><text xml:space="preserve" font-family="Verdana" font-size="32.0" fill="#000000" transform="matrix(1.00, 0.00, -0.00, -1.00, 796.4, 557.0)">s</text><text xml:space="preserve" font-family="Verdana" font-size="32.0" fill="#000000" transform="matrix(1.00, 0.00, -0.00, -1.00, 813.1, 557.0)">t</text><text xml:space="preserve" font-family="Verdana" font-size="32.0" fill="#000000" transform="matrix(1.00, 0.00, -0.00, -1.00, 825.7, 557.0)">e</text><text xml:space="preserve" font-family="Verdana" font-size="32.0" fill="#000000" transform="matrix(1.00, 0.00, -0.00, -1.00, 844.8, 557.0)">m</text><g><clipPath id="clip-8"><path d="M 92.8 443.8 L 176.4 443.8 L 176.4 468.3 L 92.8 468.3 Z M 92.8 443.8 "></path></clipPath><g clip-path="url(#clip-8)"><path d="M 93.8 467.3 L 175.4 467.3 L 175.4 444.8 L 93.8 444.8 Z M 93.8 467.3 " fill="#00A0FD"></path></g></g><g><clipPath id="clip-9"><path d="M 111.2 411.9 L 158.0 411.9 L 158.0 436.5 L 111.2 436.5 Z M 111.2 411.9 "></path></clipPath><g clip-path="url(#clip-9)"><path d="M 112.2 435.5 L 157.0 435.5 L 157.0 412.9 L 112.2 412.9 Z M 112.2 435.5 " fill="#00A0FD"></path></g></g><g><clipPath id="clip-10"><path d="M 102.8 385.1 L 163.0 385.1 L 163.0 409.7 L 102.8 409.7 Z M 102.8 385.1 "></path></clipPath><g clip-path="url(#clip-10)"><path d="M 103.8 408.7 L 162.0 408.7 L 162.0 386.1 L 103.8 386.1 Z M 103.8 408.7 " fill="#00A0FD"></path></g></g><g><clipPath id="clip-11"><path d="M 162.2 411.9 L 180.4 411.9 L 180.4 436.5 L 162.2 436.5 Z M 162.2 411.9 "></path></clipPath><g clip-path="url(#clip-11)"><path d="M 163.2 435.5 L 179.4 435.5 L 179.4 412.9 L 163.2 412.9 Z M 163.2 435.5 " fill="#00A0FD"></path></g></g><g><clipPath id="clip-12"><path d="M 261.6 425.7 L 312.4 425.7 L 312.4 449.7 L 261.6 449.7 Z M 261.6 425.7 "></path></clipPath><g clip-path="url(#clip-12)"><path d="M 262.6 448.7 L 311.4 448.7 L 311.4 426.7 L 262.6 426.7 Z M 262.6 448.7 " fill="#FB90FD"></path></g></g><g><clipPath id="clip-13"><path d="M 314.2 425.7 L 344.4 425.7 L 344.4 449.7 L 314.2 449.7 Z M 314.2 425.7 "></path></clipPath><g clip-path="url(#clip-13)"><path d="M 315.2 448.7 L 343.4 448.7 L 343.4 426.7 L 315.2 426.7 Z M 315.2 448.7 " fill="#FB90FD"></path></g></g><g><clipPath id="clip-14"><path d="M 255.1 455.3 L 338.7 455.3 L 338.7 479.3 L 255.1 479.3 Z M 255.1 455.3 "></path></clipPath><g clip-path="url(#clip-14)"><path d="M 256.1 478.3 L 337.7 478.3 L 337.7 456.3 L 256.1 456.3 Z M 256.1 478.3 " fill="#FB90FD"></path></g></g><g><clipPath id="clip-15"><path d="M 251.9 484.8 L 302.7 484.8 L 302.7 508.9 L 251.9 508.9 Z M 251.9 484.8 "></path></clipPath><g clip-path="url(#clip-15)"><path d="M 252.9 507.9 L 301.7 507.9 L 301.7 485.8 L 252.9 485.8 Z M 252.9 507.9 " fill="#FB90FD"></path></g></g><g><clipPath id="clip-16"><path d="M 310.2 484.8 L 340.4 484.8 L 340.4 508.9 L 310.2 508.9 Z M 310.2 484.8 "></path></clipPath><g clip-path="url(#clip-16)"><path d="M 311.2 507.9 L 339.4 507.9 L 339.4 485.8 L 311.2 485.8 Z M 311.2 507.9 " fill="#FB90FD"></path></g></g><g><clipPath id="clip-17"><path d="M 222.5 316.0 L 300.4 316.0 L 300.4 342.3 L 222.5 342.3 Z M 222.5 316.0 "></path></clipPath><g clip-path="url(#clip-17)"><path d="M 223.5 341.3 L 299.4 341.3 L 299.4 317.0 L 223.5 317.0 Z M 223.5 341.3 " fill="#FEA46F"></path></g></g><g><clipPath id="clip-18"><path d="M 196.9 288.1 L 312.9 288.1 L 312.9 314.4 L 196.9 314.4 Z M 196.9 288.1 "></path></clipPath><g clip-path="url(#clip-18)"><path d="M 197.9 313.4 L 311.9 313.4 L 311.9 289.1 L 197.9 289.1 Z M 197.9 313.4 " fill="#FEA46F"></path></g></g><g><clipPath id="clip-19"><path d="M 228.5 259.1 L 296.2 259.1 L 296.2 285.5 L 228.5 285.5 Z M 228.5 259.1 "></path></clipPath><g clip-path="url(#clip-19)"><path d="M 229.5 284.5 L 295.2 284.5 L 295.2 260.1 L 229.5 260.1 Z M 229.5 284.5 " fill="#FEA46F"></path></g></g></g></svg>