<?xml version="1.0" encoding="UTF-8" standalone="no"?><svg xmlns="http://www.w3.org/2000/svg" xmlns:xlink="http://www.w3.org/1999/xlink" clip-rule="evenodd" stroke-miterlimit="4.00" viewBox="0 0 1024 768"><desc>SVG generated by Keynote</desc><defs></defs><g transform="matrix(1.00, 0.00, -0.00, -1.00, 0.0, 768.0)"><path d="M 0.0 768.0 L 1024.0 768.0 L 1024.0 0.0 L 0.0 0.0 Z M 0.0 768.0 " fill="#FEFFFF"></path><text xml:space="preserve" font-family="Verdana" font-size="32.0" fill="#2150FF" transform="matrix(1.00, 0.00, -0.00, -1.00, 136.0, 472.0)">R</text><text xml:space="preserve" font-family="Verdana" font-size="32.0" fill="#2150FF" transform="matrix(1.00, 0.00, -0.00, -1.00, 157.5, 472.0)">e</text><text xml:space="preserve" font-family="Verdana" font-size="32.0" fill="#2150FF" transform="matrix(1.00, 0.00, -0.00, -1.00, 176.5, 472.0)">s</text><text xml:space="preserve" font-family="Verdana" font-size="32.0" fill="#2150FF" transform="matrix(1.00, 0.00, -0.00, -1.00, 193.2, 472.0)">o</text><text xml:space="preserve" font-family="Verdana" font-size="32.0" fill="#2150FF" transform="matrix(1.00, 0.00, -0.00, -1.00, 212.6, 472.0)">u</text><text xml:space="preserve" font-family="Verdana" font-size="32.0" fill="#2150FF" transform="matrix(1.00, 0.00, -0.00, -1.00, 232.9, 472.0)">r</text><text xml:space="preserve" font-family="Verdana" font-size="32.0" fill="#2150FF" transform="matrix(1.00, 0.00, -0.00, -1.00, 246.5, 472.0)">c</text><text xml:space="preserve" font-family="Verdana" font-size="32.0" fill="#2150FF" transform="matrix(1.00, 0.00, -0.00, -1.00, 263.2, 472.0)">e</text><text xml:space="preserve" font-family="Verdana" font-size="32.0" fill="#2150FF" transform="matrix(1.00, 0.00, -0.00, -1.00, 282.2, 472.0)">s</text><text xml:space="preserve" font-family="Verdana" font-size="32.0" fill="#2150FF" transform="matrix(1.00, 0.00, -0.00, -1.00, 298.9, 472.0)"> </text><text xml:space="preserve" font-family="Verdana" font-size="21.8" fill="#000000" transform="matrix(1.00, 0.00, -0.00, -1.00, 136.3, 439.1)">-</text><text xml:space="preserve" font-family="Verdana" font-size="29.0" fill="#000000" transform="matrix(1.00, 0.00, -0.00, -1.00, 167.0, 437.0)">h</text><text xml:space="preserve" font-family="Verdana" font-size="29.0" fill="#000000" transform="matrix(1.00, 0.00, -0.00, -1.00, 185.3, 437.0)">t</text><text xml:space="preserve" font-family="Verdana" font-size="29.0" fill="#000000" transform="matrix(1.00, 0.00, -0.00, -1.00, 196.8, 437.0)">t</text><text xml:space="preserve" font-family="Verdana" font-size="29.0" fill="#000000" transform="matrix(1.00, 0.00, -0.00, -1.00, 208.2, 437.0)">p</text><text xml:space="preserve" font-family="Verdana" font-size="29.0" fill="#000000" transform="matrix(1.00, 0.00, -0.00, -1.00, 226.3, 437.0)">s</text><text xml:space="preserve" font-family="Verdana" font-size="29.0" fill="#000000" transform="matrix(1.00, 0.00, -0.00, -1.00, 241.4, 437.0)">:</text><text xml:space="preserve" font-family="Verdana" font-size="29.0" fill="#000000" transform="matrix(1.00, 0.00, -0.00, -1.00, 254.5, 437.0)">/</text><text xml:space="preserve" font-family="Verdana" font-size="29.0" fill="#000000" transform="matrix(1.00, 0.00, -0.00, -1.00, 267.7, 437.0)">/</text><text xml:space="preserve" font-family="Verdana" font-size="29.0" fill="#000000" transform="matrix(1.00, 0.00, -0.00, -1.00, 280.9, 437.0)">g</text><text xml:space="preserve" font-family="Verdana" font-size="29.0" fill="#000000" transform="matrix(1.00, 0.00, -0.00, -1.00, 299.0, 437.0)">i</text><text xml:space="preserve" font-family="Verdana" font-size="29.0" fill="#000000" transform="matrix(1.00, 0.00, -0.00, -1.00, 306.9, 437.0)">t</text><text xml:space="preserve" font-family="Verdana" font-size="29.0" fill="#000000" transform="matrix(1.00, 0.00, -0.00, -1.00, 318.4, 437.0)">h</text><text xml:space="preserve" font-family="Verdana" font-size="29.0" fill="#000000" transform="matrix(1.00, 0.00, -0.00, -1.00, 336.7, 437.0)">u</text><text xml:space="preserve" font-family="Verdana" font-size="29.0" fill="#000000" transform="matrix(1.00, 0.00, -0.00, -1.00, 355.0, 437.0)">b</text><text xml:space="preserve" font-family="Verdana" font-size="29.0" fill="#000000" transform="matrix(1.00, 0.00, -0.00, -1.00, 372.8, 437.0)">.</text><text xml:space="preserve" font-family="Verdana" font-size="29.0" fill="#000000" transform="matrix(1.00, 0.00, -0.00, -1.00, 383.4, 437.0)">c</text><text xml:space="preserve" font-family="Verdana" font-size="29.0" fill="#000000" transform="matrix(1.00, 0.00, -0.00, -1.00, 398.5, 437.0)">o</text><text xml:space="preserve" font-family="Verdana" font-size="29.0" fill="#000000" transform="matrix(1.00, 0.00, -0.00, -1.00, 416.1, 437.0)">m</text><text xml:space="preserve" font-family="Verdana" font-size="29.0" fill="#000000" transform="matrix(1.00, 0.00, -0.00, -1.00, 444.3, 437.0)">/</text><text xml:space="preserve" font-family="Verdana" font-size="29.0" fill="#000000" transform="matrix(1.00, 0.00, -0.00, -1.00, 457.5, 437.0)">l</text><text xml:space="preserve" font-family="Verdana" font-size="29.0" fill="#000000" transform="matrix(1.00, 0.00, -0.00, -1.00, 465.4, 437.0)">m</text><text xml:space="preserve" font-family="Verdana" font-size="29.0" fill="#000000" transform="matrix(1.00, 0.00, -0.00, -1.00, 493.6, 437.0)">a</text><text xml:space="preserve" font-family="Verdana" font-size="29.0" fill="#000000" transform="matrix(1.00, 0.00, -0.00, -1.00, 511.0, 437.0)">t</text><text xml:space="preserve" font-family="Verdana" font-size="29.0" fill="#000000" transform="matrix(1.00, 0.00, -0.00, -1.00, 522.5, 437.0)">t</text><text xml:space="preserve" font-family="Verdana" font-size="29.0" fill="#000000" transform="matrix(1.00, 0.00, -0.00, -1.00, 533.9, 437.0)">e</text><text xml:space="preserve" font-family="Verdana" font-size="29.0" fill="#000000" transform="matrix(1.00, 0.00, -0.00, -1.00, 551.2, 437.0)">i</text><text xml:space="preserve" font-family="Verdana" font-size="29.0" fill="#000000" transform="matrix(1.00, 0.00, -0.00, -1.00, 559.1, 437.0)">s</text><text xml:space="preserve" font-family="Verdana" font-size="29.0" fill="#000000" transform="matrix(1.00, 0.00, -0.00, -1.00, 574.2, 437.0)">/</text><text xml:space="preserve" font-family="Verdana" font-size="29.0" fill="#000000" transform="matrix(1.00, 0.00, -0.00, -1.00, 587.4, 437.0)">b</text><text xml:space="preserve" font-family="Verdana" font-size="29.0" fill="#000000" transform="matrix(1.00, 0.00, -0.00, -1.00, 605.5, 437.0)">e</text><text xml:space="preserve" font-family="Verdana" font-size="29.0" fill="#000000" transform="matrix(1.00, 0.00, -0.00, -1.00, 622.7, 437.0)">h</text><text xml:space="preserve" font-family="Verdana" font-size="29.0" fill="#000000" transform="matrix(1.00, 0.00, -0.00, -1.00, 641.1, 437.0)">a</text><text xml:space="preserve" font-family="Verdana" font-size="29.0" fill="#000000" transform="matrix(1.00, 0.00, -0.00, -1.00, 658.3, 437.0)">v</text><text xml:space="preserve" font-family="Verdana" font-size="29.0" fill="#000000" transform="matrix(1.00, 0.00, -0.00, -1.00, 675.4, 437.0)">i</text><text xml:space="preserve" font-family="Verdana" font-size="29.0" fill="#000000" transform="matrix(1.00, 0.00, -0.00, -1.00, 683.4, 437.0)">o</text><text xml:space="preserve" font-family="Verdana" font-size="29.0" fill="#000000" transform="matrix(1.00, 0.00, -0.00, -1.00, 701.0, 437.0)">r</text><text xml:space="preserve" font-family="Verdana" font-size="29.0" fill="#000000" transform="matrix(1.00, 0.00, -0.00, -1.00, 712.8, 437.0)">a</text><text xml:space="preserve" font-family="Verdana" font-size="29.0" fill="#000000" transform="matrix(1.00, 0.00, -0.00, -1.00, 730.3, 437.0)">l</text><text xml:space="preserve" font-family="Verdana" font-size="29.0" fill="#000000" transform="matrix(1.00, 0.00, -0.00, -1.00, 738.3, 437.0)"> </text><g><clipPath id="clip-660"><path d="M 166.4 432.2 L 738.6 432.2 L 738.6 435.9 L 166.4 435.9 Z M 166.4 432.2 "></path></clipPath><g clip-path="url(#clip-660)"><path d="M 35.1 74.5 L 606.4 74.5 " fill="none" stroke="#000000" stroke-width="1.70" stroke-miterlimit="0.00" transform="matrix(1.00, 0.00, 0.00, -1.00, 132.3, 508.5)"></path></g></g><text xml:space="preserve" font-family="Verdana" font-size="21.8" fill="#000000" transform="matrix(1.00, 0.00, -0.00, -1.00, 136.3, 404.1)">-</text><text xml:space="preserve" font-family="Verdana" font-size="29.0" fill="#000000" transform="matrix(1.00, 0.00, -0.00, -1.00, 167.0, 402.0)">h</text><text xml:space="preserve" font-family="Verdana" font-size="29.0" fill="#000000" transform="matrix(1.00, 0.00, -0.00, -1.00, 185.3, 402.0)">t</text><text xml:space="preserve" font-family="Verdana" font-size="29.0" fill="#000000" transform="matrix(1.00, 0.00, -0.00, -1.00, 196.8, 402.0)">t</text><text xml:space="preserve" font-family="Verdana" font-size="29.0" fill="#000000" transform="matrix(1.00, 0.00, -0.00, -1.00, 208.2, 402.0)">p</text><text xml:space="preserve" font-family="Verdana" font-size="29.0" fill="#000000" transform="matrix(1.00, 0.00, -0.00, -1.00, 226.3, 402.0)">s</text><text xml:space="preserve" font-family="Verdana" font-size="29.0" fill="#000000" transform="matrix(1.00, 0.00, -0.00, -1.00, 241.4, 402.0)">:</text><text xml:space="preserve" font-family="Verdana" font-size="29.0" fill="#000000" transform="matrix(1.00, 0.00, -0.00, -1.00, 254.5, 402.0)">/</text><text xml:space="preserve" font-family="Verdana" font-size="29.0" fill="#000000" transform="matrix(1.00, 0.00, -0.00, -1.00, 267.7, 402.0)">/</text><text xml:space="preserve" font-family="Verdana" font-size="29.0" fill="#000000" transform="matrix(1.00, 0.00, -0.00, -1.00, 280.9, 402.0)">g</text><text xml:space="preserve" font-family="Verdana" font-size="29.0" fill="#000000" transform="matrix(1.00, 0.00, -0.00, -1.00, 299.0, 402.0)">i</text><text xml:space="preserve" font-family="Verdana" font-size="29.0" fill="#000000" transform="matrix(1.00, 0.00, -0.00, -1.00, 306.9, 402.0)">t</text><text xml:space="preserve" font-family="Verdana" font-size="29.0" fill="#000000" transform="matrix(1.00, 0.00, -0.00, -1.00, 318.4, 402.0)">h</text><text xml:space="preserve" font-family="Verdana" font-size="29.0" fill="#000000" transform="matrix(1.00, 0.00, -0.00, -1.00, 336.7, 402.0)">u</text><text xml:space="preserve" font-family="Verdana" font-size="29.0" fill="#000000" transform="matrix(1.00, 0.00, -0.00, -1.00, 355.0, 402.0)">b</text><text xml:space="preserve" font-family="Verdana" font-size="29.0" fill="#000000" transform="matrix(1.00, 0.00, -0.00, -1.00, 372.8, 402.0)">.</text><text xml:space="preserve" font-family="Verdana" font-size="29.0" fill="#000000" transform="matrix(1.00, 0.00, -0.00, -1.00, 383.4, 402.0)">c</text><text xml:space="preserve" font-family="Verdana" font-size="29.0" fill="#000000" transform="matrix(1.00, 0.00, -0.00, -1.00, 398.5, 402.0)">o</text><text xml:space="preserve" font-family="Verdana" font-size="29.0" fill="#000000" transform="matrix(1.00, 0.00, -0.00, -1.00, 416.1, 402.0)">m</text><text xml:space="preserve" font-family="Verdana" font-size="29.0" fill="#000000" transform="matrix(1.00, 0.00, -0.00, -1.00, 444.3, 402.0)">/</text><text xml:space="preserve" font-family="Verdana" font-size="29.0" fill="#000000" transform="matrix(1.00, 0.00, -0.00, -1.00, 457.5, 402.0)">l</text><text xml:space="preserve" font-family="Verdana" font-size="29.0" fill="#000000" transform="matrix(1.00, 0.00, -0.00, -1.00, 465.4, 402.0)">m</text><text xml:space="preserve" font-family="Verdana" font-size="29.0" fill="#000000" transform="matrix(1.00, 0.00, -0.00, -1.00, 493.6, 402.0)">a</text><text xml:space="preserve" font-family="Verdana" font-size="29.0" fill="#000000" transform="matrix(1.00, 0.00, -0.00, -1.00, 511.0, 402.0)">t</text><text xml:space="preserve" font-family="Verdana" font-size="29.0" fill="#000000" transform="matrix(1.00, 0.00, -0.00, -1.00, 522.5, 402.0)">t</text><text xml:space="preserve" font-family="Verdana" font-size="29.0" fill="#000000" transform="matrix(1.00, 0.00, -0.00, -1.00, 533.9, 402.0)">e</text><text xml:space="preserve" font-family="Verdana" font-size="29.0" fill="#000000" transform="matrix(1.00, 0.00, -0.00, -1.00, 551.2, 402.0)">i</text><text xml:space="preserve" font-family="Verdana" font-size="29.0" fill="#000000" transform="matrix(1.00, 0.00, -0.00, -1.00, 559.1, 402.0)">s</text><text xml:space="preserve" font-family="Verdana" font-size="29.0" fill="#000000" transform="matrix(1.00, 0.00, -0.00, -1.00, 574.2, 402.0)">/</text><text xml:space="preserve" font-family="Verdana" font-size="29.0" fill="#000000" transform="matrix(1.00, 0.00, -0.00, -1.00, 587.4, 402.0)">r</text><text xml:space="preserve" font-family="Verdana" font-size="29.0" fill="#000000" transform="matrix(1.00, 0.00, -0.00, -1.00, 599.8, 402.0)">e</text><text xml:space="preserve" font-family="Verdana" font-size="29.0" fill="#000000" transform="matrix(1.00, 0.00, -0.00, -1.00, 617.0, 402.0)">a</text><text xml:space="preserve" font-family="Verdana" font-size="29.0" fill="#000000" transform="matrix(1.00, 0.00, -0.00, -1.00, 634.4, 402.0)">c</text><text xml:space="preserve" font-family="Verdana" font-size="29.0" fill="#000000" transform="matrix(1.00, 0.00, -0.00, -1.00, 649.6, 402.0)">t</text><text xml:space="preserve" font-family="Verdana" font-size="29.0" fill="#000000" transform="matrix(1.00, 0.00, -0.00, -1.00, 660.4, 402.0)">-</text><text xml:space="preserve" font-family="Verdana" font-size="29.0" fill="#000000" transform="matrix(1.00, 0.00, -0.00, -1.00, 673.6, 402.0)">b</text><text xml:space="preserve" font-family="Verdana" font-size="29.0" fill="#000000" transform="matrix(1.00, 0.00, -0.00, -1.00, 691.7, 402.0)">e</text><text xml:space="preserve" font-family="Verdana" font-size="29.0" fill="#000000" transform="matrix(1.00, 0.00, -0.00, -1.00, 708.9, 402.0)">h</text><text xml:space="preserve" font-family="Verdana" font-size="29.0" fill="#000000" transform="matrix(1.00, 0.00, -0.00, -1.00, 727.3, 402.0)">a</text><text xml:space="preserve" font-family="Verdana" font-size="29.0" fill="#000000" transform="matrix(1.00, 0.00, -0.00, -1.00, 744.4, 402.0)">v</text><text xml:space="preserve" font-family="Verdana" font-size="29.0" fill="#000000" transform="matrix(1.00, 0.00, -0.00, -1.00, 761.6, 402.0)">i</text><text xml:space="preserve" font-family="Verdana" font-size="29.0" fill="#000000" transform="matrix(1.00, 0.00, -0.00, -1.00, 769.6, 402.0)">o</text><text xml:space="preserve" font-family="Verdana" font-size="29.0" fill="#000000" transform="matrix(1.00, 0.00, -0.00, -1.00, 787.2, 402.0)">r</text><text xml:space="preserve" font-family="Verdana" font-size="29.0" fill="#000000" transform="matrix(1.00, 0.00, -0.00, -1.00, 799.0, 402.0)">a</text><text xml:space="preserve" font-family="Verdana" font-size="29.0" fill="#000000" transform="matrix(1.00, 0.00, -0.00, -1.00, 816.4, 402.0)">l</text><text xml:space="preserve" font-family="Verdana" font-size="29.0" fill="#000000" transform="matrix(1.00, 0.00, -0.00, -1.00, 824.5, 402.0)"> </text><g><clipPath id="clip-661"><path d="M 166.4 397.2 L 824.8 397.2 L 824.8 400.9 L 166.4 400.9 Z M 166.4 397.2 "></path></clipPath><g clip-path="url(#clip-661)"><path d="M 35.1 109.5 L 692.6 109.5 " fill="none" stroke="#000000" stroke-width="1.70" stroke-miterlimit="0.00" transform="matrix(1.00, 0.00, 0.00, -1.00, 132.3, 508.5)"></path></g></g><text xml:space="preserve" font-family="Verdana" font-size="21.8" fill="#000000" transform="matrix(1.00, 0.00, -0.00, -1.00, 136.3, 369.1)">-</text><text xml:space="preserve" font-family="Verdana" font-size="29.0" fill="#000000" transform="matrix(1.00, 0.00, -0.00, -1.00, 167.0, 367.0)">h</text><text xml:space="preserve" font-family="Verdana" font-size="29.0" fill="#000000" transform="matrix(1.00, 0.00, -0.00, -1.00, 185.3, 367.0)">t</text><text xml:space="preserve" font-family="Verdana" font-size="29.0" fill="#000000" transform="matrix(1.00, 0.00, -0.00, -1.00, 196.8, 367.0)">t</text><text xml:space="preserve" font-family="Verdana" font-size="29.0" fill="#000000" transform="matrix(1.00, 0.00, -0.00, -1.00, 208.2, 367.0)">p</text><text xml:space="preserve" font-family="Verdana" font-size="29.0" fill="#000000" transform="matrix(1.00, 0.00, -0.00, -1.00, 226.3, 367.0)">s</text><text xml:space="preserve" font-family="Verdana" font-size="29.0" fill="#000000" transform="matrix(1.00, 0.00, -0.00, -1.00, 241.4, 367.0)">:</text><text xml:space="preserve" font-family="Verdana" font-size="29.0" fill="#000000" transform="matrix(1.00, 0.00, -0.00, -1.00, 254.5, 367.0)">/</text><text xml:space="preserve" font-family="Verdana" font-size="29.0" fill="#000000" transform="matrix(1.00, 0.00, -0.00, -1.00, 267.7, 367.0)">/</text><text xml:space="preserve" font-family="Verdana" font-size="29.0" fill="#000000" transform="matrix(1.00, 0.00, -0.00, -1.00, 280.9, 367.0)">g</text><text xml:space="preserve" font-family="Verdana" font-size="29.0" fill="#000000" transform="matrix(1.00, 0.00, -0.00, -1.00, 299.0, 367.0)">i</text><text xml:space="preserve" font-family="Verdana" font-size="29.0" fill="#000000" transform="matrix(1.00, 0.00, -0.00, -1.00, 306.9, 367.0)">t</text><text xml:space="preserve" font-family="Verdana" font-size="29.0" fill="#000000" transform="matrix(1.00, 0.00, -0.00, -1.00, 318.4, 367.0)">h</text><text xml:space="preserve" font-family="Verdana" font-size="29.0" fill="#000000" transform="matrix(1.00, 0.00, -0.00, -1.00, 336.7, 367.0)">u</text><text xml:space="preserve" font-family="Verdana" font-size="29.0" fill="#000000" transform="matrix(1.00, 0.00, -0.00, -1.00, 355.0, 367.0)">b</text><text xml:space="preserve" font-family="Verdana" font-size="29.0" fill="#000000" transform="matrix(1.00, 0.00, -0.00, -1.00, 372.8, 367.0)">.</text><text xml:space="preserve" font-family="Verdana" font-size="29.0" fill="#000000" transform="matrix(1.00, 0.00, -0.00, -1.00, 383.4, 367.0)">c</text><text xml:space="preserve" font-family="Verdana" font-size="29.0" fill="#000000" transform="matrix(1.00, 0.00, -0.00, -1.00, 398.5, 367.0)">o</text><text xml:space="preserve" font-family="Verdana" font-size="29.0" fill="#000000" transform="matrix(1.00, 0.00, -0.00, -1.00, 416.1, 367.0)">m</text><text xml:space="preserve" font-family="Verdana" font-size="29.0" fill="#000000" transform="matrix(1.00, 0.00, -0.00, -1.00, 444.3, 367.0)">/</text><text xml:space="preserve" font-family="Verdana" font-size="29.0" fill="#000000" transform="matrix(1.00, 0.00, -0.00, -1.00, 457.5, 367.0)">l</text><text xml:space="preserve" font-family="Verdana" font-size="29.0" fill="#000000" transform="matrix(1.00, 0.00, -0.00, -1.00, 465.4, 367.0)">m</text><text xml:space="preserve" font-family="Verdana" font-size="29.0" fill="#000000" transform="matrix(1.00, 0.00, -0.00, -1.00, 493.6, 367.0)">a</text><text xml:space="preserve" font-family="Verdana" font-size="29.0" fill="#000000" transform="matrix(1.00, 0.00, -0.00, -1.00, 511.0, 367.0)">t</text><text xml:space="preserve" font-family="Verdana" font-size="29.0" fill="#000000" transform="matrix(1.00, 0.00, -0.00, -1.00, 522.5, 367.0)">t</text><text xml:space="preserve" font-family="Verdana" font-size="29.0" fill="#000000" transform="matrix(1.00, 0.00, -0.00, -1.00, 533.9, 367.0)">e</text><text xml:space="preserve" font-family="Verdana" font-size="29.0" fill="#000000" transform="matrix(1.00, 0.00, -0.00, -1.00, 551.2, 367.0)">i</text><text xml:space="preserve" font-family="Verdana" font-size="29.0" fill="#000000" transform="matrix(1.00, 0.00, -0.00, -1.00, 559.1, 367.0)">s</text><text xml:space="preserve" font-family="Verdana" font-size="29.0" fill="#000000" transform="matrix(1.00, 0.00, -0.00, -1.00, 574.2, 367.0)">/</text><text xml:space="preserve" font-family="Verdana" font-size="29.0" fill="#000000" transform="matrix(1.00, 0.00, -0.00, -1.00, 587.4, 367.0)">r</text><text xml:space="preserve" font-family="Verdana" font-size="29.0" fill="#000000" transform="matrix(1.00, 0.00, -0.00, -1.00, 599.8, 367.0)">e</text><text xml:space="preserve" font-family="Verdana" font-size="29.0" fill="#000000" transform="matrix(1.00, 0.00, -0.00, -1.00, 617.0, 367.0)">d</text><text xml:space="preserve" font-family="Verdana" font-size="29.0" fill="#000000" transform="matrix(1.00, 0.00, -0.00, -1.00, 635.1, 367.0)">u</text><text xml:space="preserve" font-family="Verdana" font-size="29.0" fill="#000000" transform="matrix(1.00, 0.00, -0.00, -1.00, 653.5, 367.0)">x</text><text xml:space="preserve" font-family="Verdana" font-size="29.0" fill="#000000" transform="matrix(1.00, 0.00, -0.00, -1.00, 669.9, 367.0)">-</text><text xml:space="preserve" font-family="Verdana" font-size="29.0" fill="#000000" transform="matrix(1.00, 0.00, -0.00, -1.00, 683.1, 367.0)">b</text><text xml:space="preserve" font-family="Verdana" font-size="29.0" fill="#000000" transform="matrix(1.00, 0.00, -0.00, -1.00, 701.1, 367.0)">e</text><text xml:space="preserve" font-family="Verdana" font-size="29.0" fill="#000000" transform="matrix(1.00, 0.00, -0.00, -1.00, 718.4, 367.0)">h</text><text xml:space="preserve" font-family="Verdana" font-size="29.0" fill="#000000" transform="matrix(1.00, 0.00, -0.00, -1.00, 736.8, 367.0)">a</text><text xml:space="preserve" font-family="Verdana" font-size="29.0" fill="#000000" transform="matrix(1.00, 0.00, -0.00, -1.00, 753.9, 367.0)">v</text><text xml:space="preserve" font-family="Verdana" font-size="29.0" fill="#000000" transform="matrix(1.00, 0.00, -0.00, -1.00, 771.1, 367.0)">i</text><text xml:space="preserve" font-family="Verdana" font-size="29.0" fill="#000000" transform="matrix(1.00, 0.00, -0.00, -1.00, 779.1, 367.0)">o</text><text xml:space="preserve" font-family="Verdana" font-size="29.0" fill="#000000" transform="matrix(1.00, 0.00, -0.00, -1.00, 796.7, 367.0)">r</text><text xml:space="preserve" font-family="Verdana" font-size="29.0" fill="#000000" transform="matrix(1.00, 0.00, -0.00, -1.00, 808.5, 367.0)">a</text><text xml:space="preserve" font-family="Verdana" font-size="29.0" fill="#000000" transform="matrix(1.00, 0.00, -0.00, -1.00, 825.9, 367.0)">l</text><text xml:space="preserve" font-family="Verdana" font-size="29.0" fill="#000000" transform="matrix(1.00, 0.00, -0.00, -1.00, 834.0, 367.0)"> </text><g><clipPath id="clip-662"><path d="M 166.4 362.2 L 834.3 362.2 L 834.3 365.9 L 166.4 365.9 Z M 166.4 362.2 "></path></clipPath><g clip-path="url(#clip-662)"><path d="M 35.1 144.5 L 702.1 144.5 " fill="none" stroke="#000000" stroke-width="1.70" stroke-miterlimit="0.00" transform="matrix(1.00, 0.00, 0.00, -1.00, 132.3, 508.5)"></path></g></g><text xml:space="preserve" font-family="Verdana" font-size="18.0" fill="#000000" transform="matrix(1.00, 0.00, -0.00, -1.00, 136.3, 299.8)">-</text><text xml:space="preserve" font-family="Verdana" font-size="24.0" fill="#000000" transform="matrix(1.00, 0.00, -0.00, -1.00, 167.0, 298.0)">H</text><text xml:space="preserve" font-family="Verdana" font-size="24.0" fill="#000000" transform="matrix(1.00, 0.00, -0.00, -1.00, 185.0, 298.0)">a</text><text xml:space="preserve" font-family="Verdana" font-size="24.0" fill="#000000" transform="matrix(1.00, 0.00, -0.00, -1.00, 199.5, 298.0)">r</text><text xml:space="preserve" font-family="Verdana" font-size="24.0" fill="#000000" transform="matrix(1.00, 0.00, -0.00, -1.00, 209.7, 298.0)">e</text><text xml:space="preserve" font-family="Verdana" font-size="24.0" fill="#000000" transform="matrix(1.00, 0.00, -0.00, -1.00, 224.0, 298.0)">l</text><text xml:space="preserve" font-family="Verdana" font-size="24.0" fill="#000000" transform="matrix(1.00, 0.00, -0.00, -1.00, 230.6, 298.0)">,</text><text xml:space="preserve" font-family="Verdana" font-size="24.0" fill="#000000" transform="matrix(1.00, 0.00, -0.00, -1.00, 239.3, 298.0)"> </text><text xml:space="preserve" font-family="Verdana" font-size="24.0" fill="#000000" transform="matrix(1.00, 0.00, -0.00, -1.00, 247.7, 298.0)">D</text><text xml:space="preserve" font-family="Verdana" font-size="24.0" fill="#000000" transform="matrix(1.00, 0.00, -0.00, -1.00, 266.2, 298.0)">a</text><text xml:space="preserve" font-family="Verdana" font-size="24.0" fill="#000000" transform="matrix(1.00, 0.00, -0.00, -1.00, 280.4, 298.0)">v</text><text xml:space="preserve" font-family="Verdana" font-size="24.0" fill="#000000" transform="matrix(1.00, 0.00, -0.00, -1.00, 294.6, 298.0)">i</text><text xml:space="preserve" font-family="Verdana" font-size="24.0" fill="#000000" transform="matrix(1.00, 0.00, -0.00, -1.00, 301.2, 298.0)">d</text><text xml:space="preserve" font-family="Verdana" font-size="24.0" fill="#000000" transform="matrix(1.00, 0.00, -0.00, -1.00, 316.2, 298.0)">,</text><text xml:space="preserve" font-family="Verdana" font-size="24.0" fill="#000000" transform="matrix(1.00, 0.00, -0.00, -1.00, 324.9, 298.0)"> </text><text xml:space="preserve" font-family="Verdana" font-size="24.0" fill="#000000" transform="matrix(1.00, 0.00, -0.00, -1.00, 333.3, 298.0)">A</text><text xml:space="preserve" font-family="Verdana" font-size="24.0" fill="#000000" transform="matrix(1.00, 0.00, -0.00, -1.00, 349.7, 298.0)">s</text><text xml:space="preserve" font-family="Verdana" font-size="24.0" fill="#000000" transform="matrix(1.00, 0.00, -0.00, -1.00, 362.2, 298.0)">s</text><text xml:space="preserve" font-family="Verdana" font-size="24.0" fill="#000000" transform="matrix(1.00, 0.00, -0.00, -1.00, 374.7, 298.0)">a</text><text xml:space="preserve" font-family="Verdana" font-size="24.0" fill="#000000" transform="matrix(1.00, 0.00, -0.00, -1.00, 389.1, 298.0)">f</text><text xml:space="preserve" font-family="Verdana" font-size="24.0" fill="#000000" transform="matrix(1.00, 0.00, -0.00, -1.00, 397.6, 298.0)"> </text><text xml:space="preserve" font-family="Verdana" font-size="24.0" fill="#000000" transform="matrix(1.00, 0.00, -0.00, -1.00, 406.0, 298.0)">M</text><text xml:space="preserve" font-family="Verdana" font-size="24.0" fill="#000000" transform="matrix(1.00, 0.00, -0.00, -1.00, 426.2, 298.0)">a</text><text xml:space="preserve" font-family="Verdana" font-size="24.0" fill="#000000" transform="matrix(1.00, 0.00, -0.00, -1.00, 440.6, 298.0)">r</text><text xml:space="preserve" font-family="Verdana" font-size="24.0" fill="#000000" transform="matrix(1.00, 0.00, -0.00, -1.00, 450.9, 298.0)">r</text><text xml:space="preserve" font-family="Verdana" font-size="24.0" fill="#000000" transform="matrix(1.00, 0.00, -0.00, -1.00, 461.1, 298.0)">o</text><text xml:space="preserve" font-family="Verdana" font-size="24.0" fill="#000000" transform="matrix(1.00, 0.00, -0.00, -1.00, 475.7, 298.0)">n</text><text xml:space="preserve" font-family="Verdana" font-size="24.0" fill="#000000" transform="matrix(1.00, 0.00, -0.00, -1.00, 490.8, 298.0)">,</text><text xml:space="preserve" font-family="Verdana" font-size="24.0" fill="#000000" transform="matrix(1.00, 0.00, -0.00, -1.00, 499.6, 298.0)"> </text><text xml:space="preserve" font-family="Verdana" font-size="24.0" fill="#000000" transform="matrix(1.00, 0.00, -0.00, -1.00, 508.0, 298.0)">a</text><text xml:space="preserve" font-family="Verdana" font-size="24.0" fill="#000000" transform="matrix(1.00, 0.00, -0.00, -1.00, 522.4, 298.0)">n</text><text xml:space="preserve" font-family="Verdana" font-size="24.0" fill="#000000" transform="matrix(1.00, 0.00, -0.00, -1.00, 537.6, 298.0)">d</text><text xml:space="preserve" font-family="Verdana" font-size="24.0" fill="#000000" transform="matrix(1.00, 0.00, -0.00, -1.00, 552.5, 298.0)"> </text><text xml:space="preserve" font-family="Verdana" font-size="24.0" fill="#000000" transform="matrix(1.00, 0.00, -0.00, -1.00, 561.0, 298.0)">G</text><text xml:space="preserve" font-family="Verdana" font-size="24.0" fill="#000000" transform="matrix(1.00, 0.00, -0.00, -1.00, 579.6, 298.0)">e</text><text xml:space="preserve" font-family="Verdana" font-size="24.0" fill="#000000" transform="matrix(1.00, 0.00, -0.00, -1.00, 593.9, 298.0)">r</text><text xml:space="preserve" font-family="Verdana" font-size="24.0" fill="#000000" transform="matrix(1.00, 0.00, -0.00, -1.00, 603.7, 298.0)">a</text><text xml:space="preserve" font-family="Verdana" font-size="24.0" fill="#000000" transform="matrix(1.00, 0.00, -0.00, -1.00, 618.1, 298.0)"> </text><text xml:space="preserve" font-family="Verdana" font-size="24.0" fill="#000000" transform="matrix(1.00, 0.00, -0.00, -1.00, 626.5, 298.0)">W</text><text xml:space="preserve" font-family="Verdana" font-size="24.0" fill="#000000" transform="matrix(1.00, 0.00, -0.00, -1.00, 649.1, 298.0)">e</text><text xml:space="preserve" font-family="Verdana" font-size="24.0" fill="#000000" transform="matrix(1.00, 0.00, -0.00, -1.00, 663.4, 298.0)">i</text><text xml:space="preserve" font-family="Verdana" font-size="24.0" fill="#000000" transform="matrix(1.00, 0.00, -0.00, -1.00, 670.0, 298.0)">s</text><text xml:space="preserve" font-family="Verdana" font-size="24.0" fill="#000000" transform="matrix(1.00, 0.00, -0.00, -1.00, 682.5, 298.0)">s</text><text xml:space="preserve" font-family="Verdana" font-size="24.0" fill="#000000" transform="matrix(1.00, 0.00, -0.00, -1.00, 695.0, 298.0)">.</text><text xml:space="preserve" font-family="Verdana" font-size="24.0" fill="#000000" transform="matrix(1.00, 0.00, -0.00, -1.00, 703.7, 298.0)"> </text><text xml:space="preserve" font-family="Verdana" font-size="24.0" fill="#000000" transform="matrix(1.00, 0.00, -0.00, -1.00, 712.1, 298.0)">"</text><text xml:space="preserve" font-family="Verdana" font-size="24.0" fill="#000000" transform="matrix(1.00, 0.00, -0.00, -1.00, 723.1, 298.0)">B</text><text xml:space="preserve" font-family="Verdana" font-size="24.0" fill="#000000" transform="matrix(1.00, 0.00, -0.00, -1.00, 739.6, 298.0)">e</text><text xml:space="preserve" font-family="Verdana" font-size="24.0" fill="#000000" transform="matrix(1.00, 0.00, -0.00, -1.00, 753.9, 298.0)">h</text><text xml:space="preserve" font-family="Verdana" font-size="24.0" fill="#000000" transform="matrix(1.00, 0.00, -0.00, -1.00, 769.0, 298.0)">a</text><text xml:space="preserve" font-family="Verdana" font-size="24.0" fill="#000000" transform="matrix(1.00, 0.00, -0.00, -1.00, 783.3, 298.0)">v</text><text xml:space="preserve" font-family="Verdana" font-size="24.0" fill="#000000" transform="matrix(1.00, 0.00, -0.00, -1.00, 797.5, 298.0)">i</text><text xml:space="preserve" font-family="Verdana" font-size="24.0" fill="#000000" transform="matrix(1.00, 0.00, -0.00, -1.00, 804.1, 298.0)">o</text><text xml:space="preserve" font-family="Verdana" font-size="24.0" fill="#000000" transform="matrix(1.00, 0.00, -0.00, -1.00, 818.6, 298.0)">r</text><text xml:space="preserve" font-family="Verdana" font-size="24.0" fill="#000000" transform="matrix(1.00, 0.00, -0.00, -1.00, 828.4, 298.0)">a</text><text xml:space="preserve" font-family="Verdana" font-size="24.0" fill="#000000" transform="matrix(1.00, 0.00, -0.00, -1.00, 842.8, 298.0)">l</text><text xml:space="preserve" font-family="Verdana" font-size="24.0" fill="#000000" transform="matrix(1.00, 0.00, -0.00, -1.00, 849.4, 298.0)"> </text><text xml:space="preserve" font-family="Verdana" font-size="24.0" fill="#000000" transform="matrix(1.00, 0.00, -0.00, -1.00, 167.0, 269.0)">p</text><text xml:space="preserve" font-family="Verdana" font-size="24.0" fill="#000000" transform="matrix(1.00, 0.00, -0.00, -1.00, 182.0, 269.0)">r</text><text xml:space="preserve" font-family="Verdana" font-size="24.0" fill="#000000" transform="matrix(1.00, 0.00, -0.00, -1.00, 192.2, 269.0)">o</text><text xml:space="preserve" font-family="Verdana" font-size="24.0" fill="#000000" transform="matrix(1.00, 0.00, -0.00, -1.00, 206.8, 269.0)">g</text><text xml:space="preserve" font-family="Verdana" font-size="24.0" fill="#000000" transform="matrix(1.00, 0.00, -0.00, -1.00, 221.7, 269.0)">r</text><text xml:space="preserve" font-family="Verdana" font-size="24.0" fill="#000000" transform="matrix(1.00, 0.00, -0.00, -1.00, 231.5, 269.0)">a</text><text xml:space="preserve" font-family="Verdana" font-size="24.0" fill="#000000" transform="matrix(1.00, 0.00, -0.00, -1.00, 245.9, 269.0)">m</text><text xml:space="preserve" font-family="Verdana" font-size="24.0" fill="#000000" transform="matrix(1.00, 0.00, -0.00, -1.00, 269.3, 269.0)">m</text><text xml:space="preserve" font-family="Verdana" font-size="24.0" fill="#000000" transform="matrix(1.00, 0.00, -0.00, -1.00, 292.6, 269.0)">i</text><text xml:space="preserve" font-family="Verdana" font-size="24.0" fill="#000000" transform="matrix(1.00, 0.00, -0.00, -1.00, 299.2, 269.0)">n</text><text xml:space="preserve" font-family="Verdana" font-size="24.0" fill="#000000" transform="matrix(1.00, 0.00, -0.00, -1.00, 314.4, 269.0)">g</text><text xml:space="preserve" font-family="Verdana" font-size="24.0" fill="#000000" transform="matrix(1.00, 0.00, -0.00, -1.00, 329.3, 269.0)">.</text><text xml:space="preserve" font-family="Verdana" font-size="24.0" fill="#000000" transform="matrix(1.00, 0.00, -0.00, -1.00, 338.1, 269.0)">"</text><text xml:space="preserve" font-family="Verdana" font-size="24.0" fill="#000000" transform="matrix(1.00, 0.00, -0.00, -1.00, 349.1, 269.0)"> </text><text xml:space="preserve" font-family="Verdana" font-size="24.0" fill="#000000" transform="matrix(1.00, 0.00, -0.00, -1.00, 357.5, 269.0)">C</text><text xml:space="preserve" font-family="Verdana" font-size="24.0" fill="#000000" transform="matrix(1.00, 0.00, -0.00, -1.00, 374.3, 269.0)">o</text><text xml:space="preserve" font-family="Verdana" font-size="24.0" fill="#000000" transform="matrix(1.00, 0.00, -0.00, -1.00, 388.8, 269.0)">m</text><text xml:space="preserve" font-family="Verdana" font-size="24.0" fill="#000000" transform="matrix(1.00, 0.00, -0.00, -1.00, 412.2, 269.0)">m</text><text xml:space="preserve" font-family="Verdana" font-size="24.0" fill="#000000" transform="matrix(1.00, 0.00, -0.00, -1.00, 435.5, 269.0)">u</text><text xml:space="preserve" font-family="Verdana" font-size="24.0" fill="#000000" transform="matrix(1.00, 0.00, -0.00, -1.00, 450.7, 269.0)">n</text><text xml:space="preserve" font-family="Verdana" font-size="24.0" fill="#000000" transform="matrix(1.00, 0.00, -0.00, -1.00, 465.9, 269.0)">.</text><text xml:space="preserve" font-family="Verdana" font-size="24.0" fill="#000000" transform="matrix(1.00, 0.00, -0.00, -1.00, 474.6, 269.0)"> </text><text xml:space="preserve" font-family="Verdana" font-size="24.0" fill="#000000" transform="matrix(1.00, 0.00, -0.00, -1.00, 483.0, 269.0)">A</text><text xml:space="preserve" font-family="Verdana" font-size="24.0" fill="#000000" transform="matrix(1.00, 0.00, -0.00, -1.00, 499.4, 269.0)">C</text><text xml:space="preserve" font-family="Verdana" font-size="24.0" fill="#000000" transform="matrix(1.00, 0.00, -0.00, -1.00, 516.2, 269.0)">M</text><text xml:space="preserve" font-family="Verdana" font-size="24.0" fill="#000000" transform="matrix(1.00, 0.00, -0.00, -1.00, 536.4, 269.0)"> </text><text xml:space="preserve" font-family="Verdana" font-size="24.0" fill="#000000" transform="matrix(1.00, 0.00, -0.00, -1.00, 544.8, 269.0)">5</text><text xml:space="preserve" font-family="Verdana" font-size="24.0" fill="#000000" transform="matrix(1.00, 0.00, -0.00, -1.00, 560.1, 269.0)">5</text><text xml:space="preserve" font-family="Verdana" font-size="24.0" fill="#000000" transform="matrix(1.00, 0.00, -0.00, -1.00, 575.3, 269.0)">.</text><text xml:space="preserve" font-family="Verdana" font-size="24.0" fill="#000000" transform="matrix(1.00, 0.00, -0.00, -1.00, 584.1, 269.0)">7</text><text xml:space="preserve" font-family="Verdana" font-size="24.0" fill="#000000" transform="matrix(1.00, 0.00, -0.00, -1.00, 599.3, 269.0)"> </text><text xml:space="preserve" font-family="Verdana" font-size="24.0" fill="#000000" transform="matrix(1.00, 0.00, -0.00, -1.00, 607.7, 269.0)">(</text><text xml:space="preserve" font-family="Verdana" font-size="24.0" fill="#000000" transform="matrix(1.00, 0.00, -0.00, -1.00, 618.6, 269.0)">2</text><text xml:space="preserve" font-family="Verdana" font-size="24.0" fill="#000000" transform="matrix(1.00, 0.00, -0.00, -1.00, 633.9, 269.0)">0</text><text xml:space="preserve" font-family="Verdana" font-size="24.0" fill="#000000" transform="matrix(1.00, 0.00, -0.00, -1.00, 649.1, 269.0)">1</text><text xml:space="preserve" font-family="Verdana" font-size="24.0" fill="#000000" transform="matrix(1.00, 0.00, -0.00, -1.00, 664.4, 269.0)">2</text><text xml:space="preserve" font-family="Verdana" font-size="24.0" fill="#000000" transform="matrix(1.00, 0.00, -0.00, -1.00, 679.6, 269.0)">)</text><text xml:space="preserve" font-family="Verdana" font-size="24.0" fill="#000000" transform="matrix(1.00, 0.00, -0.00, -1.00, 690.5, 269.0)">:</text><text xml:space="preserve" font-family="Verdana" font-size="24.0" fill="#000000" transform="matrix(1.00, 0.00, -0.00, -1.00, 701.4, 269.0)"> </text><text xml:space="preserve" font-family="Verdana" font-size="24.0" fill="#000000" transform="matrix(1.00, 0.00, -0.00, -1.00, 709.9, 269.0)">9</text><text xml:space="preserve" font-family="Verdana" font-size="24.0" fill="#000000" transform="matrix(1.00, 0.00, -0.00, -1.00, 725.1, 269.0)">0</text><text xml:space="preserve" font-family="Verdana" font-size="24.0" fill="#000000" transform="matrix(1.00, 0.00, -0.00, -1.00, 740.4, 269.0)">-</text><text xml:space="preserve" font-family="Verdana" font-size="24.0" fill="#000000" transform="matrix(1.00, 0.00, -0.00, -1.00, 751.3, 269.0)">1</text><text xml:space="preserve" font-family="Verdana" font-size="24.0" fill="#000000" transform="matrix(1.00, 0.00, -0.00, -1.00, 766.5, 269.0)">0</text><text xml:space="preserve" font-family="Verdana" font-size="24.0" fill="#000000" transform="matrix(1.00, 0.00, -0.00, -1.00, 781.8, 269.0)">0</text><text xml:space="preserve" font-family="Verdana" font-size="24.0" fill="#000000" transform="matrix(1.00, 0.00, -0.00, -1.00, 797.0, 269.0)">.</text></g></svg>