<?xml version="1.0" encoding="UTF-8" standalone="no"?><svg xmlns="http://www.w3.org/2000/svg" xmlns:xlink="http://www.w3.org/1999/xlink" clip-rule="evenodd" stroke-miterlimit="4.00" viewBox="0 0 117 84"><desc>SVG generated by Keynote</desc><defs></defs><g transform="matrix(1.00, 0.00, -0.00, -1.00, 0.0, 84.0)"><g><clipPath id="clip-29"><path d="M 26.5 57.0 L 104.4 57.0 L 104.4 83.3 L 26.5 83.3 Z M 26.5 57.0 "></path></clipPath><g clip-path="url(#clip-29)"><path d="M 27.5 82.3 L 103.4 82.3 L 103.4 58.0 L 27.5 58.0 Z M 27.5 82.3 " fill="#FEA46F"></path></g></g><g><clipPath id="clip-30"><path d="M 0.9 29.1 L 116.9 29.1 L 116.9 55.4 L 0.9 55.4 Z M 0.9 29.1 "></path></clipPath><g clip-path="url(#clip-30)"><path d="M 1.9 54.4 L 115.9 54.4 L 115.9 30.1 L 1.9 30.1 Z M 1.9 54.4 " fill="#FEA46F"></path></g></g><g><clipPath id="clip-31"><path d="M 32.5 0.1 L 100.2 0.1 L 100.2 26.5 L 32.5 26.5 Z M 32.5 0.1 "></path></clipPath><g clip-path="url(#clip-31)"><path d="M 33.5 25.5 L 99.2 25.5 L 99.2 1.1 L 33.5 1.1 Z M 33.5 25.5 " fill="#FEA46F"></path></g></g></g></svg>