<?xml version="1.0" encoding="UTF-8" standalone="no"?><svg xmlns="http://www.w3.org/2000/svg" xmlns:xlink="http://www.w3.org/1999/xlink" clip-rule="evenodd" stroke-miterlimit="4.00" viewBox="0 0 89 84"><desc>SVG generated by Keynote</desc><defs></defs><g transform="matrix(1.00, 0.00, -0.00, -1.00, 0.0, 84.0)"><g><clipPath id="clip-20"><path d="M 0.8 58.8 L 84.4 58.8 L 84.4 83.3 L 0.8 83.3 Z M 0.8 58.8 "></path></clipPath><g clip-path="url(#clip-20)"><path d="M 1.8 82.3 L 83.4 82.3 L 83.4 59.8 L 1.8 59.8 Z M 1.8 82.3 " fill="#00A0FD"></path></g></g><g><clipPath id="clip-21"><path d="M 19.2 26.9 L 66.0 26.9 L 66.0 51.5 L 19.2 51.5 Z M 19.2 26.9 "></path></clipPath><g clip-path="url(#clip-21)"><path d="M 20.2 50.5 L 65.0 50.5 L 65.0 27.9 L 20.2 27.9 Z M 20.2 50.5 " fill="#00A0FD"></path></g></g><g><clipPath id="clip-22"><path d="M 10.8 0.1 L 71.0 0.1 L 71.0 24.7 L 10.8 24.7 Z M 10.8 0.1 "></path></clipPath><g clip-path="url(#clip-22)"><path d="M 11.8 23.7 L 70.0 23.7 L 70.0 1.1 L 11.8 1.1 Z M 11.8 23.7 " fill="#00A0FD"></path></g></g><g><clipPath id="clip-23"><path d="M 70.2 26.9 L 88.4 26.9 L 88.4 51.5 L 70.2 51.5 Z M 70.2 26.9 "></path></clipPath><g clip-path="url(#clip-23)"><path d="M 71.2 50.5 L 87.4 50.5 L 87.4 27.9 L 71.2 27.9 Z M 71.2 50.5 " fill="#00A0FD"></path></g></g></g></svg>