<?xml version="1.0" encoding="UTF-8" standalone="no"?><svg xmlns="http://www.w3.org/2000/svg" xmlns:xlink="http://www.w3.org/1999/xlink" clip-rule="evenodd" stroke-miterlimit="4.00" viewBox="0 0 1024 768"><desc>SVG generated by Keynote</desc><defs></defs><g transform="matrix(1.00, 0.00, -0.00, -1.00, 0.0, 768.0)"><path d="M 0.0 768.0 L 1024.0 768.0 L 1024.0 0.0 L 0.0 0.0 Z M 0.0 768.0 " fill="#FEFFFF"></path><image xlink:href="3205A68A5606273045D71357947AAE09.jpeg" width="365.00" height="365.00" transform="matrix(1.33, 0.00, -0.00, -1.34, 0.0, 666.0)"></image><text xml:space="preserve" font-family="Verdana" font-size="36.0" fill="#000000" transform="matrix(1.00, 0.00, -0.00, -1.00, 621.0, 634.0)">E</text><text xml:space="preserve" font-family="Verdana" font-size="36.0" fill="#000000" transform="matrix(1.00, 0.00, -0.00, -1.00, 643.8, 634.0)">v</text><text xml:space="preserve" font-family="Verdana" font-size="36.0" fill="#000000" transform="matrix(1.00, 0.00, -0.00, -1.00, 664.8, 634.0)">e</text><text xml:space="preserve" font-family="Verdana" font-size="36.0" fill="#000000" transform="matrix(1.00, 0.00, -0.00, -1.00, 686.2, 634.0)">n</text><text xml:space="preserve" font-family="Verdana" font-size="36.0" fill="#000000" transform="matrix(1.00, 0.00, -0.00, -1.00, 709.0, 634.0)">t</text><text xml:space="preserve" font-family="Verdana" font-size="36.0" fill="#000000" transform="matrix(1.00, 0.00, -0.00, -1.00, 723.1, 634.0)"> </text><text xml:space="preserve" font-family="Verdana" font-size="36.0" fill="#000000" transform="matrix(1.00, 0.00, -0.00, -1.00, 735.8, 634.0)">t</text><text xml:space="preserve" font-family="Verdana" font-size="36.0" fill="#000000" transform="matrix(1.00, 0.00, -0.00, -1.00, 750.0, 634.0)">r</text><text xml:space="preserve" font-family="Verdana" font-size="36.0" fill="#000000" transform="matrix(1.00, 0.00, -0.00, -1.00, 764.7, 634.0)">a</text><text xml:space="preserve" font-family="Verdana" font-size="36.0" fill="#000000" transform="matrix(1.00, 0.00, -0.00, -1.00, 786.3, 634.0)">c</text><text xml:space="preserve" font-family="Verdana" font-size="36.0" fill="#000000" transform="matrix(1.00, 0.00, -0.00, -1.00, 805.1, 634.0)">e</text><image xlink:href="582941E487C542CFE8A4086644F4A396.png" width="291.00" height="279.00" transform="matrix(-0.70, -0.72, -0.72, 0.70, 514.8, -172.0)"></image></g></svg>