<?xml version="1.0" encoding="UTF-8" standalone="no"?><svg xmlns="http://www.w3.org/2000/svg" xmlns:xlink="http://www.w3.org/1999/xlink" clip-rule="evenodd" stroke-miterlimit="4.00" viewBox="0 0 1024 768"><desc>SVG generated by Keynote</desc><defs></defs><g transform="matrix(1.00, 0.00, -0.00, -1.00, 0.0, 768.0)"><path d="M 0.0 768.0 L 1024.0 768.0 L 1024.0 0.0 L 0.0 0.0 Z M 0.0 768.0 " fill="#FEFFFF"></path><text xml:space="preserve" font-family="Consolas" font-size="20.0" fill="#000000" transform="matrix(1.00, 0.00, -0.00, -1.00, 28.0, 426.0)">w</text><text xml:space="preserve" font-family="Consolas" font-size="20.0" fill="#000000" transform="matrix(1.00, 0.00, -0.00, -1.00, 39.0, 426.0)">h</text><text xml:space="preserve" font-family="Consolas" font-size="20.0" fill="#000000" transform="matrix(1.00, 0.00, -0.00, -1.00, 50.0, 426.0)">i</text><text xml:space="preserve" font-family="Consolas" font-size="20.0" fill="#000000" transform="matrix(1.00, 0.00, -0.00, -1.00, 61.0, 426.0)">l</text><text xml:space="preserve" font-family="Consolas" font-size="20.0" fill="#000000" transform="matrix(1.00, 0.00, -0.00, -1.00, 72.0, 426.0)">e</text><text xml:space="preserve" font-family="Consolas" font-size="20.0" fill="#000000" transform="matrix(1.00, 0.00, -0.00, -1.00, 83.0, 426.0)">(</text><text xml:space="preserve" font-family="Consolas" font-size="20.0" fill="#000000" transform="matrix(1.00, 0.00, -0.00, -1.00, 94.0, 426.0)">t</text><text xml:space="preserve" font-family="Consolas" font-size="20.0" fill="#000000" transform="matrix(1.00, 0.00, -0.00, -1.00, 104.9, 426.0)">r</text><text xml:space="preserve" font-family="Consolas" font-size="20.0" fill="#000000" transform="matrix(1.00, 0.00, -0.00, -1.00, 115.9, 426.0)">u</text><text xml:space="preserve" font-family="Consolas" font-size="20.0" fill="#000000" transform="matrix(1.00, 0.00, -0.00, -1.00, 126.9, 426.0)">e</text><text xml:space="preserve" font-family="Consolas" font-size="20.0" fill="#000000" transform="matrix(1.00, 0.00, -0.00, -1.00, 137.9, 426.0)">)</text><text xml:space="preserve" font-family="Consolas" font-size="20.0" fill="#000000" transform="matrix(1.00, 0.00, -0.00, -1.00, 148.9, 426.0)"> </text><text xml:space="preserve" font-family="Consolas" font-size="20.0" fill="#000000" transform="matrix(1.00, 0.00, -0.00, -1.00, 159.9, 426.0)">{</text><text xml:space="preserve" font-family="Consolas" font-size="20.0" fill="#000000" transform="matrix(1.00, 0.00, -0.00, -1.00, 170.9, 426.0)"> </text><text xml:space="preserve" font-family="Consolas" font-size="20.0" fill="#000000" transform="matrix(1.00, 0.00, -0.00, -1.00, 28.0, 403.0)"> </text><text xml:space="preserve" font-family="Consolas" font-size="20.0" fill="#000000" transform="matrix(1.00, 0.00, -0.00, -1.00, 39.0, 403.0)"> </text><text xml:space="preserve" font-family="Consolas" font-size="20.0" fill="#000000" transform="matrix(1.00, 0.00, -0.00, -1.00, 50.0, 403.0)">y</text><text xml:space="preserve" font-family="Consolas" font-size="20.0" fill="#000000" transform="matrix(1.00, 0.00, -0.00, -1.00, 61.0, 403.0)">i</text><text xml:space="preserve" font-family="Consolas" font-size="20.0" fill="#000000" transform="matrix(1.00, 0.00, -0.00, -1.00, 72.0, 403.0)">e</text><text xml:space="preserve" font-family="Consolas" font-size="20.0" fill="#000000" transform="matrix(1.00, 0.00, -0.00, -1.00, 83.0, 403.0)">l</text><text xml:space="preserve" font-family="Consolas" font-size="20.0" fill="#000000" transform="matrix(1.00, 0.00, -0.00, -1.00, 94.0, 403.0)">d</text><text xml:space="preserve" font-family="Consolas" font-size="20.0" fill="#000000" transform="matrix(1.00, 0.00, -0.00, -1.00, 104.9, 403.0)"> </text><text xml:space="preserve" font-family="Consolas" font-size="20.0" fill="#000000" transform="matrix(1.00, 0.00, -0.00, -1.00, 115.9, 403.0)">{</text><text xml:space="preserve" font-family="Consolas" font-size="20.0" fill="#000000" transform="matrix(1.00, 0.00, -0.00, -1.00, 126.9, 403.0)"> </text><text xml:space="preserve" font-family="Consolas" font-size="20.0" fill="#00872A" transform="matrix(1.00, 0.00, -0.00, -1.00, 138.0, 403.0)">w</text><text xml:space="preserve" font-family="Consolas" font-size="20.0" fill="#00872A" transform="matrix(1.00, 0.00, -0.00, -1.00, 149.0, 403.0)">a</text><text xml:space="preserve" font-family="Consolas" font-size="20.0" fill="#00872A" transform="matrix(1.00, 0.00, -0.00, -1.00, 159.9, 403.0)">i</text><text xml:space="preserve" font-family="Consolas" font-size="20.0" fill="#00872A" transform="matrix(1.00, 0.00, -0.00, -1.00, 170.9, 403.0)">t</text><text xml:space="preserve" font-family="Consolas" font-size="20.0" fill="#000000" transform="matrix(1.00, 0.00, -0.00, -1.00, 181.9, 403.0)">:</text><text xml:space="preserve" font-family="Consolas" font-size="20.0" fill="#000000" transform="matrix(1.00, 0.00, -0.00, -1.00, 192.9, 403.0)"> </text><text xml:space="preserve" font-family="Consolas" font-size="20.0" fill="#000000" transform="matrix(1.00, 0.00, -0.00, -1.00, 203.9, 403.0)">'</text><text xml:space="preserve" font-family="Consolas" font-size="20.0" fill="#000000" transform="matrix(1.00, 0.00, -0.00, -1.00, 214.9, 403.0)">w</text><text xml:space="preserve" font-family="Consolas" font-size="20.0" fill="#000000" transform="matrix(1.00, 0.00, -0.00, -1.00, 225.9, 403.0)">a</text><text xml:space="preserve" font-family="Consolas" font-size="20.0" fill="#000000" transform="matrix(1.00, 0.00, -0.00, -1.00, 236.9, 403.0)">t</text><text xml:space="preserve" font-family="Consolas" font-size="20.0" fill="#000000" transform="matrix(1.00, 0.00, -0.00, -1.00, 247.9, 403.0)">e</text><text xml:space="preserve" font-family="Consolas" font-size="20.0" fill="#000000" transform="matrix(1.00, 0.00, -0.00, -1.00, 258.9, 403.0)">r</text><text xml:space="preserve" font-family="Consolas" font-size="20.0" fill="#000000" transform="matrix(1.00, 0.00, -0.00, -1.00, 269.9, 403.0)">L</text><text xml:space="preserve" font-family="Consolas" font-size="20.0" fill="#000000" transform="matrix(1.00, 0.00, -0.00, -1.00, 280.9, 403.0)">e</text><text xml:space="preserve" font-family="Consolas" font-size="20.0" fill="#000000" transform="matrix(1.00, 0.00, -0.00, -1.00, 291.9, 403.0)">v</text><text xml:space="preserve" font-family="Consolas" font-size="20.0" fill="#000000" transform="matrix(1.00, 0.00, -0.00, -1.00, 302.9, 403.0)">e</text><text xml:space="preserve" font-family="Consolas" font-size="20.0" fill="#000000" transform="matrix(1.00, 0.00, -0.00, -1.00, 313.9, 403.0)">l</text><text xml:space="preserve" font-family="Consolas" font-size="20.0" fill="#000000" transform="matrix(1.00, 0.00, -0.00, -1.00, 324.8, 403.0)">L</text><text xml:space="preserve" font-family="Consolas" font-size="20.0" fill="#000000" transform="matrix(1.00, 0.00, -0.00, -1.00, 335.8, 403.0)">o</text><text xml:space="preserve" font-family="Consolas" font-size="20.0" fill="#000000" transform="matrix(1.00, 0.00, -0.00, -1.00, 346.8, 403.0)">w</text><text xml:space="preserve" font-family="Consolas" font-size="20.0" fill="#000000" transform="matrix(1.00, 0.00, -0.00, -1.00, 357.8, 403.0)">'</text><text xml:space="preserve" font-family="Consolas" font-size="20.0" fill="#000000" transform="matrix(1.00, 0.00, -0.00, -1.00, 368.8, 403.0)"> </text><text xml:space="preserve" font-family="Consolas" font-size="20.0" fill="#000000" transform="matrix(1.00, 0.00, -0.00, -1.00, 379.8, 403.0)">}</text><text xml:space="preserve" font-family="Consolas" font-size="20.0" fill="#000000" transform="matrix(1.00, 0.00, -0.00, -1.00, 390.8, 403.0)"> </text><text xml:space="preserve" font-family="Consolas" font-size="20.0" fill="#000000" transform="matrix(1.00, 0.00, -0.00, -1.00, 28.0, 380.0)"> </text><text xml:space="preserve" font-family="Consolas" font-size="20.0" fill="#000000" transform="matrix(1.00, 0.00, -0.00, -1.00, 39.0, 380.0)"> </text><text xml:space="preserve" font-family="Consolas" font-size="20.0" fill="#000000" transform="matrix(1.00, 0.00, -0.00, -1.00, 50.0, 380.0)">y</text><text xml:space="preserve" font-family="Consolas" font-size="20.0" fill="#000000" transform="matrix(1.00, 0.00, -0.00, -1.00, 61.0, 380.0)">i</text><text xml:space="preserve" font-family="Consolas" font-size="20.0" fill="#000000" transform="matrix(1.00, 0.00, -0.00, -1.00, 72.0, 380.0)">e</text><text xml:space="preserve" font-family="Consolas" font-size="20.0" fill="#000000" transform="matrix(1.00, 0.00, -0.00, -1.00, 83.0, 380.0)">l</text><text xml:space="preserve" font-family="Consolas" font-size="20.0" fill="#000000" transform="matrix(1.00, 0.00, -0.00, -1.00, 94.0, 380.0)">d</text><text xml:space="preserve" font-family="Consolas" font-size="20.0" fill="#000000" transform="matrix(1.00, 0.00, -0.00, -1.00, 104.9, 380.0)"> </text><text xml:space="preserve" font-family="Consolas" font-size="20.0" fill="#000000" transform="matrix(1.00, 0.00, -0.00, -1.00, 115.9, 380.0)">{</text><text xml:space="preserve" font-family="Consolas" font-size="20.0" fill="#000000" transform="matrix(1.00, 0.00, -0.00, -1.00, 126.9, 380.0)"> </text><text xml:space="preserve" font-family="Consolas" font-size="20.0" fill="#0067DA" transform="matrix(1.00, 0.00, -0.00, -1.00, 138.0, 380.0)">r</text><text xml:space="preserve" font-family="Consolas" font-size="20.0" fill="#0067DA" transform="matrix(1.00, 0.00, -0.00, -1.00, 149.0, 380.0)">e</text><text xml:space="preserve" font-family="Consolas" font-size="20.0" fill="#0067DA" transform="matrix(1.00, 0.00, -0.00, -1.00, 159.9, 380.0)">q</text><text xml:space="preserve" font-family="Consolas" font-size="20.0" fill="#0067DA" transform="matrix(1.00, 0.00, -0.00, -1.00, 170.9, 380.0)">u</text><text xml:space="preserve" font-family="Consolas" font-size="20.0" fill="#0067DA" transform="matrix(1.00, 0.00, -0.00, -1.00, 181.9, 380.0)">e</text><text xml:space="preserve" font-family="Consolas" font-size="20.0" fill="#0067DA" transform="matrix(1.00, 0.00, -0.00, -1.00, 192.9, 380.0)">s</text><text xml:space="preserve" font-family="Consolas" font-size="20.0" fill="#0067DA" transform="matrix(1.00, 0.00, -0.00, -1.00, 203.9, 380.0)">t</text><text xml:space="preserve" font-family="Consolas" font-size="20.0" fill="#000000" transform="matrix(1.00, 0.00, -0.00, -1.00, 214.9, 380.0)">:</text><text xml:space="preserve" font-family="Consolas" font-size="20.0" fill="#000000" transform="matrix(1.00, 0.00, -0.00, -1.00, 225.9, 380.0)"> </text><text xml:space="preserve" font-family="Consolas" font-size="20.0" fill="#000000" transform="matrix(1.00, 0.00, -0.00, -1.00, 236.9, 380.0)">'</text><text xml:space="preserve" font-family="Consolas" font-size="20.0" fill="#000000" transform="matrix(1.00, 0.00, -0.00, -1.00, 247.9, 380.0)">a</text><text xml:space="preserve" font-family="Consolas" font-size="20.0" fill="#000000" transform="matrix(1.00, 0.00, -0.00, -1.00, 258.9, 380.0)">d</text><text xml:space="preserve" font-family="Consolas" font-size="20.0" fill="#000000" transform="matrix(1.00, 0.00, -0.00, -1.00, 269.9, 380.0)">d</text><text xml:space="preserve" font-family="Consolas" font-size="20.0" fill="#000000" transform="matrix(1.00, 0.00, -0.00, -1.00, 280.9, 380.0)">H</text><text xml:space="preserve" font-family="Consolas" font-size="20.0" fill="#000000" transform="matrix(1.00, 0.00, -0.00, -1.00, 291.9, 380.0)">o</text><text xml:space="preserve" font-family="Consolas" font-size="20.0" fill="#000000" transform="matrix(1.00, 0.00, -0.00, -1.00, 302.9, 380.0)">t</text><text xml:space="preserve" font-family="Consolas" font-size="20.0" fill="#000000" transform="matrix(1.00, 0.00, -0.00, -1.00, 313.9, 380.0)">'</text><text xml:space="preserve" font-family="Consolas" font-size="20.0" fill="#000000" transform="matrix(1.00, 0.00, -0.00, -1.00, 324.9, 380.0)"> </text><text xml:space="preserve" font-family="Consolas" font-size="20.0" fill="#000000" transform="matrix(1.00, 0.00, -0.00, -1.00, 335.8, 380.0)">}</text><text xml:space="preserve" font-family="Consolas" font-size="20.0" fill="#000000" transform="matrix(1.00, 0.00, -0.00, -1.00, 346.8, 380.0)"> </text><text xml:space="preserve" font-family="Consolas" font-size="20.0" fill="#000000" transform="matrix(1.00, 0.00, -0.00, -1.00, 28.0, 357.0)"> </text><text xml:space="preserve" font-family="Consolas" font-size="20.0" fill="#000000" transform="matrix(1.00, 0.00, -0.00, -1.00, 39.0, 357.0)"> </text><text xml:space="preserve" font-family="Consolas" font-size="20.0" fill="#000000" transform="matrix(1.00, 0.00, -0.00, -1.00, 50.0, 357.0)">y</text><text xml:space="preserve" font-family="Consolas" font-size="20.0" fill="#000000" transform="matrix(1.00, 0.00, -0.00, -1.00, 61.0, 357.0)">i</text><text xml:space="preserve" font-family="Consolas" font-size="20.0" fill="#000000" transform="matrix(1.00, 0.00, -0.00, -1.00, 72.0, 357.0)">e</text><text xml:space="preserve" font-family="Consolas" font-size="20.0" fill="#000000" transform="matrix(1.00, 0.00, -0.00, -1.00, 83.0, 357.0)">l</text><text xml:space="preserve" font-family="Consolas" font-size="20.0" fill="#000000" transform="matrix(1.00, 0.00, -0.00, -1.00, 94.0, 357.0)">d</text><text xml:space="preserve" font-family="Consolas" font-size="20.0" fill="#000000" transform="matrix(1.00, 0.00, -0.00, -1.00, 104.9, 357.0)"> </text><text xml:space="preserve" font-family="Consolas" font-size="20.0" fill="#000000" transform="matrix(1.00, 0.00, -0.00, -1.00, 115.9, 357.0)">{</text><text xml:space="preserve" font-family="Consolas" font-size="20.0" fill="#000000" transform="matrix(1.00, 0.00, -0.00, -1.00, 126.9, 357.0)"> </text><text xml:space="preserve" font-family="Consolas" font-size="20.0" fill="#0067DA" transform="matrix(1.00, 0.00, -0.00, -1.00, 138.0, 357.0)">r</text><text xml:space="preserve" font-family="Consolas" font-size="20.0" fill="#0067DA" transform="matrix(1.00, 0.00, -0.00, -1.00, 149.0, 357.0)">e</text><text xml:space="preserve" font-family="Consolas" font-size="20.0" fill="#0067DA" transform="matrix(1.00, 0.00, -0.00, -1.00, 159.9, 357.0)">q</text><text xml:space="preserve" font-family="Consolas" font-size="20.0" fill="#0067DA" transform="matrix(1.00, 0.00, -0.00, -1.00, 170.9, 357.0)">u</text><text xml:space="preserve" font-family="Consolas" font-size="20.0" fill="#0067DA" transform="matrix(1.00, 0.00, -0.00, -1.00, 181.9, 357.0)">e</text><text xml:space="preserve" font-family="Consolas" font-size="20.0" fill="#0067DA" transform="matrix(1.00, 0.00, -0.00, -1.00, 192.9, 357.0)">s</text><text xml:space="preserve" font-family="Consolas" font-size="20.0" fill="#0067DA" transform="matrix(1.00, 0.00, -0.00, -1.00, 203.9, 357.0)">t</text><text xml:space="preserve" font-family="Consolas" font-size="20.0" fill="#000000" transform="matrix(1.00, 0.00, -0.00, -1.00, 214.9, 357.0)">:</text><text xml:space="preserve" font-family="Consolas" font-size="20.0" fill="#000000" transform="matrix(1.00, 0.00, -0.00, -1.00, 225.9, 357.0)"> </text><text xml:space="preserve" font-family="Consolas" font-size="20.0" fill="#000000" transform="matrix(1.00, 0.00, -0.00, -1.00, 236.9, 357.0)">'</text><text xml:space="preserve" font-family="Consolas" font-size="20.0" fill="#000000" transform="matrix(1.00, 0.00, -0.00, -1.00, 247.9, 357.0)">a</text><text xml:space="preserve" font-family="Consolas" font-size="20.0" fill="#000000" transform="matrix(1.00, 0.00, -0.00, -1.00, 258.9, 357.0)">d</text><text xml:space="preserve" font-family="Consolas" font-size="20.0" fill="#000000" transform="matrix(1.00, 0.00, -0.00, -1.00, 269.9, 357.0)">d</text><text xml:space="preserve" font-family="Consolas" font-size="20.0" fill="#000000" transform="matrix(1.00, 0.00, -0.00, -1.00, 280.9, 357.0)">H</text><text xml:space="preserve" font-family="Consolas" font-size="20.0" fill="#000000" transform="matrix(1.00, 0.00, -0.00, -1.00, 291.9, 357.0)">o</text><text xml:space="preserve" font-family="Consolas" font-size="20.0" fill="#000000" transform="matrix(1.00, 0.00, -0.00, -1.00, 302.9, 357.0)">t</text><text xml:space="preserve" font-family="Consolas" font-size="20.0" fill="#000000" transform="matrix(1.00, 0.00, -0.00, -1.00, 313.9, 357.0)">'</text><text xml:space="preserve" font-family="Consolas" font-size="20.0" fill="#000000" transform="matrix(1.00, 0.00, -0.00, -1.00, 324.9, 357.0)"> </text><text xml:space="preserve" font-family="Consolas" font-size="20.0" fill="#000000" transform="matrix(1.00, 0.00, -0.00, -1.00, 335.8, 357.0)">}</text><text xml:space="preserve" font-family="Consolas" font-size="20.0" fill="#000000" transform="matrix(1.00, 0.00, -0.00, -1.00, 346.8, 357.0)"> </text><text xml:space="preserve" font-family="Consolas" font-size="20.0" fill="#000000" transform="matrix(1.00, 0.00, -0.00, -1.00, 28.0, 334.0)"> </text><text xml:space="preserve" font-family="Consolas" font-size="20.0" fill="#000000" transform="matrix(1.00, 0.00, -0.00, -1.00, 39.0, 334.0)"> </text><text xml:space="preserve" font-family="Consolas" font-size="20.0" fill="#000000" transform="matrix(1.00, 0.00, -0.00, -1.00, 50.0, 334.0)">y</text><text xml:space="preserve" font-family="Consolas" font-size="20.0" fill="#000000" transform="matrix(1.00, 0.00, -0.00, -1.00, 61.0, 334.0)">i</text><text xml:space="preserve" font-family="Consolas" font-size="20.0" fill="#000000" transform="matrix(1.00, 0.00, -0.00, -1.00, 72.0, 334.0)">e</text><text xml:space="preserve" font-family="Consolas" font-size="20.0" fill="#000000" transform="matrix(1.00, 0.00, -0.00, -1.00, 83.0, 334.0)">l</text><text xml:space="preserve" font-family="Consolas" font-size="20.0" fill="#000000" transform="matrix(1.00, 0.00, -0.00, -1.00, 94.0, 334.0)">d</text><text xml:space="preserve" font-family="Consolas" font-size="20.0" fill="#000000" transform="matrix(1.00, 0.00, -0.00, -1.00, 104.9, 334.0)"> </text><text xml:space="preserve" font-family="Consolas" font-size="20.0" fill="#000000" transform="matrix(1.00, 0.00, -0.00, -1.00, 115.9, 334.0)">{</text><text xml:space="preserve" font-family="Consolas" font-size="20.0" fill="#000000" transform="matrix(1.00, 0.00, -0.00, -1.00, 126.9, 334.0)"> </text><text xml:space="preserve" font-family="Consolas" font-size="20.0" fill="#0067DA" transform="matrix(1.00, 0.00, -0.00, -1.00, 138.0, 334.0)">r</text><text xml:space="preserve" font-family="Consolas" font-size="20.0" fill="#0067DA" transform="matrix(1.00, 0.00, -0.00, -1.00, 149.0, 334.0)">e</text><text xml:space="preserve" font-family="Consolas" font-size="20.0" fill="#0067DA" transform="matrix(1.00, 0.00, -0.00, -1.00, 159.9, 334.0)">q</text><text xml:space="preserve" font-family="Consolas" font-size="20.0" fill="#0067DA" transform="matrix(1.00, 0.00, -0.00, -1.00, 170.9, 334.0)">u</text><text xml:space="preserve" font-family="Consolas" font-size="20.0" fill="#0067DA" transform="matrix(1.00, 0.00, -0.00, -1.00, 181.9, 334.0)">e</text><text xml:space="preserve" font-family="Consolas" font-size="20.0" fill="#0067DA" transform="matrix(1.00, 0.00, -0.00, -1.00, 192.9, 334.0)">s</text><text xml:space="preserve" font-family="Consolas" font-size="20.0" fill="#0067DA" transform="matrix(1.00, 0.00, -0.00, -1.00, 203.9, 334.0)">t</text><text xml:space="preserve" font-family="Consolas" font-size="20.0" fill="#000000" transform="matrix(1.00, 0.00, -0.00, -1.00, 214.9, 334.0)">:</text><text xml:space="preserve" font-family="Consolas" font-size="20.0" fill="#000000" transform="matrix(1.00, 0.00, -0.00, -1.00, 225.9, 334.0)"> </text><text xml:space="preserve" font-family="Consolas" font-size="20.0" fill="#000000" transform="matrix(1.00, 0.00, -0.00, -1.00, 236.9, 334.0)">'</text><text xml:space="preserve" font-family="Consolas" font-size="20.0" fill="#000000" transform="matrix(1.00, 0.00, -0.00, -1.00, 247.9, 334.0)">a</text><text xml:space="preserve" font-family="Consolas" font-size="20.0" fill="#000000" transform="matrix(1.00, 0.00, -0.00, -1.00, 258.9, 334.0)">d</text><text xml:space="preserve" font-family="Consolas" font-size="20.0" fill="#000000" transform="matrix(1.00, 0.00, -0.00, -1.00, 269.9, 334.0)">d</text><text xml:space="preserve" font-family="Consolas" font-size="20.0" fill="#000000" transform="matrix(1.00, 0.00, -0.00, -1.00, 280.9, 334.0)">H</text><text xml:space="preserve" font-family="Consolas" font-size="20.0" fill="#000000" transform="matrix(1.00, 0.00, -0.00, -1.00, 291.9, 334.0)">o</text><text xml:space="preserve" font-family="Consolas" font-size="20.0" fill="#000000" transform="matrix(1.00, 0.00, -0.00, -1.00, 302.9, 334.0)">t</text><text xml:space="preserve" font-family="Consolas" font-size="20.0" fill="#000000" transform="matrix(1.00, 0.00, -0.00, -1.00, 313.9, 334.0)">'</text><text xml:space="preserve" font-family="Consolas" font-size="20.0" fill="#000000" transform="matrix(1.00, 0.00, -0.00, -1.00, 324.9, 334.0)"> </text><text xml:space="preserve" font-family="Consolas" font-size="20.0" fill="#000000" transform="matrix(1.00, 0.00, -0.00, -1.00, 335.8, 334.0)">}</text><text xml:space="preserve" font-family="Monaco" font-size="20.0" fill="#000000" transform="matrix(1.00, 0.00, -0.00, -1.00, 346.9, 334.0)"> </text><text xml:space="preserve" font-family="Consolas" font-size="20.0" fill="#000000" transform="matrix(1.00, 0.00, -0.00, -1.00, 28.0, 311.0)">}</text><g><clipPath id="clip-43"><path d="M 775.3 502.7 L 1004.6 502.7 L 1004.6 207.7 L 775.3 207.7 Z M 775.3 502.7 "></path></clipPath><g clip-path="url(#clip-43)"><image xlink:href="../../DEF34E5E-9081-4753-A4A6-FB84F41AC5B3/assets/D5BAA0E7A80E113D25EB92D00157B4C8.jpeg" width="300.00" height="300.00" transform="matrix(1.00, 0.00, -0.00, -1.00, 775.3, 502.7)"></image><path d="M 775.3 502.7 L 1004.6 502.7 L 1004.6 207.7 L 775.3 207.7 Z M 775.3 502.7 " fill="#FFFAD6"></path></g></g><path d="M 0.0 0.0 L 229.3 0.0 L 229.3 294.9 L 0.0 294.9 Z M 0.0 0.0 " fill="none" stroke="#000000" stroke-width="2.00" transform="matrix(1.00, 0.00, 0.00, -1.00, 775.3, 502.7)"></path><text xml:space="preserve" font-family="Consolas" font-size="24.0" fill="#000000" transform="matrix(1.00, 0.00, -0.00, -1.00, 817.0, 518.0)">E</text><text xml:space="preserve" font-family="Consolas" font-size="24.0" fill="#000000" transform="matrix(1.00, 0.00, -0.00, -1.00, 830.2, 518.0)">v</text><text xml:space="preserve" font-family="Consolas" font-size="24.0" fill="#000000" transform="matrix(1.00, 0.00, -0.00, -1.00, 843.4, 518.0)">e</text><text xml:space="preserve" font-family="Consolas" font-size="24.0" fill="#000000" transform="matrix(1.00, 0.00, -0.00, -1.00, 856.6, 518.0)">n</text><text xml:space="preserve" font-family="Consolas" font-size="24.0" fill="#000000" transform="matrix(1.00, 0.00, -0.00, -1.00, 869.8, 518.0)">t</text><text xml:space="preserve" font-family="Consolas" font-size="24.0" fill="#000000" transform="matrix(1.00, 0.00, -0.00, -1.00, 883.0, 518.0)"> </text><text xml:space="preserve" font-family="Consolas" font-size="24.0" fill="#000000" transform="matrix(1.00, 0.00, -0.00, -1.00, 896.1, 518.0)">t</text><text xml:space="preserve" font-family="Consolas" font-size="24.0" fill="#000000" transform="matrix(1.00, 0.00, -0.00, -1.00, 909.3, 518.0)">r</text><text xml:space="preserve" font-family="Consolas" font-size="24.0" fill="#000000" transform="matrix(1.00, 0.00, -0.00, -1.00, 922.5, 518.0)">a</text><text xml:space="preserve" font-family="Consolas" font-size="24.0" fill="#000000" transform="matrix(1.00, 0.00, -0.00, -1.00, 935.7, 518.0)">c</text><text xml:space="preserve" font-family="Consolas" font-size="24.0" fill="#000000" transform="matrix(1.00, 0.00, -0.00, -1.00, 948.9, 518.0)">e</text><text xml:space="preserve" font-family="Consolas" font-size="18.0" fill="#000000" transform="matrix(1.00, 0.00, -0.00, -1.00, 403.0, 425.0)">w</text><text xml:space="preserve" font-family="Consolas" font-size="18.0" fill="#000000" transform="matrix(1.00, 0.00, -0.00, -1.00, 412.9, 425.0)">h</text><text xml:space="preserve" font-family="Consolas" font-size="18.0" fill="#000000" transform="matrix(1.00, 0.00, -0.00, -1.00, 422.8, 425.0)">i</text><text xml:space="preserve" font-family="Consolas" font-size="18.0" fill="#000000" transform="matrix(1.00, 0.00, -0.00, -1.00, 432.7, 425.0)">l</text><text xml:space="preserve" font-family="Consolas" font-size="18.0" fill="#000000" transform="matrix(1.00, 0.00, -0.00, -1.00, 442.6, 425.0)">e</text><text xml:space="preserve" font-family="Consolas" font-size="18.0" fill="#000000" transform="matrix(1.00, 0.00, -0.00, -1.00, 452.5, 425.0)">(</text><text xml:space="preserve" font-family="Consolas" font-size="18.0" fill="#000000" transform="matrix(1.00, 0.00, -0.00, -1.00, 462.4, 425.0)">t</text><text xml:space="preserve" font-family="Consolas" font-size="18.0" fill="#000000" transform="matrix(1.00, 0.00, -0.00, -1.00, 472.3, 425.0)">r</text><text xml:space="preserve" font-family="Consolas" font-size="18.0" fill="#000000" transform="matrix(1.00, 0.00, -0.00, -1.00, 482.1, 425.0)">u</text><text xml:space="preserve" font-family="Consolas" font-size="18.0" fill="#000000" transform="matrix(1.00, 0.00, -0.00, -1.00, 492.0, 425.0)">e</text><text xml:space="preserve" font-family="Consolas" font-size="18.0" fill="#000000" transform="matrix(1.00, 0.00, -0.00, -1.00, 501.9, 425.0)">)</text><text xml:space="preserve" font-family="Consolas" font-size="18.0" fill="#000000" transform="matrix(1.00, 0.00, -0.00, -1.00, 511.8, 425.0)"> </text><text xml:space="preserve" font-family="Consolas" font-size="18.0" fill="#000000" transform="matrix(1.00, 0.00, -0.00, -1.00, 521.7, 425.0)">{</text><text xml:space="preserve" font-family="Consolas" font-size="18.0" fill="#000000" transform="matrix(1.00, 0.00, -0.00, -1.00, 531.6, 425.0)"> </text><text xml:space="preserve" font-family="Consolas" font-size="18.0" fill="#000000" transform="matrix(1.00, 0.00, -0.00, -1.00, 403.0, 404.0)"> </text><text xml:space="preserve" font-family="Consolas" font-size="18.0" fill="#000000" transform="matrix(1.00, 0.00, -0.00, -1.00, 412.9, 404.0)"> </text><text xml:space="preserve" font-family="Consolas" font-size="18.0" fill="#000000" transform="matrix(1.00, 0.00, -0.00, -1.00, 422.8, 404.0)">y</text><text xml:space="preserve" font-family="Consolas" font-size="18.0" fill="#000000" transform="matrix(1.00, 0.00, -0.00, -1.00, 432.7, 404.0)">i</text><text xml:space="preserve" font-family="Consolas" font-size="18.0" fill="#000000" transform="matrix(1.00, 0.00, -0.00, -1.00, 442.6, 404.0)">e</text><text xml:space="preserve" font-family="Consolas" font-size="18.0" fill="#000000" transform="matrix(1.00, 0.00, -0.00, -1.00, 452.5, 404.0)">l</text><text xml:space="preserve" font-family="Consolas" font-size="18.0" fill="#000000" transform="matrix(1.00, 0.00, -0.00, -1.00, 462.4, 404.0)">d</text><text xml:space="preserve" font-family="Consolas" font-size="18.0" fill="#000000" transform="matrix(1.00, 0.00, -0.00, -1.00, 472.3, 404.0)"> </text><text xml:space="preserve" font-family="Consolas" font-size="18.0" fill="#000000" transform="matrix(1.00, 0.00, -0.00, -1.00, 482.1, 404.0)">{</text><text xml:space="preserve" font-family="Consolas" font-size="18.0" fill="#000000" transform="matrix(1.00, 0.00, -0.00, -1.00, 492.0, 404.0)"> </text><text xml:space="preserve" font-family="Consolas" font-size="18.0" fill="#00872A" transform="matrix(1.00, 0.00, -0.00, -1.00, 502.0, 404.0)">w</text><text xml:space="preserve" font-family="Consolas" font-size="18.0" fill="#00872A" transform="matrix(1.00, 0.00, -0.00, -1.00, 511.9, 404.0)">a</text><text xml:space="preserve" font-family="Consolas" font-size="18.0" fill="#00872A" transform="matrix(1.00, 0.00, -0.00, -1.00, 521.8, 404.0)">i</text><text xml:space="preserve" font-family="Consolas" font-size="18.0" fill="#00872A" transform="matrix(1.00, 0.00, -0.00, -1.00, 531.6, 404.0)">t</text><text xml:space="preserve" font-family="Consolas" font-size="18.0" fill="#000000" transform="matrix(1.00, 0.00, -0.00, -1.00, 541.6, 404.0)">:</text><text xml:space="preserve" font-family="Consolas" font-size="18.0" fill="#000000" transform="matrix(1.00, 0.00, -0.00, -1.00, 551.4, 404.0)"> </text><text xml:space="preserve" font-family="Consolas" font-size="18.0" fill="#000000" transform="matrix(1.00, 0.00, -0.00, -1.00, 561.3, 404.0)">'</text><text xml:space="preserve" font-family="Consolas" font-size="18.0" fill="#000000" transform="matrix(1.00, 0.00, -0.00, -1.00, 571.2, 404.0)">w</text><text xml:space="preserve" font-family="Consolas" font-size="18.0" fill="#000000" transform="matrix(1.00, 0.00, -0.00, -1.00, 581.1, 404.0)">a</text><text xml:space="preserve" font-family="Consolas" font-size="18.0" fill="#000000" transform="matrix(1.00, 0.00, -0.00, -1.00, 591.0, 404.0)">t</text><text xml:space="preserve" font-family="Consolas" font-size="18.0" fill="#000000" transform="matrix(1.00, 0.00, -0.00, -1.00, 600.9, 404.0)">e</text><text xml:space="preserve" font-family="Consolas" font-size="18.0" fill="#000000" transform="matrix(1.00, 0.00, -0.00, -1.00, 610.8, 404.0)">r</text><text xml:space="preserve" font-family="Consolas" font-size="18.0" fill="#000000" transform="matrix(1.00, 0.00, -0.00, -1.00, 620.7, 404.0)">L</text><text xml:space="preserve" font-family="Consolas" font-size="18.0" fill="#000000" transform="matrix(1.00, 0.00, -0.00, -1.00, 630.6, 404.0)">e</text><text xml:space="preserve" font-family="Consolas" font-size="18.0" fill="#000000" transform="matrix(1.00, 0.00, -0.00, -1.00, 640.5, 404.0)">v</text><text xml:space="preserve" font-family="Consolas" font-size="18.0" fill="#000000" transform="matrix(1.00, 0.00, -0.00, -1.00, 650.4, 404.0)">e</text><text xml:space="preserve" font-family="Consolas" font-size="18.0" fill="#000000" transform="matrix(1.00, 0.00, -0.00, -1.00, 660.3, 404.0)">l</text><text xml:space="preserve" font-family="Consolas" font-size="18.0" fill="#000000" transform="matrix(1.00, 0.00, -0.00, -1.00, 670.2, 404.0)">L</text><text xml:space="preserve" font-family="Consolas" font-size="18.0" fill="#000000" transform="matrix(1.00, 0.00, -0.00, -1.00, 680.1, 404.0)">o</text><text xml:space="preserve" font-family="Consolas" font-size="18.0" fill="#000000" transform="matrix(1.00, 0.00, -0.00, -1.00, 689.9, 404.0)">w</text><text xml:space="preserve" font-family="Consolas" font-size="18.0" fill="#000000" transform="matrix(1.00, 0.00, -0.00, -1.00, 699.8, 404.0)">'</text><text xml:space="preserve" font-family="Consolas" font-size="18.0" fill="#000000" transform="matrix(1.00, 0.00, -0.00, -1.00, 709.7, 404.0)"> </text><text xml:space="preserve" font-family="Consolas" font-size="18.0" fill="#000000" transform="matrix(1.00, 0.00, -0.00, -1.00, 719.6, 404.0)">}</text><text xml:space="preserve" font-family="Consolas" font-size="18.0" fill="#000000" transform="matrix(1.00, 0.00, -0.00, -1.00, 729.5, 404.0)"> </text><text xml:space="preserve" font-family="Consolas" font-size="18.0" fill="#000000" transform="matrix(1.00, 0.00, -0.00, -1.00, 403.0, 383.0)"> </text><text xml:space="preserve" font-family="Consolas" font-size="18.0" fill="#000000" transform="matrix(1.00, 0.00, -0.00, -1.00, 412.9, 383.0)"> </text><text xml:space="preserve" font-family="Consolas" font-size="18.0" fill="#000000" transform="matrix(1.00, 0.00, -0.00, -1.00, 422.8, 383.0)">y</text><text xml:space="preserve" font-family="Consolas" font-size="18.0" fill="#000000" transform="matrix(1.00, 0.00, -0.00, -1.00, 432.7, 383.0)">i</text><text xml:space="preserve" font-family="Consolas" font-size="18.0" fill="#000000" transform="matrix(1.00, 0.00, -0.00, -1.00, 442.6, 383.0)">e</text><text xml:space="preserve" font-family="Consolas" font-size="18.0" fill="#000000" transform="matrix(1.00, 0.00, -0.00, -1.00, 452.5, 383.0)">l</text><text xml:space="preserve" font-family="Consolas" font-size="18.0" fill="#000000" transform="matrix(1.00, 0.00, -0.00, -1.00, 462.4, 383.0)">d</text><text xml:space="preserve" font-family="Consolas" font-size="18.0" fill="#000000" transform="matrix(1.00, 0.00, -0.00, -1.00, 472.3, 383.0)"> </text><text xml:space="preserve" font-family="Consolas" font-size="18.0" fill="#000000" transform="matrix(1.00, 0.00, -0.00, -1.00, 482.1, 383.0)">{</text><text xml:space="preserve" font-family="Consolas" font-size="18.0" fill="#000000" transform="matrix(1.00, 0.00, -0.00, -1.00, 492.0, 383.0)"> </text><text xml:space="preserve" font-family="Consolas" font-size="18.0" fill="#0067DA" transform="matrix(1.00, 0.00, -0.00, -1.00, 502.0, 383.0)">r</text><text xml:space="preserve" font-family="Consolas" font-size="18.0" fill="#0067DA" transform="matrix(1.00, 0.00, -0.00, -1.00, 511.9, 383.0)">e</text><text xml:space="preserve" font-family="Consolas" font-size="18.0" fill="#0067DA" transform="matrix(1.00, 0.00, -0.00, -1.00, 521.8, 383.0)">q</text><text xml:space="preserve" font-family="Consolas" font-size="18.0" fill="#0067DA" transform="matrix(1.00, 0.00, -0.00, -1.00, 531.6, 383.0)">u</text><text xml:space="preserve" font-family="Consolas" font-size="18.0" fill="#0067DA" transform="matrix(1.00, 0.00, -0.00, -1.00, 541.5, 383.0)">e</text><text xml:space="preserve" font-family="Consolas" font-size="18.0" fill="#0067DA" transform="matrix(1.00, 0.00, -0.00, -1.00, 551.4, 383.0)">s</text><text xml:space="preserve" font-family="Consolas" font-size="18.0" fill="#0067DA" transform="matrix(1.00, 0.00, -0.00, -1.00, 561.3, 383.0)">t</text><text xml:space="preserve" font-family="Consolas" font-size="18.0" fill="#000000" transform="matrix(1.00, 0.00, -0.00, -1.00, 571.2, 383.0)">:</text><text xml:space="preserve" font-family="Consolas" font-size="18.0" fill="#000000" transform="matrix(1.00, 0.00, -0.00, -1.00, 581.1, 383.0)"> </text><text xml:space="preserve" font-family="Consolas" font-size="18.0" fill="#000000" transform="matrix(1.00, 0.00, -0.00, -1.00, 591.0, 383.0)">'</text><text xml:space="preserve" font-family="Consolas" font-size="18.0" fill="#000000" transform="matrix(1.00, 0.00, -0.00, -1.00, 600.9, 383.0)">a</text><text xml:space="preserve" font-family="Consolas" font-size="18.0" fill="#000000" transform="matrix(1.00, 0.00, -0.00, -1.00, 610.8, 383.0)">d</text><text xml:space="preserve" font-family="Consolas" font-size="18.0" fill="#000000" transform="matrix(1.00, 0.00, -0.00, -1.00, 620.7, 383.0)">d</text><text xml:space="preserve" font-family="Consolas" font-size="18.0" fill="#000000" transform="matrix(1.00, 0.00, -0.00, -1.00, 630.6, 383.0)">C</text><text xml:space="preserve" font-family="Consolas" font-size="18.0" fill="#000000" transform="matrix(1.00, 0.00, -0.00, -1.00, 640.5, 383.0)">o</text><text xml:space="preserve" font-family="Consolas" font-size="18.0" fill="#000000" transform="matrix(1.00, 0.00, -0.00, -1.00, 650.4, 383.0)">l</text><text xml:space="preserve" font-family="Consolas" font-size="18.0" fill="#000000" transform="matrix(1.00, 0.00, -0.00, -1.00, 660.3, 383.0)">d</text><text xml:space="preserve" font-family="Consolas" font-size="18.0" fill="#000000" transform="matrix(1.00, 0.00, -0.00, -1.00, 670.2, 383.0)">'</text><text xml:space="preserve" font-family="Consolas" font-size="18.0" fill="#000000" transform="matrix(1.00, 0.00, -0.00, -1.00, 680.1, 383.0)"> </text><text xml:space="preserve" font-family="Consolas" font-size="18.0" fill="#000000" transform="matrix(1.00, 0.00, -0.00, -1.00, 690.0, 383.0)">}</text><text xml:space="preserve" font-family="Consolas" font-size="18.0" fill="#000000" transform="matrix(1.00, 0.00, -0.00, -1.00, 699.8, 383.0)"> </text><text xml:space="preserve" font-family="Consolas" font-size="18.0" fill="#000000" transform="matrix(1.00, 0.00, -0.00, -1.00, 403.0, 362.0)"> </text><text xml:space="preserve" font-family="Consolas" font-size="18.0" fill="#000000" transform="matrix(1.00, 0.00, -0.00, -1.00, 412.9, 362.0)"> </text><text xml:space="preserve" font-family="Consolas" font-size="18.0" fill="#000000" transform="matrix(1.00, 0.00, -0.00, -1.00, 422.8, 362.0)">y</text><text xml:space="preserve" font-family="Consolas" font-size="18.0" fill="#000000" transform="matrix(1.00, 0.00, -0.00, -1.00, 432.7, 362.0)">i</text><text xml:space="preserve" font-family="Consolas" font-size="18.0" fill="#000000" transform="matrix(1.00, 0.00, -0.00, -1.00, 442.6, 362.0)">e</text><text xml:space="preserve" font-family="Consolas" font-size="18.0" fill="#000000" transform="matrix(1.00, 0.00, -0.00, -1.00, 452.5, 362.0)">l</text><text xml:space="preserve" font-family="Consolas" font-size="18.0" fill="#000000" transform="matrix(1.00, 0.00, -0.00, -1.00, 462.4, 362.0)">d</text><text xml:space="preserve" font-family="Consolas" font-size="18.0" fill="#000000" transform="matrix(1.00, 0.00, -0.00, -1.00, 472.3, 362.0)"> </text><text xml:space="preserve" font-family="Consolas" font-size="18.0" fill="#000000" transform="matrix(1.00, 0.00, -0.00, -1.00, 482.1, 362.0)">{</text><text xml:space="preserve" font-family="Consolas" font-size="18.0" fill="#000000" transform="matrix(1.00, 0.00, -0.00, -1.00, 492.0, 362.0)"> </text><text xml:space="preserve" font-family="Consolas" font-size="18.0" fill="#0067DA" transform="matrix(1.00, 0.00, -0.00, -1.00, 502.0, 362.0)">r</text><text xml:space="preserve" font-family="Consolas" font-size="18.0" fill="#0067DA" transform="matrix(1.00, 0.00, -0.00, -1.00, 511.9, 362.0)">e</text><text xml:space="preserve" font-family="Consolas" font-size="18.0" fill="#0067DA" transform="matrix(1.00, 0.00, -0.00, -1.00, 521.8, 362.0)">q</text><text xml:space="preserve" font-family="Consolas" font-size="18.0" fill="#0067DA" transform="matrix(1.00, 0.00, -0.00, -1.00, 531.6, 362.0)">u</text><text xml:space="preserve" font-family="Consolas" font-size="18.0" fill="#0067DA" transform="matrix(1.00, 0.00, -0.00, -1.00, 541.5, 362.0)">e</text><text xml:space="preserve" font-family="Consolas" font-size="18.0" fill="#0067DA" transform="matrix(1.00, 0.00, -0.00, -1.00, 551.4, 362.0)">s</text><text xml:space="preserve" font-family="Consolas" font-size="18.0" fill="#0067DA" transform="matrix(1.00, 0.00, -0.00, -1.00, 561.3, 362.0)">t</text><text xml:space="preserve" font-family="Consolas" font-size="18.0" fill="#000000" transform="matrix(1.00, 0.00, -0.00, -1.00, 571.2, 362.0)">:</text><text xml:space="preserve" font-family="Consolas" font-size="18.0" fill="#000000" transform="matrix(1.00, 0.00, -0.00, -1.00, 581.1, 362.0)"> </text><text xml:space="preserve" font-family="Consolas" font-size="18.0" fill="#000000" transform="matrix(1.00, 0.00, -0.00, -1.00, 591.0, 362.0)">'</text><text xml:space="preserve" font-family="Consolas" font-size="18.0" fill="#000000" transform="matrix(1.00, 0.00, -0.00, -1.00, 600.9, 362.0)">a</text><text xml:space="preserve" font-family="Consolas" font-size="18.0" fill="#000000" transform="matrix(1.00, 0.00, -0.00, -1.00, 610.8, 362.0)">d</text><text xml:space="preserve" font-family="Consolas" font-size="18.0" fill="#000000" transform="matrix(1.00, 0.00, -0.00, -1.00, 620.7, 362.0)">d</text><text xml:space="preserve" font-family="Consolas" font-size="18.0" fill="#000000" transform="matrix(1.00, 0.00, -0.00, -1.00, 630.6, 362.0)">C</text><text xml:space="preserve" font-family="Consolas" font-size="18.0" fill="#000000" transform="matrix(1.00, 0.00, -0.00, -1.00, 640.5, 362.0)">o</text><text xml:space="preserve" font-family="Consolas" font-size="18.0" fill="#000000" transform="matrix(1.00, 0.00, -0.00, -1.00, 650.4, 362.0)">l</text><text xml:space="preserve" font-family="Consolas" font-size="18.0" fill="#000000" transform="matrix(1.00, 0.00, -0.00, -1.00, 660.3, 362.0)">d</text><text xml:space="preserve" font-family="Consolas" font-size="18.0" fill="#000000" transform="matrix(1.00, 0.00, -0.00, -1.00, 670.2, 362.0)">'</text><text xml:space="preserve" font-family="Consolas" font-size="18.0" fill="#000000" transform="matrix(1.00, 0.00, -0.00, -1.00, 680.1, 362.0)"> </text><text xml:space="preserve" font-family="Consolas" font-size="18.0" fill="#000000" transform="matrix(1.00, 0.00, -0.00, -1.00, 690.0, 362.0)">}</text><text xml:space="preserve" font-family="Consolas" font-size="18.0" fill="#000000" transform="matrix(1.00, 0.00, -0.00, -1.00, 699.8, 362.0)"> </text><text xml:space="preserve" font-family="Consolas" font-size="18.0" fill="#000000" transform="matrix(1.00, 0.00, -0.00, -1.00, 403.0, 341.0)"> </text><text xml:space="preserve" font-family="Consolas" font-size="18.0" fill="#000000" transform="matrix(1.00, 0.00, -0.00, -1.00, 412.9, 341.0)"> </text><text xml:space="preserve" font-family="Consolas" font-size="18.0" fill="#000000" transform="matrix(1.00, 0.00, -0.00, -1.00, 422.8, 341.0)">y</text><text xml:space="preserve" font-family="Consolas" font-size="18.0" fill="#000000" transform="matrix(1.00, 0.00, -0.00, -1.00, 432.7, 341.0)">i</text><text xml:space="preserve" font-family="Consolas" font-size="18.0" fill="#000000" transform="matrix(1.00, 0.00, -0.00, -1.00, 442.6, 341.0)">e</text><text xml:space="preserve" font-family="Consolas" font-size="18.0" fill="#000000" transform="matrix(1.00, 0.00, -0.00, -1.00, 452.5, 341.0)">l</text><text xml:space="preserve" font-family="Consolas" font-size="18.0" fill="#000000" transform="matrix(1.00, 0.00, -0.00, -1.00, 462.4, 341.0)">d</text><text xml:space="preserve" font-family="Consolas" font-size="18.0" fill="#000000" transform="matrix(1.00, 0.00, -0.00, -1.00, 472.3, 341.0)"> </text><text xml:space="preserve" font-family="Consolas" font-size="18.0" fill="#000000" transform="matrix(1.00, 0.00, -0.00, -1.00, 482.1, 341.0)">{</text><text xml:space="preserve" font-family="Consolas" font-size="18.0" fill="#000000" transform="matrix(1.00, 0.00, -0.00, -1.00, 492.0, 341.0)"> </text><text xml:space="preserve" font-family="Consolas" font-size="18.0" fill="#0067DA" transform="matrix(1.00, 0.00, -0.00, -1.00, 502.0, 341.0)">r</text><text xml:space="preserve" font-family="Consolas" font-size="18.0" fill="#0067DA" transform="matrix(1.00, 0.00, -0.00, -1.00, 511.9, 341.0)">e</text><text xml:space="preserve" font-family="Consolas" font-size="18.0" fill="#0067DA" transform="matrix(1.00, 0.00, -0.00, -1.00, 521.8, 341.0)">q</text><text xml:space="preserve" font-family="Consolas" font-size="18.0" fill="#0067DA" transform="matrix(1.00, 0.00, -0.00, -1.00, 531.6, 341.0)">u</text><text xml:space="preserve" font-family="Consolas" font-size="18.0" fill="#0067DA" transform="matrix(1.00, 0.00, -0.00, -1.00, 541.5, 341.0)">e</text><text xml:space="preserve" font-family="Consolas" font-size="18.0" fill="#0067DA" transform="matrix(1.00, 0.00, -0.00, -1.00, 551.4, 341.0)">s</text><text xml:space="preserve" font-family="Consolas" font-size="18.0" fill="#0067DA" transform="matrix(1.00, 0.00, -0.00, -1.00, 561.3, 341.0)">t</text><text xml:space="preserve" font-family="Consolas" font-size="18.0" fill="#000000" transform="matrix(1.00, 0.00, -0.00, -1.00, 571.2, 341.0)">:</text><text xml:space="preserve" font-family="Consolas" font-size="18.0" fill="#000000" transform="matrix(1.00, 0.00, -0.00, -1.00, 581.1, 341.0)"> </text><text xml:space="preserve" font-family="Consolas" font-size="18.0" fill="#000000" transform="matrix(1.00, 0.00, -0.00, -1.00, 591.0, 341.0)">'</text><text xml:space="preserve" font-family="Consolas" font-size="18.0" fill="#000000" transform="matrix(1.00, 0.00, -0.00, -1.00, 600.9, 341.0)">a</text><text xml:space="preserve" font-family="Consolas" font-size="18.0" fill="#000000" transform="matrix(1.00, 0.00, -0.00, -1.00, 610.8, 341.0)">d</text><text xml:space="preserve" font-family="Consolas" font-size="18.0" fill="#000000" transform="matrix(1.00, 0.00, -0.00, -1.00, 620.7, 341.0)">d</text><text xml:space="preserve" font-family="Consolas" font-size="18.0" fill="#000000" transform="matrix(1.00, 0.00, -0.00, -1.00, 630.6, 341.0)">C</text><text xml:space="preserve" font-family="Consolas" font-size="18.0" fill="#000000" transform="matrix(1.00, 0.00, -0.00, -1.00, 640.5, 341.0)">o</text><text xml:space="preserve" font-family="Consolas" font-size="18.0" fill="#000000" transform="matrix(1.00, 0.00, -0.00, -1.00, 650.4, 341.0)">l</text><text xml:space="preserve" font-family="Consolas" font-size="18.0" fill="#000000" transform="matrix(1.00, 0.00, -0.00, -1.00, 660.3, 341.0)">d</text><text xml:space="preserve" font-family="Consolas" font-size="18.0" fill="#000000" transform="matrix(1.00, 0.00, -0.00, -1.00, 670.2, 341.0)">'</text><text xml:space="preserve" font-family="Consolas" font-size="18.0" fill="#000000" transform="matrix(1.00, 0.00, -0.00, -1.00, 680.1, 341.0)"> </text><text xml:space="preserve" font-family="Consolas" font-size="18.0" fill="#000000" transform="matrix(1.00, 0.00, -0.00, -1.00, 690.0, 341.0)">}</text><text xml:space="preserve" font-family="Monaco" font-size="18.0" fill="#000000" transform="matrix(1.00, 0.00, -0.00, -1.00, 699.9, 341.0)"> </text><text xml:space="preserve" font-family="Consolas" font-size="18.0" fill="#000000" transform="matrix(1.00, 0.00, -0.00, -1.00, 403.0, 320.0)">}</text><text xml:space="preserve" font-family="Consolas" font-size="24.0" fill="#000000" transform="matrix(1.00, 0.00, -0.00, -1.00, 804.0, 469.0)">w</text><text xml:space="preserve" font-family="Consolas" font-size="24.0" fill="#000000" transform="matrix(1.00, 0.00, -0.00, -1.00, 817.2, 469.0)">a</text><text xml:space="preserve" font-family="Consolas" font-size="24.0" fill="#000000" transform="matrix(1.00, 0.00, -0.00, -1.00, 830.4, 469.0)">t</text><text xml:space="preserve" font-family="Consolas" font-size="24.0" fill="#000000" transform="matrix(1.00, 0.00, -0.00, -1.00, 843.6, 469.0)">e</text><text xml:space="preserve" font-family="Consolas" font-size="24.0" fill="#000000" transform="matrix(1.00, 0.00, -0.00, -1.00, 856.8, 469.0)">r</text><text xml:space="preserve" font-family="Consolas" font-size="24.0" fill="#000000" transform="matrix(1.00, 0.00, -0.00, -1.00, 870.0, 469.0)">L</text><text xml:space="preserve" font-family="Consolas" font-size="24.0" fill="#000000" transform="matrix(1.00, 0.00, -0.00, -1.00, 883.1, 469.0)">e</text><text xml:space="preserve" font-family="Consolas" font-size="24.0" fill="#000000" transform="matrix(1.00, 0.00, -0.00, -1.00, 896.3, 469.0)">v</text><text xml:space="preserve" font-family="Consolas" font-size="24.0" fill="#000000" transform="matrix(1.00, 0.00, -0.00, -1.00, 909.5, 469.0)">e</text><text xml:space="preserve" font-family="Consolas" font-size="24.0" fill="#000000" transform="matrix(1.00, 0.00, -0.00, -1.00, 922.7, 469.0)">l</text><text xml:space="preserve" font-family="Consolas" font-size="24.0" fill="#000000" transform="matrix(1.00, 0.00, -0.00, -1.00, 935.9, 469.0)">L</text><text xml:space="preserve" font-family="Consolas" font-size="24.0" fill="#000000" transform="matrix(1.00, 0.00, -0.00, -1.00, 949.1, 469.0)">o</text><text xml:space="preserve" font-family="Consolas" font-size="24.0" fill="#000000" transform="matrix(1.00, 0.00, -0.00, -1.00, 962.3, 469.0)">w</text><text xml:space="preserve" font-family="Consolas" font-size="24.0" fill="#000000" transform="matrix(1.00, 0.00, -0.00, -1.00, 850.0, 442.0)">a</text><text xml:space="preserve" font-family="Consolas" font-size="24.0" fill="#000000" transform="matrix(1.00, 0.00, -0.00, -1.00, 863.2, 442.0)">d</text><text xml:space="preserve" font-family="Consolas" font-size="24.0" fill="#000000" transform="matrix(1.00, 0.00, -0.00, -1.00, 876.4, 442.0)">d</text><text xml:space="preserve" font-family="Consolas" font-size="24.0" fill="#000000" transform="matrix(1.00, 0.00, -0.00, -1.00, 889.6, 442.0)">H</text><text xml:space="preserve" font-family="Consolas" font-size="24.0" fill="#000000" transform="matrix(1.00, 0.00, -0.00, -1.00, 902.8, 442.0)">o</text><text xml:space="preserve" font-family="Consolas" font-size="24.0" fill="#000000" transform="matrix(1.00, 0.00, -0.00, -1.00, 916.0, 442.0)">t</text><image xlink:href="../../B945344F-5826-440E-BEAE-B605F9433341/assets/22E270DE3AECAC7DDA53A57E5CC54E21.png" width="680.00" height="9.00" transform="matrix(1.00, 0.00, 0.00, -1.04, 46.9, 378.1)" opacity="0.50"></image><path d="M 0.0 0.0 L 312.0 2.3 L 346.2 0.8 L 677.7 2.4 " fill="none" stroke="#E5D20F" stroke-width="5.00" transform="matrix(1.00, 0.00, 0.00, -1.00, 48.0, 375.6)"></path><image xlink:href="../../E2D98764-1622-4366-834D-E1E94F1437DF/assets/9C4AD8A7E03F162EE443DFF7874610D6.png" width="119.00" height="43.00" transform="matrix(1.00, 0.00, -0.00, -1.00, 224.7, 407.4)" opacity="0.50"></image><path d="M 0.0 0.0 L 109.2 0.0 L 109.2 32.9 L 0.0 32.9 Z M 0.0 0.0 " fill="none" stroke="#1CD836" stroke-width="4.00" transform="matrix(1.00, 0.00, 0.00, -1.00, 229.7, 404.4)"></path><g opacity="0.50"><g><clipPath id="clip-44"><path d="M 0.0 0.0 L 1024.0 0.0 L 1024.0 768.0 L 0.0 768.0 Z M 0.0 0.0 "></path></clipPath><g clip-path="url(#clip-44)"><path d="M 0.0 158.8 C 127.6 -27.2 311.2 -49.8 550.7 90.9 L 552.9 92.2 " fill="none" stroke="#000000" stroke-width="5.00" transform="matrix(1.00, 0.00, 0.00, -1.00, 296.5, 565.2)"></path><path d="M 842.0 465.5 L 864.7 463.7 L 852.5 483.0 Z M 842.0 465.5 " fill="#000000"></path></g></g></g></g></svg>