<?xml version="1.0" encoding="UTF-8" standalone="no"?><svg xmlns="http://www.w3.org/2000/svg" xmlns:xlink="http://www.w3.org/1999/xlink" clip-rule="evenodd" stroke-miterlimit="4.00" viewBox="0 0 191 190"><desc>SVG generated by Keynote</desc><defs></defs><g transform="matrix(1.00, 0.00, -0.00, -1.00, 0.0, 190.0)"><path d="M 0.0 0.0 L 180.9 0.0 L 180.9 180.0 L 0.0 180.0 Z M 0.0 0.0 " fill="none" stroke="#000000" stroke-width="7.00" transform="matrix(1.00, 0.00, 0.00, -1.00, 4.9, 185.3)"></path><g><clipPath id="clip-640"><path d="M 8.9 9.3 L 181.8 9.3 L 181.8 181.3 L 8.9 181.3 Z M 8.9 9.3 "></path></clipPath><g clip-path="url(#clip-640)"><text xml:space="preserve" font-family="Consolas-Bold" font-weight="bold" font-size="19.0" fill="#000000" transform="matrix(1.00, 0.00, -0.00, -1.00, 15.0, 162.0)">f</text><text xml:space="preserve" font-family="Consolas-Bold" font-weight="bold" font-size="19.0" fill="#000000" transform="matrix(1.00, 0.00, -0.00, -1.00, 25.4, 162.0)">u</text><text xml:space="preserve" font-family="Consolas-Bold" font-weight="bold" font-size="19.0" fill="#000000" transform="matrix(1.00, 0.00, -0.00, -1.00, 35.9, 162.0)">n</text><text xml:space="preserve" font-family="Consolas-Bold" font-weight="bold" font-size="19.0" fill="#000000" transform="matrix(1.00, 0.00, -0.00, -1.00, 46.3, 162.0)">c</text><text xml:space="preserve" font-family="Consolas-Bold" font-weight="bold" font-size="19.0" fill="#000000" transform="matrix(1.00, 0.00, -0.00, -1.00, 56.8, 162.0)">t</text><text xml:space="preserve" font-family="Consolas-Bold" font-weight="bold" font-size="19.0" fill="#000000" transform="matrix(1.00, 0.00, -0.00, -1.00, 67.2, 162.0)">i</text><text xml:space="preserve" font-family="Consolas-Bold" font-weight="bold" font-size="19.0" fill="#000000" transform="matrix(1.00, 0.00, -0.00, -1.00, 77.7, 162.0)">o</text><text xml:space="preserve" font-family="Consolas-Bold" font-weight="bold" font-size="19.0" fill="#000000" transform="matrix(1.00, 0.00, -0.00, -1.00, 88.1, 162.0)">n</text><text xml:space="preserve" font-family="Consolas-Bold" font-weight="bold" font-size="19.0" fill="#000000" transform="matrix(1.00, 0.00, -0.00, -1.00, 98.5, 162.0)"> </text><text xml:space="preserve" font-family="Consolas-Bold" font-weight="bold" font-size="19.0" fill="#000000" transform="matrix(1.00, 0.00, -0.00, -1.00, 109.0, 162.0)">*</text><text xml:space="preserve" font-family="Consolas-Bold" font-weight="bold" font-size="19.0" fill="#000000" transform="matrix(1.00, 0.00, -0.00, -1.00, 119.4, 162.0)">(</text><text xml:space="preserve" font-family="Consolas-Bold" font-weight="bold" font-size="19.0" fill="#000000" transform="matrix(1.00, 0.00, -0.00, -1.00, 129.9, 162.0)">)</text><text xml:space="preserve" font-family="Consolas-Bold" font-weight="bold" font-size="19.0" fill="#000000" transform="matrix(1.00, 0.00, -0.00, -1.00, 140.3, 162.0)"> </text><text xml:space="preserve" font-family="Consolas-Bold" font-weight="bold" font-size="19.0" fill="#000000" transform="matrix(1.00, 0.00, -0.00, -1.00, 150.8, 162.0)">{</text><text xml:space="preserve" font-family="Consolas-Bold" font-weight="bold" font-size="19.0" fill="#000000" transform="matrix(1.00, 0.00, -0.00, -1.00, 161.2, 162.0)"> </text><text xml:space="preserve" font-family="Consolas-Bold" font-weight="bold" font-size="19.0" fill="#000000" transform="matrix(1.00, 0.00, -0.00, -1.00, 15.0, 140.0)"> </text><text xml:space="preserve" font-family="Consolas-Bold" font-weight="bold" font-size="19.0" fill="#000000" transform="matrix(1.00, 0.00, -0.00, -1.00, 25.4, 140.0)"> </text><text xml:space="preserve" font-family="Consolas-Bold" font-weight="bold" font-size="19.0" fill="#000000" transform="matrix(1.00, 0.00, -0.00, -1.00, 35.9, 140.0)">…</text><text xml:space="preserve" font-family="Consolas-Bold" font-weight="bold" font-size="19.0" fill="#000000" transform="matrix(1.00, 0.00, -0.00, -1.00, 46.3, 140.0)"> </text><text xml:space="preserve" font-family="Consolas-Bold" font-weight="bold" font-size="19.0" fill="#000000" transform="matrix(1.00, 0.00, -0.00, -1.00, 15.0, 118.0)"> </text><text xml:space="preserve" font-family="Consolas-Bold" font-weight="bold" font-size="19.0" fill="#000000" transform="matrix(1.00, 0.00, -0.00, -1.00, 25.4, 118.0)"> </text><text xml:space="preserve" font-family="Consolas-Bold" font-weight="bold" font-size="19.0" fill="#000000" transform="matrix(1.00, 0.00, -0.00, -1.00, 35.9, 118.0)">y</text><text xml:space="preserve" font-family="Consolas-Bold" font-weight="bold" font-size="19.0" fill="#000000" transform="matrix(1.00, 0.00, -0.00, -1.00, 46.3, 118.0)">i</text><text xml:space="preserve" font-family="Consolas-Bold" font-weight="bold" font-size="19.0" fill="#000000" transform="matrix(1.00, 0.00, -0.00, -1.00, 56.8, 118.0)">e</text><text xml:space="preserve" font-family="Consolas-Bold" font-weight="bold" font-size="19.0" fill="#000000" transform="matrix(1.00, 0.00, -0.00, -1.00, 67.2, 118.0)">l</text><text xml:space="preserve" font-family="Consolas-Bold" font-weight="bold" font-size="19.0" fill="#000000" transform="matrix(1.00, 0.00, -0.00, -1.00, 77.7, 118.0)">d</text><text xml:space="preserve" font-family="Consolas-Bold" font-weight="bold" font-size="19.0" fill="#000000" transform="matrix(1.00, 0.00, -0.00, -1.00, 88.1, 118.0)"> </text><text xml:space="preserve" font-family="Consolas-Bold" font-weight="bold" font-size="19.0" fill="#000000" transform="matrix(1.00, 0.00, -0.00, -1.00, 98.5, 118.0)">{</text><text xml:space="preserve" font-family="Consolas-Bold" font-weight="bold" font-size="19.0" fill="#000000" transform="matrix(1.00, 0.00, -0.00, -1.00, 109.0, 118.0)"> </text><text xml:space="preserve" font-family="Consolas-Bold" font-weight="bold" font-size="19.0" fill="#000000" transform="matrix(1.00, 0.00, -0.00, -1.00, 119.4, 118.0)">…</text><text xml:space="preserve" font-family="Consolas-Bold" font-weight="bold" font-size="19.0" fill="#000000" transform="matrix(1.00, 0.00, -0.00, -1.00, 129.9, 118.0)"> </text><text xml:space="preserve" font-family="Consolas-Bold" font-weight="bold" font-size="19.0" fill="#000000" transform="matrix(1.00, 0.00, -0.00, -1.00, 140.3, 118.0)">}</text><text xml:space="preserve" font-family="Consolas-Bold" font-weight="bold" font-size="19.0" fill="#000000" transform="matrix(1.00, 0.00, -0.00, -1.00, 150.8, 118.0)"> </text><text xml:space="preserve" font-family="Consolas-Bold" font-weight="bold" font-size="19.0" fill="#000000" transform="matrix(1.00, 0.00, -0.00, -1.00, 15.0, 96.0)"> </text><text xml:space="preserve" font-family="Consolas-Bold" font-weight="bold" font-size="19.0" fill="#000000" transform="matrix(1.00, 0.00, -0.00, -1.00, 25.4, 96.0)"> </text><text xml:space="preserve" font-family="Consolas-Bold" font-weight="bold" font-size="19.0" fill="#000000" transform="matrix(1.00, 0.00, -0.00, -1.00, 35.9, 96.0)">y</text><text xml:space="preserve" font-family="Consolas-Bold" font-weight="bold" font-size="19.0" fill="#000000" transform="matrix(1.00, 0.00, -0.00, -1.00, 46.3, 96.0)">i</text><text xml:space="preserve" font-family="Consolas-Bold" font-weight="bold" font-size="19.0" fill="#000000" transform="matrix(1.00, 0.00, -0.00, -1.00, 56.8, 96.0)">e</text><text xml:space="preserve" font-family="Consolas-Bold" font-weight="bold" font-size="19.0" fill="#000000" transform="matrix(1.00, 0.00, -0.00, -1.00, 67.2, 96.0)">l</text><text xml:space="preserve" font-family="Consolas-Bold" font-weight="bold" font-size="19.0" fill="#000000" transform="matrix(1.00, 0.00, -0.00, -1.00, 77.7, 96.0)">d</text><text xml:space="preserve" font-family="Consolas-Bold" font-weight="bold" font-size="19.0" fill="#000000" transform="matrix(1.00, 0.00, -0.00, -1.00, 88.1, 96.0)"> </text><text xml:space="preserve" font-family="Consolas-Bold" font-weight="bold" font-size="19.0" fill="#000000" transform="matrix(1.00, 0.00, -0.00, -1.00, 98.5, 96.0)">{</text><text xml:space="preserve" font-family="Consolas-Bold" font-weight="bold" font-size="19.0" fill="#000000" transform="matrix(1.00, 0.00, -0.00, -1.00, 109.0, 96.0)"> </text><text xml:space="preserve" font-family="Consolas-Bold" font-weight="bold" font-size="19.0" fill="#000000" transform="matrix(1.00, 0.00, -0.00, -1.00, 119.4, 96.0)">…</text><text xml:space="preserve" font-family="Consolas-Bold" font-weight="bold" font-size="19.0" fill="#000000" transform="matrix(1.00, 0.00, -0.00, -1.00, 129.9, 96.0)"> </text><text xml:space="preserve" font-family="Consolas-Bold" font-weight="bold" font-size="19.0" fill="#000000" transform="matrix(1.00, 0.00, -0.00, -1.00, 140.3, 96.0)">}</text><text xml:space="preserve" font-family="Consolas-Bold" font-weight="bold" font-size="19.0" fill="#000000" transform="matrix(1.00, 0.00, -0.00, -1.00, 150.8, 96.0)"> </text><text xml:space="preserve" font-family="Consolas-Bold" font-weight="bold" font-size="19.0" fill="#000000" transform="matrix(1.00, 0.00, -0.00, -1.00, 15.0, 74.0)"> </text><text xml:space="preserve" font-family="Consolas-Bold" font-weight="bold" font-size="19.0" fill="#000000" transform="matrix(1.00, 0.00, -0.00, -1.00, 25.4, 74.0)"> </text><text xml:space="preserve" font-family="Consolas-Bold" font-weight="bold" font-size="19.0" fill="#000000" transform="matrix(1.00, 0.00, -0.00, -1.00, 35.9, 74.0)">y</text><text xml:space="preserve" font-family="Consolas-Bold" font-weight="bold" font-size="19.0" fill="#000000" transform="matrix(1.00, 0.00, -0.00, -1.00, 46.3, 74.0)">i</text><text xml:space="preserve" font-family="Consolas-Bold" font-weight="bold" font-size="19.0" fill="#000000" transform="matrix(1.00, 0.00, -0.00, -1.00, 56.8, 74.0)">e</text><text xml:space="preserve" font-family="Consolas-Bold" font-weight="bold" font-size="19.0" fill="#000000" transform="matrix(1.00, 0.00, -0.00, -1.00, 67.2, 74.0)">l</text><text xml:space="preserve" font-family="Consolas-Bold" font-weight="bold" font-size="19.0" fill="#000000" transform="matrix(1.00, 0.00, -0.00, -1.00, 77.7, 74.0)">d</text><text xml:space="preserve" font-family="Consolas-Bold" font-weight="bold" font-size="19.0" fill="#000000" transform="matrix(1.00, 0.00, -0.00, -1.00, 88.1, 74.0)"> </text><text xml:space="preserve" font-family="Consolas-Bold" font-weight="bold" font-size="19.0" fill="#000000" transform="matrix(1.00, 0.00, -0.00, -1.00, 98.5, 74.0)">{</text><text xml:space="preserve" font-family="Consolas-Bold" font-weight="bold" font-size="19.0" fill="#000000" transform="matrix(1.00, 0.00, -0.00, -1.00, 109.0, 74.0)"> </text><text xml:space="preserve" font-family="Consolas-Bold" font-weight="bold" font-size="19.0" fill="#000000" transform="matrix(1.00, 0.00, -0.00, -1.00, 119.4, 74.0)">…</text><text xml:space="preserve" font-family="Consolas-Bold" font-weight="bold" font-size="19.0" fill="#000000" transform="matrix(1.00, 0.00, -0.00, -1.00, 129.9, 74.0)"> </text><text xml:space="preserve" font-family="Consolas-Bold" font-weight="bold" font-size="19.0" fill="#000000" transform="matrix(1.00, 0.00, -0.00, -1.00, 140.3, 74.0)">}</text><text xml:space="preserve" font-family="Consolas-Bold" font-weight="bold" font-size="19.0" fill="#000000" transform="matrix(1.00, 0.00, -0.00, -1.00, 150.8, 74.0)"> </text><text xml:space="preserve" font-family="Consolas-Bold" font-weight="bold" font-size="19.0" fill="#000000" transform="matrix(1.00, 0.00, -0.00, -1.00, 15.0, 52.0)"> </text><text xml:space="preserve" font-family="Consolas-Bold" font-weight="bold" font-size="19.0" fill="#000000" transform="matrix(1.00, 0.00, -0.00, -1.00, 25.4, 52.0)"> </text><text xml:space="preserve" font-family="Consolas-Bold" font-weight="bold" font-size="19.0" fill="#000000" transform="matrix(1.00, 0.00, -0.00, -1.00, 35.9, 52.0)">…</text><text xml:space="preserve" font-family="Consolas-Bold" font-weight="bold" font-size="19.0" fill="#000000" transform="matrix(1.00, 0.00, -0.00, -1.00, 46.3, 52.0)"> </text><text xml:space="preserve" font-family="Consolas-Bold" font-weight="bold" font-size="19.0" fill="#000000" transform="matrix(1.00, 0.00, -0.00, -1.00, 15.0, 30.0)">}</text></g></g></g></svg>