<?xml version="1.0" encoding="UTF-8" standalone="no"?><svg xmlns="http://www.w3.org/2000/svg" xmlns:xlink="http://www.w3.org/1999/xlink" clip-rule="evenodd" stroke-miterlimit="4.00" viewBox="0 0 157 30"><desc>SVG generated by Keynote</desc><defs></defs><g transform="matrix(1.00, 0.00, -0.00, -1.00, 0.0, 30.0)"><text xml:space="preserve" font-family="HelveticaNeue" font-size="36.0" fill="#000000" transform="matrix(1.00, 0.00, -0.00, -1.00, 0.0, 2.0)">b</text><text xml:space="preserve" font-family="HelveticaNeue" font-size="36.0" fill="#000000" transform="matrix(1.00, 0.00, -0.00, -1.00, 21.3, 2.0)">-</text><text xml:space="preserve" font-family="HelveticaNeue" font-size="36.0" fill="#000000" transform="matrix(1.00, 0.00, -0.00, -1.00, 35.4, 2.0)">t</text><text xml:space="preserve" font-family="HelveticaNeue" font-size="36.0" fill="#000000" transform="matrix(1.00, 0.00, -0.00, -1.00, 46.7, 2.0)">h</text><text xml:space="preserve" font-family="HelveticaNeue" font-size="36.0" fill="#000000" transform="matrix(1.00, 0.00, -0.00, -1.00, 66.7, 2.0)">r</text><text xml:space="preserve" font-family="HelveticaNeue" font-size="36.0" fill="#000000" transform="matrix(1.00, 0.00, -0.00, -1.00, 78.0, 2.0)">e</text><text xml:space="preserve" font-family="HelveticaNeue" font-size="36.0" fill="#000000" transform="matrix(1.00, 0.00, -0.00, -1.00, 97.4, 2.0)">a</text><text xml:space="preserve" font-family="HelveticaNeue" font-size="36.0" fill="#000000" transform="matrix(1.00, 0.00, -0.00, -1.00, 116.7, 2.0)">d</text><text xml:space="preserve" font-family="HelveticaNeue" font-size="36.0" fill="#000000" transform="matrix(1.00, 0.00, -0.00, -1.00, 138.1, 2.0)">s</text></g></svg>