<?xml version="1.0" encoding="UTF-8" standalone="no"?><svg xmlns="http://www.w3.org/2000/svg" xmlns:xlink="http://www.w3.org/1999/xlink" clip-rule="evenodd" stroke-miterlimit="4.00" viewBox="0 0 43 31"><desc>SVG generated by Keynote</desc><defs></defs><g transform="matrix(1.00, 0.00, -0.00, -1.00, 0.0, 31.0)"><g><clipPath id="clip-637"><path d="M 9.8 20.2 L 38.3 20.2 L 38.3 30.7 L 9.8 30.7 Z M 9.8 20.2 "></path></clipPath><g clip-path="url(#clip-637)"><path d="M 10.8 29.7 L 37.3 29.7 L 37.3 21.2 L 10.8 21.2 Z M 10.8 29.7 " fill="#FEA46F"></path></g></g><g><clipPath id="clip-638"><path d="M 0.9 10.5 L 42.6 10.5 L 42.6 21.0 L 0.9 21.0 Z M 0.9 10.5 "></path></clipPath><g clip-path="url(#clip-638)"><path d="M 1.9 20.0 L 41.6 20.0 L 41.6 11.5 L 1.9 11.5 Z M 1.9 20.0 " fill="#FEA46F"></path></g></g><g><clipPath id="clip-639"><path d="M 11.9 0.4 L 36.8 0.4 L 36.8 10.9 L 11.9 10.9 Z M 11.9 0.4 "></path></clipPath><g clip-path="url(#clip-639)"><path d="M 12.9 9.9 L 35.8 9.9 L 35.8 1.4 L 12.9 1.4 Z M 12.9 9.9 " fill="#FEA46F"></path></g></g></g></svg>