<?xml version="1.0" encoding="UTF-8" standalone="no"?><svg xmlns="http://www.w3.org/2000/svg" xmlns:xlink="http://www.w3.org/1999/xlink" clip-rule="evenodd" stroke-miterlimit="4.00" viewBox="0 0 1024 768"><desc>SVG generated by Keynote</desc><defs></defs><g transform="matrix(1.00, 0.00, -0.00, -1.00, 0.0, 768.0)"><path d="M 0.0 768.0 L 1024.0 768.0 L 1024.0 0.0 L 0.0 0.0 Z M 0.0 768.0 " fill="#FEFFFF"></path><image xlink:href="../../15EC0FCF-2015-4942-8431-585598BB13F9/assets/A8EF91620B596532A3C51B6A4EE8BC89.png" width="702.00" height="366.00" transform="matrix(1.28, 0.00, -0.00, -1.28, 63.0, 588.0)"></image><image xlink:href="../../15EC0FCF-2015-4942-8431-585598BB13F9/assets/6B4267C20491F7497DFCD762694C0DC7.png" width="898.00" height="60.00" transform="matrix(1.00, 0.00, -0.00, -1.00, 63.0, 647.0)"></image><g opacity="0.89"><g><clipPath id="clip-4"><path d="M 587.0 456.0 L 948.0 456.0 L 948.0 542.0 L 587.0 542.0 Z M 587.0 456.0 "></path></clipPath><g clip-path="url(#clip-4)"><path d="M 588.7 540.7 L 946.5 540.7 L 946.5 457.3 L 588.7 457.3 Z M 588.7 540.7 " fill="#F5F6EF"></path></g></g></g><g opacity="0.89"><g><clipPath id="clip-5"><path d="M 69.0 457.0 L 589.0 457.0 L 589.0 501.0 L 69.0 501.0 Z M 69.0 457.0 "></path></clipPath><g clip-path="url(#clip-5)"><path d="M 70.7 500.0 L 587.9 500.0 L 587.9 458.8 L 70.7 458.8 Z M 70.7 500.0 " fill="#F5F6EF"></path></g></g></g><g opacity="0.89"><g><clipPath id="clip-6"><path d="M 69.0 298.0 L 719.0 298.0 L 719.0 467.0 L 69.0 467.0 Z M 69.0 298.0 "></path></clipPath><g clip-path="url(#clip-6)"><path d="M 70.7 465.2 L 717.7 465.2 L 717.7 300.6 L 70.7 300.6 Z M 70.7 465.2 " fill="#F5F6EF"></path></g></g></g><g opacity="0.89"><g><clipPath id="clip-7"><path d="M 717.0 335.0 L 958.0 335.0 L 958.0 466.0 L 717.0 466.0 Z M 717.0 335.0 "></path></clipPath><g clip-path="url(#clip-7)"><path d="M 718.1 464.4 L 956.5 464.4 L 956.5 336.5 L 718.1 336.5 Z M 718.1 464.4 " fill="#F5F6EF"></path></g></g></g></g></svg>