<?xml version="1.0" encoding="UTF-8" standalone="no"?><svg xmlns="http://www.w3.org/2000/svg" xmlns:xlink="http://www.w3.org/1999/xlink" clip-rule="evenodd" stroke-miterlimit="4.00" viewBox="0 0 1024 768"><desc>SVG generated by Keynote</desc><defs></defs><g transform="matrix(1.00, 0.00, -0.00, -1.00, 0.0, 768.0)"><path d="M 0.0 768.0 L 1024.0 768.0 L 1024.0 0.0 L 0.0 0.0 Z M 0.0 768.0 " fill="#FEFFFF"></path><image xlink:href="../../D57807C1-E0F1-43FF-8E5B-740E1A842468/assets/D3A4FABAED8E17F50C62D75D9D428B4A.png" width="745.00" height="311.00" transform="matrix(1.00, 0.00, -0.00, -1.00, 139.4, 310.2)" opacity="0.50"></image><path d="M 181.8 307.7 L 842.2 307.7 C 853.0 307.7 858.6 307.7 864.4 305.8 C 870.8 303.5 875.9 298.4 878.2 292.0 C 880.1 286.2 880.1 280.6 880.1 269.6 L 880.1 44.0 C 880.1 33.1 880.1 27.6 878.2 21.8 C 875.9 15.3 870.8 10.3 864.4 7.9 C 858.6 6.1 853.0 6.1 842.0 6.1 L 181.8 6.1 C 171.0 6.1 165.4 6.1 159.6 7.9 C 153.2 10.3 148.1 15.3 145.8 21.8 C 143.9 27.6 143.9 33.1 143.9 44.2 L 143.9 269.8 C 143.9 280.6 143.9 286.2 145.8 292.0 C 148.1 298.4 153.2 303.5 159.6 305.8 C 165.4 307.7 171.0 307.7 182.0 307.7 Z M 181.8 307.7 " fill="#FFFFFF"></path><path d="M 37.9 0.0 L 698.3 0.0 C 709.1 0.0 714.7 0.0 720.5 1.9 C 726.9 4.2 732.0 9.3 734.3 15.7 C 736.2 21.5 736.2 27.1 736.2 38.1 L 736.2 263.7 C 736.2 274.6 736.2 280.1 734.3 285.9 C 732.0 292.4 726.9 297.4 720.5 299.8 C 714.7 301.6 709.1 301.6 698.1 301.6 L 37.9 301.6 C 27.1 301.6 21.5 301.6 15.7 299.8 C 9.3 297.4 4.2 292.4 1.9 285.9 C 0.0 280.1 0.0 274.6 0.0 263.5 L 0.0 37.9 C 0.0 27.1 0.0 21.5 1.9 15.7 C 4.2 9.3 9.3 4.2 15.7 1.9 C 21.5 0.0 27.1 0.0 38.1 0.0 Z M 37.9 0.0 " fill="none" stroke="#000000" stroke-width="3.00" transform="matrix(1.00, 0.00, 0.00, -1.00, 143.9, 307.7)"></path><g><clipPath id="clip-274"><path d="M 141.2 307.7 L 882.8 307.7 L 882.8 6.1 L 141.2 6.1 Z M 141.2 307.7 "></path></clipPath><g clip-path="url(#clip-274)"><text xml:space="preserve" font-family="Consolas" font-size="33.0" fill="#000000" transform="matrix(1.00, 0.00, -0.00, -1.00, 149.4, 229.3)">f</text><text xml:space="preserve" font-family="Consolas" font-size="33.0" fill="#000000" transform="matrix(1.00, 0.00, -0.00, -1.00, 167.5, 229.3)">u</text><text xml:space="preserve" font-family="Consolas" font-size="33.0" fill="#000000" transform="matrix(1.00, 0.00, -0.00, -1.00, 185.7, 229.3)">n</text><text xml:space="preserve" font-family="Consolas" font-size="33.0" fill="#000000" transform="matrix(1.00, 0.00, -0.00, -1.00, 203.8, 229.3)">c</text><text xml:space="preserve" font-family="Consolas" font-size="33.0" fill="#000000" transform="matrix(1.00, 0.00, -0.00, -1.00, 222.0, 229.3)">t</text><text xml:space="preserve" font-family="Consolas" font-size="33.0" fill="#000000" transform="matrix(1.00, 0.00, -0.00, -1.00, 240.1, 229.3)">i</text><text xml:space="preserve" font-family="Consolas" font-size="33.0" fill="#000000" transform="matrix(1.00, 0.00, -0.00, -1.00, 258.2, 229.3)">o</text><text xml:space="preserve" font-family="Consolas" font-size="33.0" fill="#000000" transform="matrix(1.00, 0.00, -0.00, -1.00, 276.4, 229.3)">n</text><text xml:space="preserve" font-family="Consolas" font-size="33.0" fill="#000000" transform="matrix(1.00, 0.00, -0.00, -1.00, 294.5, 229.3)">*</text><text xml:space="preserve" font-family="Consolas" font-size="33.0" fill="#000000" transform="matrix(1.00, 0.00, -0.00, -1.00, 312.6, 229.3)"> </text><text xml:space="preserve" font-family="Consolas" font-size="33.0" fill="#000000" transform="matrix(1.00, 0.00, -0.00, -1.00, 330.8, 229.3)">e</text><text xml:space="preserve" font-family="Consolas" font-size="33.0" fill="#000000" transform="matrix(1.00, 0.00, -0.00, -1.00, 348.9, 229.3)">n</text><text xml:space="preserve" font-family="Consolas" font-size="33.0" fill="#000000" transform="matrix(1.00, 0.00, -0.00, -1.00, 367.0, 229.3)">f</text><text xml:space="preserve" font-family="Consolas" font-size="33.0" fill="#000000" transform="matrix(1.00, 0.00, -0.00, -1.00, 385.2, 229.3)">o</text><text xml:space="preserve" font-family="Consolas" font-size="33.0" fill="#000000" transform="matrix(1.00, 0.00, -0.00, -1.00, 403.3, 229.3)">r</text><text xml:space="preserve" font-family="Consolas" font-size="33.0" fill="#000000" transform="matrix(1.00, 0.00, -0.00, -1.00, 421.5, 229.3)">c</text><text xml:space="preserve" font-family="Consolas" font-size="33.0" fill="#000000" transform="matrix(1.00, 0.00, -0.00, -1.00, 439.6, 229.3)">e</text><text xml:space="preserve" font-family="Consolas" font-size="33.0" fill="#000000" transform="matrix(1.00, 0.00, -0.00, -1.00, 457.7, 229.3)">P</text><text xml:space="preserve" font-family="Consolas" font-size="33.0" fill="#000000" transform="matrix(1.00, 0.00, -0.00, -1.00, 475.9, 229.3)">l</text><text xml:space="preserve" font-family="Consolas" font-size="33.0" fill="#000000" transform="matrix(1.00, 0.00, -0.00, -1.00, 494.0, 229.3)">a</text><text xml:space="preserve" font-family="Consolas" font-size="33.0" fill="#000000" transform="matrix(1.00, 0.00, -0.00, -1.00, 512.1, 229.3)">y</text><text xml:space="preserve" font-family="Consolas" font-size="33.0" fill="#000000" transform="matrix(1.00, 0.00, -0.00, -1.00, 530.3, 229.3)">e</text><text xml:space="preserve" font-family="Consolas" font-size="33.0" fill="#000000" transform="matrix(1.00, 0.00, -0.00, -1.00, 548.4, 229.3)">r</text><text xml:space="preserve" font-family="Consolas" font-size="33.0" fill="#000000" transform="matrix(1.00, 0.00, -0.00, -1.00, 566.6, 229.3)">T</text><text xml:space="preserve" font-family="Consolas" font-size="33.0" fill="#000000" transform="matrix(1.00, 0.00, -0.00, -1.00, 584.7, 229.3)">u</text><text xml:space="preserve" font-family="Consolas" font-size="33.0" fill="#000000" transform="matrix(1.00, 0.00, -0.00, -1.00, 602.8, 229.3)">r</text><text xml:space="preserve" font-family="Consolas" font-size="33.0" fill="#000000" transform="matrix(1.00, 0.00, -0.00, -1.00, 621.0, 229.3)">n</text><text xml:space="preserve" font-family="Consolas" font-size="33.0" fill="#000000" transform="matrix(1.00, 0.00, -0.00, -1.00, 639.1, 229.3)">s</text><text xml:space="preserve" font-family="Consolas" font-size="33.0" fill="#000000" transform="matrix(1.00, 0.00, -0.00, -1.00, 657.2, 229.3)">(</text><text xml:space="preserve" font-family="Consolas" font-size="33.0" fill="#000000" transform="matrix(1.00, 0.00, -0.00, -1.00, 675.4, 229.3)">)</text><text xml:space="preserve" font-family="Consolas" font-size="33.0" fill="#000000" transform="matrix(1.00, 0.00, -0.00, -1.00, 693.5, 229.3)"> </text><text xml:space="preserve" font-family="Consolas" font-size="33.0" fill="#000000" transform="matrix(1.00, 0.00, -0.00, -1.00, 711.6, 229.3)">{</text><text xml:space="preserve" font-family="Consolas" font-size="33.0" fill="#000000" transform="matrix(1.00, 0.00, -0.00, -1.00, 729.8, 229.3)"> </text><text xml:space="preserve" font-family="Consolas" font-size="33.0" fill="#000000" transform="matrix(1.00, 0.00, -0.00, -1.00, 149.4, 190.3)"> </text><text xml:space="preserve" font-family="Consolas" font-size="33.0" fill="#000000" transform="matrix(1.00, 0.00, -0.00, -1.00, 167.5, 190.3)"> </text><text xml:space="preserve" font-family="Consolas" font-size="33.0" fill="#000000" transform="matrix(1.00, 0.00, -0.00, -1.00, 185.7, 190.3)">w</text><text xml:space="preserve" font-family="Consolas" font-size="33.0" fill="#000000" transform="matrix(1.00, 0.00, -0.00, -1.00, 203.8, 190.3)">h</text><text xml:space="preserve" font-family="Consolas" font-size="33.0" fill="#000000" transform="matrix(1.00, 0.00, -0.00, -1.00, 222.0, 190.3)">i</text><text xml:space="preserve" font-family="Consolas" font-size="33.0" fill="#000000" transform="matrix(1.00, 0.00, -0.00, -1.00, 240.1, 190.3)">l</text><text xml:space="preserve" font-family="Consolas" font-size="33.0" fill="#000000" transform="matrix(1.00, 0.00, -0.00, -1.00, 258.2, 190.3)">e</text><text xml:space="preserve" font-family="Consolas" font-size="33.0" fill="#000000" transform="matrix(1.00, 0.00, -0.00, -1.00, 276.4, 190.3)"> </text><text xml:space="preserve" font-family="Consolas" font-size="33.0" fill="#000000" transform="matrix(1.00, 0.00, -0.00, -1.00, 294.5, 190.3)">(</text><text xml:space="preserve" font-family="Consolas" font-size="33.0" fill="#000000" transform="matrix(1.00, 0.00, -0.00, -1.00, 312.6, 190.3)">t</text><text xml:space="preserve" font-family="Consolas" font-size="33.0" fill="#000000" transform="matrix(1.00, 0.00, -0.00, -1.00, 330.8, 190.3)">r</text><text xml:space="preserve" font-family="Consolas" font-size="33.0" fill="#000000" transform="matrix(1.00, 0.00, -0.00, -1.00, 348.9, 190.3)">u</text><text xml:space="preserve" font-family="Consolas" font-size="33.0" fill="#000000" transform="matrix(1.00, 0.00, -0.00, -1.00, 367.0, 190.3)">e</text><text xml:space="preserve" font-family="Consolas" font-size="33.0" fill="#000000" transform="matrix(1.00, 0.00, -0.00, -1.00, 385.2, 190.3)">)</text><text xml:space="preserve" font-family="Consolas" font-size="33.0" fill="#000000" transform="matrix(1.00, 0.00, -0.00, -1.00, 403.3, 190.3)"> </text><text xml:space="preserve" font-family="Consolas" font-size="33.0" fill="#000000" transform="matrix(1.00, 0.00, -0.00, -1.00, 421.5, 190.3)">{</text><text xml:space="preserve" font-family="Consolas" font-size="33.0" fill="#000000" transform="matrix(1.00, 0.00, -0.00, -1.00, 439.6, 190.3)"> </text><text xml:space="preserve" font-family="Consolas" font-size="33.0" fill="#000000" transform="matrix(1.00, 0.00, -0.00, -1.00, 149.4, 151.3)"> </text><text xml:space="preserve" font-family="Consolas" font-size="33.0" fill="#000000" transform="matrix(1.00, 0.00, -0.00, -1.00, 167.5, 151.3)"> </text><text xml:space="preserve" font-family="Consolas" font-size="33.0" fill="#000000" transform="matrix(1.00, 0.00, -0.00, -1.00, 185.7, 151.3)"> </text><text xml:space="preserve" font-family="Consolas" font-size="33.0" fill="#000000" transform="matrix(1.00, 0.00, -0.00, -1.00, 203.8, 151.3)"> </text><text xml:space="preserve" font-family="Consolas" font-size="33.0" fill="#000000" transform="matrix(1.00, 0.00, -0.00, -1.00, 222.0, 151.3)">y</text><text xml:space="preserve" font-family="Consolas" font-size="33.0" fill="#000000" transform="matrix(1.00, 0.00, -0.00, -1.00, 240.1, 151.3)">i</text><text xml:space="preserve" font-family="Consolas" font-size="33.0" fill="#000000" transform="matrix(1.00, 0.00, -0.00, -1.00, 258.2, 151.3)">e</text><text xml:space="preserve" font-family="Consolas" font-size="33.0" fill="#000000" transform="matrix(1.00, 0.00, -0.00, -1.00, 276.4, 151.3)">l</text><text xml:space="preserve" font-family="Consolas" font-size="33.0" fill="#000000" transform="matrix(1.00, 0.00, -0.00, -1.00, 294.5, 151.3)">d</text><text xml:space="preserve" font-family="Consolas" font-size="33.0" fill="#000000" transform="matrix(1.00, 0.00, -0.00, -1.00, 312.6, 151.3)"> </text><text xml:space="preserve" font-family="Consolas" font-size="33.0" fill="#000000" transform="matrix(1.00, 0.00, -0.00, -1.00, 330.8, 151.3)">{</text><text xml:space="preserve" font-family="Consolas" font-size="33.0" fill="#000000" transform="matrix(1.00, 0.00, -0.00, -1.00, 348.9, 151.3)"> </text><text xml:space="preserve" font-family="Consolas" font-size="33.0" fill="#007F00" transform="matrix(1.00, 0.00, -0.00, -1.00, 367.1, 151.3)">w</text><text xml:space="preserve" font-family="Consolas" font-size="33.0" fill="#007F00" transform="matrix(1.00, 0.00, -0.00, -1.00, 385.3, 151.3)">a</text><text xml:space="preserve" font-family="Consolas" font-size="33.0" fill="#007F00" transform="matrix(1.00, 0.00, -0.00, -1.00, 403.4, 151.3)">i</text><text xml:space="preserve" font-family="Consolas" font-size="33.0" fill="#007F00" transform="matrix(1.00, 0.00, -0.00, -1.00, 421.5, 151.3)">t</text><text xml:space="preserve" font-family="Consolas" font-size="33.0" fill="#000000" transform="matrix(1.00, 0.00, -0.00, -1.00, 439.7, 151.3)">:</text><text xml:space="preserve" font-family="Consolas" font-size="33.0" fill="#000000" transform="matrix(1.00, 0.00, -0.00, -1.00, 457.8, 151.3)"> </text><text xml:space="preserve" font-family="Consolas" font-size="33.0" fill="#000000" transform="matrix(1.00, 0.00, -0.00, -1.00, 476.0, 151.3)">'</text><text xml:space="preserve" font-family="Consolas" font-size="33.0" fill="#000000" transform="matrix(1.00, 0.00, -0.00, -1.00, 494.1, 151.3)">X</text><text xml:space="preserve" font-family="Consolas" font-size="33.0" fill="#000000" transform="matrix(1.00, 0.00, -0.00, -1.00, 512.2, 151.3)">'</text><text xml:space="preserve" font-family="Consolas" font-size="33.0" fill="#000000" transform="matrix(1.00, 0.00, -0.00, -1.00, 530.4, 151.3)">,</text><text xml:space="preserve" font-family="Consolas" font-size="33.0" fill="#000000" transform="matrix(1.00, 0.00, -0.00, -1.00, 548.5, 151.3)"> </text><text xml:space="preserve" font-family="Consolas" font-size="33.0" fill="#FF4C41" transform="matrix(1.00, 0.00, -0.00, -1.00, 566.7, 151.3)">b</text><text xml:space="preserve" font-family="Consolas" font-size="33.0" fill="#FF4C41" transform="matrix(1.00, 0.00, -0.00, -1.00, 584.8, 151.3)">l</text><text xml:space="preserve" font-family="Consolas" font-size="33.0" fill="#FF4C41" transform="matrix(1.00, 0.00, -0.00, -1.00, 603.0, 151.3)">o</text><text xml:space="preserve" font-family="Consolas" font-size="33.0" fill="#FF4C41" transform="matrix(1.00, 0.00, -0.00, -1.00, 621.1, 151.3)">c</text><text xml:space="preserve" font-family="Consolas" font-size="33.0" fill="#FF4C41" transform="matrix(1.00, 0.00, -0.00, -1.00, 639.3, 151.3)">k</text><text xml:space="preserve" font-family="Consolas" font-size="33.0" fill="#000000" transform="matrix(1.00, 0.00, -0.00, -1.00, 657.4, 151.3)">:</text><text xml:space="preserve" font-family="Consolas" font-size="33.0" fill="#000000" transform="matrix(1.00, 0.00, -0.00, -1.00, 675.6, 151.3)"> </text><text xml:space="preserve" font-family="Consolas" font-size="33.0" fill="#000000" transform="matrix(1.00, 0.00, -0.00, -1.00, 693.7, 151.3)">'</text><text xml:space="preserve" font-family="Consolas" font-size="33.0" fill="#000000" transform="matrix(1.00, 0.00, -0.00, -1.00, 711.8, 151.3)">O</text><text xml:space="preserve" font-family="Consolas" font-size="33.0" fill="#000000" transform="matrix(1.00, 0.00, -0.00, -1.00, 730.0, 151.3)">'</text><text xml:space="preserve" font-family="Consolas" font-size="33.0" fill="#000000" transform="matrix(1.00, 0.00, -0.00, -1.00, 748.1, 151.3)"> </text><text xml:space="preserve" font-family="Consolas" font-size="33.0" fill="#000000" transform="matrix(1.00, 0.00, -0.00, -1.00, 766.2, 151.3)">}</text><text xml:space="preserve" font-family="Consolas" font-size="33.0" fill="#000000" transform="matrix(1.00, 0.00, -0.00, -1.00, 784.4, 151.3)">;</text><text xml:space="preserve" font-family="Consolas" font-size="33.0" fill="#000000" transform="matrix(1.00, 0.00, -0.00, -1.00, 802.5, 151.3)"> </text><text xml:space="preserve" font-family="Consolas" font-size="33.0" fill="#000000" transform="matrix(1.00, 0.00, -0.00, -1.00, 149.4, 112.3)"> </text><text xml:space="preserve" font-family="Consolas" font-size="33.0" fill="#000000" transform="matrix(1.00, 0.00, -0.00, -1.00, 167.5, 112.3)"> </text><text xml:space="preserve" font-family="Consolas" font-size="33.0" fill="#000000" transform="matrix(1.00, 0.00, -0.00, -1.00, 185.7, 112.3)"> </text><text xml:space="preserve" font-family="Consolas" font-size="33.0" fill="#000000" transform="matrix(1.00, 0.00, -0.00, -1.00, 203.8, 112.3)"> </text><text xml:space="preserve" font-family="Consolas" font-size="33.0" fill="#000000" transform="matrix(1.00, 0.00, -0.00, -1.00, 222.0, 112.3)">y</text><text xml:space="preserve" font-family="Consolas" font-size="33.0" fill="#000000" transform="matrix(1.00, 0.00, -0.00, -1.00, 240.1, 112.3)">i</text><text xml:space="preserve" font-family="Consolas" font-size="33.0" fill="#000000" transform="matrix(1.00, 0.00, -0.00, -1.00, 258.2, 112.3)">e</text><text xml:space="preserve" font-family="Consolas" font-size="33.0" fill="#000000" transform="matrix(1.00, 0.00, -0.00, -1.00, 276.4, 112.3)">l</text><text xml:space="preserve" font-family="Consolas" font-size="33.0" fill="#000000" transform="matrix(1.00, 0.00, -0.00, -1.00, 294.5, 112.3)">d</text><text xml:space="preserve" font-family="Consolas" font-size="33.0" fill="#000000" transform="matrix(1.00, 0.00, -0.00, -1.00, 312.6, 112.3)"> </text><text xml:space="preserve" font-family="Consolas" font-size="33.0" fill="#000000" transform="matrix(1.00, 0.00, -0.00, -1.00, 330.8, 112.3)">{</text><text xml:space="preserve" font-family="Consolas" font-size="33.0" fill="#000000" transform="matrix(1.00, 0.00, -0.00, -1.00, 348.9, 112.3)"> </text><text xml:space="preserve" font-family="Consolas" font-size="33.0" fill="#007F00" transform="matrix(1.00, 0.00, -0.00, -1.00, 367.1, 112.3)">w</text><text xml:space="preserve" font-family="Consolas" font-size="33.0" fill="#007F00" transform="matrix(1.00, 0.00, -0.00, -1.00, 385.3, 112.3)">a</text><text xml:space="preserve" font-family="Consolas" font-size="33.0" fill="#007F00" transform="matrix(1.00, 0.00, -0.00, -1.00, 403.4, 112.3)">i</text><text xml:space="preserve" font-family="Consolas" font-size="33.0" fill="#007F00" transform="matrix(1.00, 0.00, -0.00, -1.00, 421.5, 112.3)">t</text><text xml:space="preserve" font-family="Consolas" font-size="33.0" fill="#000000" transform="matrix(1.00, 0.00, -0.00, -1.00, 439.7, 112.3)">:</text><text xml:space="preserve" font-family="Consolas" font-size="33.0" fill="#000000" transform="matrix(1.00, 0.00, -0.00, -1.00, 457.8, 112.3)"> </text><text xml:space="preserve" font-family="Consolas" font-size="33.0" fill="#000000" transform="matrix(1.00, 0.00, -0.00, -1.00, 476.0, 112.3)">'</text><text xml:space="preserve" font-family="Consolas" font-size="33.0" fill="#000000" transform="matrix(1.00, 0.00, -0.00, -1.00, 494.1, 112.3)">O</text><text xml:space="preserve" font-family="Consolas" font-size="33.0" fill="#000000" transform="matrix(1.00, 0.00, -0.00, -1.00, 512.2, 112.3)">'</text><text xml:space="preserve" font-family="Consolas" font-size="33.0" fill="#000000" transform="matrix(1.00, 0.00, -0.00, -1.00, 530.4, 112.3)">,</text><text xml:space="preserve" font-family="Consolas" font-size="33.0" fill="#000000" transform="matrix(1.00, 0.00, -0.00, -1.00, 548.5, 112.3)"> </text><text xml:space="preserve" font-family="Consolas" font-size="33.0" fill="#FF4C41" transform="matrix(1.00, 0.00, -0.00, -1.00, 566.7, 112.3)">b</text><text xml:space="preserve" font-family="Consolas" font-size="33.0" fill="#FF4C41" transform="matrix(1.00, 0.00, -0.00, -1.00, 584.8, 112.3)">l</text><text xml:space="preserve" font-family="Consolas" font-size="33.0" fill="#FF4C41" transform="matrix(1.00, 0.00, -0.00, -1.00, 603.0, 112.3)">o</text><text xml:space="preserve" font-family="Consolas" font-size="33.0" fill="#FF4C41" transform="matrix(1.00, 0.00, -0.00, -1.00, 621.1, 112.3)">c</text><text xml:space="preserve" font-family="Consolas" font-size="33.0" fill="#FF4C41" transform="matrix(1.00, 0.00, -0.00, -1.00, 639.3, 112.3)">k</text><text xml:space="preserve" font-family="Consolas" font-size="33.0" fill="#000000" transform="matrix(1.00, 0.00, -0.00, -1.00, 657.4, 112.3)">:</text><text xml:space="preserve" font-family="Consolas" font-size="33.0" fill="#000000" transform="matrix(1.00, 0.00, -0.00, -1.00, 675.6, 112.3)"> </text><text xml:space="preserve" font-family="Consolas" font-size="33.0" fill="#000000" transform="matrix(1.00, 0.00, -0.00, -1.00, 693.7, 112.3)">'</text><text xml:space="preserve" font-family="Consolas" font-size="33.0" fill="#000000" transform="matrix(1.00, 0.00, -0.00, -1.00, 711.8, 112.3)">X</text><text xml:space="preserve" font-family="Consolas" font-size="33.0" fill="#000000" transform="matrix(1.00, 0.00, -0.00, -1.00, 730.0, 112.3)">'</text><text xml:space="preserve" font-family="Consolas" font-size="33.0" fill="#000000" transform="matrix(1.00, 0.00, -0.00, -1.00, 748.1, 112.3)"> </text><text xml:space="preserve" font-family="Consolas" font-size="33.0" fill="#000000" transform="matrix(1.00, 0.00, -0.00, -1.00, 766.2, 112.3)">}</text><text xml:space="preserve" font-family="Consolas" font-size="33.0" fill="#000000" transform="matrix(1.00, 0.00, -0.00, -1.00, 784.4, 112.3)">;</text><text xml:space="preserve" font-family="Consolas" font-size="33.0" fill="#000000" transform="matrix(1.00, 0.00, -0.00, -1.00, 802.5, 112.3)"> </text><text xml:space="preserve" font-family="Consolas" font-size="33.0" fill="#000000" transform="matrix(1.00, 0.00, -0.00, -1.00, 149.4, 73.3)"> </text><text xml:space="preserve" font-family="Consolas" font-size="33.0" fill="#000000" transform="matrix(1.00, 0.00, -0.00, -1.00, 167.5, 73.3)"> </text><text xml:space="preserve" font-family="Consolas" font-size="33.0" fill="#000000" transform="matrix(1.00, 0.00, -0.00, -1.00, 185.7, 73.3)">}</text><text xml:space="preserve" font-family="Consolas" font-size="33.0" fill="#000000" transform="matrix(1.00, 0.00, -0.00, -1.00, 203.8, 73.3)"> </text><text xml:space="preserve" font-family="Consolas" font-size="33.0" fill="#000000" transform="matrix(1.00, 0.00, -0.00, -1.00, 150.4, 34.3)">}</text></g></g><text xml:space="preserve" font-family="Consolas" font-size="20.0" fill="#000000" transform="matrix(1.00, 0.00, -0.00, -1.00, 358.0, 318.0)">b</text><text xml:space="preserve" font-family="Consolas" font-size="20.0" fill="#000000" transform="matrix(1.00, 0.00, -0.00, -1.00, 369.0, 318.0)">-</text><text xml:space="preserve" font-family="Consolas" font-size="20.0" fill="#000000" transform="matrix(1.00, 0.00, -0.00, -1.00, 380.0, 318.0)">t</text><text xml:space="preserve" font-family="Consolas" font-size="20.0" fill="#000000" transform="matrix(1.00, 0.00, -0.00, -1.00, 391.0, 318.0)">h</text><text xml:space="preserve" font-family="Consolas" font-size="20.0" fill="#000000" transform="matrix(1.00, 0.00, -0.00, -1.00, 402.0, 318.0)">r</text><text xml:space="preserve" font-family="Consolas" font-size="20.0" fill="#000000" transform="matrix(1.00, 0.00, -0.00, -1.00, 413.0, 318.0)">e</text><text xml:space="preserve" font-family="Consolas" font-size="20.0" fill="#000000" transform="matrix(1.00, 0.00, -0.00, -1.00, 424.0, 318.0)">a</text><text xml:space="preserve" font-family="Consolas" font-size="20.0" fill="#000000" transform="matrix(1.00, 0.00, -0.00, -1.00, 434.9, 318.0)">d</text><text xml:space="preserve" font-family="Consolas" font-size="20.0" fill="#000000" transform="matrix(1.00, 0.00, -0.00, -1.00, 445.9, 318.0)">:</text><text xml:space="preserve" font-family="Consolas" font-size="20.0" fill="#000000" transform="matrix(1.00, 0.00, -0.00, -1.00, 456.9, 318.0)"> </text><text xml:space="preserve" font-family="Consolas" font-size="20.0" fill="#000000" transform="matrix(1.00, 0.00, -0.00, -1.00, 467.9, 318.0)">E</text><text xml:space="preserve" font-family="Consolas" font-size="20.0" fill="#000000" transform="matrix(1.00, 0.00, -0.00, -1.00, 478.9, 318.0)">n</text><text xml:space="preserve" font-family="Consolas" font-size="20.0" fill="#000000" transform="matrix(1.00, 0.00, -0.00, -1.00, 489.9, 318.0)">f</text><text xml:space="preserve" font-family="Consolas" font-size="20.0" fill="#000000" transform="matrix(1.00, 0.00, -0.00, -1.00, 500.9, 318.0)">o</text><text xml:space="preserve" font-family="Consolas" font-size="20.0" fill="#000000" transform="matrix(1.00, 0.00, -0.00, -1.00, 511.9, 318.0)">r</text><text xml:space="preserve" font-family="Consolas" font-size="20.0" fill="#000000" transform="matrix(1.00, 0.00, -0.00, -1.00, 522.9, 318.0)">c</text><text xml:space="preserve" font-family="Consolas" font-size="20.0" fill="#000000" transform="matrix(1.00, 0.00, -0.00, -1.00, 533.9, 318.0)">e</text><text xml:space="preserve" font-family="Consolas" font-size="20.0" fill="#000000" transform="matrix(1.00, 0.00, -0.00, -1.00, 544.9, 318.0)">P</text><text xml:space="preserve" font-family="Consolas" font-size="20.0" fill="#000000" transform="matrix(1.00, 0.00, -0.00, -1.00, 555.9, 318.0)">l</text><text xml:space="preserve" font-family="Consolas" font-size="20.0" fill="#000000" transform="matrix(1.00, 0.00, -0.00, -1.00, 566.8, 318.0)">a</text><text xml:space="preserve" font-family="Consolas" font-size="20.0" fill="#000000" transform="matrix(1.00, 0.00, -0.00, -1.00, 577.8, 318.0)">y</text><text xml:space="preserve" font-family="Consolas" font-size="20.0" fill="#000000" transform="matrix(1.00, 0.00, -0.00, -1.00, 588.8, 318.0)">e</text><text xml:space="preserve" font-family="Consolas" font-size="20.0" fill="#000000" transform="matrix(1.00, 0.00, -0.00, -1.00, 599.8, 318.0)">r</text><text xml:space="preserve" font-family="Consolas" font-size="20.0" fill="#000000" transform="matrix(1.00, 0.00, -0.00, -1.00, 610.8, 318.0)">T</text><text xml:space="preserve" font-family="Consolas" font-size="20.0" fill="#000000" transform="matrix(1.00, 0.00, -0.00, -1.00, 621.8, 318.0)">u</text><text xml:space="preserve" font-family="Consolas" font-size="20.0" fill="#000000" transform="matrix(1.00, 0.00, -0.00, -1.00, 632.8, 318.0)">r</text><text xml:space="preserve" font-family="Consolas" font-size="20.0" fill="#000000" transform="matrix(1.00, 0.00, -0.00, -1.00, 643.8, 318.0)">n</text><text xml:space="preserve" font-family="Consolas" font-size="20.0" fill="#000000" transform="matrix(1.00, 0.00, -0.00, -1.00, 654.8, 318.0)">s</text><image xlink:href="../../D57807C1-E0F1-43FF-8E5B-740E1A842468/assets/3308B43F803453859F20EAA618371DAA.png" width="895.00" height="413.00" transform="matrix(1.00, 0.00, -0.00, -1.00, 65.0, 759.0)"></image><image xlink:href="../../FC452F4A-05CD-4824-B9FD-0BF2FFE6301B/assets/FD26C7538F2A624DF096EFA0CDE53D01.png" width="83.00" height="83.00" transform="matrix(0.99, 0.00, -0.00, -0.99, 235.0, 603.0)"></image><text xml:space="preserve" font-family="Verdana" font-size="32.0" fill="#000000" transform="matrix(1.00, 0.00, -0.00, -1.00, 466.0, 709.0)">{</text><text xml:space="preserve" font-family="Verdana" font-size="32.0" fill="#000000" transform="matrix(1.00, 0.00, -0.00, -1.00, 486.3, 709.0)"> </text><text xml:space="preserve" font-family="Verdana" font-size="32.0" fill="#000000" transform="matrix(1.00, 0.00, -0.00, -1.00, 497.5, 709.0)">t</text><text xml:space="preserve" font-family="Verdana" font-size="32.0" fill="#000000" transform="matrix(1.00, 0.00, -0.00, -1.00, 510.0, 709.0)">y</text><text xml:space="preserve" font-family="Verdana" font-size="32.0" fill="#000000" transform="matrix(1.00, 0.00, -0.00, -1.00, 528.9, 709.0)">p</text><text xml:space="preserve" font-family="Verdana" font-size="32.0" fill="#000000" transform="matrix(1.00, 0.00, -0.00, -1.00, 548.9, 709.0)">e</text><text xml:space="preserve" font-family="Verdana" font-size="32.0" fill="#000000" transform="matrix(1.00, 0.00, -0.00, -1.00, 567.9, 709.0)">:</text><text xml:space="preserve" font-family="Verdana" font-size="32.0" fill="#000000" transform="matrix(1.00, 0.00, -0.00, -1.00, 582.5, 709.0)"> </text><text xml:space="preserve" font-family="Verdana" font-size="32.0" fill="#000000" transform="matrix(1.00, 0.00, -0.00, -1.00, 593.7, 709.0)">"</text><text xml:space="preserve" font-family="Verdana-Bold" font-weight="bold" font-size="32.0" fill="#0432FF" transform="matrix(1.00, 0.00, -0.00, -1.00, 608.4, 709.0)">X</text><text xml:space="preserve" font-family="Verdana" font-size="32.0" fill="#000000" transform="matrix(1.00, 0.00, -0.00, -1.00, 632.9, 709.0)">"</text><text xml:space="preserve" font-family="Verdana" font-size="32.0" fill="#000000" transform="matrix(1.00, 0.00, -0.00, -1.00, 647.5, 709.0)">,</text><text xml:space="preserve" font-family="Verdana" font-size="32.0" fill="#000000" transform="matrix(1.00, 0.00, -0.00, -1.00, 659.2, 709.0)"> </text><text xml:space="preserve" font-family="Verdana" font-size="32.0" fill="#000000" transform="matrix(1.00, 0.00, -0.00, -1.00, 670.4, 709.0)">p</text><text xml:space="preserve" font-family="Verdana" font-size="32.0" fill="#000000" transform="matrix(1.00, 0.00, -0.00, -1.00, 690.4, 709.0)">a</text><text xml:space="preserve" font-family="Verdana" font-size="32.0" fill="#000000" transform="matrix(1.00, 0.00, -0.00, -1.00, 709.3, 709.0)">y</text><text xml:space="preserve" font-family="Verdana" font-size="32.0" fill="#000000" transform="matrix(1.00, 0.00, -0.00, -1.00, 728.2, 709.0)">l</text><text xml:space="preserve" font-family="Verdana" font-size="32.0" fill="#000000" transform="matrix(1.00, 0.00, -0.00, -1.00, 737.0, 709.0)">o</text><text xml:space="preserve" font-family="Verdana" font-size="32.0" fill="#000000" transform="matrix(1.00, 0.00, -0.00, -1.00, 756.5, 709.0)">a</text><text xml:space="preserve" font-family="Verdana" font-size="32.0" fill="#000000" transform="matrix(1.00, 0.00, -0.00, -1.00, 775.7, 709.0)">d</text><text xml:space="preserve" font-family="Verdana" font-size="32.0" fill="#000000" transform="matrix(1.00, 0.00, -0.00, -1.00, 795.6, 709.0)">:</text><text xml:space="preserve" font-family="Verdana" font-size="32.0" fill="#000000" transform="matrix(1.00, 0.00, -0.00, -1.00, 810.1, 709.0)"> </text><text xml:space="preserve" font-family="Verdana" font-size="32.0" fill="#000000" transform="matrix(1.00, 0.00, -0.00, -1.00, 821.4, 709.0)">0</text><text xml:space="preserve" font-family="Verdana" font-size="32.0" fill="#000000" transform="matrix(1.00, 0.00, -0.00, -1.00, 841.7, 709.0)"> </text><text xml:space="preserve" font-family="Verdana" font-size="32.0" fill="#000000" transform="matrix(1.00, 0.00, -0.00, -1.00, 852.9, 709.0)">}</text><text xml:space="preserve" font-family="Verdana-Bold" font-weight="bold" font-size="32.0" fill="#0432FF" transform="matrix(1.00, 0.00, -0.00, -1.00, 93.0, 677.0)">X</text><text xml:space="preserve" font-family="Verdana" font-size="32.0" fill="#000000" transform="matrix(1.00, 0.00, -0.00, -1.00, 464.0, 665.0)">{</text><text xml:space="preserve" font-family="Verdana" font-size="32.0" fill="#000000" transform="matrix(1.00, 0.00, -0.00, -1.00, 484.3, 665.0)"> </text><text xml:space="preserve" font-family="Verdana" font-size="32.0" fill="#000000" transform="matrix(1.00, 0.00, -0.00, -1.00, 495.5, 665.0)">t</text><text xml:space="preserve" font-family="Verdana" font-size="32.0" fill="#000000" transform="matrix(1.00, 0.00, -0.00, -1.00, 508.0, 665.0)">y</text><text xml:space="preserve" font-family="Verdana" font-size="32.0" fill="#000000" transform="matrix(1.00, 0.00, -0.00, -1.00, 526.9, 665.0)">p</text><text xml:space="preserve" font-family="Verdana" font-size="32.0" fill="#000000" transform="matrix(1.00, 0.00, -0.00, -1.00, 546.9, 665.0)">e</text><text xml:space="preserve" font-family="Verdana" font-size="32.0" fill="#000000" transform="matrix(1.00, 0.00, -0.00, -1.00, 565.9, 665.0)">:</text><text xml:space="preserve" font-family="Verdana" font-size="32.0" fill="#000000" transform="matrix(1.00, 0.00, -0.00, -1.00, 580.5, 665.0)"> </text><text xml:space="preserve" font-family="Verdana" font-size="32.0" fill="#000000" transform="matrix(1.00, 0.00, -0.00, -1.00, 591.7, 665.0)">"</text><text xml:space="preserve" font-family="Verdana-Bold" font-weight="bold" font-size="32.0" fill="#000000" transform="matrix(1.00, 0.00, -0.00, -1.00, 606.4, 665.0)">O</text><text xml:space="preserve" font-family="Verdana" font-size="32.0" fill="#000000" transform="matrix(1.00, 0.00, -0.00, -1.00, 633.6, 665.0)">"</text><text xml:space="preserve" font-family="Verdana" font-size="32.0" fill="#000000" transform="matrix(1.00, 0.00, -0.00, -1.00, 648.3, 665.0)">,</text><text xml:space="preserve" font-family="Verdana" font-size="32.0" fill="#000000" transform="matrix(1.00, 0.00, -0.00, -1.00, 659.9, 665.0)"> </text><text xml:space="preserve" font-family="Verdana" font-size="32.0" fill="#000000" transform="matrix(1.00, 0.00, -0.00, -1.00, 671.2, 665.0)">p</text><text xml:space="preserve" font-family="Verdana" font-size="32.0" fill="#000000" transform="matrix(1.00, 0.00, -0.00, -1.00, 691.1, 665.0)">a</text><text xml:space="preserve" font-family="Verdana" font-size="32.0" fill="#000000" transform="matrix(1.00, 0.00, -0.00, -1.00, 710.1, 665.0)">y</text><text xml:space="preserve" font-family="Verdana" font-size="32.0" fill="#000000" transform="matrix(1.00, 0.00, -0.00, -1.00, 729.0, 665.0)">l</text><text xml:space="preserve" font-family="Verdana" font-size="32.0" fill="#000000" transform="matrix(1.00, 0.00, -0.00, -1.00, 737.8, 665.0)">o</text><text xml:space="preserve" font-family="Verdana" font-size="32.0" fill="#000000" transform="matrix(1.00, 0.00, -0.00, -1.00, 757.2, 665.0)">a</text><text xml:space="preserve" font-family="Verdana" font-size="32.0" fill="#000000" transform="matrix(1.00, 0.00, -0.00, -1.00, 776.4, 665.0)">d</text><text xml:space="preserve" font-family="Verdana" font-size="32.0" fill="#000000" transform="matrix(1.00, 0.00, -0.00, -1.00, 796.4, 665.0)">:</text><text xml:space="preserve" font-family="Verdana" font-size="32.0" fill="#000000" transform="matrix(1.00, 0.00, -0.00, -1.00, 810.9, 665.0)"> </text><text xml:space="preserve" font-family="Verdana" font-size="32.0" fill="#000000" transform="matrix(1.00, 0.00, -0.00, -1.00, 822.1, 665.0)">4</text><text xml:space="preserve" font-family="Verdana" font-size="32.0" fill="#000000" transform="matrix(1.00, 0.00, -0.00, -1.00, 842.5, 665.0)"> </text><text xml:space="preserve" font-family="Verdana" font-size="32.0" fill="#000000" transform="matrix(1.00, 0.00, -0.00, -1.00, 853.7, 665.0)">}</text><text xml:space="preserve" font-family="Verdana-Bold" font-weight="bold" font-size="32.0" fill="#000000" transform="matrix(1.00, 0.00, -0.00, -1.00, 169.0, 582.0)">O</text><path d="M 0.0 0.0 L 585.8 2.1 " fill="none" stroke="#E5D20F" stroke-width="5.00" transform="matrix(1.00, 0.00, 0.00, -1.00, 210.4, 142.8)"></path><text xml:space="preserve" font-family="Verdana" font-size="32.0" fill="#000000" transform="matrix(1.00, 0.00, -0.00, -1.00, 466.0, 623.0)">{</text><text xml:space="preserve" font-family="Verdana" font-size="32.0" fill="#000000" transform="matrix(1.00, 0.00, -0.00, -1.00, 486.3, 623.0)"> </text><text xml:space="preserve" font-family="Verdana" font-size="32.0" fill="#000000" transform="matrix(1.00, 0.00, -0.00, -1.00, 497.5, 623.0)">t</text><text xml:space="preserve" font-family="Verdana" font-size="32.0" fill="#000000" transform="matrix(1.00, 0.00, -0.00, -1.00, 510.0, 623.0)">y</text><text xml:space="preserve" font-family="Verdana" font-size="32.0" fill="#000000" transform="matrix(1.00, 0.00, -0.00, -1.00, 528.9, 623.0)">p</text><text xml:space="preserve" font-family="Verdana" font-size="32.0" fill="#000000" transform="matrix(1.00, 0.00, -0.00, -1.00, 548.9, 623.0)">e</text><text xml:space="preserve" font-family="Verdana" font-size="32.0" fill="#000000" transform="matrix(1.00, 0.00, -0.00, -1.00, 567.9, 623.0)">:</text><text xml:space="preserve" font-family="Verdana" font-size="32.0" fill="#000000" transform="matrix(1.00, 0.00, -0.00, -1.00, 582.5, 623.0)"> </text><text xml:space="preserve" font-family="Verdana" font-size="32.0" fill="#000000" transform="matrix(1.00, 0.00, -0.00, -1.00, 593.7, 623.0)">"</text><text xml:space="preserve" font-family="Verdana-Bold" font-weight="bold" font-size="32.0" fill="#0432FF" transform="matrix(1.00, 0.00, -0.00, -1.00, 608.4, 623.0)">X</text><text xml:space="preserve" font-family="Verdana" font-size="32.0" fill="#000000" transform="matrix(1.00, 0.00, -0.00, -1.00, 632.9, 623.0)">"</text><text xml:space="preserve" font-family="Verdana" font-size="32.0" fill="#000000" transform="matrix(1.00, 0.00, -0.00, -1.00, 647.5, 623.0)">,</text><text xml:space="preserve" font-family="Verdana" font-size="32.0" fill="#000000" transform="matrix(1.00, 0.00, -0.00, -1.00, 659.2, 623.0)"> </text><text xml:space="preserve" font-family="Verdana" font-size="32.0" fill="#000000" transform="matrix(1.00, 0.00, -0.00, -1.00, 670.4, 623.0)">p</text><text xml:space="preserve" font-family="Verdana" font-size="32.0" fill="#000000" transform="matrix(1.00, 0.00, -0.00, -1.00, 690.4, 623.0)">a</text><text xml:space="preserve" font-family="Verdana" font-size="32.0" fill="#000000" transform="matrix(1.00, 0.00, -0.00, -1.00, 709.3, 623.0)">y</text><text xml:space="preserve" font-family="Verdana" font-size="32.0" fill="#000000" transform="matrix(1.00, 0.00, -0.00, -1.00, 728.2, 623.0)">l</text><text xml:space="preserve" font-family="Verdana" font-size="32.0" fill="#000000" transform="matrix(1.00, 0.00, -0.00, -1.00, 737.0, 623.0)">o</text><text xml:space="preserve" font-family="Verdana" font-size="32.0" fill="#000000" transform="matrix(1.00, 0.00, -0.00, -1.00, 756.5, 623.0)">a</text><text xml:space="preserve" font-family="Verdana" font-size="32.0" fill="#000000" transform="matrix(1.00, 0.00, -0.00, -1.00, 775.7, 623.0)">d</text><text xml:space="preserve" font-family="Verdana" font-size="32.0" fill="#000000" transform="matrix(1.00, 0.00, -0.00, -1.00, 795.6, 623.0)">:</text><text xml:space="preserve" font-family="Verdana" font-size="32.0" fill="#000000" transform="matrix(1.00, 0.00, -0.00, -1.00, 810.1, 623.0)"> </text><text xml:space="preserve" font-family="Verdana" font-size="32.0" fill="#000000" transform="matrix(1.00, 0.00, -0.00, -1.00, 821.4, 623.0)">5</text><text xml:space="preserve" font-family="Verdana" font-size="32.0" fill="#000000" transform="matrix(1.00, 0.00, -0.00, -1.00, 841.7, 623.0)"> </text><text xml:space="preserve" font-family="Verdana" font-size="32.0" fill="#000000" transform="matrix(1.00, 0.00, -0.00, -1.00, 852.9, 623.0)">}</text><text xml:space="preserve" font-family="Verdana-Bold" font-weight="bold" font-size="32.0" fill="#0432FF" transform="matrix(1.00, 0.00, -0.00, -1.00, 247.0, 582.0)">X</text></g></svg>