<?xml version="1.0" encoding="UTF-8" standalone="no"?><svg xmlns="http://www.w3.org/2000/svg" xmlns:xlink="http://www.w3.org/1999/xlink" clip-rule="evenodd" stroke-miterlimit="4.00" viewBox="0 0 1024 768"><desc>SVG generated by Keynote</desc><defs></defs><g transform="matrix(1.00, 0.00, -0.00, -1.00, 0.0, 768.0)"><path d="M 0.0 768.0 L 1024.0 768.0 L 1024.0 0.0 L 0.0 0.0 Z M 0.0 768.0 " fill="#FEFFFF"></path><text xml:space="preserve" font-family="Verdana" font-size="32.0" fill="#000000" transform="matrix(1.00, 0.00, -0.00, -1.00, 634.0, 349.0)">-</text><text xml:space="preserve" font-family="Verdana" font-size="32.0" fill="#000000" transform="matrix(1.00, 0.00, -0.00, -1.00, 648.5, 349.0)"> </text><text xml:space="preserve" font-family="Verdana" font-size="32.0" fill="#000000" transform="matrix(1.00, 0.00, -0.00, -1.00, 659.8, 349.0)">c</text><text xml:space="preserve" font-family="Verdana" font-size="32.0" fill="#000000" transform="matrix(1.00, 0.00, -0.00, -1.00, 676.4, 349.0)">a</text><text xml:space="preserve" font-family="Verdana" font-size="32.0" fill="#000000" transform="matrix(1.00, 0.00, -0.00, -1.00, 695.6, 349.0)">r</text><text xml:space="preserve" font-family="Verdana" font-size="32.0" fill="#000000" transform="matrix(1.00, 0.00, -0.00, -1.00, 709.3, 349.0)">d</text><text xml:space="preserve" font-family="Verdana" font-size="32.0" fill="#000000" transform="matrix(1.00, 0.00, -0.00, -1.00, 729.2, 349.0)">I</text><text xml:space="preserve" font-family="Verdana" font-size="32.0" fill="#000000" transform="matrix(1.00, 0.00, -0.00, -1.00, 742.7, 349.0)">n</text><text xml:space="preserve" font-family="Verdana" font-size="32.0" fill="#000000" transform="matrix(1.00, 0.00, -0.00, -1.00, 762.9, 349.0)">s</text><text xml:space="preserve" font-family="Verdana" font-size="32.0" fill="#000000" transform="matrix(1.00, 0.00, -0.00, -1.00, 779.6, 349.0)">e</text><text xml:space="preserve" font-family="Verdana" font-size="32.0" fill="#000000" transform="matrix(1.00, 0.00, -0.00, -1.00, 798.7, 349.0)">r</text><text xml:space="preserve" font-family="Verdana" font-size="32.0" fill="#000000" transform="matrix(1.00, 0.00, -0.00, -1.00, 812.3, 349.0)">t</text><text xml:space="preserve" font-family="Verdana" font-size="32.0" fill="#000000" transform="matrix(1.00, 0.00, -0.00, -1.00, 824.9, 349.0)">e</text><text xml:space="preserve" font-family="Verdana" font-size="32.0" fill="#000000" transform="matrix(1.00, 0.00, -0.00, -1.00, 844.0, 349.0)">d</text><text xml:space="preserve" font-family="Verdana" font-size="32.0" fill="#000000" transform="matrix(1.00, 0.00, -0.00, -1.00, 633.0, 299.0)">-</text><text xml:space="preserve" font-family="Verdana" font-size="32.0" fill="#000000" transform="matrix(1.00, 0.00, -0.00, -1.00, 647.5, 299.0)"> </text><text xml:space="preserve" font-family="Verdana" font-size="32.0" fill="#000000" transform="matrix(1.00, 0.00, -0.00, -1.00, 658.8, 299.0)">c</text><text xml:space="preserve" font-family="Verdana" font-size="32.0" fill="#000000" transform="matrix(1.00, 0.00, -0.00, -1.00, 675.4, 299.0)">a</text><text xml:space="preserve" font-family="Verdana" font-size="32.0" fill="#000000" transform="matrix(1.00, 0.00, -0.00, -1.00, 694.6, 299.0)">r</text><text xml:space="preserve" font-family="Verdana" font-size="32.0" fill="#000000" transform="matrix(1.00, 0.00, -0.00, -1.00, 708.3, 299.0)">d</text><text xml:space="preserve" font-family="Verdana" font-size="32.0" fill="#000000" transform="matrix(1.00, 0.00, -0.00, -1.00, 728.2, 299.0)">I</text><text xml:space="preserve" font-family="Verdana" font-size="32.0" fill="#000000" transform="matrix(1.00, 0.00, -0.00, -1.00, 741.7, 299.0)">s</text><text xml:space="preserve" font-family="Verdana" font-size="32.0" fill="#000000" transform="matrix(1.00, 0.00, -0.00, -1.00, 758.4, 299.0)">V</text><text xml:space="preserve" font-family="Verdana" font-size="32.0" fill="#000000" transform="matrix(1.00, 0.00, -0.00, -1.00, 778.7, 299.0)">a</text><text xml:space="preserve" font-family="Verdana" font-size="32.0" fill="#000000" transform="matrix(1.00, 0.00, -0.00, -1.00, 797.9, 299.0)">l</text><text xml:space="preserve" font-family="Verdana" font-size="32.0" fill="#000000" transform="matrix(1.00, 0.00, -0.00, -1.00, 806.7, 299.0)">i</text><text xml:space="preserve" font-family="Verdana" font-size="32.0" fill="#000000" transform="matrix(1.00, 0.00, -0.00, -1.00, 815.5, 299.0)">d</text><text xml:space="preserve" font-family="Verdana" font-size="32.0" fill="#000000" transform="matrix(1.00, 0.00, -0.00, -1.00, 633.0, 173.0)">-</text><text xml:space="preserve" font-family="Verdana" font-size="32.0" fill="#000000" transform="matrix(1.00, 0.00, -0.00, -1.00, 647.5, 173.0)"> </text><text xml:space="preserve" font-family="Verdana" font-size="32.0" fill="#000000" transform="matrix(1.00, 0.00, -0.00, -1.00, 658.8, 173.0)">l</text><text xml:space="preserve" font-family="Verdana" font-size="32.0" fill="#000000" transform="matrix(1.00, 0.00, -0.00, -1.00, 667.6, 173.0)">o</text><text xml:space="preserve" font-family="Verdana" font-size="32.0" fill="#000000" transform="matrix(1.00, 0.00, -0.00, -1.00, 687.0, 173.0)">a</text><text xml:space="preserve" font-family="Verdana" font-size="32.0" fill="#000000" transform="matrix(1.00, 0.00, -0.00, -1.00, 706.2, 173.0)">d</text><text xml:space="preserve" font-family="Verdana" font-size="32.0" fill="#000000" transform="matrix(1.00, 0.00, -0.00, -1.00, 726.1, 173.0)">i</text><text xml:space="preserve" font-family="Verdana" font-size="32.0" fill="#000000" transform="matrix(1.00, 0.00, -0.00, -1.00, 734.9, 173.0)">n</text><text xml:space="preserve" font-family="Verdana" font-size="32.0" fill="#000000" transform="matrix(1.00, 0.00, -0.00, -1.00, 755.2, 173.0)">g</text><text xml:space="preserve" font-family="Verdana" font-size="32.0" fill="#000000" transform="matrix(1.00, 0.00, -0.00, -1.00, 775.1, 173.0)">A</text><text xml:space="preserve" font-family="Verdana" font-size="32.0" fill="#000000" transform="matrix(1.00, 0.00, -0.00, -1.00, 797.0, 173.0)">c</text><text xml:space="preserve" font-family="Verdana" font-size="32.0" fill="#000000" transform="matrix(1.00, 0.00, -0.00, -1.00, 813.6, 173.0)">c</text><text xml:space="preserve" font-family="Verdana" font-size="32.0" fill="#000000" transform="matrix(1.00, 0.00, -0.00, -1.00, 830.3, 173.0)">o</text><text xml:space="preserve" font-family="Verdana" font-size="32.0" fill="#000000" transform="matrix(1.00, 0.00, -0.00, -1.00, 849.7, 173.0)">u</text><text xml:space="preserve" font-family="Verdana" font-size="32.0" fill="#000000" transform="matrix(1.00, 0.00, -0.00, -1.00, 870.0, 173.0)">n</text><text xml:space="preserve" font-family="Verdana" font-size="32.0" fill="#000000" transform="matrix(1.00, 0.00, -0.00, -1.00, 890.2, 173.0)">t</text><text xml:space="preserve" font-family="Verdana" font-size="32.0" fill="#000000" transform="matrix(1.00, 0.00, -0.00, -1.00, 633.0, 123.0)">-</text><text xml:space="preserve" font-family="Verdana" font-size="32.0" fill="#000000" transform="matrix(1.00, 0.00, -0.00, -1.00, 647.5, 123.0)"> </text><text xml:space="preserve" font-family="Verdana" font-size="32.0" fill="#000000" transform="matrix(1.00, 0.00, -0.00, -1.00, 658.8, 123.0)">a</text><text xml:space="preserve" font-family="Verdana" font-size="32.0" fill="#000000" transform="matrix(1.00, 0.00, -0.00, -1.00, 678.0, 123.0)">c</text><text xml:space="preserve" font-family="Verdana" font-size="32.0" fill="#000000" transform="matrix(1.00, 0.00, -0.00, -1.00, 694.6, 123.0)">c</text><text xml:space="preserve" font-family="Verdana" font-size="32.0" fill="#000000" transform="matrix(1.00, 0.00, -0.00, -1.00, 711.3, 123.0)">o</text><text xml:space="preserve" font-family="Verdana" font-size="32.0" fill="#000000" transform="matrix(1.00, 0.00, -0.00, -1.00, 730.7, 123.0)">u</text><text xml:space="preserve" font-family="Verdana" font-size="32.0" fill="#000000" transform="matrix(1.00, 0.00, -0.00, -1.00, 751.0, 123.0)">n</text><text xml:space="preserve" font-family="Verdana" font-size="32.0" fill="#000000" transform="matrix(1.00, 0.00, -0.00, -1.00, 771.2, 123.0)">t</text><text xml:space="preserve" font-family="Verdana" font-size="32.0" fill="#000000" transform="matrix(1.00, 0.00, -0.00, -1.00, 783.8, 123.0)">L</text><text xml:space="preserve" font-family="Verdana" font-size="32.0" fill="#000000" transform="matrix(1.00, 0.00, -0.00, -1.00, 801.6, 123.0)">o</text><text xml:space="preserve" font-family="Verdana" font-size="32.0" fill="#000000" transform="matrix(1.00, 0.00, -0.00, -1.00, 821.1, 123.0)">a</text><text xml:space="preserve" font-family="Verdana" font-size="32.0" fill="#000000" transform="matrix(1.00, 0.00, -0.00, -1.00, 840.3, 123.0)">d</text><text xml:space="preserve" font-family="Verdana" font-size="32.0" fill="#000000" transform="matrix(1.00, 0.00, -0.00, -1.00, 860.2, 123.0)">e</text><text xml:space="preserve" font-family="Verdana" font-size="32.0" fill="#000000" transform="matrix(1.00, 0.00, -0.00, -1.00, 879.3, 123.0)">d</text><text xml:space="preserve" font-family="Verdana" font-size="32.0" fill="#000000" transform="matrix(1.00, 0.00, -0.00, -1.00, 635.0, 76.0)">-</text><text xml:space="preserve" font-family="Verdana" font-size="32.0" fill="#000000" transform="matrix(1.00, 0.00, -0.00, -1.00, 649.5, 76.0)"> </text><text xml:space="preserve" font-family="Verdana" font-size="32.0" fill="#000000" transform="matrix(1.00, 0.00, -0.00, -1.00, 660.8, 76.0)">w</text><text xml:space="preserve" font-family="Verdana" font-size="32.0" fill="#000000" transform="matrix(1.00, 0.00, -0.00, -1.00, 686.7, 76.0)">a</text><text xml:space="preserve" font-family="Verdana" font-size="32.0" fill="#000000" transform="matrix(1.00, 0.00, -0.00, -1.00, 705.9, 76.0)">i</text><text xml:space="preserve" font-family="Verdana" font-size="32.0" fill="#000000" transform="matrix(1.00, 0.00, -0.00, -1.00, 714.7, 76.0)">t</text><text xml:space="preserve" font-family="Verdana" font-size="32.0" fill="#000000" transform="matrix(1.00, 0.00, -0.00, -1.00, 727.3, 76.0)">i</text><text xml:space="preserve" font-family="Verdana" font-size="32.0" fill="#000000" transform="matrix(1.00, 0.00, -0.00, -1.00, 736.1, 76.0)">n</text><text xml:space="preserve" font-family="Verdana" font-size="32.0" fill="#000000" transform="matrix(1.00, 0.00, -0.00, -1.00, 756.3, 76.0)">g</text><text xml:space="preserve" font-family="Verdana" font-size="32.0" fill="#000000" transform="matrix(1.00, 0.00, -0.00, -1.00, 776.2, 76.0)">F</text><text xml:space="preserve" font-family="Verdana" font-size="32.0" fill="#000000" transform="matrix(1.00, 0.00, -0.00, -1.00, 793.8, 76.0)">o</text><text xml:space="preserve" font-family="Verdana" font-size="32.0" fill="#000000" transform="matrix(1.00, 0.00, -0.00, -1.00, 813.3, 76.0)">r</text><text xml:space="preserve" font-family="Verdana" font-size="32.0" fill="#000000" transform="matrix(1.00, 0.00, -0.00, -1.00, 826.9, 76.0)">P</text><text xml:space="preserve" font-family="Verdana" font-size="32.0" fill="#000000" transform="matrix(1.00, 0.00, -0.00, -1.00, 846.2, 76.0)">i</text><text xml:space="preserve" font-family="Verdana" font-size="32.0" fill="#000000" transform="matrix(1.00, 0.00, -0.00, -1.00, 855.0, 76.0)">n</text><text xml:space="preserve" font-family="Verdana-Bold" font-weight="bold" font-size="24.0" fill="#C97F2D" transform="matrix(1.00, 0.00, -0.00, -1.00, 631.2, 257.7)">-</text><text xml:space="preserve" font-family="Verdana" font-size="32.0" fill="#C97F2D" transform="matrix(1.00, 0.00, -0.00, -1.00, 662.0, 254.0)">s</text><text xml:space="preserve" font-family="Verdana" font-size="32.0" fill="#C97F2D" transform="matrix(1.00, 0.00, -0.00, -1.00, 678.7, 254.0)">h</text><text xml:space="preserve" font-family="Verdana" font-size="32.0" fill="#C97F2D" transform="matrix(1.00, 0.00, -0.00, -1.00, 698.9, 254.0)">o</text><text xml:space="preserve" font-family="Verdana" font-size="32.0" fill="#C97F2D" transform="matrix(1.00, 0.00, -0.00, -1.00, 718.3, 254.0)">w</text><text xml:space="preserve" font-family="Verdana" font-size="32.0" fill="#C97F2D" transform="matrix(1.00, 0.00, -0.00, -1.00, 744.5, 254.0)">A</text><text xml:space="preserve" font-family="Verdana" font-size="32.0" fill="#C97F2D" transform="matrix(1.00, 0.00, -0.00, -1.00, 766.4, 254.0)">d</text><text xml:space="preserve" font-family="Verdana" font-size="32.0" fill="#C97F2D" transform="matrix(1.00, 0.00, -0.00, -1.00, 786.3, 254.0)"> </text><text xml:space="preserve" font-family="Verdana" font-size="32.0" fill="#C97F2D" transform="matrix(1.00, 0.00, -0.00, -1.00, 797.6, 254.0)"> </text><text xml:space="preserve" font-family="Verdana-Bold" font-weight="bold" font-size="24.0" fill="#C97F2D" transform="matrix(1.00, 0.00, -0.00, -1.00, 631.2, 218.7)">-</text><text xml:space="preserve" font-family="Verdana" font-size="32.0" fill="#C97F2D" transform="matrix(1.00, 0.00, -0.00, -1.00, 662.0, 215.0)">a</text><text xml:space="preserve" font-family="Verdana" font-size="32.0" fill="#C97F2D" transform="matrix(1.00, 0.00, -0.00, -1.00, 681.2, 215.0)">d</text><text xml:space="preserve" font-family="Verdana" font-size="32.0" fill="#C97F2D" transform="matrix(1.00, 0.00, -0.00, -1.00, 701.1, 215.0)">S</text><text xml:space="preserve" font-family="Verdana" font-size="32.0" fill="#C97F2D" transform="matrix(1.00, 0.00, -0.00, -1.00, 723.0, 215.0)">h</text><text xml:space="preserve" font-family="Verdana" font-size="32.0" fill="#C97F2D" transform="matrix(1.00, 0.00, -0.00, -1.00, 743.2, 215.0)">o</text><text xml:space="preserve" font-family="Verdana" font-size="32.0" fill="#C97F2D" transform="matrix(1.00, 0.00, -0.00, -1.00, 762.7, 215.0)">w</text><text xml:space="preserve" font-family="Verdana" font-size="32.0" fill="#C97F2D" transform="matrix(1.00, 0.00, -0.00, -1.00, 788.9, 215.0)">n</text><image xlink:href="../../932358D8-109B-4CFA-A4EC-EFEB852560D7/assets/97FF1EF74B8DDDBED726A1FE086EE845.png" width="364.00" height="71.00" transform="matrix(1.00, 0.06, 0.06, -1.01, 328.4, 733.2)" opacity="0.50"></image><path d="M 357.1 731.9 L 663.3 749.5 C 670.1 749.9 673.5 750.1 677.2 749.1 C 681.2 747.9 684.5 745.0 686.2 741.1 C 687.6 737.5 687.8 734.1 688.2 727.3 L 689.0 713.0 C 689.4 706.2 689.6 702.8 688.6 699.1 C 687.4 695.0 684.5 691.7 680.6 690.1 C 677.0 688.7 673.6 688.5 666.7 688.1 L 360.7 670.5 C 353.9 670.1 350.5 669.9 346.8 670.9 C 342.8 672.1 339.5 675.0 337.8 678.9 C 336.4 682.5 336.2 685.9 335.8 692.8 L 335.0 707.1 C 334.6 713.8 334.4 717.2 335.4 720.9 C 336.6 725.0 339.5 728.3 343.4 729.9 C 347.0 731.3 350.4 731.5 357.3 731.9 Z M 357.1 731.9 " fill="#FFFFFF"></path><path d="M 23.5 0.0 L 330.2 0.0 C 336.9 0.0 340.4 0.0 344.0 1.2 C 348.0 2.6 351.1 5.7 352.6 9.7 C 353.7 13.4 353.7 16.8 353.7 23.6 L 353.7 38.0 C 353.7 44.7 353.7 48.1 352.6 51.8 C 351.1 55.7 348.0 58.9 344.0 60.3 C 340.4 61.5 336.9 61.5 330.1 61.5 L 23.5 61.5 C 16.8 61.5 13.4 61.5 9.7 60.3 C 5.7 58.9 2.6 55.7 1.2 51.8 C 0.0 48.1 0.0 44.7 0.0 37.9 L 0.0 23.5 C 0.0 16.8 0.0 13.4 1.2 9.7 C 2.6 5.7 5.7 2.6 9.7 1.2 C 13.4 0.0 16.8 0.0 23.6 0.0 Z M 23.5 0.0 " fill="none" stroke="#FF9500" stroke-width="4.00" transform="matrix(1.00, 0.06, 0.06, -1.00, 333.7, 730.5)"></path><g><clipPath id="clip-200"><path d="M 333.7 730.5 L 686.8 750.8 L 690.3 689.5 L 337.2 669.2 Z M 333.7 730.5 "></path></clipPath><g clip-path="url(#clip-200)"><text xml:space="preserve" font-family="Verdana-Bold" font-weight="bold" font-size="18.0" fill="#000000" transform="matrix(1.00, 0.06, 0.06, -1.00, 344.3, 704.5)">S</text><text xml:space="preserve" font-family="Verdana-Bold" font-weight="bold" font-size="18.0" fill="#000000" transform="matrix(1.00, 0.06, 0.06, -1.00, 357.1, 705.2)">h</text><text xml:space="preserve" font-family="Verdana-Bold" font-weight="bold" font-size="18.0" fill="#000000" transform="matrix(1.00, 0.06, 0.06, -1.00, 369.9, 706.0)">o</text><text xml:space="preserve" font-family="Verdana-Bold" font-weight="bold" font-size="18.0" fill="#000000" transform="matrix(1.00, 0.06, 0.06, -1.00, 382.2, 706.7)">w</text><text xml:space="preserve" font-family="Verdana-Bold" font-weight="bold" font-size="18.0" fill="#000000" transform="matrix(1.00, 0.06, 0.06, -1.00, 399.8, 707.7)"> </text><text xml:space="preserve" font-family="Verdana-Bold" font-weight="bold" font-size="18.0" fill="#000000" transform="matrix(1.00, 0.06, 0.06, -1.00, 406.0, 708.0)">a</text><text xml:space="preserve" font-family="Verdana-Bold" font-weight="bold" font-size="18.0" fill="#000000" transform="matrix(1.00, 0.06, 0.06, -1.00, 418.0, 708.7)">d</text><text xml:space="preserve" font-family="Verdana-Bold" font-weight="bold" font-size="18.0" fill="#000000" transform="matrix(1.00, 0.06, 0.06, -1.00, 430.5, 709.5)">v</text><text xml:space="preserve" font-family="Verdana-Bold" font-weight="bold" font-size="18.0" fill="#000000" transform="matrix(1.00, 0.06, 0.06, -1.00, 442.2, 710.1)">e</text><text xml:space="preserve" font-family="Verdana-Bold" font-weight="bold" font-size="18.0" fill="#000000" transform="matrix(1.00, 0.06, 0.06, -1.00, 454.1, 710.8)">r</text><text xml:space="preserve" font-family="Verdana-Bold" font-weight="bold" font-size="18.0" fill="#000000" transform="matrix(1.00, 0.06, 0.06, -1.00, 463.1, 711.3)">t</text><text xml:space="preserve" font-family="Verdana-Bold" font-weight="bold" font-size="18.0" fill="#000000" transform="matrix(1.00, 0.06, 0.06, -1.00, 471.3, 711.8)">i</text><text xml:space="preserve" font-family="Verdana-Bold" font-weight="bold" font-size="18.0" fill="#000000" transform="matrix(1.00, 0.06, 0.06, -1.00, 477.4, 712.2)">s</text><text xml:space="preserve" font-family="Verdana-Bold" font-weight="bold" font-size="18.0" fill="#000000" transform="matrix(1.00, 0.06, 0.06, -1.00, 488.1, 712.8)">e</text><text xml:space="preserve" font-family="Verdana-Bold" font-weight="bold" font-size="18.0" fill="#000000" transform="matrix(1.00, 0.06, 0.06, -1.00, 500.0, 713.5)">m</text><text xml:space="preserve" font-family="Verdana-Bold" font-weight="bold" font-size="18.0" fill="#000000" transform="matrix(1.00, 0.06, 0.06, -1.00, 519.0, 714.5)">e</text><text xml:space="preserve" font-family="Verdana-Bold" font-weight="bold" font-size="18.0" fill="#000000" transform="matrix(1.00, 0.06, 0.06, -1.00, 531.0, 715.2)">n</text><text xml:space="preserve" font-family="Verdana-Bold" font-weight="bold" font-size="18.0" fill="#000000" transform="matrix(1.00, 0.06, 0.06, -1.00, 543.8, 716.0)">t</text><text xml:space="preserve" font-family="Verdana-Bold" font-weight="bold" font-size="18.0" fill="#000000" transform="matrix(1.00, 0.06, 0.06, -1.00, 551.9, 716.4)"> </text><text xml:space="preserve" font-family="Verdana-Bold" font-weight="bold" font-size="18.0" fill="#000000" transform="matrix(1.00, 0.06, 0.06, -1.00, 558.1, 716.8)">b</text><text xml:space="preserve" font-family="Verdana-Bold" font-weight="bold" font-size="18.0" fill="#000000" transform="matrix(1.00, 0.06, 0.06, -1.00, 570.6, 717.5)">e</text><text xml:space="preserve" font-family="Verdana-Bold" font-weight="bold" font-size="18.0" fill="#000000" transform="matrix(1.00, 0.06, 0.06, -1.00, 582.6, 718.2)">f</text><text xml:space="preserve" font-family="Verdana-Bold" font-weight="bold" font-size="18.0" fill="#000000" transform="matrix(1.00, 0.06, 0.06, -1.00, 590.2, 718.6)">o</text><text xml:space="preserve" font-family="Verdana-Bold" font-weight="bold" font-size="18.0" fill="#000000" transform="matrix(1.00, 0.06, 0.06, -1.00, 602.5, 719.3)">r</text><text xml:space="preserve" font-family="Verdana-Bold" font-weight="bold" font-size="18.0" fill="#000000" transform="matrix(1.00, 0.06, 0.06, -1.00, 611.4, 719.9)">e</text><text xml:space="preserve" font-family="Verdana-Bold" font-weight="bold" font-size="18.0" fill="#000000" transform="matrix(1.00, 0.06, 0.06, -1.00, 623.4, 720.5)"> </text><text xml:space="preserve" font-family="Verdana-Bold" font-weight="bold" font-size="18.0" fill="#000000" transform="matrix(1.00, 0.06, 0.06, -1.00, 629.5, 720.9)">t</text><text xml:space="preserve" font-family="Verdana-Bold" font-weight="bold" font-size="18.0" fill="#000000" transform="matrix(1.00, 0.06, 0.06, -1.00, 637.7, 721.4)">h</text><text xml:space="preserve" font-family="Verdana-Bold" font-weight="bold" font-size="18.0" fill="#000000" transform="matrix(1.00, 0.06, 0.06, -1.00, 650.5, 722.1)">e</text><text xml:space="preserve" font-family="Verdana-Bold" font-weight="bold" font-size="18.0" fill="#000000" transform="matrix(1.00, 0.06, 0.06, -1.00, 662.4, 722.8)"> </text><text xml:space="preserve" font-family="Verdana-Bold" font-weight="bold" font-size="18.0" fill="#000000" transform="matrix(1.00, 0.06, 0.06, -1.00, 344.8, 682.5)">a</text><text xml:space="preserve" font-family="Verdana-Bold" font-weight="bold" font-size="18.0" fill="#000000" transform="matrix(1.00, 0.06, 0.06, -1.00, 356.9, 683.2)">c</text><text xml:space="preserve" font-family="Verdana-Bold" font-weight="bold" font-size="18.0" fill="#000000" transform="matrix(1.00, 0.06, 0.06, -1.00, 367.4, 683.8)">c</text><text xml:space="preserve" font-family="Verdana-Bold" font-weight="bold" font-size="18.0" fill="#000000" transform="matrix(1.00, 0.06, 0.06, -1.00, 378.0, 684.4)">o</text><text xml:space="preserve" font-family="Verdana-Bold" font-weight="bold" font-size="18.0" fill="#000000" transform="matrix(1.00, 0.06, 0.06, -1.00, 390.3, 685.1)">u</text><text xml:space="preserve" font-family="Verdana-Bold" font-weight="bold" font-size="18.0" fill="#000000" transform="matrix(1.00, 0.06, 0.06, -1.00, 403.2, 685.8)">n</text><text xml:space="preserve" font-family="Verdana-Bold" font-weight="bold" font-size="18.0" fill="#000000" transform="matrix(1.00, 0.06, 0.06, -1.00, 416.0, 686.6)">t</text><text xml:space="preserve" font-family="Verdana-Bold" font-weight="bold" font-size="18.0" fill="#000000" transform="matrix(1.00, 0.06, 0.06, -1.00, 424.1, 687.1)"> </text><text xml:space="preserve" font-family="Verdana-Bold" font-weight="bold" font-size="18.0" fill="#000000" transform="matrix(1.00, 0.06, 0.06, -1.00, 430.3, 687.4)">i</text><text xml:space="preserve" font-family="Verdana-Bold" font-weight="bold" font-size="18.0" fill="#000000" transform="matrix(1.00, 0.06, 0.06, -1.00, 436.4, 687.8)">s</text><text xml:space="preserve" font-family="Verdana-Bold" font-weight="bold" font-size="18.0" fill="#000000" transform="matrix(1.00, 0.06, 0.06, -1.00, 447.1, 688.4)"> </text><text xml:space="preserve" font-family="Verdana-Bold" font-weight="bold" font-size="18.0" fill="#000000" transform="matrix(1.00, 0.06, 0.06, -1.00, 453.2, 688.7)">l</text><text xml:space="preserve" font-family="Verdana-Bold" font-weight="bold" font-size="18.0" fill="#000000" transform="matrix(1.00, 0.06, 0.06, -1.00, 459.4, 689.1)">o</text><text xml:space="preserve" font-family="Verdana-Bold" font-weight="bold" font-size="18.0" fill="#000000" transform="matrix(1.00, 0.06, 0.06, -1.00, 471.7, 689.8)">a</text><text xml:space="preserve" font-family="Verdana-Bold" font-weight="bold" font-size="18.0" fill="#000000" transform="matrix(1.00, 0.06, 0.06, -1.00, 483.7, 690.5)">d</text><text xml:space="preserve" font-family="Verdana-Bold" font-weight="bold" font-size="18.0" fill="#000000" transform="matrix(1.00, 0.06, 0.06, -1.00, 496.3, 691.2)">e</text><text xml:space="preserve" font-family="Verdana-Bold" font-weight="bold" font-size="18.0" fill="#000000" transform="matrix(1.00, 0.06, 0.06, -1.00, 508.2, 691.9)">d</text></g></g><text xml:space="preserve" font-family="Verdana" font-size="28.0" fill="#2150FF" transform="matrix(1.00, 0.00, -0.00, -1.00, 692.0, 411.0)">W</text><text xml:space="preserve" font-family="Verdana" font-size="28.0" fill="#2150FF" transform="matrix(1.00, 0.00, -0.00, -1.00, 719.7, 411.0)">h</text><text xml:space="preserve" font-family="Verdana" font-size="28.0" fill="#2150FF" transform="matrix(1.00, 0.00, -0.00, -1.00, 737.4, 411.0)">a</text><text xml:space="preserve" font-family="Verdana" font-size="28.0" fill="#2150FF" transform="matrix(1.00, 0.00, -0.00, -1.00, 754.2, 411.0)">t</text><text xml:space="preserve" font-family="Verdana" font-size="28.0" fill="#2150FF" transform="matrix(1.00, 0.00, -0.00, -1.00, 765.2, 411.0)"> </text><text xml:space="preserve" font-family="Verdana" font-size="28.0" fill="#2150FF" transform="matrix(1.00, 0.00, -0.00, -1.00, 775.1, 411.0)">w</text><text xml:space="preserve" font-family="Verdana" font-size="28.0" fill="#2150FF" transform="matrix(1.00, 0.00, -0.00, -1.00, 798.0, 411.0)">e</text><text xml:space="preserve" font-family="Verdana" font-size="28.0" fill="#2150FF" transform="matrix(1.00, 0.00, -0.00, -1.00, 814.7, 411.0)"> </text><text xml:space="preserve" font-family="Verdana" font-size="28.0" fill="#2150FF" transform="matrix(1.00, 0.00, -0.00, -1.00, 824.5, 411.0)">w</text><text xml:space="preserve" font-family="Verdana" font-size="28.0" fill="#2150FF" transform="matrix(1.00, 0.00, -0.00, -1.00, 847.1, 411.0)">a</text><text xml:space="preserve" font-family="Verdana" font-size="28.0" fill="#2150FF" transform="matrix(1.00, 0.00, -0.00, -1.00, 863.9, 411.0)">n</text><text xml:space="preserve" font-family="Verdana" font-size="28.0" fill="#2150FF" transform="matrix(1.00, 0.00, -0.00, -1.00, 881.7, 411.0)">t</text><text xml:space="preserve" font-family="Verdana" font-size="28.0" fill="#2150FF" transform="matrix(1.00, 0.00, -0.00, -1.00, 115.0, 411.0)">W</text><text xml:space="preserve" font-family="Verdana" font-size="28.0" fill="#2150FF" transform="matrix(1.00, 0.00, -0.00, -1.00, 142.7, 411.0)">h</text><text xml:space="preserve" font-family="Verdana" font-size="28.0" fill="#2150FF" transform="matrix(1.00, 0.00, -0.00, -1.00, 160.4, 411.0)">a</text><text xml:space="preserve" font-family="Verdana" font-size="28.0" fill="#2150FF" transform="matrix(1.00, 0.00, -0.00, -1.00, 177.2, 411.0)">t</text><text xml:space="preserve" font-family="Verdana" font-size="28.0" fill="#2150FF" transform="matrix(1.00, 0.00, -0.00, -1.00, 188.2, 411.0)"> </text><text xml:space="preserve" font-family="Verdana" font-size="28.0" fill="#2150FF" transform="matrix(1.00, 0.00, -0.00, -1.00, 198.1, 411.0)">c</text><text xml:space="preserve" font-family="Verdana" font-size="28.0" fill="#2150FF" transform="matrix(1.00, 0.00, -0.00, -1.00, 212.7, 411.0)">u</text><text xml:space="preserve" font-family="Verdana" font-size="28.0" fill="#2150FF" transform="matrix(1.00, 0.00, -0.00, -1.00, 230.4, 411.0)">r</text><text xml:space="preserve" font-family="Verdana" font-size="28.0" fill="#2150FF" transform="matrix(1.00, 0.00, -0.00, -1.00, 242.3, 411.0)">r</text><text xml:space="preserve" font-family="Verdana" font-size="28.0" fill="#2150FF" transform="matrix(1.00, 0.00, -0.00, -1.00, 254.3, 411.0)">e</text><text xml:space="preserve" font-family="Verdana" font-size="28.0" fill="#2150FF" transform="matrix(1.00, 0.00, -0.00, -1.00, 270.9, 411.0)">n</text><text xml:space="preserve" font-family="Verdana" font-size="28.0" fill="#2150FF" transform="matrix(1.00, 0.00, -0.00, -1.00, 288.6, 411.0)">t</text><text xml:space="preserve" font-family="Verdana" font-size="28.0" fill="#2150FF" transform="matrix(1.00, 0.00, -0.00, -1.00, 299.7, 411.0)">l</text><text xml:space="preserve" font-family="Verdana" font-size="28.0" fill="#2150FF" transform="matrix(1.00, 0.00, -0.00, -1.00, 307.4, 411.0)">y</text><text xml:space="preserve" font-family="Verdana" font-size="28.0" fill="#2150FF" transform="matrix(1.00, 0.00, -0.00, -1.00, 323.9, 411.0)"> </text><text xml:space="preserve" font-family="Verdana" font-size="28.0" fill="#2150FF" transform="matrix(1.00, 0.00, -0.00, -1.00, 333.8, 411.0)">h</text><text xml:space="preserve" font-family="Verdana" font-size="28.0" fill="#2150FF" transform="matrix(1.00, 0.00, -0.00, -1.00, 351.5, 411.0)">a</text><text xml:space="preserve" font-family="Verdana" font-size="28.0" fill="#2150FF" transform="matrix(1.00, 0.00, -0.00, -1.00, 368.3, 411.0)">p</text><text xml:space="preserve" font-family="Verdana" font-size="28.0" fill="#2150FF" transform="matrix(1.00, 0.00, -0.00, -1.00, 385.7, 411.0)">p</text><text xml:space="preserve" font-family="Verdana" font-size="28.0" fill="#2150FF" transform="matrix(1.00, 0.00, -0.00, -1.00, 403.2, 411.0)">e</text><text xml:space="preserve" font-family="Verdana" font-size="28.0" fill="#2150FF" transform="matrix(1.00, 0.00, -0.00, -1.00, 419.8, 411.0)">n</text><text xml:space="preserve" font-family="Verdana" font-size="28.0" fill="#2150FF" transform="matrix(1.00, 0.00, -0.00, -1.00, 437.6, 411.0)">s</text><image xlink:href="../../83605C26-01C5-4B93-9452-379B2AD77C68/assets/77F16851A756DB8B7A51A09B437339C6.png" width="373.00" height="194.00" transform="matrix(1.00, 0.00, -0.00, -1.00, 92.5, 713.6)" opacity="0.50"></image><path d="M 120.5 711.1 L 437.6 711.1 C 444.4 711.1 447.8 711.1 451.4 710.0 C 455.4 708.5 458.6 705.4 460.0 701.4 C 461.2 697.8 461.2 694.3 461.2 687.5 L 461.2 549.3 C 461.2 542.5 461.2 539.1 460.0 535.5 C 458.6 531.5 455.4 528.4 451.4 526.9 C 447.8 525.8 444.4 525.8 437.5 525.8 L 120.5 525.8 C 113.8 525.8 110.4 525.8 106.7 526.9 C 102.8 528.4 99.6 531.5 98.2 535.5 C 97.0 539.1 97.0 542.5 97.0 549.4 L 97.0 687.6 C 97.0 694.3 97.0 697.8 98.2 701.4 C 99.6 705.4 102.8 708.5 106.7 710.0 C 110.4 711.1 113.8 711.1 120.6 711.1 Z M 120.5 711.1 " fill="#FFFFFF"></path><path d="M 23.5 0.0 L 340.6 0.0 C 347.4 0.0 350.8 0.0 354.4 1.2 C 358.4 2.6 361.5 5.7 363.0 9.7 C 364.1 13.4 364.1 16.8 364.1 23.6 L 364.1 161.8 C 364.1 168.6 364.1 172.0 363.0 175.6 C 361.5 179.6 358.4 182.8 354.4 184.2 C 350.8 185.4 347.4 185.4 340.5 185.4 L 23.5 185.4 C 16.8 185.4 13.4 185.4 9.7 184.2 C 5.7 182.8 2.6 179.6 1.2 175.6 C 0.0 172.0 0.0 168.6 0.0 161.7 L 0.0 23.5 C 0.0 16.8 0.0 13.4 1.2 9.7 C 2.6 5.7 5.7 2.6 9.7 1.2 C 13.4 0.0 16.8 0.0 23.6 0.0 Z M 23.5 0.0 " fill="none" stroke="#F09A36" stroke-width="3.00" transform="matrix(1.00, 0.00, 0.00, -1.00, 97.0, 711.1)"></path><g><clipPath id="clip-201"><path d="M 97.0 711.1 L 461.2 711.1 L 461.2 525.8 L 97.0 525.8 Z M 97.0 711.1 "></path></clipPath><g clip-path="url(#clip-201)"><text xml:space="preserve" font-family="Consolas" font-size="20.0" fill="#000000" transform="matrix(1.00, 0.00, -0.00, -1.00, 109.9, 690.7)">w</text><text xml:space="preserve" font-family="Consolas" font-size="20.0" fill="#000000" transform="matrix(1.00, 0.00, -0.00, -1.00, 120.9, 690.7)">h</text><text xml:space="preserve" font-family="Consolas" font-size="20.0" fill="#000000" transform="matrix(1.00, 0.00, -0.00, -1.00, 131.9, 690.7)">i</text><text xml:space="preserve" font-family="Consolas" font-size="20.0" fill="#000000" transform="matrix(1.00, 0.00, -0.00, -1.00, 142.9, 690.7)">l</text><text xml:space="preserve" font-family="Consolas" font-size="20.0" fill="#000000" transform="matrix(1.00, 0.00, -0.00, -1.00, 153.9, 690.7)">e</text><text xml:space="preserve" font-family="Consolas" font-size="20.0" fill="#000000" transform="matrix(1.00, 0.00, -0.00, -1.00, 164.9, 690.7)"> </text><text xml:space="preserve" font-family="Consolas" font-size="20.0" fill="#000000" transform="matrix(1.00, 0.00, -0.00, -1.00, 175.9, 690.7)">(</text><text xml:space="preserve" font-family="Consolas" font-size="20.0" fill="#000000" transform="matrix(1.00, 0.00, -0.00, -1.00, 186.9, 690.7)">t</text><text xml:space="preserve" font-family="Consolas" font-size="20.0" fill="#000000" transform="matrix(1.00, 0.00, -0.00, -1.00, 197.9, 690.7)">r</text><text xml:space="preserve" font-family="Consolas" font-size="20.0" fill="#000000" transform="matrix(1.00, 0.00, -0.00, -1.00, 208.9, 690.7)">u</text><text xml:space="preserve" font-family="Consolas" font-size="20.0" fill="#000000" transform="matrix(1.00, 0.00, -0.00, -1.00, 219.8, 690.7)">e</text><text xml:space="preserve" font-family="Consolas" font-size="20.0" fill="#000000" transform="matrix(1.00, 0.00, -0.00, -1.00, 230.8, 690.7)">)</text><text xml:space="preserve" font-family="Consolas" font-size="20.0" fill="#000000" transform="matrix(1.00, 0.00, -0.00, -1.00, 241.8, 690.7)"> </text><text xml:space="preserve" font-family="Consolas" font-size="20.0" fill="#000000" transform="matrix(1.00, 0.00, -0.00, -1.00, 252.8, 690.7)">{</text><text xml:space="preserve" font-family="Consolas" font-size="20.0" fill="#000000" transform="matrix(1.00, 0.00, -0.00, -1.00, 263.8, 690.7)"> </text><text xml:space="preserve" font-family="Consolas" font-size="20.0" fill="#000000" transform="matrix(1.00, 0.00, -0.00, -1.00, 102.5, 667.7)"> </text><text xml:space="preserve" font-family="Consolas" font-size="20.0" fill="#000000" transform="matrix(1.00, 0.00, -0.00, -1.00, 113.5, 667.7)"> </text><text xml:space="preserve" font-family="Consolas" font-size="20.0" fill="#000000" transform="matrix(1.00, 0.00, -0.00, -1.00, 124.5, 667.7)">y</text><text xml:space="preserve" font-family="Consolas" font-size="20.0" fill="#000000" transform="matrix(1.00, 0.00, -0.00, -1.00, 135.5, 667.7)">i</text><text xml:space="preserve" font-family="Consolas" font-size="20.0" fill="#000000" transform="matrix(1.00, 0.00, -0.00, -1.00, 146.5, 667.7)">e</text><text xml:space="preserve" font-family="Consolas" font-size="20.0" fill="#000000" transform="matrix(1.00, 0.00, -0.00, -1.00, 157.5, 667.7)">l</text><text xml:space="preserve" font-family="Consolas" font-size="20.0" fill="#000000" transform="matrix(1.00, 0.00, -0.00, -1.00, 168.5, 667.7)">d</text><text xml:space="preserve" font-family="Consolas" font-size="20.0" fill="#000000" transform="matrix(1.00, 0.00, -0.00, -1.00, 179.5, 667.7)"> </text><text xml:space="preserve" font-family="Consolas" font-size="20.0" fill="#000000" transform="matrix(1.00, 0.00, -0.00, -1.00, 190.5, 667.7)">{</text><text xml:space="preserve" font-family="Consolas" font-size="20.0" fill="#000000" transform="matrix(1.00, 0.00, -0.00, -1.00, 201.4, 667.7)"> </text><text xml:space="preserve" font-family="Consolas" font-size="20.0" fill="#00872A" transform="matrix(1.00, 0.00, -0.00, -1.00, 212.5, 667.7)">w</text><text xml:space="preserve" font-family="Consolas" font-size="20.0" fill="#00872A" transform="matrix(1.00, 0.00, -0.00, -1.00, 223.5, 667.7)">a</text><text xml:space="preserve" font-family="Consolas" font-size="20.0" fill="#00872A" transform="matrix(1.00, 0.00, -0.00, -1.00, 234.5, 667.7)">i</text><text xml:space="preserve" font-family="Consolas" font-size="20.0" fill="#00872A" transform="matrix(1.00, 0.00, -0.00, -1.00, 245.5, 667.7)">t</text><text xml:space="preserve" font-family="Consolas" font-size="20.0" fill="#000000" transform="matrix(1.00, 0.00, -0.00, -1.00, 256.5, 667.7)">:</text><text xml:space="preserve" font-family="Consolas" font-size="20.0" fill="#000000" transform="matrix(1.00, 0.00, -0.00, -1.00, 267.5, 667.7)"> </text><text xml:space="preserve" font-family="Consolas" font-size="20.0" fill="#000000" transform="matrix(1.00, 0.00, -0.00, -1.00, 278.4, 667.7)">'</text><text xml:space="preserve" font-family="Consolas" font-size="20.0" fill="#000000" transform="matrix(1.00, 0.00, -0.00, -1.00, 289.4, 667.7)">c</text><text xml:space="preserve" font-family="Consolas" font-size="20.0" fill="#000000" transform="matrix(1.00, 0.00, -0.00, -1.00, 300.4, 667.7)">a</text><text xml:space="preserve" font-family="Consolas" font-size="20.0" fill="#000000" transform="matrix(1.00, 0.00, -0.00, -1.00, 311.4, 667.7)">r</text><text xml:space="preserve" font-family="Consolas" font-size="20.0" fill="#000000" transform="matrix(1.00, 0.00, -0.00, -1.00, 322.4, 667.7)">d</text><text xml:space="preserve" font-family="Consolas" font-size="20.0" fill="#000000" transform="matrix(1.00, 0.00, -0.00, -1.00, 333.4, 667.7)">I</text><text xml:space="preserve" font-family="Consolas" font-size="20.0" fill="#000000" transform="matrix(1.00, 0.00, -0.00, -1.00, 344.4, 667.7)">s</text><text xml:space="preserve" font-family="Consolas" font-size="20.0" fill="#000000" transform="matrix(1.00, 0.00, -0.00, -1.00, 355.4, 667.7)">V</text><text xml:space="preserve" font-family="Consolas" font-size="20.0" fill="#000000" transform="matrix(1.00, 0.00, -0.00, -1.00, 366.4, 667.7)">a</text><text xml:space="preserve" font-family="Consolas" font-size="20.0" fill="#000000" transform="matrix(1.00, 0.00, -0.00, -1.00, 377.4, 667.7)">l</text><text xml:space="preserve" font-family="Consolas" font-size="20.0" fill="#000000" transform="matrix(1.00, 0.00, -0.00, -1.00, 388.4, 667.7)">i</text><text xml:space="preserve" font-family="Consolas" font-size="20.0" fill="#000000" transform="matrix(1.00, 0.00, -0.00, -1.00, 399.4, 667.7)">d</text><text xml:space="preserve" font-family="Consolas" font-size="20.0" fill="#000000" transform="matrix(1.00, 0.00, -0.00, -1.00, 410.4, 667.7)">'</text><text xml:space="preserve" font-family="Consolas" font-size="20.0" fill="#000000" transform="matrix(1.00, 0.00, -0.00, -1.00, 421.3, 667.7)"> </text><text xml:space="preserve" font-family="Consolas" font-size="20.0" fill="#000000" transform="matrix(1.00, 0.00, -0.00, -1.00, 432.4, 667.7)">}</text><text xml:space="preserve" font-family="Consolas" font-size="20.0" fill="#000000" transform="matrix(1.00, 0.00, -0.00, -1.00, 443.4, 667.7)"> </text><text xml:space="preserve" font-family="Consolas" font-size="20.0" fill="#000000" transform="matrix(1.00, 0.00, -0.00, -1.00, 102.5, 644.7)"> </text><text xml:space="preserve" font-family="Consolas" font-size="20.0" fill="#000000" transform="matrix(1.00, 0.00, -0.00, -1.00, 113.5, 644.7)"> </text><text xml:space="preserve" font-family="Consolas" font-size="20.0" fill="#000000" transform="matrix(1.00, 0.00, -0.00, -1.00, 124.5, 644.7)">y</text><text xml:space="preserve" font-family="Consolas" font-size="20.0" fill="#000000" transform="matrix(1.00, 0.00, -0.00, -1.00, 135.5, 644.7)">i</text><text xml:space="preserve" font-family="Consolas" font-size="20.0" fill="#000000" transform="matrix(1.00, 0.00, -0.00, -1.00, 146.5, 644.7)">e</text><text xml:space="preserve" font-family="Consolas" font-size="20.0" fill="#000000" transform="matrix(1.00, 0.00, -0.00, -1.00, 157.5, 644.7)">l</text><text xml:space="preserve" font-family="Consolas" font-size="20.0" fill="#000000" transform="matrix(1.00, 0.00, -0.00, -1.00, 168.5, 644.7)">d</text><text xml:space="preserve" font-family="Consolas" font-size="20.0" fill="#000000" transform="matrix(1.00, 0.00, -0.00, -1.00, 179.5, 644.7)"> </text><text xml:space="preserve" font-family="Consolas" font-size="20.0" fill="#000000" transform="matrix(1.00, 0.00, -0.00, -1.00, 190.5, 644.7)">{</text><text xml:space="preserve" font-family="Consolas" font-size="20.0" fill="#000000" transform="matrix(1.00, 0.00, -0.00, -1.00, 201.4, 644.7)"> </text><text xml:space="preserve" font-family="Consolas" font-size="20.0" fill="#000000" transform="matrix(1.00, 0.00, -0.00, -1.00, 102.5, 621.7)"> </text><text xml:space="preserve" font-family="Consolas" font-size="20.0" fill="#000000" transform="matrix(1.00, 0.00, -0.00, -1.00, 113.5, 621.7)"> </text><text xml:space="preserve" font-family="Consolas" font-size="20.0" fill="#000000" transform="matrix(1.00, 0.00, -0.00, -1.00, 124.5, 621.7)"> </text><text xml:space="preserve" font-family="Consolas" font-size="20.0" fill="#000000" transform="matrix(1.00, 0.00, -0.00, -1.00, 135.5, 621.7)"> </text><text xml:space="preserve" font-family="Consolas" font-size="20.0" fill="#00872A" transform="matrix(1.00, 0.00, -0.00, -1.00, 146.5, 621.7)">w</text><text xml:space="preserve" font-family="Consolas" font-size="20.0" fill="#00872A" transform="matrix(1.00, 0.00, -0.00, -1.00, 157.5, 621.7)">a</text><text xml:space="preserve" font-family="Consolas" font-size="20.0" fill="#00872A" transform="matrix(1.00, 0.00, -0.00, -1.00, 168.5, 621.7)">i</text><text xml:space="preserve" font-family="Consolas" font-size="20.0" fill="#00872A" transform="matrix(1.00, 0.00, -0.00, -1.00, 179.5, 621.7)">t</text><text xml:space="preserve" font-family="Consolas" font-size="20.0" fill="#000000" transform="matrix(1.00, 0.00, -0.00, -1.00, 190.5, 621.7)">:</text><text xml:space="preserve" font-family="Consolas" font-size="20.0" fill="#000000" transform="matrix(1.00, 0.00, -0.00, -1.00, 201.5, 621.7)"> </text><text xml:space="preserve" font-family="Consolas" font-size="20.0" fill="#000000" transform="matrix(1.00, 0.00, -0.00, -1.00, 212.5, 621.7)">'</text><text xml:space="preserve" font-family="Consolas" font-size="20.0" fill="#000000" transform="matrix(1.00, 0.00, -0.00, -1.00, 223.5, 621.7)">a</text><text xml:space="preserve" font-family="Consolas" font-size="20.0" fill="#000000" transform="matrix(1.00, 0.00, -0.00, -1.00, 234.5, 621.7)">d</text><text xml:space="preserve" font-family="Consolas" font-size="20.0" fill="#000000" transform="matrix(1.00, 0.00, -0.00, -1.00, 245.4, 621.7)">S</text><text xml:space="preserve" font-family="Consolas" font-size="20.0" fill="#000000" transform="matrix(1.00, 0.00, -0.00, -1.00, 256.4, 621.7)">h</text><text xml:space="preserve" font-family="Consolas" font-size="20.0" fill="#000000" transform="matrix(1.00, 0.00, -0.00, -1.00, 267.4, 621.7)">o</text><text xml:space="preserve" font-family="Consolas" font-size="20.0" fill="#000000" transform="matrix(1.00, 0.00, -0.00, -1.00, 278.4, 621.7)">w</text><text xml:space="preserve" font-family="Consolas" font-size="20.0" fill="#000000" transform="matrix(1.00, 0.00, -0.00, -1.00, 289.4, 621.7)">n</text><text xml:space="preserve" font-family="Consolas" font-size="20.0" fill="#000000" transform="matrix(1.00, 0.00, -0.00, -1.00, 300.4, 621.7)">'</text><text xml:space="preserve" font-family="Consolas" font-size="20.0" fill="#000000" transform="matrix(1.00, 0.00, -0.00, -1.00, 311.4, 621.7)">,</text><text xml:space="preserve" font-family="Consolas" font-size="20.0" fill="#000000" transform="matrix(1.00, 0.00, -0.00, -1.00, 322.4, 621.7)"> </text><text xml:space="preserve" font-family="Consolas" font-size="20.0" fill="#000000" transform="matrix(1.00, 0.00, -0.00, -1.00, 102.5, 598.7)"> </text><text xml:space="preserve" font-family="Consolas" font-size="20.0" fill="#000000" transform="matrix(1.00, 0.00, -0.00, -1.00, 113.5, 598.7)"> </text><text xml:space="preserve" font-family="Consolas" font-size="20.0" fill="#000000" transform="matrix(1.00, 0.00, -0.00, -1.00, 124.5, 598.7)"> </text><text xml:space="preserve" font-family="Consolas" font-size="20.0" fill="#000000" transform="matrix(1.00, 0.00, -0.00, -1.00, 135.5, 598.7)"> </text><text xml:space="preserve" font-family="Consolas" font-size="20.0" fill="#FF4C41" transform="matrix(1.00, 0.00, -0.00, -1.00, 146.5, 598.7)">b</text><text xml:space="preserve" font-family="Consolas" font-size="20.0" fill="#FF4C41" transform="matrix(1.00, 0.00, -0.00, -1.00, 157.5, 598.7)">l</text><text xml:space="preserve" font-family="Consolas" font-size="20.0" fill="#FF4C41" transform="matrix(1.00, 0.00, -0.00, -1.00, 168.5, 598.7)">o</text><text xml:space="preserve" font-family="Consolas" font-size="20.0" fill="#FF4C41" transform="matrix(1.00, 0.00, -0.00, -1.00, 179.5, 598.7)">c</text><text xml:space="preserve" font-family="Consolas" font-size="20.0" fill="#FF4C41" transform="matrix(1.00, 0.00, -0.00, -1.00, 190.5, 598.7)">k</text><text xml:space="preserve" font-family="Consolas" font-size="20.0" fill="#000000" transform="matrix(1.00, 0.00, -0.00, -1.00, 201.5, 598.7)">:</text><text xml:space="preserve" font-family="Consolas" font-size="20.0" fill="#000000" transform="matrix(1.00, 0.00, -0.00, -1.00, 212.5, 598.7)"> </text><text xml:space="preserve" font-family="Consolas" font-size="20.0" fill="#000000" transform="matrix(1.00, 0.00, -0.00, -1.00, 223.5, 598.7)">'</text><text xml:space="preserve" font-family="Consolas" font-size="20.0" fill="#000000" transform="matrix(1.00, 0.00, -0.00, -1.00, 234.5, 598.7)">l</text><text xml:space="preserve" font-family="Consolas" font-size="20.0" fill="#000000" transform="matrix(1.00, 0.00, -0.00, -1.00, 245.4, 598.7)">o</text><text xml:space="preserve" font-family="Consolas" font-size="20.0" fill="#000000" transform="matrix(1.00, 0.00, -0.00, -1.00, 256.4, 598.7)">a</text><text xml:space="preserve" font-family="Consolas" font-size="20.0" fill="#000000" transform="matrix(1.00, 0.00, -0.00, -1.00, 267.4, 598.7)">d</text><text xml:space="preserve" font-family="Consolas" font-size="20.0" fill="#000000" transform="matrix(1.00, 0.00, -0.00, -1.00, 278.4, 598.7)">i</text><text xml:space="preserve" font-family="Consolas" font-size="20.0" fill="#000000" transform="matrix(1.00, 0.00, -0.00, -1.00, 289.4, 598.7)">n</text><text xml:space="preserve" font-family="Consolas" font-size="20.0" fill="#000000" transform="matrix(1.00, 0.00, -0.00, -1.00, 300.4, 598.7)">g</text><text xml:space="preserve" font-family="Consolas" font-size="20.0" fill="#000000" transform="matrix(1.00, 0.00, -0.00, -1.00, 311.4, 598.7)">A</text><text xml:space="preserve" font-family="Consolas" font-size="20.0" fill="#000000" transform="matrix(1.00, 0.00, -0.00, -1.00, 322.4, 598.7)">c</text><text xml:space="preserve" font-family="Consolas" font-size="20.0" fill="#000000" transform="matrix(1.00, 0.00, -0.00, -1.00, 333.4, 598.7)">c</text><text xml:space="preserve" font-family="Consolas" font-size="20.0" fill="#000000" transform="matrix(1.00, 0.00, -0.00, -1.00, 344.4, 598.7)">o</text><text xml:space="preserve" font-family="Consolas" font-size="20.0" fill="#000000" transform="matrix(1.00, 0.00, -0.00, -1.00, 355.4, 598.7)">u</text><text xml:space="preserve" font-family="Consolas" font-size="20.0" fill="#000000" transform="matrix(1.00, 0.00, -0.00, -1.00, 366.4, 598.7)">n</text><text xml:space="preserve" font-family="Consolas" font-size="20.0" fill="#000000" transform="matrix(1.00, 0.00, -0.00, -1.00, 377.4, 598.7)">t</text><text xml:space="preserve" font-family="Consolas" font-size="20.0" fill="#000000" transform="matrix(1.00, 0.00, -0.00, -1.00, 388.4, 598.7)">'</text><text xml:space="preserve" font-family="Consolas" font-size="20.0" fill="#000000" transform="matrix(1.00, 0.00, -0.00, -1.00, 399.4, 598.7)"> </text><text xml:space="preserve" font-family="Consolas" font-size="20.0" fill="#000000" transform="matrix(1.00, 0.00, -0.00, -1.00, 102.5, 575.7)"> </text><text xml:space="preserve" font-family="Consolas" font-size="20.0" fill="#000000" transform="matrix(1.00, 0.00, -0.00, -1.00, 113.5, 575.7)"> </text><text xml:space="preserve" font-family="Consolas" font-size="20.0" fill="#000000" transform="matrix(1.00, 0.00, -0.00, -1.00, 124.5, 575.7)">}</text><text xml:space="preserve" font-family="Consolas" font-size="20.0" fill="#000000" transform="matrix(1.00, 0.00, -0.00, -1.00, 135.5, 575.7)"> </text><text xml:space="preserve" font-family="Consolas" font-size="20.0" fill="#000000" transform="matrix(1.00, 0.00, -0.00, -1.00, 102.5, 552.7)">}</text></g></g><image xlink:href="../../83605C26-01C5-4B93-9452-379B2AD77C68/assets/B493E41C90B15A4551C5EA416BC02B4D.png" width="489.00" height="169.00" transform="matrix(1.00, 0.00, -0.00, -1.00, 476.5, 712.0)" opacity="0.50"></image><path d="M 504.5 709.5 L 937.3 709.5 C 944.0 709.5 947.4 709.5 951.1 708.4 C 955.0 706.9 958.2 703.8 959.6 699.8 C 960.8 696.2 960.8 692.8 960.8 685.9 L 960.8 572.9 C 960.8 566.1 960.8 562.7 959.6 559.1 C 958.2 555.1 955.0 551.9 951.1 550.5 C 947.4 549.3 944.0 549.3 937.1 549.3 L 504.5 549.3 C 497.7 549.3 494.3 549.3 490.7 550.5 C 486.7 551.9 483.6 555.1 482.1 559.1 C 481.0 562.7 481.0 566.1 481.0 573.0 L 481.0 686.0 C 481.0 692.8 481.0 696.2 482.1 699.8 C 483.6 703.8 486.7 706.9 490.7 708.4 C 494.3 709.5 497.7 709.5 504.6 709.5 Z M 504.5 709.5 " fill="#FFFFFF"></path><path d="M 23.5 0.0 L 456.3 0.0 C 463.0 0.0 466.5 0.0 470.1 1.2 C 474.1 2.6 477.2 5.7 478.7 9.7 C 479.8 13.4 479.8 16.8 479.8 23.6 L 479.8 136.7 C 479.8 143.4 479.8 146.8 478.7 150.5 C 477.2 154.5 474.1 157.6 470.1 159.0 C 466.5 160.2 463.0 160.2 456.2 160.2 L 23.5 160.2 C 16.8 160.2 13.4 160.2 9.7 159.0 C 5.7 157.6 2.6 154.5 1.2 150.5 C 0.0 146.8 0.0 143.4 0.0 136.6 L 0.0 23.5 C 0.0 16.8 0.0 13.4 1.2 9.7 C 2.6 5.7 5.7 2.6 9.7 1.2 C 13.4 0.0 16.8 0.0 23.6 0.0 Z M 23.5 0.0 " fill="none" stroke="#F09A36" stroke-width="3.00" transform="matrix(1.00, 0.00, 0.00, -1.00, 481.0, 709.5)"></path><g><clipPath id="clip-202"><path d="M 481.0 709.5 L 960.8 709.5 L 960.8 549.3 L 481.0 549.3 Z M 481.0 709.5 "></path></clipPath><g clip-path="url(#clip-202)"><text xml:space="preserve" font-family="Consolas" font-size="20.0" fill="#000000" transform="matrix(1.00, 0.00, -0.00, -1.00, 493.9, 689.1)">w</text><text xml:space="preserve" font-family="Consolas" font-size="20.0" fill="#000000" transform="matrix(1.00, 0.00, -0.00, -1.00, 504.9, 689.1)">h</text><text xml:space="preserve" font-family="Consolas" font-size="20.0" fill="#000000" transform="matrix(1.00, 0.00, -0.00, -1.00, 515.9, 689.1)">i</text><text xml:space="preserve" font-family="Consolas" font-size="20.0" fill="#000000" transform="matrix(1.00, 0.00, -0.00, -1.00, 526.9, 689.1)">l</text><text xml:space="preserve" font-family="Consolas" font-size="20.0" fill="#000000" transform="matrix(1.00, 0.00, -0.00, -1.00, 537.8, 689.1)">e</text><text xml:space="preserve" font-family="Consolas" font-size="20.0" fill="#000000" transform="matrix(1.00, 0.00, -0.00, -1.00, 548.8, 689.1)"> </text><text xml:space="preserve" font-family="Consolas" font-size="20.0" fill="#000000" transform="matrix(1.00, 0.00, -0.00, -1.00, 559.8, 689.1)">(</text><text xml:space="preserve" font-family="Consolas" font-size="20.0" fill="#000000" transform="matrix(1.00, 0.00, -0.00, -1.00, 570.8, 689.1)">t</text><text xml:space="preserve" font-family="Consolas" font-size="20.0" fill="#000000" transform="matrix(1.00, 0.00, -0.00, -1.00, 581.8, 689.1)">r</text><text xml:space="preserve" font-family="Consolas" font-size="20.0" fill="#000000" transform="matrix(1.00, 0.00, -0.00, -1.00, 592.8, 689.1)">u</text><text xml:space="preserve" font-family="Consolas" font-size="20.0" fill="#000000" transform="matrix(1.00, 0.00, -0.00, -1.00, 603.8, 689.1)">e</text><text xml:space="preserve" font-family="Consolas" font-size="20.0" fill="#000000" transform="matrix(1.00, 0.00, -0.00, -1.00, 614.8, 689.1)">)</text><text xml:space="preserve" font-family="Consolas" font-size="20.0" fill="#000000" transform="matrix(1.00, 0.00, -0.00, -1.00, 625.8, 689.1)"> </text><text xml:space="preserve" font-family="Consolas" font-size="20.0" fill="#000000" transform="matrix(1.00, 0.00, -0.00, -1.00, 636.8, 689.1)">{</text><text xml:space="preserve" font-family="Consolas" font-size="20.0" fill="#000000" transform="matrix(1.00, 0.00, -0.00, -1.00, 647.8, 689.1)"> </text><text xml:space="preserve" font-family="Consolas" font-size="20.0" fill="#000000" transform="matrix(1.00, 0.00, -0.00, -1.00, 486.5, 666.1)"> </text><text xml:space="preserve" font-family="Consolas" font-size="20.0" fill="#000000" transform="matrix(1.00, 0.00, -0.00, -1.00, 497.5, 666.1)"> </text><text xml:space="preserve" font-family="Consolas" font-size="20.0" fill="#000000" transform="matrix(1.00, 0.00, -0.00, -1.00, 508.5, 666.1)">y</text><text xml:space="preserve" font-family="Consolas" font-size="20.0" fill="#000000" transform="matrix(1.00, 0.00, -0.00, -1.00, 519.4, 666.1)">i</text><text xml:space="preserve" font-family="Consolas" font-size="20.0" fill="#000000" transform="matrix(1.00, 0.00, -0.00, -1.00, 530.4, 666.1)">e</text><text xml:space="preserve" font-family="Consolas" font-size="20.0" fill="#000000" transform="matrix(1.00, 0.00, -0.00, -1.00, 541.4, 666.1)">l</text><text xml:space="preserve" font-family="Consolas" font-size="20.0" fill="#000000" transform="matrix(1.00, 0.00, -0.00, -1.00, 552.4, 666.1)">d</text><text xml:space="preserve" font-family="Consolas" font-size="20.0" fill="#000000" transform="matrix(1.00, 0.00, -0.00, -1.00, 563.4, 666.1)"> </text><text xml:space="preserve" font-family="Consolas" font-size="20.0" fill="#000000" transform="matrix(1.00, 0.00, -0.00, -1.00, 574.4, 666.1)">{</text><text xml:space="preserve" font-family="Consolas" font-size="20.0" fill="#000000" transform="matrix(1.00, 0.00, -0.00, -1.00, 585.4, 666.1)"> </text><text xml:space="preserve" font-family="Consolas" font-size="20.0" fill="#00872A" transform="matrix(1.00, 0.00, -0.00, -1.00, 596.4, 666.1)">w</text><text xml:space="preserve" font-family="Consolas" font-size="20.0" fill="#00872A" transform="matrix(1.00, 0.00, -0.00, -1.00, 607.4, 666.1)">a</text><text xml:space="preserve" font-family="Consolas" font-size="20.0" fill="#00872A" transform="matrix(1.00, 0.00, -0.00, -1.00, 618.4, 666.1)">i</text><text xml:space="preserve" font-family="Consolas" font-size="20.0" fill="#00872A" transform="matrix(1.00, 0.00, -0.00, -1.00, 629.4, 666.1)">t</text><text xml:space="preserve" font-family="Consolas" font-size="20.0" fill="#000000" transform="matrix(1.00, 0.00, -0.00, -1.00, 640.4, 666.1)">:</text><text xml:space="preserve" font-family="Consolas" font-size="20.0" fill="#000000" transform="matrix(1.00, 0.00, -0.00, -1.00, 651.4, 666.1)"> </text><text xml:space="preserve" font-family="Consolas" font-size="20.0" fill="#000000" transform="matrix(1.00, 0.00, -0.00, -1.00, 662.4, 666.1)">'</text><text xml:space="preserve" font-family="Consolas" font-size="20.0" fill="#000000" transform="matrix(1.00, 0.00, -0.00, -1.00, 673.4, 666.1)">c</text><text xml:space="preserve" font-family="Consolas" font-size="20.0" fill="#000000" transform="matrix(1.00, 0.00, -0.00, -1.00, 684.4, 666.1)">a</text><text xml:space="preserve" font-family="Consolas" font-size="20.0" fill="#000000" transform="matrix(1.00, 0.00, -0.00, -1.00, 695.4, 666.1)">r</text><text xml:space="preserve" font-family="Consolas" font-size="20.0" fill="#000000" transform="matrix(1.00, 0.00, -0.00, -1.00, 706.4, 666.1)">d</text><text xml:space="preserve" font-family="Consolas" font-size="20.0" fill="#000000" transform="matrix(1.00, 0.00, -0.00, -1.00, 717.4, 666.1)">I</text><text xml:space="preserve" font-family="Consolas" font-size="20.0" fill="#000000" transform="matrix(1.00, 0.00, -0.00, -1.00, 728.3, 666.1)">s</text><text xml:space="preserve" font-family="Consolas" font-size="20.0" fill="#000000" transform="matrix(1.00, 0.00, -0.00, -1.00, 739.3, 666.1)">V</text><text xml:space="preserve" font-family="Consolas" font-size="20.0" fill="#000000" transform="matrix(1.00, 0.00, -0.00, -1.00, 750.3, 666.1)">a</text><text xml:space="preserve" font-family="Consolas" font-size="20.0" fill="#000000" transform="matrix(1.00, 0.00, -0.00, -1.00, 761.3, 666.1)">l</text><text xml:space="preserve" font-family="Consolas" font-size="20.0" fill="#000000" transform="matrix(1.00, 0.00, -0.00, -1.00, 772.3, 666.1)">i</text><text xml:space="preserve" font-family="Consolas" font-size="20.0" fill="#000000" transform="matrix(1.00, 0.00, -0.00, -1.00, 783.3, 666.1)">d</text><text xml:space="preserve" font-family="Consolas" font-size="20.0" fill="#000000" transform="matrix(1.00, 0.00, -0.00, -1.00, 794.3, 666.1)">'</text><text xml:space="preserve" font-family="Consolas" font-size="20.0" fill="#000000" transform="matrix(1.00, 0.00, -0.00, -1.00, 805.3, 666.1)"> </text><text xml:space="preserve" font-family="Consolas" font-size="20.0" fill="#000000" transform="matrix(1.00, 0.00, -0.00, -1.00, 816.3, 666.1)">}</text><text xml:space="preserve" font-family="Consolas" font-size="20.0" fill="#000000" transform="matrix(1.00, 0.00, -0.00, -1.00, 827.3, 666.1)"> </text><text xml:space="preserve" font-family="Consolas" font-size="20.0" fill="#000000" transform="matrix(1.00, 0.00, -0.00, -1.00, 486.5, 643.1)"> </text><text xml:space="preserve" font-family="Consolas" font-size="20.0" fill="#000000" transform="matrix(1.00, 0.00, -0.00, -1.00, 497.5, 643.1)"> </text><text xml:space="preserve" font-family="Consolas" font-size="20.0" fill="#000000" transform="matrix(1.00, 0.00, -0.00, -1.00, 508.5, 643.1)">y</text><text xml:space="preserve" font-family="Consolas" font-size="20.0" fill="#000000" transform="matrix(1.00, 0.00, -0.00, -1.00, 519.4, 643.1)">i</text><text xml:space="preserve" font-family="Consolas" font-size="20.0" fill="#000000" transform="matrix(1.00, 0.00, -0.00, -1.00, 530.4, 643.1)">e</text><text xml:space="preserve" font-family="Consolas" font-size="20.0" fill="#000000" transform="matrix(1.00, 0.00, -0.00, -1.00, 541.4, 643.1)">l</text><text xml:space="preserve" font-family="Consolas" font-size="20.0" fill="#000000" transform="matrix(1.00, 0.00, -0.00, -1.00, 552.4, 643.1)">d</text><text xml:space="preserve" font-family="Consolas" font-size="20.0" fill="#000000" transform="matrix(1.00, 0.00, -0.00, -1.00, 563.4, 643.1)"> </text><text xml:space="preserve" font-family="Consolas" font-size="20.0" fill="#000000" transform="matrix(1.00, 0.00, -0.00, -1.00, 574.4, 643.1)">{</text><text xml:space="preserve" font-family="Consolas" font-size="20.0" fill="#000000" transform="matrix(1.00, 0.00, -0.00, -1.00, 585.4, 643.1)"> </text><text xml:space="preserve" font-family="Consolas" font-size="20.0" fill="#0264C0" transform="matrix(1.00, 0.00, -0.00, -1.00, 596.4, 643.1)">r</text><text xml:space="preserve" font-family="Consolas" font-size="20.0" fill="#0264C0" transform="matrix(1.00, 0.00, -0.00, -1.00, 607.4, 643.1)">e</text><text xml:space="preserve" font-family="Consolas" font-size="20.0" fill="#0264C0" transform="matrix(1.00, 0.00, -0.00, -1.00, 618.4, 643.1)">q</text><text xml:space="preserve" font-family="Consolas" font-size="20.0" fill="#0264C0" transform="matrix(1.00, 0.00, -0.00, -1.00, 629.4, 643.1)">u</text><text xml:space="preserve" font-family="Consolas" font-size="20.0" fill="#0264C0" transform="matrix(1.00, 0.00, -0.00, -1.00, 640.4, 643.1)">e</text><text xml:space="preserve" font-family="Consolas" font-size="20.0" fill="#0264C0" transform="matrix(1.00, 0.00, -0.00, -1.00, 651.4, 643.1)">s</text><text xml:space="preserve" font-family="Consolas" font-size="20.0" fill="#0264C0" transform="matrix(1.00, 0.00, -0.00, -1.00, 662.4, 643.1)">t</text><text xml:space="preserve" font-family="Consolas" font-size="20.0" fill="#000000" transform="matrix(1.00, 0.00, -0.00, -1.00, 673.4, 643.1)">:</text><text xml:space="preserve" font-family="Consolas" font-size="20.0" fill="#000000" transform="matrix(1.00, 0.00, -0.00, -1.00, 684.4, 643.1)"> </text><text xml:space="preserve" font-family="Consolas" font-size="20.0" fill="#000000" transform="matrix(1.00, 0.00, -0.00, -1.00, 695.4, 643.1)">'</text><text xml:space="preserve" font-family="Consolas" font-size="20.0" fill="#000000" transform="matrix(1.00, 0.00, -0.00, -1.00, 706.4, 643.1)">s</text><text xml:space="preserve" font-family="Consolas" font-size="20.0" fill="#000000" transform="matrix(1.00, 0.00, -0.00, -1.00, 717.4, 643.1)">h</text><text xml:space="preserve" font-family="Consolas" font-size="20.0" fill="#000000" transform="matrix(1.00, 0.00, -0.00, -1.00, 728.4, 643.1)">o</text><text xml:space="preserve" font-family="Consolas" font-size="20.0" fill="#000000" transform="matrix(1.00, 0.00, -0.00, -1.00, 739.4, 643.1)">w</text><text xml:space="preserve" font-family="Consolas" font-size="20.0" fill="#000000" transform="matrix(1.00, 0.00, -0.00, -1.00, 750.3, 643.1)">A</text><text xml:space="preserve" font-family="Consolas" font-size="20.0" fill="#000000" transform="matrix(1.00, 0.00, -0.00, -1.00, 761.3, 643.1)">d</text><text xml:space="preserve" font-family="Consolas" font-size="20.0" fill="#000000" transform="matrix(1.00, 0.00, -0.00, -1.00, 772.3, 643.1)">'</text><text xml:space="preserve" font-family="Consolas" font-size="20.0" fill="#000000" transform="matrix(1.00, 0.00, -0.00, -1.00, 783.3, 643.1)"> </text><text xml:space="preserve" font-family="Consolas" font-size="20.0" fill="#000000" transform="matrix(1.00, 0.00, -0.00, -1.00, 794.3, 643.1)">}</text><text xml:space="preserve" font-family="Consolas" font-size="20.0" fill="#000000" transform="matrix(1.00, 0.00, -0.00, -1.00, 805.4, 643.1)"> </text><text xml:space="preserve" font-family="Consolas" font-size="20.0" fill="#000000" transform="matrix(1.00, 0.00, -0.00, -1.00, 486.5, 620.1)"> </text><text xml:space="preserve" font-family="Consolas" font-size="20.0" fill="#000000" transform="matrix(1.00, 0.00, -0.00, -1.00, 497.5, 620.1)"> </text><text xml:space="preserve" font-family="Consolas" font-size="20.0" fill="#000000" transform="matrix(1.00, 0.00, -0.00, -1.00, 508.5, 620.1)">y</text><text xml:space="preserve" font-family="Consolas" font-size="20.0" fill="#000000" transform="matrix(1.00, 0.00, -0.00, -1.00, 519.4, 620.1)">i</text><text xml:space="preserve" font-family="Consolas" font-size="20.0" fill="#000000" transform="matrix(1.00, 0.00, -0.00, -1.00, 530.4, 620.1)">e</text><text xml:space="preserve" font-family="Consolas" font-size="20.0" fill="#000000" transform="matrix(1.00, 0.00, -0.00, -1.00, 541.4, 620.1)">l</text><text xml:space="preserve" font-family="Consolas" font-size="20.0" fill="#000000" transform="matrix(1.00, 0.00, -0.00, -1.00, 552.4, 620.1)">d</text><text xml:space="preserve" font-family="Consolas" font-size="20.0" fill="#000000" transform="matrix(1.00, 0.00, -0.00, -1.00, 563.4, 620.1)"> </text><text xml:space="preserve" font-family="Consolas" font-size="20.0" fill="#000000" transform="matrix(1.00, 0.00, -0.00, -1.00, 574.4, 620.1)">s</text><text xml:space="preserve" font-family="Consolas" font-size="20.0" fill="#000000" transform="matrix(1.00, 0.00, -0.00, -1.00, 585.4, 620.1)">h</text><text xml:space="preserve" font-family="Consolas" font-size="20.0" fill="#000000" transform="matrix(1.00, 0.00, -0.00, -1.00, 596.4, 620.1)">o</text><text xml:space="preserve" font-family="Consolas" font-size="20.0" fill="#000000" transform="matrix(1.00, 0.00, -0.00, -1.00, 607.4, 620.1)">w</text><text xml:space="preserve" font-family="Consolas" font-size="20.0" fill="#000000" transform="matrix(1.00, 0.00, -0.00, -1.00, 618.4, 620.1)">A</text><text xml:space="preserve" font-family="Consolas" font-size="20.0" fill="#000000" transform="matrix(1.00, 0.00, -0.00, -1.00, 629.4, 620.1)">d</text><text xml:space="preserve" font-family="Consolas" font-size="20.0" fill="#000000" transform="matrix(1.00, 0.00, -0.00, -1.00, 640.4, 620.1)">v</text><text xml:space="preserve" font-family="Consolas" font-size="20.0" fill="#000000" transform="matrix(1.00, 0.00, -0.00, -1.00, 651.3, 620.1)">e</text><text xml:space="preserve" font-family="Consolas" font-size="20.0" fill="#000000" transform="matrix(1.00, 0.00, -0.00, -1.00, 662.3, 620.1)">r</text><text xml:space="preserve" font-family="Consolas" font-size="20.0" fill="#000000" transform="matrix(1.00, 0.00, -0.00, -1.00, 673.3, 620.1)">t</text><text xml:space="preserve" font-family="Consolas" font-size="20.0" fill="#000000" transform="matrix(1.00, 0.00, -0.00, -1.00, 684.3, 620.1)">i</text><text xml:space="preserve" font-family="Consolas" font-size="20.0" fill="#000000" transform="matrix(1.00, 0.00, -0.00, -1.00, 695.3, 620.1)">s</text><text xml:space="preserve" font-family="Consolas" font-size="20.0" fill="#000000" transform="matrix(1.00, 0.00, -0.00, -1.00, 706.3, 620.1)">m</text><text xml:space="preserve" font-family="Consolas" font-size="20.0" fill="#000000" transform="matrix(1.00, 0.00, -0.00, -1.00, 717.3, 620.1)">e</text><text xml:space="preserve" font-family="Consolas" font-size="20.0" fill="#000000" transform="matrix(1.00, 0.00, -0.00, -1.00, 728.3, 620.1)">n</text><text xml:space="preserve" font-family="Consolas" font-size="20.0" fill="#000000" transform="matrix(1.00, 0.00, -0.00, -1.00, 739.3, 620.1)">t</text><text xml:space="preserve" font-family="Consolas" font-size="20.0" fill="#000000" transform="matrix(1.00, 0.00, -0.00, -1.00, 750.3, 620.1)">(</text><text xml:space="preserve" font-family="Consolas" font-size="20.0" fill="#000000" transform="matrix(1.00, 0.00, -0.00, -1.00, 761.3, 620.1)">)</text><text xml:space="preserve" font-family="Consolas" font-size="20.0" fill="#000000" transform="matrix(1.00, 0.00, -0.00, -1.00, 772.3, 620.1)"> </text><text xml:space="preserve" font-family="Consolas" font-size="20.0" fill="#000000" transform="matrix(1.00, 0.00, -0.00, -1.00, 486.5, 597.1)"> </text><text xml:space="preserve" font-family="Consolas" font-size="20.0" fill="#000000" transform="matrix(1.00, 0.00, -0.00, -1.00, 497.5, 597.1)"> </text><text xml:space="preserve" font-family="Consolas" font-size="20.0" fill="#000000" transform="matrix(1.00, 0.00, -0.00, -1.00, 508.5, 597.1)">y</text><text xml:space="preserve" font-family="Consolas" font-size="20.0" fill="#000000" transform="matrix(1.00, 0.00, -0.00, -1.00, 519.4, 597.1)">i</text><text xml:space="preserve" font-family="Consolas" font-size="20.0" fill="#000000" transform="matrix(1.00, 0.00, -0.00, -1.00, 530.4, 597.1)">e</text><text xml:space="preserve" font-family="Consolas" font-size="20.0" fill="#000000" transform="matrix(1.00, 0.00, -0.00, -1.00, 541.4, 597.1)">l</text><text xml:space="preserve" font-family="Consolas" font-size="20.0" fill="#000000" transform="matrix(1.00, 0.00, -0.00, -1.00, 552.4, 597.1)">d</text><text xml:space="preserve" font-family="Consolas" font-size="20.0" fill="#000000" transform="matrix(1.00, 0.00, -0.00, -1.00, 563.4, 597.1)"> </text><text xml:space="preserve" font-family="Consolas" font-size="20.0" fill="#000000" transform="matrix(1.00, 0.00, -0.00, -1.00, 574.4, 597.1)">{</text><text xml:space="preserve" font-family="Consolas" font-size="20.0" fill="#000000" transform="matrix(1.00, 0.00, -0.00, -1.00, 585.4, 597.1)"> </text><text xml:space="preserve" font-family="Consolas" font-size="20.0" fill="#0264C0" transform="matrix(1.00, 0.00, -0.00, -1.00, 596.4, 597.1)">r</text><text xml:space="preserve" font-family="Consolas" font-size="20.0" fill="#0264C0" transform="matrix(1.00, 0.00, -0.00, -1.00, 607.4, 597.1)">e</text><text xml:space="preserve" font-family="Consolas" font-size="20.0" fill="#0264C0" transform="matrix(1.00, 0.00, -0.00, -1.00, 618.4, 597.1)">q</text><text xml:space="preserve" font-family="Consolas" font-size="20.0" fill="#0264C0" transform="matrix(1.00, 0.00, -0.00, -1.00, 629.4, 597.1)">u</text><text xml:space="preserve" font-family="Consolas" font-size="20.0" fill="#0264C0" transform="matrix(1.00, 0.00, -0.00, -1.00, 640.4, 597.1)">e</text><text xml:space="preserve" font-family="Consolas" font-size="20.0" fill="#0264C0" transform="matrix(1.00, 0.00, -0.00, -1.00, 651.4, 597.1)">s</text><text xml:space="preserve" font-family="Consolas" font-size="20.0" fill="#0264C0" transform="matrix(1.00, 0.00, -0.00, -1.00, 662.4, 597.1)">t</text><text xml:space="preserve" font-family="Consolas" font-size="20.0" fill="#000000" transform="matrix(1.00, 0.00, -0.00, -1.00, 673.4, 597.1)">:</text><text xml:space="preserve" font-family="Consolas" font-size="20.0" fill="#000000" transform="matrix(1.00, 0.00, -0.00, -1.00, 684.4, 597.1)"> </text><text xml:space="preserve" font-family="Consolas" font-size="20.0" fill="#000000" transform="matrix(1.00, 0.00, -0.00, -1.00, 695.4, 597.1)">'</text><text xml:space="preserve" font-family="Consolas" font-size="20.0" fill="#000000" transform="matrix(1.00, 0.00, -0.00, -1.00, 706.4, 597.1)">a</text><text xml:space="preserve" font-family="Consolas" font-size="20.0" fill="#000000" transform="matrix(1.00, 0.00, -0.00, -1.00, 717.4, 597.1)">d</text><text xml:space="preserve" font-family="Consolas" font-size="20.0" fill="#000000" transform="matrix(1.00, 0.00, -0.00, -1.00, 728.4, 597.1)">S</text><text xml:space="preserve" font-family="Consolas" font-size="20.0" fill="#000000" transform="matrix(1.00, 0.00, -0.00, -1.00, 739.4, 597.1)">h</text><text xml:space="preserve" font-family="Consolas" font-size="20.0" fill="#000000" transform="matrix(1.00, 0.00, -0.00, -1.00, 750.3, 597.1)">o</text><text xml:space="preserve" font-family="Consolas" font-size="20.0" fill="#000000" transform="matrix(1.00, 0.00, -0.00, -1.00, 761.3, 597.1)">w</text><text xml:space="preserve" font-family="Consolas" font-size="20.0" fill="#000000" transform="matrix(1.00, 0.00, -0.00, -1.00, 772.3, 597.1)">n</text><text xml:space="preserve" font-family="Consolas" font-size="20.0" fill="#000000" transform="matrix(1.00, 0.00, -0.00, -1.00, 783.3, 597.1)">'</text><text xml:space="preserve" font-family="Consolas" font-size="20.0" fill="#000000" transform="matrix(1.00, 0.00, -0.00, -1.00, 794.3, 597.1)"> </text><text xml:space="preserve" font-family="Consolas" font-size="20.0" fill="#000000" transform="matrix(1.00, 0.00, -0.00, -1.00, 805.3, 597.1)">}</text><text xml:space="preserve" font-family="Consolas" font-size="20.0" fill="#000000" transform="matrix(1.00, 0.00, -0.00, -1.00, 816.3, 597.1)"> </text><text xml:space="preserve" font-family="Consolas" font-size="20.0" fill="#000000" transform="matrix(1.00, 0.00, -0.00, -1.00, 486.5, 574.1)">}</text></g></g><image xlink:href="../../9C2B2B3E-934F-4778-81FA-341590111A9B/assets/C08A3E0FDC68CBCE63F8857DD3E60355.png" width="697.00" height="27.00" transform="matrix(1.00, 0.02, 0.02, -1.00, 117.5, 581.3)" opacity="0.50"></image><path d="M 0.0 13.0 L 326.4 19.9 L 388.6 0.0 L 695.1 5.7 " fill="none" stroke="#E5D20F" stroke-width="5.00" transform="matrix(1.00, 0.02, 0.02, -1.00, 118.6, 578.9)"></path><text xml:space="preserve" font-family="Verdana" font-size="32.0" fill="#000000" transform="matrix(1.00, 0.00, -0.00, -1.00, 121.0, 345.0)">-</text><text xml:space="preserve" font-family="Verdana" font-size="32.0" fill="#000000" transform="matrix(1.00, 0.00, -0.00, -1.00, 135.5, 345.0)"> </text><text xml:space="preserve" font-family="Verdana" font-size="32.0" fill="#000000" transform="matrix(1.00, 0.00, -0.00, -1.00, 146.8, 345.0)">c</text><text xml:space="preserve" font-family="Verdana" font-size="32.0" fill="#000000" transform="matrix(1.00, 0.00, -0.00, -1.00, 163.4, 345.0)">a</text><text xml:space="preserve" font-family="Verdana" font-size="32.0" fill="#000000" transform="matrix(1.00, 0.00, -0.00, -1.00, 182.6, 345.0)">r</text><text xml:space="preserve" font-family="Verdana" font-size="32.0" fill="#000000" transform="matrix(1.00, 0.00, -0.00, -1.00, 196.3, 345.0)">d</text><text xml:space="preserve" font-family="Verdana" font-size="32.0" fill="#000000" transform="matrix(1.00, 0.00, -0.00, -1.00, 216.2, 345.0)">I</text><text xml:space="preserve" font-family="Verdana" font-size="32.0" fill="#000000" transform="matrix(1.00, 0.00, -0.00, -1.00, 229.7, 345.0)">n</text><text xml:space="preserve" font-family="Verdana" font-size="32.0" fill="#000000" transform="matrix(1.00, 0.00, -0.00, -1.00, 249.9, 345.0)">s</text><text xml:space="preserve" font-family="Verdana" font-size="32.0" fill="#000000" transform="matrix(1.00, 0.00, -0.00, -1.00, 266.6, 345.0)">e</text><text xml:space="preserve" font-family="Verdana" font-size="32.0" fill="#000000" transform="matrix(1.00, 0.00, -0.00, -1.00, 285.7, 345.0)">r</text><text xml:space="preserve" font-family="Verdana" font-size="32.0" fill="#000000" transform="matrix(1.00, 0.00, -0.00, -1.00, 299.3, 345.0)">t</text><text xml:space="preserve" font-family="Verdana" font-size="32.0" fill="#000000" transform="matrix(1.00, 0.00, -0.00, -1.00, 311.9, 345.0)">e</text><text xml:space="preserve" font-family="Verdana" font-size="32.0" fill="#000000" transform="matrix(1.00, 0.00, -0.00, -1.00, 331.0, 345.0)">d</text><text xml:space="preserve" font-family="Verdana" font-size="32.0" fill="#000000" transform="matrix(1.00, 0.00, -0.00, -1.00, 121.0, 295.0)">-</text><text xml:space="preserve" font-family="Verdana" font-size="32.0" fill="#000000" transform="matrix(1.00, 0.00, -0.00, -1.00, 135.5, 295.0)"> </text><text xml:space="preserve" font-family="Verdana" font-size="32.0" fill="#000000" transform="matrix(1.00, 0.00, -0.00, -1.00, 146.8, 295.0)">c</text><text xml:space="preserve" font-family="Verdana" font-size="32.0" fill="#000000" transform="matrix(1.00, 0.00, -0.00, -1.00, 163.4, 295.0)">a</text><text xml:space="preserve" font-family="Verdana" font-size="32.0" fill="#000000" transform="matrix(1.00, 0.00, -0.00, -1.00, 182.6, 295.0)">r</text><text xml:space="preserve" font-family="Verdana" font-size="32.0" fill="#000000" transform="matrix(1.00, 0.00, -0.00, -1.00, 196.3, 295.0)">d</text><text xml:space="preserve" font-family="Verdana" font-size="32.0" fill="#000000" transform="matrix(1.00, 0.00, -0.00, -1.00, 216.2, 295.0)">I</text><text xml:space="preserve" font-family="Verdana" font-size="32.0" fill="#000000" transform="matrix(1.00, 0.00, -0.00, -1.00, 229.7, 295.0)">s</text><text xml:space="preserve" font-family="Verdana" font-size="32.0" fill="#000000" transform="matrix(1.00, 0.00, -0.00, -1.00, 246.4, 295.0)">V</text><text xml:space="preserve" font-family="Verdana" font-size="32.0" fill="#000000" transform="matrix(1.00, 0.00, -0.00, -1.00, 266.7, 295.0)">a</text><text xml:space="preserve" font-family="Verdana" font-size="32.0" fill="#000000" transform="matrix(1.00, 0.00, -0.00, -1.00, 285.9, 295.0)">l</text><text xml:space="preserve" font-family="Verdana" font-size="32.0" fill="#000000" transform="matrix(1.00, 0.00, -0.00, -1.00, 294.7, 295.0)">i</text><text xml:space="preserve" font-family="Verdana" font-size="32.0" fill="#000000" transform="matrix(1.00, 0.00, -0.00, -1.00, 303.5, 295.0)">d</text><text xml:space="preserve" font-family="Verdana-Bold" font-weight="bold" font-size="24.0" fill="#C97F2D" transform="matrix(1.00, 0.00, -0.00, -1.00, 123.9, 247.5)">-</text><text xml:space="preserve" font-family="Verdana" font-size="32.0" fill="#C97F2D" transform="matrix(1.00, 0.00, -0.00, -1.00, 155.0, 244.0)">s</text><text xml:space="preserve" font-family="Verdana" font-size="32.0" fill="#C97F2D" transform="matrix(1.00, 0.00, -0.00, -1.00, 171.7, 244.0)">h</text><text xml:space="preserve" font-family="Verdana" font-size="32.0" fill="#C97F2D" transform="matrix(1.00, 0.00, -0.00, -1.00, 191.9, 244.0)">o</text><text xml:space="preserve" font-family="Verdana" font-size="32.0" fill="#C97F2D" transform="matrix(1.00, 0.00, -0.00, -1.00, 211.3, 244.0)">w</text><text xml:space="preserve" font-family="Verdana" font-size="32.0" fill="#C97F2D" transform="matrix(1.00, 0.00, -0.00, -1.00, 237.5, 244.0)">A</text><text xml:space="preserve" font-family="Verdana" font-size="32.0" fill="#C97F2D" transform="matrix(1.00, 0.00, -0.00, -1.00, 259.4, 244.0)">d</text><text xml:space="preserve" font-family="Verdana" font-size="32.0" fill="#C97F2D" transform="matrix(1.00, 0.00, -0.00, -1.00, 279.3, 244.0)"> </text><image xlink:href="../../2B5AB87D-E53E-431B-8B59-462CFCD96BF3/assets/8A0F49AB64DB3166C602D3C4E2A7219C.png" width="201.00" height="39.00" transform="matrix(1.00, 0.00, -0.00, -0.99, 214.4, 622.1)" opacity="0.50"></image><path d="M 0.0 0.0 L 191.1 0.0 L 191.1 28.7 L 0.0 28.7 Z M 0.0 0.0 " fill="none" stroke="#FF4C41" stroke-width="4.00" transform="matrix(1.00, 0.00, 0.00, -1.00, 219.4, 619.1)"></path><image xlink:href="../../2B5AB87D-E53E-431B-8B59-462CFCD96BF3/assets/E74AB11FF9F07FD13A2A1825792F8F9D.png" width="105.00" height="42.00" transform="matrix(1.00, 0.00, -0.00, -1.00, 694.3, 623.4)" opacity="0.50"></image><path d="M 0.0 0.0 L 94.6 0.0 L 94.6 32.0 L 0.0 32.0 Z M 0.0 0.0 " fill="none" stroke="#1CD836" stroke-width="4.00" transform="matrix(1.00, 0.00, 0.00, -1.00, 699.3, 620.4)"></path><text xml:space="preserve" font-family="Verdana-Bold" font-weight="bold" font-size="24.0" fill="#C97F2D" transform="matrix(1.00, 0.00, -0.00, -1.00, 123.7, 199.9)">-</text><text xml:space="preserve" font-family="Verdana" font-size="32.0" fill="#C97F2D" transform="matrix(1.00, 0.00, -0.00, -1.00, 155.0, 197.0)">a</text><text xml:space="preserve" font-family="Verdana" font-size="32.0" fill="#C97F2D" transform="matrix(1.00, 0.00, -0.00, -1.00, 174.2, 197.0)">d</text><text xml:space="preserve" font-family="Verdana" font-size="32.0" fill="#C97F2D" transform="matrix(1.00, 0.00, -0.00, -1.00, 194.1, 197.0)">S</text><text xml:space="preserve" font-family="Verdana" font-size="32.0" fill="#C97F2D" transform="matrix(1.00, 0.00, -0.00, -1.00, 216.0, 197.0)">h</text><text xml:space="preserve" font-family="Verdana" font-size="32.0" fill="#C97F2D" transform="matrix(1.00, 0.00, -0.00, -1.00, 236.2, 197.0)">o</text><text xml:space="preserve" font-family="Verdana" font-size="32.0" fill="#C97F2D" transform="matrix(1.00, 0.00, -0.00, -1.00, 255.7, 197.0)">w</text><text xml:space="preserve" font-family="Verdana" font-size="32.0" fill="#C97F2D" transform="matrix(1.00, 0.00, -0.00, -1.00, 281.9, 197.0)">n</text><path d="M 354.7 265.7 C 354.0 264.9 350.6 261.8 350.5 261.8 C 351.8 263.0 354.5 265.5 354.7 265.7 C 354.7 265.7 354.7 265.7 354.7 265.7 Z M 361.6 271.9 C 360.4 270.7 357.7 268.3 356.8 267.5 C 358.2 268.8 361.1 271.6 361.6 271.9 C 361.6 271.9 361.6 271.9 361.6 271.9 Z M 351.0 262.5 C 349.1 260.9 345.9 257.7 345.0 257.0 C 346.8 258.7 350.1 261.8 351.0 262.5 C 351.0 262.5 351.0 262.5 351.0 262.5 Z M 447.5 349.5 C 446.7 348.8 443.4 345.6 443.3 345.7 C 444.5 346.8 447.2 349.4 447.5 349.5 C 447.5 349.5 447.5 349.5 447.5 349.5 Z M 428.5 332.2 C 427.3 331.1 424.6 328.6 423.7 327.9 C 425.1 329.2 428.0 331.9 428.5 332.2 C 428.5 332.2 428.5 332.2 428.5 332.2 Z M 417.6 322.1 C 415.0 319.7 412.3 317.2 412.7 317.7 C 413.6 318.4 417.2 321.9 417.6 322.1 C 417.6 322.1 417.6 322.1 417.6 322.1 Z M 350.2 267.7 C 353.0 270.2 354.9 272.1 356.7 273.8 C 366.0 282.4 352.1 269.3 350.2 267.7 C 350.2 267.7 350.2 267.7 350.2 267.7 Z M 398.1 304.5 C 399.9 306.2 401.4 307.5 402.3 308.3 C 400.6 306.7 398.2 304.5 398.1 304.5 C 398.1 304.5 398.1 304.5 398.1 304.5 Z M 382.2 289.9 C 381.8 289.4 372.4 280.8 367.1 276.0 C 371.5 280.1 382.5 290.3 382.2 289.9 C 382.2 289.9 382.2 289.9 382.2 289.9 Z M 372.2 288.2 C 378.4 293.8 388.1 302.8 392.5 306.9 C 397.0 310.9 384.8 299.5 373.5 289.1 C 362.2 278.7 371.4 287.5 366.8 283.2 C 362.2 279.0 371.1 287.4 375.7 291.6 C 380.3 295.7 372.7 288.7 372.2 288.2 C 372.2 288.2 372.2 288.2 372.2 288.2 Z M 371.7 288.2 C 369.5 286.1 367.5 284.4 366.2 283.3 C 368.5 285.4 370.7 287.5 371.7 288.2 C 371.7 288.2 371.7 288.2 371.7 288.2 Z M 700.0 588.9 C 700.0 587.4 695.3 581.9 689.9 576.0 C 688.6 574.5 687.2 573.1 685.8 571.6 C 675.5 561.4 664.9 551.3 654.3 541.2 C 652.2 539.2 650.0 537.3 647.9 535.2 C 641.4 529.1 634.8 522.9 628.1 516.8 C 625.9 514.7 623.7 512.7 621.5 510.6 C 613.6 503.1 605.9 496.1 598.1 488.8 C 594.2 485.2 590.2 481.5 586.2 477.6 C 584.2 475.6 575.5 467.5 572.3 464.7 C 575.4 467.3 561.0 454.1 561.7 454.7 C 560.0 453.3 558.3 451.8 556.6 450.2 C 554.9 448.7 557.0 450.7 559.1 452.7 C 557.2 451.0 555.3 449.2 553.4 447.5 C 551.4 445.6 549.4 443.8 547.4 441.8 C 540.7 435.6 533.4 428.9 527.1 423.2 C 510.1 407.4 463.4 364.2 471.8 372.1 C 481.3 380.9 476.3 376.5 473.7 374.1 C 472.2 372.7 470.2 370.9 468.0 368.8 C 468.1 368.8 468.2 369.0 468.6 369.3 C 464.4 365.3 458.5 359.6 452.5 354.3 C 453.6 355.3 455.0 356.6 455.5 357.1 C 452.5 354.4 454.8 356.6 452.8 354.9 C 447.4 349.9 444.8 347.5 451.0 353.3 C 445.2 348.0 441.3 344.7 435.5 339.4 C 433.3 337.4 434.5 338.5 435.2 339.1 C 431.4 335.5 422.6 327.4 421.9 326.6 C 421.1 325.8 445.6 348.6 441.3 344.5 C 439.5 342.8 435.8 339.4 434.5 338.1 C 437.6 340.9 441.4 344.5 443.4 346.3 C 441.3 344.3 438.2 341.5 436.6 339.9 C 438.7 341.8 440.1 343.1 440.7 343.7 C 437.7 340.9 435.4 338.7 431.8 335.4 C 430.2 333.9 433.1 336.7 429.7 333.6 C 429.1 333.0 431.9 335.7 431.7 335.5 C 428.9 333.0 423.5 327.9 422.1 326.6 C 420.7 325.4 425.4 329.7 425.5 329.9 C 414.8 320.0 402.7 308.8 398.9 305.3 C 395.1 301.8 398.6 305.1 400.2 306.6 C 395.8 302.6 392.5 299.5 387.3 294.7 C 383.9 291.6 385.3 292.9 386.5 294.1 C 385.6 293.2 384.8 292.5 384.3 292.1 C 383.9 291.7 383.0 290.8 382.3 290.3 C 384.3 292.2 388.2 295.7 389.8 297.3 C 386.7 294.5 379.4 287.7 376.7 285.3 C 380.9 289.2 385.5 293.4 390.2 297.8 C 380.9 289.3 371.6 280.4 364.0 273.6 C 365.4 274.9 365.9 275.5 367.0 276.5 C 364.2 273.8 360.0 269.9 357.4 267.7 C 356.0 266.4 353.2 263.8 350.5 261.3 C 355.3 265.8 358.5 268.8 361.9 271.9 C 361.8 271.9 361.5 271.6 360.9 271.1 C 368.3 278.2 372.9 282.0 378.3 286.9 C 378.7 287.3 379.1 287.7 379.5 288.1 C 381.2 289.8 375.1 284.1 374.4 283.6 C 382.4 291.0 391.1 299.0 394.9 302.7 C 385.5 294.0 377.1 286.2 370.0 279.7 C 371.7 281.5 378.9 288.0 382.3 291.2 C 366.7 277.0 365.1 275.5 363.9 274.3 C 365.1 275.5 366.2 276.6 367.5 277.7 C 367.1 277.5 366.8 277.2 366.5 276.9 C 359.7 270.6 351.7 263.2 352.1 263.6 C 352.4 263.9 358.6 269.7 365.1 275.8 C 364.4 275.2 363.7 274.6 363.0 274.0 C 355.3 266.8 346.4 258.9 338.8 251.7 C 340.0 253.0 339.3 252.3 337.7 250.9 C 340.1 253.2 343.5 256.4 346.0 258.8 C 345.1 258.0 343.6 256.5 343.0 256.1 C 344.3 257.3 346.3 259.2 346.9 259.8 C 343.3 256.5 339.3 252.9 335.5 249.3 C 334.6 248.7 337.1 250.9 336.9 250.8 C 333.2 247.4 328.1 242.6 325.4 240.2 C 328.4 243.1 334.5 248.6 336.3 250.4 C 335.1 249.3 333.8 248.2 332.6 247.1 C 330.1 244.8 328.9 243.7 331.6 246.3 C 333.1 247.7 333.1 247.7 332.7 247.4 C 330.9 245.8 325.0 240.3 325.1 240.6 C 326.6 242.0 332.5 247.5 334.0 248.9 C 332.8 248.0 329.8 245.1 329.4 244.9 C 336.0 251.0 335.7 250.8 337.4 252.2 C 336.7 251.6 334.8 249.8 334.9 249.9 C 339.0 253.6 343.0 257.4 347.2 261.2 C 347.2 261.2 347.2 261.2 347.2 261.2 C 347.2 261.2 347.2 261.2 347.2 261.2 C 347.2 261.2 347.2 261.2 347.2 261.2 C 346.7 260.9 346.8 261.1 347.2 261.5 C 345.4 259.9 343.5 258.2 340.2 255.1 C 341.0 256.0 344.1 258.8 346.9 261.4 C 346.9 261.4 346.8 261.4 346.8 261.4 C 342.2 257.2 335.3 250.8 330.6 246.6 C 332.7 248.6 340.5 255.8 345.8 260.7 C 345.7 260.5 345.5 260.4 345.3 260.3 C 352.0 266.4 359.7 273.8 367.2 280.7 C 363.5 277.5 359.4 273.5 354.7 269.2 C 352.5 267.2 350.5 265.4 348.4 263.5 C 342.5 258.0 324.9 241.7 322.9 239.8 C 320.6 237.9 338.4 254.4 338.5 254.5 C 338.6 254.6 330.3 247.0 334.2 250.6 C 336.2 252.5 340.7 256.6 343.9 259.6 C 344.0 259.8 344.0 259.9 344.1 260.1 C 341.3 257.5 337.9 254.4 337.9 254.2 C 336.5 252.9 333.6 250.1 333.1 249.8 C 333.6 250.2 334.3 250.9 334.3 250.9 C 333.6 250.3 332.6 249.4 332.5 249.3 C 335.9 252.5 340.5 256.9 344.2 260.3 C 344.5 260.6 344.8 260.9 345.1 261.3 C 345.0 261.2 342.1 258.6 339.6 256.3 C 337.0 253.9 342.4 258.9 346.7 262.9 C 347.4 263.6 348.0 264.3 348.7 265.0 C 347.2 263.6 345.5 262.0 343.4 260.1 C 341.0 257.9 341.0 258.0 338.6 255.9 C 343.0 259.9 348.3 264.9 352.6 268.8 C 354.1 270.3 355.6 271.8 357.1 273.3 C 353.5 270.1 350.2 267.1 348.2 265.3 C 346.7 263.9 345.1 262.4 344.4 261.9 C 345.9 263.2 342.0 259.7 342.6 260.3 C 344.7 262.2 348.8 266.1 350.4 267.4 C 353.7 270.4 357.3 273.7 360.4 276.6 C 360.8 277.0 361.2 277.4 361.6 277.8 C 358.9 275.3 356.4 273.0 353.5 270.3 C 354.7 271.7 362.6 279.0 368.3 284.2 C 379.9 295.1 392.0 305.6 403.7 316.4 C 404.2 316.8 404.9 317.4 405.6 318.2 C 406.4 319.0 407.3 319.8 408.1 320.6 C 405.3 318.0 402.8 315.7 400.7 313.9 C 408.9 321.6 388.9 303.0 387.5 301.9 C 400.8 314.4 425.8 337.5 441.2 351.9 C 437.5 348.4 436.3 347.3 440.2 351.0 C 441.3 352.1 442.4 353.1 443.5 354.1 C 427.7 339.6 411.6 324.3 398.9 312.9 C 406.3 319.8 417.6 330.2 420.6 333.2 C 418.5 331.1 415.3 328.2 414.8 327.8 C 418.6 331.4 431.4 343.2 435.1 346.7 C 416.7 329.8 391.9 306.7 378.3 294.3 C 398.8 313.2 426.2 338.8 443.8 354.9 C 440.8 352.0 440.7 352.0 442.4 353.4 C 447.8 358.4 453.3 363.4 458.9 368.6 C 460.0 369.6 459.6 369.3 456.9 366.8 C 454.6 364.8 453.3 363.6 452.6 363.0 C 454.1 364.4 471.3 380.4 457.6 367.7 C 443.9 355.0 420.1 333.1 434.0 346.0 C 447.8 358.8 453.2 364.0 445.6 357.0 C 438.0 350.0 414.0 327.9 422.0 335.3 C 430.0 342.8 446.8 358.5 456.4 367.3 C 465.9 376.2 450.1 361.0 464.2 374.1 C 478.3 387.1 466.5 376.3 469.2 378.8 C 473.4 382.8 481.3 390.0 488.7 396.9 C 493.9 401.8 500.6 408.0 503.9 411.1 C 503.6 411.0 487.8 396.2 494.0 402.1 C 509.4 416.4 526.7 432.4 519.7 425.7 C 529.2 434.5 536.2 441.0 542.2 446.5 C 551.4 455.2 562.1 465.2 563.3 466.3 C 564.7 467.6 590.1 490.8 599.3 499.9 C 600.1 500.6 617.2 516.3 618.7 517.6 C 634.8 532.7 632.5 530.7 648.5 545.4 C 661.9 557.8 666.0 561.5 668.2 563.6 C 682.4 576.6 682.2 576.6 689.4 582.5 C 691.6 584.4 694.8 587.3 696.1 588.1 C 698.6 589.7 700.1 590.2 700.0 588.9 C 700.0 588.9 700.0 588.9 700.0 588.9 Z M 349.1 262.8 C 346.7 260.5 342.2 256.3 339.6 253.8 C 342.6 256.5 346.3 260.0 350.1 263.5 C 349.8 263.3 349.5 263.0 349.1 262.8 C 349.1 262.8 349.1 262.8 349.1 262.8 Z M 367.2 281.8 C 365.5 280.3 363.6 278.4 361.7 276.6 C 359.9 275.0 358.1 273.3 355.4 270.8 C 355.6 271.1 360.0 275.2 363.4 278.4 C 363.4 278.4 363.4 278.5 363.3 278.5 C 361.6 277.0 359.6 275.2 357.3 273.0 C 356.5 272.2 355.7 271.5 354.9 270.7 C 354.9 270.6 356.1 271.8 356.6 272.2 C 356.1 271.6 354.0 269.6 351.3 267.1 C 351.0 266.8 350.7 266.5 350.4 266.2 C 350.1 265.8 352.1 267.6 349.9 265.5 C 351.5 266.9 355.6 270.8 358.2 273.2 C 355.2 270.7 366.2 280.7 368.8 283.3 C 368.3 282.8 367.8 282.3 367.2 281.8 Z M 390.7 298.4 C 392.2 299.7 393.7 301.1 395.2 302.5 C 393.0 300.5 391.3 299.0 389.8 297.6 C 390.1 297.8 390.4 298.1 390.7 298.4 Z M 513.8 411.3 C 504.7 403.2 486.2 385.7 484.8 384.7 C 482.9 382.9 481.0 381.1 479.1 379.3 C 491.5 390.8 504.9 403.1 513.8 411.3 C 513.8 411.3 513.8 411.3 513.8 411.3 Z M 478.2 386.6 C 477.4 385.9 477.7 386.2 479.6 387.8 C 489.2 396.7 495.0 401.9 488.9 396.3 C 483.7 391.5 472.5 381.0 475.8 384.0 C 480.2 388.1 484.6 392.2 489.1 396.3 C 492.6 399.6 495.9 402.8 499.2 406.1 C 491.8 399.2 484.7 392.6 478.2 386.6 C 478.2 386.6 478.2 386.6 478.2 386.6 Z M 503.3 410.0 C 500.6 407.6 497.5 404.6 494.3 401.6 C 497.1 404.2 499.8 406.8 502.7 409.4 C 502.9 409.6 503.1 409.8 503.3 410.0 Z M 506.6 413.3 C 501.2 408.3 495.8 403.2 501.3 408.3 C 502.5 409.4 503.7 410.5 505.0 411.7 C 505.5 412.2 506.1 412.7 506.6 413.3 Z M 509.9 416.4 C 509.9 416.3 509.0 415.5 507.2 413.8 C 510.8 417.2 518.2 424.0 517.8 423.7 C 515.4 421.5 512.7 419.0 509.9 416.4 C 509.9 416.4 509.9 416.4 509.9 416.4 Z M 519.9 416.7 C 517.5 414.5 515.4 412.5 519.2 416.0 C 520.7 417.3 522.1 418.7 523.6 420.0 C 522.4 418.9 521.1 417.8 519.9 416.7 Z M 390.8 305.5 C 391.8 306.5 395.7 310.1 397.9 312.1 C 398.4 312.1 389.4 304.1 390.8 305.5 C 390.8 305.5 390.8 305.5 390.8 305.5 Z M 376.1 292.1 C 377.1 293.0 381.0 296.6 383.3 298.7 C 383.7 298.7 374.8 290.7 376.1 292.1 C 376.1 292.1 376.1 292.1 376.1 292.1 Z M 599.4 500.0 C 599.4 500.0 599.4 500.0 599.3 500.0 C 599.4 500.0 599.4 500.0 599.4 500.0 C 599.4 500.0 599.4 500.0 599.4 500.0 Z M 599.4 500.0 " fill="#000000"></path><path d="M 334.5 228.3 C 334.3 227.5 333.8 227.4 333.7 227.3 C 333.6 227.3 333.6 227.3 333.6 227.3 L 333.6 227.3 L 333.6 227.3 L 333.5 227.3 L 333.4 227.3 L 333.2 227.3 L 332.9 227.2 C 332.7 227.1 332.6 227.0 332.5 226.9 C 332.5 226.6 333.7 227.0 333.6 226.7 C 333.5 226.5 329.1 225.2 329.0 225.2 C 328.6 225.2 327.5 225.0 327.2 224.9 C 327.9 225.1 328.5 225.1 328.8 225.1 C 328.8 225.1 329.9 225.2 328.8 224.6 C 329.0 224.7 329.1 224.6 329.1 224.6 L 329.1 224.5 C 329.1 224.5 330.2 225.0 330.3 224.8 C 330.5 224.3 326.6 223.9 326.4 223.6 C 326.8 223.7 327.2 223.8 327.4 223.7 C 326.4 223.7 322.3 222.4 321.5 222.2 C 318.5 221.5 315.2 221.1 312.2 220.5 C 310.8 220.2 309.2 219.9 307.6 219.5 L 305.0 219.0 L 304.9 219.0 L 304.8 219.0 L 304.7 218.9 C 304.5 218.9 305.2 219.0 304.3 218.9 C 303.4 218.3 301.3 220.8 301.9 221.5 C 302.1 222.3 302.0 221.7 302.0 221.9 L 302.0 221.9 L 302.2 222.2 L 302.4 222.8 L 302.9 224.1 C 304.1 227.5 305.3 230.8 306.2 233.6 C 306.7 235.5 309.6 242.6 309.5 243.1 C 309.6 243.3 310.4 245.4 311.2 247.6 L 311.8 249.1 L 312.1 249.9 L 312.2 250.0 L 312.2 250.1 L 312.2 250.2 L 312.2 250.2 L 312.2 250.2 C 312.2 249.9 312.0 250.7 313.5 251.3 C 316.1 250.6 314.5 250.8 315.0 250.8 L 315.0 250.8 L 315.2 250.5 C 315.8 249.8 316.2 249.4 316.2 249.4 C 316.4 249.2 316.3 249.9 316.4 249.9 L 317.2 249.0 C 317.2 249.2 317.1 249.3 316.9 249.6 C 318.5 248.2 321.1 244.4 322.2 243.3 C 322.0 243.3 322.1 242.9 322.1 243.0 C 322.2 243.0 330.7 234.0 331.6 233.1 C 332.5 232.2 333.9 229.4 332.8 230.2 C 332.0 230.8 332.5 230.1 332.8 229.6 C 330.9 230.1 335.3 227.6 331.7 229.2 C 331.7 229.3 332.1 228.1 332.6 227.8 C 331.7 229.3 332.1 228.1 332.6 227.8 C 331.7 229.3 332.1 228.1 332.6 227.8 " fill="#000000"></path></g></svg>