<?xml version="1.0" encoding="UTF-8" standalone="no"?><svg xmlns="http://www.w3.org/2000/svg" xmlns:xlink="http://www.w3.org/1999/xlink" clip-rule="evenodd" stroke-miterlimit="4.00" viewBox="0 0 265 29"><desc>SVG generated by Keynote</desc><defs></defs><g transform="matrix(1.00, 0.00, -0.00, -1.00, 0.0, 29.0)"><text xml:space="preserve" font-family="Verdana" font-size="32.0" fill="#000000" transform="matrix(1.00, 0.00, -0.00, -1.00, -1.0, 3.0)">-</text><text xml:space="preserve" font-family="Verdana" font-size="32.0" fill="#000000" transform="matrix(1.00, 0.00, -0.00, -1.00, 13.5, 3.0)"> </text><text xml:space="preserve" font-family="Verdana" font-size="32.0" fill="#000000" transform="matrix(1.00, 0.00, -0.00, -1.00, 24.8, 3.0)">a</text><text xml:space="preserve" font-family="Verdana" font-size="32.0" fill="#000000" transform="matrix(1.00, 0.00, -0.00, -1.00, 44.0, 3.0)">c</text><text xml:space="preserve" font-family="Verdana" font-size="32.0" fill="#000000" transform="matrix(1.00, 0.00, -0.00, -1.00, 60.6, 3.0)">c</text><text xml:space="preserve" font-family="Verdana" font-size="32.0" fill="#000000" transform="matrix(1.00, 0.00, -0.00, -1.00, 77.3, 3.0)">o</text><text xml:space="preserve" font-family="Verdana" font-size="32.0" fill="#000000" transform="matrix(1.00, 0.00, -0.00, -1.00, 96.7, 3.0)">u</text><text xml:space="preserve" font-family="Verdana" font-size="32.0" fill="#000000" transform="matrix(1.00, 0.00, -0.00, -1.00, 117.0, 3.0)">n</text><text xml:space="preserve" font-family="Verdana" font-size="32.0" fill="#000000" transform="matrix(1.00, 0.00, -0.00, -1.00, 137.2, 3.0)">t</text><text xml:space="preserve" font-family="Verdana" font-size="32.0" fill="#000000" transform="matrix(1.00, 0.00, -0.00, -1.00, 149.8, 3.0)">L</text><text xml:space="preserve" font-family="Verdana" font-size="32.0" fill="#000000" transform="matrix(1.00, 0.00, -0.00, -1.00, 167.6, 3.0)">o</text><text xml:space="preserve" font-family="Verdana" font-size="32.0" fill="#000000" transform="matrix(1.00, 0.00, -0.00, -1.00, 187.1, 3.0)">a</text><text xml:space="preserve" font-family="Verdana" font-size="32.0" fill="#000000" transform="matrix(1.00, 0.00, -0.00, -1.00, 206.3, 3.0)">d</text><text xml:space="preserve" font-family="Verdana" font-size="32.0" fill="#000000" transform="matrix(1.00, 0.00, -0.00, -1.00, 226.2, 3.0)">e</text><text xml:space="preserve" font-family="Verdana" font-size="32.0" fill="#000000" transform="matrix(1.00, 0.00, -0.00, -1.00, 245.3, 3.0)">d</text></g></svg>