<?xml version="1.0" encoding="UTF-8" standalone="no"?><svg xmlns="http://www.w3.org/2000/svg" xmlns:xlink="http://www.w3.org/1999/xlink" clip-rule="evenodd" stroke-miterlimit="4.00" viewBox="0 0 196 30"><desc>SVG generated by Keynote</desc><defs></defs><g transform="matrix(1.00, 0.00, -0.00, -1.00, 0.0, 30.0)"><text xml:space="preserve" font-family="Verdana" font-size="27.0" fill="#000000" transform="matrix(1.00, 0.00, -0.00, -1.00, 1.0, 7.0)">W</text><text xml:space="preserve" font-family="Verdana" font-size="27.0" fill="#000000" transform="matrix(1.00, 0.00, -0.00, -1.00, 27.7, 7.0)">h</text><text xml:space="preserve" font-family="Verdana" font-size="27.0" fill="#000000" transform="matrix(1.00, 0.00, -0.00, -1.00, 44.8, 7.0)">a</text><text xml:space="preserve" font-family="Verdana" font-size="27.0" fill="#000000" transform="matrix(1.00, 0.00, -0.00, -1.00, 61.0, 7.0)">t</text><text xml:space="preserve" font-family="Verdana" font-size="27.0" fill="#000000" transform="matrix(1.00, 0.00, -0.00, -1.00, 71.6, 7.0)"> </text><text xml:space="preserve" font-family="Verdana" font-size="27.0" fill="#000000" transform="matrix(1.00, 0.00, -0.00, -1.00, 81.1, 7.0)">h</text><text xml:space="preserve" font-family="Verdana" font-size="27.0" fill="#000000" transform="matrix(1.00, 0.00, -0.00, -1.00, 98.2, 7.0)">a</text><text xml:space="preserve" font-family="Verdana" font-size="27.0" fill="#000000" transform="matrix(1.00, 0.00, -0.00, -1.00, 114.4, 7.0)">p</text><text xml:space="preserve" font-family="Verdana" font-size="27.0" fill="#000000" transform="matrix(1.00, 0.00, -0.00, -1.00, 131.2, 7.0)">p</text><text xml:space="preserve" font-family="Verdana" font-size="27.0" fill="#000000" transform="matrix(1.00, 0.00, -0.00, -1.00, 148.0, 7.0)">e</text><text xml:space="preserve" font-family="Verdana" font-size="27.0" fill="#000000" transform="matrix(1.00, 0.00, -0.00, -1.00, 164.1, 7.0)">n</text><text xml:space="preserve" font-family="Verdana" font-size="27.0" fill="#000000" transform="matrix(1.00, 0.00, -0.00, -1.00, 181.2, 7.0)">s</text></g></svg>