<?xml version="1.0" encoding="UTF-8" standalone="no"?><svg xmlns="http://www.w3.org/2000/svg" xmlns:xlink="http://www.w3.org/1999/xlink" clip-rule="evenodd" stroke-miterlimit="4.00" viewBox="0 0 457 201"><desc>SVG generated by Keynote</desc><defs></defs><g transform="matrix(1.00, 0.00, -0.00, -1.00, 0.0, 201.0)"><image xlink:href="B70D8AD1F5A043B631AA66CE26FEF689.png" width="454.00" height="194.00" transform="matrix(1.00, 0.00, -0.00, -1.00, 1.8, 196.0)" opacity="0.50"></image><path d="M 29.9 193.5 L 427.9 193.5 C 434.7 193.5 438.1 193.5 441.7 192.3 C 445.7 190.9 448.8 187.7 450.3 183.7 C 451.4 180.1 451.4 176.7 451.4 169.8 L 451.4 31.6 C 451.4 24.9 451.4 21.4 450.3 17.8 C 448.8 13.8 445.7 10.7 441.7 9.2 C 438.1 8.1 434.7 8.1 427.8 8.1 L 29.9 8.1 C 23.1 8.1 19.7 8.1 16.1 9.2 C 12.1 10.7 9.0 13.8 7.5 17.8 C 6.3 21.4 6.3 24.9 6.3 31.7 L 6.3 169.9 C 6.3 176.7 6.3 180.1 7.5 183.7 C 9.0 187.7 12.1 190.9 16.1 192.3 C 19.7 193.5 23.1 193.5 30.0 193.5 Z M 29.9 193.5 " fill="#FFFFFF"></path><path d="M 23.5 0.0 L 421.6 0.0 C 428.3 0.0 431.7 0.0 435.4 1.2 C 439.4 2.6 442.5 5.7 443.9 9.7 C 445.1 13.4 445.1 16.8 445.1 23.6 L 445.1 161.8 C 445.1 168.6 445.1 172.0 443.9 175.6 C 442.5 179.6 439.4 182.8 435.4 184.2 C 431.7 185.4 428.3 185.4 421.5 185.4 L 23.5 185.4 C 16.8 185.4 13.4 185.4 9.7 184.2 C 5.7 182.8 2.6 179.6 1.2 175.6 C 0.0 172.0 0.0 168.6 0.0 161.7 L 0.0 23.5 C 0.0 16.8 0.0 13.4 1.2 9.7 C 2.6 5.7 5.7 2.6 9.7 1.2 C 13.4 0.0 16.8 0.0 23.6 0.0 Z M 23.5 0.0 " fill="none" stroke="#A356D7" stroke-width="3.00" transform="matrix(1.00, 0.00, 0.00, -1.00, 6.3, 193.5)"></path><g><clipPath id="clip-250"><path d="M 6.3 193.5 L 451.4 193.5 L 451.4 8.1 L 6.3 8.1 Z M 6.3 193.5 "></path></clipPath><g clip-path="url(#clip-250)"><text xml:space="preserve" font-family="Consolas" font-size="20.0" fill="#000000" transform="matrix(1.00, 0.00, -0.00, -1.00, 19.3, 173.0)">w</text><text xml:space="preserve" font-family="Consolas" font-size="20.0" fill="#000000" transform="matrix(1.00, 0.00, -0.00, -1.00, 30.3, 173.0)">h</text><text xml:space="preserve" font-family="Consolas" font-size="20.0" fill="#000000" transform="matrix(1.00, 0.00, -0.00, -1.00, 41.2, 173.0)">i</text><text xml:space="preserve" font-family="Consolas" font-size="20.0" fill="#000000" transform="matrix(1.00, 0.00, -0.00, -1.00, 52.2, 173.0)">l</text><text xml:space="preserve" font-family="Consolas" font-size="20.0" fill="#000000" transform="matrix(1.00, 0.00, -0.00, -1.00, 63.2, 173.0)">e</text><text xml:space="preserve" font-family="Consolas" font-size="20.0" fill="#000000" transform="matrix(1.00, 0.00, -0.00, -1.00, 74.2, 173.0)"> </text><text xml:space="preserve" font-family="Consolas" font-size="20.0" fill="#000000" transform="matrix(1.00, 0.00, -0.00, -1.00, 85.2, 173.0)">(</text><text xml:space="preserve" font-family="Consolas" font-size="20.0" fill="#000000" transform="matrix(1.00, 0.00, -0.00, -1.00, 96.2, 173.0)">t</text><text xml:space="preserve" font-family="Consolas" font-size="20.0" fill="#000000" transform="matrix(1.00, 0.00, -0.00, -1.00, 107.2, 173.0)">r</text><text xml:space="preserve" font-family="Consolas" font-size="20.0" fill="#000000" transform="matrix(1.00, 0.00, -0.00, -1.00, 118.2, 173.0)">u</text><text xml:space="preserve" font-family="Consolas" font-size="20.0" fill="#000000" transform="matrix(1.00, 0.00, -0.00, -1.00, 129.2, 173.0)">e</text><text xml:space="preserve" font-family="Consolas" font-size="20.0" fill="#000000" transform="matrix(1.00, 0.00, -0.00, -1.00, 140.2, 173.0)">)</text><text xml:space="preserve" font-family="Consolas" font-size="20.0" fill="#000000" transform="matrix(1.00, 0.00, -0.00, -1.00, 151.2, 173.0)"> </text><text xml:space="preserve" font-family="Consolas" font-size="20.0" fill="#000000" transform="matrix(1.00, 0.00, -0.00, -1.00, 162.2, 173.0)">{</text><text xml:space="preserve" font-family="Consolas" font-size="20.0" fill="#000000" transform="matrix(1.00, 0.00, -0.00, -1.00, 173.1, 173.0)"> </text><text xml:space="preserve" font-family="Consolas" font-size="20.0" fill="#000000" transform="matrix(1.00, 0.00, -0.00, -1.00, 11.8, 150.0)"> </text><text xml:space="preserve" font-family="Consolas" font-size="20.0" fill="#000000" transform="matrix(1.00, 0.00, -0.00, -1.00, 22.8, 150.0)"> </text><text xml:space="preserve" font-family="Consolas" font-size="20.0" fill="#000000" transform="matrix(1.00, 0.00, -0.00, -1.00, 33.8, 150.0)">y</text><text xml:space="preserve" font-family="Consolas" font-size="20.0" fill="#000000" transform="matrix(1.00, 0.00, -0.00, -1.00, 44.8, 150.0)">i</text><text xml:space="preserve" font-family="Consolas" font-size="20.0" fill="#000000" transform="matrix(1.00, 0.00, -0.00, -1.00, 55.8, 150.0)">e</text><text xml:space="preserve" font-family="Consolas" font-size="20.0" fill="#000000" transform="matrix(1.00, 0.00, -0.00, -1.00, 66.8, 150.0)">l</text><text xml:space="preserve" font-family="Consolas" font-size="20.0" fill="#000000" transform="matrix(1.00, 0.00, -0.00, -1.00, 77.8, 150.0)">d</text><text xml:space="preserve" font-family="Consolas" font-size="20.0" fill="#000000" transform="matrix(1.00, 0.00, -0.00, -1.00, 88.8, 150.0)"> </text><text xml:space="preserve" font-family="Consolas" font-size="20.0" fill="#000000" transform="matrix(1.00, 0.00, -0.00, -1.00, 99.8, 150.0)">{</text><text xml:space="preserve" font-family="Consolas" font-size="20.0" fill="#000000" transform="matrix(1.00, 0.00, -0.00, -1.00, 110.8, 150.0)"> </text><text xml:space="preserve" font-family="Consolas" font-size="20.0" fill="#00872A" transform="matrix(1.00, 0.00, -0.00, -1.00, 121.8, 150.0)">w</text><text xml:space="preserve" font-family="Consolas" font-size="20.0" fill="#00872A" transform="matrix(1.00, 0.00, -0.00, -1.00, 132.8, 150.0)">a</text><text xml:space="preserve" font-family="Consolas" font-size="20.0" fill="#00872A" transform="matrix(1.00, 0.00, -0.00, -1.00, 143.8, 150.0)">i</text><text xml:space="preserve" font-family="Consolas" font-size="20.0" fill="#00872A" transform="matrix(1.00, 0.00, -0.00, -1.00, 154.8, 150.0)">t</text><text xml:space="preserve" font-family="Consolas" font-size="20.0" fill="#000000" transform="matrix(1.00, 0.00, -0.00, -1.00, 165.8, 150.0)">:</text><text xml:space="preserve" font-family="Consolas" font-size="20.0" fill="#000000" transform="matrix(1.00, 0.00, -0.00, -1.00, 176.8, 150.0)"> </text><text xml:space="preserve" font-family="Consolas" font-size="20.0" fill="#000000" transform="matrix(1.00, 0.00, -0.00, -1.00, 187.8, 150.0)">'</text><text xml:space="preserve" font-family="Consolas" font-size="20.0" fill="#000000" transform="matrix(1.00, 0.00, -0.00, -1.00, 198.8, 150.0)">c</text><text xml:space="preserve" font-family="Consolas" font-size="20.0" fill="#000000" transform="matrix(1.00, 0.00, -0.00, -1.00, 209.8, 150.0)">a</text><text xml:space="preserve" font-family="Consolas" font-size="20.0" fill="#000000" transform="matrix(1.00, 0.00, -0.00, -1.00, 220.8, 150.0)">r</text><text xml:space="preserve" font-family="Consolas" font-size="20.0" fill="#000000" transform="matrix(1.00, 0.00, -0.00, -1.00, 231.7, 150.0)">d</text><text xml:space="preserve" font-family="Consolas" font-size="20.0" fill="#000000" transform="matrix(1.00, 0.00, -0.00, -1.00, 242.7, 150.0)">I</text><text xml:space="preserve" font-family="Consolas" font-size="20.0" fill="#000000" transform="matrix(1.00, 0.00, -0.00, -1.00, 253.7, 150.0)">s</text><text xml:space="preserve" font-family="Consolas" font-size="20.0" fill="#000000" transform="matrix(1.00, 0.00, -0.00, -1.00, 264.7, 150.0)">V</text><text xml:space="preserve" font-family="Consolas" font-size="20.0" fill="#000000" transform="matrix(1.00, 0.00, -0.00, -1.00, 275.7, 150.0)">a</text><text xml:space="preserve" font-family="Consolas" font-size="20.0" fill="#000000" transform="matrix(1.00, 0.00, -0.00, -1.00, 286.7, 150.0)">l</text><text xml:space="preserve" font-family="Consolas" font-size="20.0" fill="#000000" transform="matrix(1.00, 0.00, -0.00, -1.00, 297.7, 150.0)">i</text><text xml:space="preserve" font-family="Consolas" font-size="20.0" fill="#000000" transform="matrix(1.00, 0.00, -0.00, -1.00, 308.7, 150.0)">d</text><text xml:space="preserve" font-family="Consolas" font-size="20.0" fill="#000000" transform="matrix(1.00, 0.00, -0.00, -1.00, 319.7, 150.0)">'</text><text xml:space="preserve" font-family="Consolas" font-size="20.0" fill="#000000" transform="matrix(1.00, 0.00, -0.00, -1.00, 330.7, 150.0)"> </text><text xml:space="preserve" font-family="Consolas" font-size="20.0" fill="#000000" transform="matrix(1.00, 0.00, -0.00, -1.00, 341.7, 150.0)">}</text><text xml:space="preserve" font-family="Consolas" font-size="20.0" fill="#000000" transform="matrix(1.00, 0.00, -0.00, -1.00, 352.7, 150.0)"> </text><text xml:space="preserve" font-family="Consolas" font-size="20.0" fill="#000000" transform="matrix(1.00, 0.00, -0.00, -1.00, 11.8, 127.0)"> </text><text xml:space="preserve" font-family="Consolas" font-size="20.0" fill="#000000" transform="matrix(1.00, 0.00, -0.00, -1.00, 22.8, 127.0)"> </text><text xml:space="preserve" font-family="Consolas" font-size="20.0" fill="#000000" transform="matrix(1.00, 0.00, -0.00, -1.00, 33.8, 127.0)">y</text><text xml:space="preserve" font-family="Consolas" font-size="20.0" fill="#000000" transform="matrix(1.00, 0.00, -0.00, -1.00, 44.8, 127.0)">i</text><text xml:space="preserve" font-family="Consolas" font-size="20.0" fill="#000000" transform="matrix(1.00, 0.00, -0.00, -1.00, 55.8, 127.0)">e</text><text xml:space="preserve" font-family="Consolas" font-size="20.0" fill="#000000" transform="matrix(1.00, 0.00, -0.00, -1.00, 66.8, 127.0)">l</text><text xml:space="preserve" font-family="Consolas" font-size="20.0" fill="#000000" transform="matrix(1.00, 0.00, -0.00, -1.00, 77.8, 127.0)">d</text><text xml:space="preserve" font-family="Consolas" font-size="20.0" fill="#000000" transform="matrix(1.00, 0.00, -0.00, -1.00, 88.8, 127.0)"> </text><text xml:space="preserve" font-family="Consolas" font-size="20.0" fill="#000000" transform="matrix(1.00, 0.00, -0.00, -1.00, 99.8, 127.0)">{</text><text xml:space="preserve" font-family="Consolas" font-size="20.0" fill="#000000" transform="matrix(1.00, 0.00, -0.00, -1.00, 110.8, 127.0)"> </text><text xml:space="preserve" font-family="Consolas" font-size="20.0" fill="#000000" transform="matrix(1.00, 0.00, -0.00, -1.00, 11.8, 104.0)"> </text><text xml:space="preserve" font-family="Consolas" font-size="20.0" fill="#000000" transform="matrix(1.00, 0.00, -0.00, -1.00, 22.8, 104.0)"> </text><text xml:space="preserve" font-family="Consolas" font-size="20.0" fill="#000000" transform="matrix(1.00, 0.00, -0.00, -1.00, 33.8, 104.0)"> </text><text xml:space="preserve" font-family="Consolas" font-size="20.0" fill="#000000" transform="matrix(1.00, 0.00, -0.00, -1.00, 44.8, 104.0)"> </text><text xml:space="preserve" font-family="Consolas" font-size="20.0" fill="#00872A" transform="matrix(1.00, 0.00, -0.00, -1.00, 55.8, 104.0)">w</text><text xml:space="preserve" font-family="Consolas" font-size="20.0" fill="#00872A" transform="matrix(1.00, 0.00, -0.00, -1.00, 66.8, 104.0)">a</text><text xml:space="preserve" font-family="Consolas" font-size="20.0" fill="#00872A" transform="matrix(1.00, 0.00, -0.00, -1.00, 77.8, 104.0)">i</text><text xml:space="preserve" font-family="Consolas" font-size="20.0" fill="#00872A" transform="matrix(1.00, 0.00, -0.00, -1.00, 88.8, 104.0)">t</text><text xml:space="preserve" font-family="Consolas" font-size="20.0" fill="#000000" transform="matrix(1.00, 0.00, -0.00, -1.00, 99.8, 104.0)">:</text><text xml:space="preserve" font-family="Consolas" font-size="20.0" fill="#000000" transform="matrix(1.00, 0.00, -0.00, -1.00, 110.8, 104.0)"> </text><text xml:space="preserve" font-family="Consolas" font-size="20.0" fill="#000000" transform="matrix(1.00, 0.00, -0.00, -1.00, 121.8, 104.0)">[</text><text xml:space="preserve" font-family="Consolas" font-size="20.0" fill="#000000" transform="matrix(1.00, 0.00, -0.00, -1.00, 132.8, 104.0)">'</text><text xml:space="preserve" font-family="Consolas" font-size="20.0" fill="#000000" transform="matrix(1.00, 0.00, -0.00, -1.00, 143.8, 104.0)">a</text><text xml:space="preserve" font-family="Consolas" font-size="20.0" fill="#000000" transform="matrix(1.00, 0.00, -0.00, -1.00, 154.8, 104.0)">d</text><text xml:space="preserve" font-family="Consolas" font-size="20.0" fill="#000000" transform="matrix(1.00, 0.00, -0.00, -1.00, 165.8, 104.0)">S</text><text xml:space="preserve" font-family="Consolas" font-size="20.0" fill="#000000" transform="matrix(1.00, 0.00, -0.00, -1.00, 176.8, 104.0)">h</text><text xml:space="preserve" font-family="Consolas" font-size="20.0" fill="#000000" transform="matrix(1.00, 0.00, -0.00, -1.00, 187.8, 104.0)">o</text><text xml:space="preserve" font-family="Consolas" font-size="20.0" fill="#000000" transform="matrix(1.00, 0.00, -0.00, -1.00, 198.7, 104.0)">w</text><text xml:space="preserve" font-family="Consolas" font-size="20.0" fill="#000000" transform="matrix(1.00, 0.00, -0.00, -1.00, 209.7, 104.0)">n</text><text xml:space="preserve" font-family="Consolas" font-size="20.0" fill="#000000" transform="matrix(1.00, 0.00, -0.00, -1.00, 220.7, 104.0)">'</text><text xml:space="preserve" font-family="Consolas" font-size="20.0" fill="#000000" transform="matrix(1.00, 0.00, -0.00, -1.00, 231.7, 104.0)">,</text><text xml:space="preserve" font-family="Consolas" font-size="20.0" fill="#000000" transform="matrix(1.00, 0.00, -0.00, -1.00, 242.7, 104.0)"> </text><text xml:space="preserve" font-family="Consolas" font-size="20.0" fill="#000000" transform="matrix(1.00, 0.00, -0.00, -1.00, 253.7, 104.0)">'</text><text xml:space="preserve" font-family="Consolas" font-size="20.0" fill="#000000" transform="matrix(1.00, 0.00, -0.00, -1.00, 264.7, 104.0)">i</text><text xml:space="preserve" font-family="Consolas" font-size="20.0" fill="#000000" transform="matrix(1.00, 0.00, -0.00, -1.00, 275.7, 104.0)">s</text><text xml:space="preserve" font-family="Consolas" font-size="20.0" fill="#000000" transform="matrix(1.00, 0.00, -0.00, -1.00, 286.7, 104.0)">E</text><text xml:space="preserve" font-family="Consolas" font-size="20.0" fill="#000000" transform="matrix(1.00, 0.00, -0.00, -1.00, 297.7, 104.0)">n</text><text xml:space="preserve" font-family="Consolas" font-size="20.0" fill="#000000" transform="matrix(1.00, 0.00, -0.00, -1.00, 308.7, 104.0)">t</text><text xml:space="preserve" font-family="Consolas" font-size="20.0" fill="#000000" transform="matrix(1.00, 0.00, -0.00, -1.00, 319.7, 104.0)">e</text><text xml:space="preserve" font-family="Consolas" font-size="20.0" fill="#000000" transform="matrix(1.00, 0.00, -0.00, -1.00, 330.7, 104.0)">r</text><text xml:space="preserve" font-family="Consolas" font-size="20.0" fill="#000000" transform="matrix(1.00, 0.00, -0.00, -1.00, 341.6, 104.0)">p</text><text xml:space="preserve" font-family="Consolas" font-size="20.0" fill="#000000" transform="matrix(1.00, 0.00, -0.00, -1.00, 352.6, 104.0)">r</text><text xml:space="preserve" font-family="Consolas" font-size="20.0" fill="#000000" transform="matrix(1.00, 0.00, -0.00, -1.00, 363.6, 104.0)">i</text><text xml:space="preserve" font-family="Consolas" font-size="20.0" fill="#000000" transform="matrix(1.00, 0.00, -0.00, -1.00, 374.6, 104.0)">s</text><text xml:space="preserve" font-family="Consolas" font-size="20.0" fill="#000000" transform="matrix(1.00, 0.00, -0.00, -1.00, 385.6, 104.0)">e</text><text xml:space="preserve" font-family="Consolas" font-size="20.0" fill="#000000" transform="matrix(1.00, 0.00, -0.00, -1.00, 396.6, 104.0)">'</text><text xml:space="preserve" font-family="Consolas" font-size="20.0" fill="#000000" transform="matrix(1.00, 0.00, -0.00, -1.00, 407.6, 104.0)">]</text><text xml:space="preserve" font-family="Consolas" font-size="20.0" fill="#000000" transform="matrix(1.00, 0.00, -0.00, -1.00, 418.7, 104.0)">,</text><text xml:space="preserve" font-family="Consolas" font-size="20.0" fill="#000000" transform="matrix(1.00, 0.00, -0.00, -1.00, 429.7, 104.0)"> </text><text xml:space="preserve" font-family="Consolas" font-size="20.0" fill="#000000" transform="matrix(1.00, 0.00, -0.00, -1.00, 11.8, 81.0)"> </text><text xml:space="preserve" font-family="Consolas" font-size="20.0" fill="#000000" transform="matrix(1.00, 0.00, -0.00, -1.00, 22.8, 81.0)"> </text><text xml:space="preserve" font-family="Consolas" font-size="20.0" fill="#000000" transform="matrix(1.00, 0.00, -0.00, -1.00, 33.8, 81.0)"> </text><text xml:space="preserve" font-family="Consolas" font-size="20.0" fill="#000000" transform="matrix(1.00, 0.00, -0.00, -1.00, 44.8, 81.0)"> </text><text xml:space="preserve" font-family="Consolas" font-size="20.0" fill="#FF4C41" transform="matrix(1.00, 0.00, -0.00, -1.00, 55.8, 81.0)">b</text><text xml:space="preserve" font-family="Consolas" font-size="20.0" fill="#FF4C41" transform="matrix(1.00, 0.00, -0.00, -1.00, 66.8, 81.0)">l</text><text xml:space="preserve" font-family="Consolas" font-size="20.0" fill="#FF4C41" transform="matrix(1.00, 0.00, -0.00, -1.00, 77.8, 81.0)">o</text><text xml:space="preserve" font-family="Consolas" font-size="20.0" fill="#FF4C41" transform="matrix(1.00, 0.00, -0.00, -1.00, 88.8, 81.0)">c</text><text xml:space="preserve" font-family="Consolas" font-size="20.0" fill="#FF4C41" transform="matrix(1.00, 0.00, -0.00, -1.00, 99.8, 81.0)">k</text><text xml:space="preserve" font-family="Consolas" font-size="20.0" fill="#000000" transform="matrix(1.00, 0.00, -0.00, -1.00, 110.8, 81.0)">:</text><text xml:space="preserve" font-family="Consolas" font-size="20.0" fill="#000000" transform="matrix(1.00, 0.00, -0.00, -1.00, 121.8, 81.0)"> </text><text xml:space="preserve" font-family="Consolas" font-size="20.0" fill="#000000" transform="matrix(1.00, 0.00, -0.00, -1.00, 132.8, 81.0)">'</text><text xml:space="preserve" font-family="Consolas" font-size="20.0" fill="#000000" transform="matrix(1.00, 0.00, -0.00, -1.00, 143.8, 81.0)">l</text><text xml:space="preserve" font-family="Consolas" font-size="20.0" fill="#000000" transform="matrix(1.00, 0.00, -0.00, -1.00, 154.8, 81.0)">o</text><text xml:space="preserve" font-family="Consolas" font-size="20.0" fill="#000000" transform="matrix(1.00, 0.00, -0.00, -1.00, 165.8, 81.0)">a</text><text xml:space="preserve" font-family="Consolas" font-size="20.0" fill="#000000" transform="matrix(1.00, 0.00, -0.00, -1.00, 176.8, 81.0)">d</text><text xml:space="preserve" font-family="Consolas" font-size="20.0" fill="#000000" transform="matrix(1.00, 0.00, -0.00, -1.00, 187.8, 81.0)">i</text><text xml:space="preserve" font-family="Consolas" font-size="20.0" fill="#000000" transform="matrix(1.00, 0.00, -0.00, -1.00, 198.8, 81.0)">n</text><text xml:space="preserve" font-family="Consolas" font-size="20.0" fill="#000000" transform="matrix(1.00, 0.00, -0.00, -1.00, 209.7, 81.0)">g</text><text xml:space="preserve" font-family="Consolas" font-size="20.0" fill="#000000" transform="matrix(1.00, 0.00, -0.00, -1.00, 220.7, 81.0)">A</text><text xml:space="preserve" font-family="Consolas" font-size="20.0" fill="#000000" transform="matrix(1.00, 0.00, -0.00, -1.00, 231.7, 81.0)">c</text><text xml:space="preserve" font-family="Consolas" font-size="20.0" fill="#000000" transform="matrix(1.00, 0.00, -0.00, -1.00, 242.7, 81.0)">c</text><text xml:space="preserve" font-family="Consolas" font-size="20.0" fill="#000000" transform="matrix(1.00, 0.00, -0.00, -1.00, 253.7, 81.0)">o</text><text xml:space="preserve" font-family="Consolas" font-size="20.0" fill="#000000" transform="matrix(1.00, 0.00, -0.00, -1.00, 264.7, 81.0)">u</text><text xml:space="preserve" font-family="Consolas" font-size="20.0" fill="#000000" transform="matrix(1.00, 0.00, -0.00, -1.00, 275.7, 81.0)">n</text><text xml:space="preserve" font-family="Consolas" font-size="20.0" fill="#000000" transform="matrix(1.00, 0.00, -0.00, -1.00, 286.7, 81.0)">t</text><text xml:space="preserve" font-family="Consolas" font-size="20.0" fill="#000000" transform="matrix(1.00, 0.00, -0.00, -1.00, 297.7, 81.0)">'</text><text xml:space="preserve" font-family="Consolas" font-size="20.0" fill="#000000" transform="matrix(1.00, 0.00, -0.00, -1.00, 308.7, 81.0)"> </text><text xml:space="preserve" font-family="Consolas" font-size="20.0" fill="#000000" transform="matrix(1.00, 0.00, -0.00, -1.00, 11.8, 58.0)"> </text><text xml:space="preserve" font-family="Consolas" font-size="20.0" fill="#000000" transform="matrix(1.00, 0.00, -0.00, -1.00, 22.8, 58.0)"> </text><text xml:space="preserve" font-family="Consolas" font-size="20.0" fill="#000000" transform="matrix(1.00, 0.00, -0.00, -1.00, 33.8, 58.0)">}</text><text xml:space="preserve" font-family="Consolas" font-size="20.0" fill="#000000" transform="matrix(1.00, 0.00, -0.00, -1.00, 44.8, 58.0)"> </text><text xml:space="preserve" font-family="Consolas" font-size="20.0" fill="#000000" transform="matrix(1.00, 0.00, -0.00, -1.00, 11.9, 35.0)">}</text></g></g></g></svg>