<?xml version="1.0" encoding="UTF-8" standalone="no"?><svg xmlns="http://www.w3.org/2000/svg" xmlns:xlink="http://www.w3.org/1999/xlink" clip-rule="evenodd" stroke-miterlimit="4.00" viewBox="0 0 203 26"><desc>SVG generated by Keynote</desc><defs></defs><g transform="matrix(1.00, 0.00, -0.00, -1.00, 0.0, 26.0)"><text xml:space="preserve" font-family="Verdana" font-size="28.0" fill="#000000" transform="matrix(1.00, 0.00, -0.00, -1.00, 1.0, 2.0)">W</text><text xml:space="preserve" font-family="Verdana" font-size="28.0" fill="#000000" transform="matrix(1.00, 0.00, -0.00, -1.00, 28.7, 2.0)">h</text><text xml:space="preserve" font-family="Verdana" font-size="28.0" fill="#000000" transform="matrix(1.00, 0.00, -0.00, -1.00, 46.4, 2.0)">a</text><text xml:space="preserve" font-family="Verdana" font-size="28.0" fill="#000000" transform="matrix(1.00, 0.00, -0.00, -1.00, 63.2, 2.0)">t</text><text xml:space="preserve" font-family="Verdana" font-size="28.0" fill="#000000" transform="matrix(1.00, 0.00, -0.00, -1.00, 74.2, 2.0)"> </text><text xml:space="preserve" font-family="Verdana" font-size="28.0" fill="#000000" transform="matrix(1.00, 0.00, -0.00, -1.00, 84.1, 2.0)">w</text><text xml:space="preserve" font-family="Verdana" font-size="28.0" fill="#000000" transform="matrix(1.00, 0.00, -0.00, -1.00, 107.0, 2.0)">e</text><text xml:space="preserve" font-family="Verdana" font-size="28.0" fill="#000000" transform="matrix(1.00, 0.00, -0.00, -1.00, 123.7, 2.0)"> </text><text xml:space="preserve" font-family="Verdana" font-size="28.0" fill="#000000" transform="matrix(1.00, 0.00, -0.00, -1.00, 133.5, 2.0)">w</text><text xml:space="preserve" font-family="Verdana" font-size="28.0" fill="#000000" transform="matrix(1.00, 0.00, -0.00, -1.00, 156.1, 2.0)">a</text><text xml:space="preserve" font-family="Verdana" font-size="28.0" fill="#000000" transform="matrix(1.00, 0.00, -0.00, -1.00, 172.9, 2.0)">n</text><text xml:space="preserve" font-family="Verdana" font-size="28.0" fill="#000000" transform="matrix(1.00, 0.00, -0.00, -1.00, 190.7, 2.0)">t</text></g></svg>