<?xml version="1.0" encoding="UTF-8" standalone="no"?><svg xmlns="http://www.w3.org/2000/svg" xmlns:xlink="http://www.w3.org/1999/xlink" clip-rule="evenodd" stroke-miterlimit="4.00" viewBox="0 0 265 29"><desc>SVG generated by Keynote</desc><defs></defs><g transform="matrix(1.00, 0.00, -0.00, -1.00, 0.0, 29.0)"><text xml:space="preserve" font-family="Verdana" font-size="32.0" fill="#000000" transform="matrix(1.00, 0.00, -0.00, -1.00, 0.0, 2.0)">-</text><text xml:space="preserve" font-family="Verdana" font-size="32.0" fill="#000000" transform="matrix(1.00, 0.00, -0.00, -1.00, 14.5, 2.0)"> </text><text xml:space="preserve" font-family="Verdana" font-size="32.0" fill="#000000" transform="matrix(1.00, 0.00, -0.00, -1.00, 25.8, 2.0)">a</text><text xml:space="preserve" font-family="Verdana" font-size="32.0" fill="#000000" transform="matrix(1.00, 0.00, -0.00, -1.00, 45.0, 2.0)">c</text><text xml:space="preserve" font-family="Verdana" font-size="32.0" fill="#000000" transform="matrix(1.00, 0.00, -0.00, -1.00, 61.6, 2.0)">c</text><text xml:space="preserve" font-family="Verdana" font-size="32.0" fill="#000000" transform="matrix(1.00, 0.00, -0.00, -1.00, 78.3, 2.0)">o</text><text xml:space="preserve" font-family="Verdana" font-size="32.0" fill="#000000" transform="matrix(1.00, 0.00, -0.00, -1.00, 97.7, 2.0)">u</text><text xml:space="preserve" font-family="Verdana" font-size="32.0" fill="#000000" transform="matrix(1.00, 0.00, -0.00, -1.00, 118.0, 2.0)">n</text><text xml:space="preserve" font-family="Verdana" font-size="32.0" fill="#000000" transform="matrix(1.00, 0.00, -0.00, -1.00, 138.2, 2.0)">t</text><text xml:space="preserve" font-family="Verdana" font-size="32.0" fill="#000000" transform="matrix(1.00, 0.00, -0.00, -1.00, 150.8, 2.0)">L</text><text xml:space="preserve" font-family="Verdana" font-size="32.0" fill="#000000" transform="matrix(1.00, 0.00, -0.00, -1.00, 168.6, 2.0)">o</text><text xml:space="preserve" font-family="Verdana" font-size="32.0" fill="#000000" transform="matrix(1.00, 0.00, -0.00, -1.00, 188.1, 2.0)">a</text><text xml:space="preserve" font-family="Verdana" font-size="32.0" fill="#000000" transform="matrix(1.00, 0.00, -0.00, -1.00, 207.3, 2.0)">d</text><text xml:space="preserve" font-family="Verdana" font-size="32.0" fill="#000000" transform="matrix(1.00, 0.00, -0.00, -1.00, 227.2, 2.0)">e</text><text xml:space="preserve" font-family="Verdana" font-size="32.0" fill="#000000" transform="matrix(1.00, 0.00, -0.00, -1.00, 246.3, 2.0)">d</text></g></svg>