<?xml version="1.0" encoding="UTF-8" standalone="no"?><svg xmlns="http://www.w3.org/2000/svg" xmlns:xlink="http://www.w3.org/1999/xlink" clip-rule="evenodd" stroke-miterlimit="4.00" viewBox="0 0 216 34"><desc>SVG generated by Keynote</desc><defs></defs><g transform="matrix(1.00, 0.00, -0.00, -1.00, 0.0, 34.0)"><text xml:space="preserve" font-family="Verdana" font-size="32.0" fill="#AE51DD" transform="matrix(1.00, 0.00, -0.00, -1.00, -1.0, 8.0)">-</text><text xml:space="preserve" font-family="Verdana" font-size="32.0" fill="#AE51DD" transform="matrix(1.00, 0.00, -0.00, -1.00, 13.5, 8.0)"> </text><text xml:space="preserve" font-family="Verdana" font-size="32.0" fill="#AE51DD" transform="matrix(1.00, 0.00, -0.00, -1.00, 24.8, 8.0)">i</text><text xml:space="preserve" font-family="Verdana" font-size="32.0" fill="#AE51DD" transform="matrix(1.00, 0.00, -0.00, -1.00, 33.6, 8.0)">s</text><text xml:space="preserve" font-family="Verdana" font-size="32.0" fill="#AE51DD" transform="matrix(1.00, 0.00, -0.00, -1.00, 50.2, 8.0)">E</text><text xml:space="preserve" font-family="Verdana" font-size="32.0" fill="#AE51DD" transform="matrix(1.00, 0.00, -0.00, -1.00, 70.5, 8.0)">n</text><text xml:space="preserve" font-family="Verdana" font-size="32.0" fill="#AE51DD" transform="matrix(1.00, 0.00, -0.00, -1.00, 90.7, 8.0)">t</text><text xml:space="preserve" font-family="Verdana" font-size="32.0" fill="#AE51DD" transform="matrix(1.00, 0.00, -0.00, -1.00, 103.3, 8.0)">e</text><text xml:space="preserve" font-family="Verdana" font-size="32.0" fill="#AE51DD" transform="matrix(1.00, 0.00, -0.00, -1.00, 122.4, 8.0)">r</text><text xml:space="preserve" font-family="Verdana" font-size="32.0" fill="#AE51DD" transform="matrix(1.00, 0.00, -0.00, -1.00, 136.0, 8.0)">p</text><text xml:space="preserve" font-family="Verdana" font-size="32.0" fill="#AE51DD" transform="matrix(1.00, 0.00, -0.00, -1.00, 156.0, 8.0)">r</text><text xml:space="preserve" font-family="Verdana" font-size="32.0" fill="#AE51DD" transform="matrix(1.00, 0.00, -0.00, -1.00, 169.6, 8.0)">i</text><text xml:space="preserve" font-family="Verdana" font-size="32.0" fill="#AE51DD" transform="matrix(1.00, 0.00, -0.00, -1.00, 178.4, 8.0)">s</text><text xml:space="preserve" font-family="Verdana" font-size="32.0" fill="#AE51DD" transform="matrix(1.00, 0.00, -0.00, -1.00, 195.1, 8.0)">e</text></g></svg>