<?xml version="1.0" encoding="UTF-8" standalone="no"?><svg xmlns="http://www.w3.org/2000/svg" xmlns:xlink="http://www.w3.org/1999/xlink" clip-rule="evenodd" stroke-miterlimit="4.00" viewBox="0 0 50 326"><desc>SVG generated by Keynote</desc><defs></defs><g transform="matrix(1.00, 0.00, -0.00, -1.00, 0.0, 326.0)"><path d="M 21.3 55.7 C 21.4 55.1 21.3 52.6 21.1 52.6 C 21.2 53.5 21.2 55.6 21.3 55.7 C 21.3 55.7 21.3 55.7 21.3 55.7 Z M 21.6 60.9 C 21.7 59.9 21.5 57.9 21.4 57.3 C 21.5 58.3 21.5 60.5 21.6 60.9 C 21.6 60.9 21.6 60.9 21.6 60.9 Z M 20.9 53.0 C 20.9 51.6 20.8 49.1 20.7 48.5 C 20.8 49.9 20.8 52.4 20.9 53.0 C 20.9 53.0 20.9 53.0 20.9 53.0 Z M 26.2 125.2 C 26.2 124.6 26.1 122.0 26.0 122.0 C 26.0 123.0 26.1 125.0 26.2 125.2 C 26.2 125.2 26.2 125.2 26.2 125.2 Z M 25.2 110.9 C 25.3 110.0 25.1 107.9 25.0 107.3 C 25.1 108.4 25.1 110.6 25.2 110.9 C 25.2 110.9 25.2 110.9 25.2 110.9 Z M 24.9 102.6 C 24.8 100.7 24.7 98.6 24.6 99.0 C 24.7 99.6 24.8 102.4 24.9 102.6 C 24.9 102.6 24.9 102.6 24.9 102.6 Z M 16.7 54.9 C 16.8 56.9 16.8 58.4 16.9 59.8 C 17.2 66.8 16.9 56.2 16.7 54.9 C 16.7 54.9 16.7 54.9 16.7 54.9 Z M 23.9 88.0 C 23.9 89.4 24.0 90.5 24.1 91.2 C 24.0 89.9 24.0 88.1 23.9 88.0 C 23.9 88.0 23.9 88.0 23.9 88.0 Z M 23.2 76.0 C 23.2 75.7 22.9 68.6 22.6 64.6 C 22.7 68.0 23.1 76.3 23.2 76.0 C 23.2 76.0 23.2 76.0 23.2 76.0 Z M 17.4 71.6 C 17.7 76.2 18.1 83.6 18.3 86.9 C 18.5 90.3 18.1 81.0 17.7 72.5 C 17.3 63.9 17.4 71.0 17.2 67.5 C 17.0 64.0 17.2 70.8 17.5 74.3 C 17.7 77.7 17.4 72.0 17.4 71.6 C 17.4 71.6 17.4 71.6 17.4 71.6 Z M 17.1 71.4 C 17.0 69.7 16.9 68.3 16.8 67.3 C 16.8 69.0 16.9 70.7 17.1 71.4 C 17.1 71.4 17.1 71.4 17.1 71.4 Z M 31.5 318.9 C 32.5 318.3 33.2 314.2 33.6 309.8 C 33.7 308.7 33.8 307.5 33.9 306.4 C 34.0 298.3 33.8 290.2 33.6 282.0 C 33.5 280.4 33.4 278.8 33.4 277.1 C 33.2 272.1 33.0 267.1 32.8 262.1 C 32.7 260.4 32.7 258.8 32.6 257.0 C 32.4 251.0 32.0 245.2 31.8 239.3 C 31.6 236.3 31.5 233.3 31.5 230.2 C 31.5 228.6 31.2 222.0 31.0 219.6 C 31.3 221.9 30.7 211.0 30.7 211.5 C 30.6 210.3 30.5 209.0 30.4 207.8 C 30.3 206.5 30.3 208.1 30.4 209.7 C 30.3 208.3 30.2 206.9 30.1 205.4 C 30.1 203.9 30.0 202.4 29.9 200.8 C 29.8 195.7 29.5 190.3 29.1 185.5 C 28.5 172.6 26.8 137.2 27.0 143.6 C 27.3 150.9 27.0 147.1 26.9 145.2 C 26.9 144.1 26.8 142.5 26.7 140.8 C 26.7 140.9 26.8 141.0 26.8 141.3 C 26.7 138.0 26.6 133.5 26.3 129.1 C 26.3 129.9 26.3 130.9 26.3 131.3 C 26.2 129.1 26.2 130.9 26.1 129.4 C 25.8 125.3 25.7 123.3 26.0 128.1 C 25.6 123.7 25.3 120.9 25.0 116.5 C 24.9 114.9 25.0 115.8 25.0 116.3 C 25.0 113.4 24.6 106.7 24.7 106.1 C 24.7 105.5 25.5 124.1 25.5 120.8 C 25.4 119.4 25.3 116.6 25.3 115.6 C 25.4 117.9 25.5 120.8 25.6 122.3 C 25.6 120.7 25.5 118.4 25.4 117.1 C 25.5 118.7 25.6 119.8 25.6 120.2 C 25.5 117.9 25.5 116.2 25.3 113.5 C 25.2 112.3 25.3 114.5 25.2 111.9 C 25.1 111.5 25.2 113.6 25.2 113.5 C 25.0 111.4 24.9 107.2 24.8 106.2 C 24.7 105.2 24.9 108.7 24.9 108.8 C 24.4 100.7 24.0 91.5 23.8 88.7 C 23.7 85.8 23.8 88.5 23.8 89.7 C 23.6 86.4 23.5 83.9 23.3 79.9 C 23.2 77.4 23.2 78.4 23.2 79.4 C 23.2 78.7 23.1 78.1 23.1 77.7 C 23.1 77.4 23.0 76.7 23.0 76.2 C 23.1 77.8 23.2 80.7 23.2 81.9 C 23.1 79.6 22.9 74.1 22.7 72.1 C 22.8 75.3 23.0 78.7 23.1 82.3 C 22.7 75.3 22.6 68.1 22.1 62.5 C 22.2 63.5 22.1 64.0 22.1 64.8 C 22.1 62.6 22.0 59.5 21.8 57.6 C 21.7 56.5 21.6 54.4 21.5 52.3 C 21.6 56.0 21.7 58.4 21.9 61.0 C 21.8 60.9 21.8 60.7 21.8 60.3 C 21.9 66.0 22.3 69.3 22.6 73.4 C 22.6 73.7 22.6 74.0 22.6 74.3 C 22.6 75.6 22.4 71.0 22.3 70.5 C 22.5 76.6 22.9 83.2 22.9 86.1 C 22.6 78.9 22.3 72.6 22.0 67.2 C 21.9 68.6 22.2 74.0 22.3 76.6 C 21.6 64.9 21.6 63.7 21.5 62.7 C 21.5 63.7 21.6 64.6 21.6 65.5 C 21.6 65.3 21.5 65.0 21.5 64.8 C 21.3 59.6 21.0 53.6 21.0 53.9 C 20.9 54.1 21.1 58.8 21.4 63.8 C 21.3 63.3 21.2 62.8 21.2 62.2 C 20.9 56.4 20.4 49.8 20.2 44.0 C 20.1 44.9 20.1 44.4 20.0 43.2 C 20.0 45.1 20.1 47.7 20.2 49.6 C 20.1 49.0 20.1 47.8 20.0 47.4 C 20.0 48.4 20.1 49.9 20.1 50.4 C 19.9 47.6 19.7 44.7 19.6 41.7 C 19.4 41.2 19.6 43.0 19.5 42.9 C 19.4 40.1 19.2 36.2 19.0 34.2 C 19.1 36.5 19.3 41.1 19.4 42.5 C 19.3 41.6 19.2 40.7 19.1 39.7 C 19.0 37.8 19.0 36.9 19.0 39.1 C 19.1 40.2 19.1 40.2 19.0 39.9 C 18.9 38.6 18.7 34.1 18.6 34.2 C 18.6 35.4 18.8 39.9 18.8 41.0 C 18.6 40.2 18.6 37.9 18.5 37.6 C 18.8 42.6 18.7 42.4 18.8 43.7 C 18.8 43.1 18.7 41.7 18.8 41.8 C 18.9 44.8 19.1 47.9 19.2 51.1 C 19.2 51.1 19.2 51.1 19.2 51.1 C 19.2 51.1 19.2 51.1 19.2 51.1 C 19.2 51.1 19.2 51.1 19.2 51.1 C 19.1 50.8 19.0 50.9 19.0 51.2 C 18.9 49.8 18.9 48.4 18.7 45.9 C 18.6 46.6 18.8 48.9 18.9 51.0 C 18.9 51.0 18.9 51.0 18.8 51.0 C 18.7 47.5 18.4 42.3 18.1 38.8 C 18.2 40.4 18.5 46.3 18.7 50.3 C 18.6 50.2 18.6 50.1 18.6 49.9 C 18.9 55.0 19.0 61.0 19.3 66.6 C 19.0 63.9 19.0 60.7 18.8 57.2 C 18.7 55.5 18.6 54.0 18.5 52.5 C 18.3 48.0 17.7 34.6 17.5 33.1 C 17.4 31.4 18.0 45.0 18.0 45.0 C 17.9 45.1 17.6 38.8 17.7 41.8 C 17.8 43.3 18.0 46.7 18.1 49.2 C 18.1 49.3 18.0 49.3 17.9 49.4 C 17.8 47.3 17.6 44.8 17.8 44.7 C 17.7 43.6 17.7 41.4 17.6 41.0 C 17.6 41.4 17.6 41.9 17.6 41.9 C 17.6 41.4 17.5 40.7 17.5 40.6 C 17.6 43.2 17.7 46.8 17.8 49.6 C 17.8 49.8 17.8 50.0 17.8 50.3 C 17.7 50.2 17.6 48.1 17.5 46.2 C 17.4 44.2 17.5 48.3 17.7 51.6 C 17.7 52.1 17.7 52.6 17.6 53.2 C 17.6 52.0 17.5 50.7 17.4 49.2 C 17.3 47.4 17.2 47.4 17.1 45.6 C 17.2 48.9 17.4 53.0 17.6 56.2 C 17.6 57.4 17.5 58.6 17.5 59.8 C 17.3 57.1 17.2 54.6 17.0 53.1 C 17.0 52.0 16.9 50.7 16.9 50.3 C 16.9 51.4 16.7 48.5 16.6 49.0 C 16.8 50.5 16.9 53.7 17.1 54.8 C 17.2 57.3 17.4 60.0 17.5 62.4 C 17.5 62.7 17.5 63.0 17.5 63.3 C 17.4 61.3 17.3 59.4 17.1 57.2 C 17.0 58.2 17.3 64.2 17.6 68.5 C 17.9 77.3 18.8 86.2 19.3 95.1 C 19.3 95.4 19.4 95.9 19.4 96.5 C 19.3 97.2 19.3 97.8 19.3 98.5 C 19.2 96.3 19.1 94.5 19.0 92.9 C 19.2 99.2 18.5 84.0 18.3 83.0 C 18.7 93.1 19.7 112.1 20.1 123.8 C 20.0 121.0 19.9 120.1 20.0 123.1 C 20.0 123.9 20.1 124.7 20.1 125.6 C 19.4 113.7 19.1 101.3 18.4 91.8 C 18.7 97.5 19.1 106.0 19.1 108.4 C 19.0 106.7 18.9 104.3 18.9 104.0 C 18.9 106.9 19.5 116.5 19.5 119.4 C 18.8 105.5 18.0 86.6 17.3 76.4 C 18.1 91.9 19.0 112.8 19.8 126.0 C 19.7 123.7 19.7 123.7 19.8 124.9 C 20.0 129.0 20.3 133.1 20.5 137.3 C 20.5 138.2 20.5 137.9 20.3 135.9 C 20.2 134.2 20.2 133.2 20.1 132.7 C 20.1 133.8 20.8 146.9 20.2 136.5 C 19.7 126.1 18.8 108.1 19.3 118.6 C 19.7 129.2 19.8 133.3 19.5 127.6 C 19.2 121.8 18.2 103.7 18.5 109.8 C 18.8 115.8 19.3 128.6 19.7 135.9 C 20.0 143.1 19.8 130.9 20.3 141.6 C 20.8 152.3 20.3 143.4 20.4 145.4 C 20.5 148.7 20.8 154.6 21.1 160.2 C 21.2 164.2 21.5 169.3 21.5 171.8 C 21.5 171.6 21.0 159.6 21.1 164.4 C 21.7 176.1 22.3 189.1 22.1 183.8 C 22.5 191.0 22.7 196.3 23.0 200.8 C 23.2 207.8 23.6 216.0 23.6 216.9 C 23.6 218.0 24.8 237.1 24.7 244.3 C 24.7 244.9 25.5 257.8 25.6 258.9 C 26.1 271.2 25.9 269.5 26.5 281.6 C 27.0 291.7 27.2 294.8 27.3 296.5 C 27.9 307.2 27.8 307.1 28.6 312.3 C 28.8 313.8 28.9 316.3 29.2 317.1 C 29.9 318.7 30.6 319.5 31.5 318.9 C 31.5 318.9 31.5 318.9 31.5 318.9 Z M 19.5 52.4 C 19.4 50.6 19.2 47.1 19.2 45.2 C 19.4 47.4 19.5 50.2 19.6 53.1 C 19.6 52.9 19.5 52.7 19.5 52.4 C 19.5 52.4 19.5 52.4 19.5 52.4 Z M 18.5 67.1 C 18.4 65.8 18.4 64.3 18.3 62.9 C 18.3 61.5 18.2 60.1 18.1 58.1 C 18.0 58.3 18.1 61.6 18.3 64.2 C 18.2 64.2 18.2 64.2 18.2 64.2 C 18.1 63.0 18.0 61.5 17.9 59.7 C 17.9 59.1 17.8 58.5 17.8 57.9 C 17.9 57.8 18.0 58.8 18.0 59.1 C 18.0 58.7 18.0 57.1 17.9 55.0 C 17.9 54.8 17.9 54.6 17.9 54.3 C 18.0 54.0 18.1 55.6 18.0 53.8 C 18.2 55.0 18.3 58.2 18.4 60.2 C 18.1 58.0 18.6 66.2 18.6 68.3 C 18.6 67.9 18.5 67.5 18.5 67.1 Z M 23.1 82.8 C 23.1 83.9 23.2 85.0 23.2 86.1 C 23.2 84.5 23.1 83.2 23.0 82.1 C 23.0 82.3 23.1 82.5 23.1 82.8 Z M 28.3 175.6 C 27.8 168.9 27.3 154.7 27.2 153.7 C 27.1 152.3 27.0 150.8 27.0 149.3 C 27.5 158.8 28.0 168.9 28.3 175.6 C 28.3 175.6 28.3 175.6 28.3 175.6 Z M 21.1 152.0 C 21.1 151.5 21.1 151.7 21.2 153.1 C 21.6 160.3 21.9 164.6 21.7 160.0 C 21.5 156.1 21.1 147.6 21.3 150.1 C 21.4 153.4 21.6 156.7 21.8 160.2 C 21.9 162.8 21.9 165.4 21.9 168.0 C 21.6 162.3 21.4 157.0 21.1 152.0 C 21.1 152.0 21.1 152.0 21.1 152.0 Z M 21.9 171.1 C 21.8 169.1 21.7 166.7 21.6 164.3 C 21.7 166.4 21.8 168.5 21.9 170.7 C 21.9 170.8 21.9 171.0 21.9 171.1 Z M 21.9 173.7 C 21.7 169.6 21.5 165.5 21.7 169.6 C 21.8 170.6 21.8 171.5 21.9 172.5 C 21.9 172.9 21.9 173.3 21.9 173.7 Z M 21.9 176.3 C 22.0 176.2 22.0 175.5 21.9 174.1 C 22.1 176.9 22.4 182.5 22.3 182.2 C 22.2 180.4 22.1 178.3 21.9 176.3 C 21.9 176.3 21.9 176.3 21.9 176.3 Z M 28.7 180.1 C 28.6 178.3 28.6 176.7 28.7 179.6 C 28.8 180.7 28.9 181.8 28.9 182.9 C 28.9 182.0 28.8 181.1 28.7 180.1 Z M 18.0 85.7 C 18.1 86.5 18.2 89.4 18.3 91.1 C 18.6 91.3 18.1 84.6 18.0 85.7 C 18.0 85.7 18.0 85.7 18.0 85.7 Z M 17.4 74.7 C 17.4 75.4 17.5 78.4 17.7 80.1 C 18.0 80.3 17.4 73.6 17.4 74.7 C 17.4 74.7 17.4 74.7 17.4 74.7 Z M 24.7 244.4 C 24.7 244.4 24.7 244.4 24.7 244.3 C 24.7 244.4 24.7 244.4 24.7 244.4 C 24.7 244.4 24.7 244.4 24.7 244.4 Z M 24.7 244.4 " fill="#000000"></path><path d="M 34.0 34.9 C 34.4 34.2 34.1 33.7 34.1 33.6 C 34.1 33.6 34.1 33.6 34.1 33.6 L 34.1 33.6 L 34.0 33.6 L 34.0 33.5 L 33.9 33.4 L 33.8 33.3 L 33.7 33.0 C 33.6 32.8 33.6 32.6 33.6 32.5 C 33.8 32.2 34.3 33.4 34.5 33.1 C 34.6 32.9 32.3 28.9 32.3 28.8 C 31.9 28.6 31.3 27.7 31.1 27.4 C 31.5 28.0 32.0 28.4 32.2 28.6 C 32.2 28.6 32.9 29.5 32.5 28.3 C 32.7 28.5 32.8 28.5 32.8 28.4 L 32.8 28.4 C 32.8 28.4 33.2 29.5 33.5 29.4 C 34.0 29.3 31.4 26.3 31.5 25.8 C 31.7 26.3 32.0 26.5 32.2 26.6 C 31.5 25.9 29.5 22.1 29.0 21.4 C 27.4 18.8 25.3 16.2 23.6 13.7 C 22.8 12.5 21.9 11.2 20.9 9.8 L 19.5 7.6 L 19.4 7.5 L 19.3 7.4 L 19.3 7.4 C 19.2 7.2 19.6 7.8 19.0 7.0 C 18.8 6.0 15.6 6.3 15.5 7.2 C 15.1 7.9 15.4 7.4 15.3 7.6 L 15.3 7.6 L 15.2 7.9 L 14.9 8.5 L 14.4 9.7 C 12.9 13.0 11.4 16.3 10.1 18.8 C 9.2 20.5 6.2 27.7 5.9 27.9 C 5.8 28.1 4.8 30.3 3.9 32.3 L 3.2 33.9 L 2.9 34.6 L 2.8 34.8 L 2.8 34.8 L 2.8 34.9 L 2.8 34.9 L 2.8 34.9 C 3.0 34.7 2.2 35.1 2.9 36.6 C 5.2 37.9 4.0 36.9 4.3 37.2 L 4.3 37.2 L 4.7 37.2 C 5.5 37.1 6.1 37.1 6.2 37.1 C 6.4 37.1 5.9 37.5 5.9 37.6 L 7.2 37.5 C 7.0 37.6 6.8 37.7 6.6 37.8 C 8.7 37.9 13.2 37.0 14.7 37.0 C 14.5 36.8 14.9 36.6 14.9 36.7 C 14.9 36.7 27.3 36.3 28.6 36.3 C 29.8 36.2 32.8 35.2 31.5 35.1 C 30.5 34.9 31.3 34.8 31.9 34.7 C 30.2 33.7 35.1 35.0 31.3 33.6 C 31.3 33.6 32.5 33.1 33.0 33.2 C 31.3 33.6 32.5 33.1 33.0 33.2 C 31.3 33.6 32.5 33.1 33.0 33.2 " fill="#000000"></path></g></svg>