<?xml version="1.0" encoding="UTF-8" standalone="no"?><svg xmlns="http://www.w3.org/2000/svg" xmlns:xlink="http://www.w3.org/1999/xlink" clip-rule="evenodd" stroke-miterlimit="4.00" viewBox="0 0 539 389"><desc>SVG generated by Keynote</desc><defs></defs><g transform="matrix(1.00, 0.00, -0.00, -1.00, 0.0, 389.0)"><path d="M 77.7 59.2 C 76.7 58.5 72.4 55.5 72.2 55.5 C 73.9 56.6 77.3 59.1 77.7 59.2 C 77.7 59.2 77.7 59.2 77.7 59.2 Z M 86.4 65.3 C 84.9 64.1 81.4 61.7 80.3 61.0 C 82.1 62.3 85.8 64.9 86.4 65.3 C 86.4 65.3 86.4 65.3 86.4 65.3 Z M 72.9 56.2 C 70.5 54.6 66.3 51.6 65.2 51.0 C 67.5 52.5 71.8 55.6 72.9 56.2 C 72.9 56.2 72.9 56.2 72.9 56.2 Z M 196.6 139.8 C 195.6 139.1 191.3 136.0 191.2 136.1 C 192.8 137.2 196.2 139.7 196.6 139.8 C 196.6 139.8 196.6 139.8 196.6 139.8 Z M 172.2 123.2 C 170.7 122.1 167.2 119.7 166.0 119.0 C 167.9 120.2 171.6 122.9 172.2 123.2 C 172.2 123.2 172.2 123.2 172.2 123.2 Z M 158.2 113.4 C 154.9 111.1 151.3 108.7 151.9 109.3 C 153.0 109.9 157.7 113.3 158.2 113.4 C 158.2 113.4 158.2 113.4 158.2 113.4 Z M 73.2 61.7 C 76.7 64.1 79.2 66.0 81.6 67.6 C 93.5 75.8 75.6 63.2 73.2 61.7 C 73.2 61.7 73.2 61.7 73.2 61.7 Z M 133.1 96.5 C 135.5 98.1 137.4 99.4 138.6 100.2 C 136.4 98.6 133.3 96.5 133.1 96.5 C 133.1 96.5 133.1 96.5 133.1 96.5 Z M 112.7 82.4 C 112.2 82.0 100.1 73.7 93.3 69.1 C 99.0 73.0 113.2 82.9 112.7 82.4 C 112.7 82.4 112.7 82.4 112.7 82.4 Z M 101.6 81.4 C 109.5 86.8 122.0 95.5 127.7 99.4 C 133.4 103.3 117.7 92.4 103.2 82.3 C 88.7 72.3 100.5 80.8 94.6 76.7 C 88.7 72.7 100.2 80.7 106.1 84.7 C 112.0 88.7 102.2 82.0 101.6 81.4 C 101.6 81.4 101.6 81.4 101.6 81.4 Z M 101.0 81.5 C 98.1 79.5 95.7 77.9 94.0 76.8 C 96.9 78.8 99.7 80.8 101.0 81.5 C 101.0 81.5 101.0 81.5 101.0 81.5 Z M 523.1 370.8 C 522.7 369.3 516.4 363.8 509.2 358.1 C 507.4 356.7 505.7 355.3 503.8 353.8 C 490.4 343.9 476.7 334.2 462.9 324.5 C 460.2 322.6 457.5 320.7 454.7 318.7 C 446.3 312.8 437.8 306.8 429.2 300.9 C 426.4 298.9 423.6 297.0 420.7 294.9 C 410.5 287.7 400.6 281.0 390.5 274.0 C 385.5 270.5 380.3 266.9 375.2 263.1 C 372.6 261.2 361.3 253.5 357.3 250.8 C 361.2 253.3 342.7 240.5 343.5 241.1 C 341.4 239.7 339.2 238.3 337.1 236.8 C 334.9 235.3 337.6 237.2 340.3 239.2 C 337.9 237.5 335.4 235.9 333.0 234.2 C 330.4 232.4 327.8 230.6 325.2 228.7 C 316.6 222.7 307.3 216.3 299.2 210.8 C 277.3 195.6 217.0 154.0 227.9 161.5 C 240.1 170.1 233.8 165.8 230.5 163.5 C 228.5 162.2 226.0 160.4 223.1 158.4 C 223.2 158.4 223.4 158.6 223.9 158.8 C 218.4 155.0 210.7 149.6 203.1 144.4 C 204.5 145.4 206.3 146.7 207.0 147.2 C 203.1 144.5 206.1 146.7 203.6 145.0 C 196.6 140.2 193.2 137.9 201.3 143.5 C 193.8 138.4 188.9 135.2 181.4 130.2 C 178.6 128.2 180.1 129.3 181.0 129.8 C 176.1 126.4 164.8 118.6 163.8 117.8 C 162.8 117.0 194.3 139.0 188.8 135.0 C 186.5 133.4 181.8 130.1 180.0 128.8 C 184.0 131.6 188.9 135.0 191.5 136.7 C 188.7 134.8 184.8 132.1 182.7 130.6 C 185.3 132.4 187.2 133.7 188.0 134.2 C 184.1 131.5 181.2 129.4 176.5 126.2 C 174.5 124.8 178.2 127.5 173.8 124.5 C 173.0 124.0 176.7 126.5 176.4 126.4 C 172.9 123.9 165.8 119.0 164.0 117.8 C 162.3 116.7 168.3 120.8 168.5 120.9 C 154.7 111.5 139.1 100.6 134.2 97.3 C 129.4 94.0 133.9 97.1 136.0 98.6 C 130.3 94.7 126.0 91.7 119.3 87.1 C 115.0 84.1 116.7 85.3 118.3 86.5 C 117.2 85.7 116.2 85.0 115.5 84.6 C 115.0 84.2 113.8 83.4 112.9 82.8 C 115.5 84.7 120.5 88.1 122.6 89.6 C 118.6 86.9 109.3 80.3 105.8 78.0 C 111.2 81.9 117.0 85.9 123.1 90.1 C 111.2 82.0 99.1 73.3 89.5 66.8 C 91.2 68.0 91.9 68.6 93.3 69.6 C 89.7 67.0 84.3 63.2 81.0 61.1 C 79.2 59.9 75.6 57.4 72.0 55.0 C 78.2 59.3 82.4 62.2 86.8 65.2 C 86.7 65.2 86.3 64.9 85.5 64.4 C 95.2 71.3 100.9 74.9 107.8 79.7 C 108.4 80.1 108.9 80.4 109.5 80.8 C 111.6 82.5 103.8 76.9 102.9 76.5 C 113.2 83.6 124.4 91.3 129.4 94.9 C 117.2 86.5 106.4 79.0 97.2 72.7 C 99.5 74.4 108.8 80.8 113.1 83.9 C 93.1 70.1 91.1 68.7 89.5 67.6 C 91.0 68.7 92.5 69.8 94.1 70.9 C 93.7 70.6 93.3 70.4 92.9 70.1 C 84.1 64.0 73.8 56.9 74.3 57.3 C 74.7 57.6 82.7 63.1 91.2 69.0 C 90.2 68.4 89.3 67.9 88.4 67.3 C 78.5 60.4 67.1 52.8 57.3 45.9 C 58.8 47.1 58.0 46.5 55.9 45.1 C 59.0 47.3 63.4 50.4 66.7 52.7 C 65.6 52.0 63.5 50.5 62.8 50.1 C 64.5 51.3 67.1 53.1 67.9 53.7 C 63.2 50.5 58.1 47.0 53.2 43.6 C 52.1 43.0 55.3 45.1 55.0 45.0 C 50.3 41.8 43.7 37.2 40.3 34.9 C 44.2 37.7 51.9 43.0 54.3 44.7 C 52.7 43.6 51.2 42.6 49.5 41.5 C 46.3 39.3 44.8 38.2 48.3 40.8 C 50.3 42.1 50.2 42.1 49.7 41.8 C 47.5 40.3 39.9 35.0 40.0 35.3 C 41.9 36.6 49.6 41.9 51.4 43.3 C 49.9 42.4 46.1 39.6 45.6 39.5 C 54.1 45.3 53.8 45.1 55.9 46.5 C 55.0 45.9 52.6 44.2 52.7 44.2 C 57.9 47.8 63.1 51.4 68.5 55.2 C 68.5 55.2 68.5 55.2 68.5 55.2 C 68.5 55.2 68.5 55.2 68.5 55.2 C 68.5 55.2 68.5 55.2 68.5 55.2 C 68.0 54.9 68.1 55.1 68.5 55.5 C 66.2 53.9 63.9 52.3 59.6 49.3 C 60.7 50.2 64.6 52.9 68.2 55.4 C 68.2 55.4 68.1 55.4 68.1 55.4 C 62.3 51.3 53.3 45.2 47.3 41.1 C 50.0 43.0 60.1 50.0 66.9 54.7 C 66.7 54.6 66.5 54.4 66.2 54.3 C 74.8 60.3 84.8 67.3 94.5 74.0 C 89.8 70.9 84.4 67.0 78.4 62.9 C 75.6 61.0 73.0 59.3 70.3 57.5 C 62.7 52.2 40.1 36.4 37.4 34.7 C 34.5 32.8 57.5 48.7 57.6 48.8 C 57.7 48.9 47.0 41.6 52.1 45.0 C 54.7 46.9 60.4 50.8 64.6 53.7 C 64.7 53.9 64.8 54.1 64.9 54.2 C 61.3 51.7 56.9 48.8 56.9 48.5 C 55.1 47.3 51.3 44.6 50.7 44.3 C 51.3 44.7 52.2 45.3 52.2 45.4 C 51.3 44.8 50.1 43.9 49.9 43.8 C 54.3 46.9 60.3 51.1 65.1 54.4 C 65.5 54.7 65.9 55.0 66.3 55.4 C 66.2 55.3 62.4 52.8 59.2 50.6 C 55.8 48.2 62.8 53.1 68.4 57.0 C 69.2 57.6 70.1 58.3 71.0 59.0 C 69.1 57.6 66.8 56.1 64.2 54.2 C 61.1 52.2 61.1 52.3 58.0 50.2 C 63.7 54.2 70.5 58.9 76.0 62.7 C 77.9 64.1 79.9 65.6 81.9 67.1 C 77.3 63.9 73.1 61.1 70.6 59.4 C 68.5 58.0 66.4 56.5 65.7 56.0 C 67.5 57.4 62.6 54.0 63.3 54.6 C 66.0 56.4 71.4 60.1 73.4 61.3 C 77.6 64.3 82.2 67.5 86.2 70.3 C 86.8 70.6 87.3 71.0 87.8 71.4 C 84.3 69.0 81.0 66.7 77.3 64.2 C 78.9 65.5 89.1 72.6 96.5 77.6 C 111.4 88.1 126.9 98.2 141.9 108.5 C 142.6 108.9 143.4 109.6 144.4 110.2 C 145.4 111.0 146.5 111.8 147.6 112.6 C 144.0 110.1 140.8 107.9 138.1 106.1 C 148.7 113.6 122.9 95.7 121.2 94.6 C 138.3 106.7 170.5 128.9 190.3 142.8 C 185.5 139.5 184.0 138.4 189.1 142.0 C 190.5 143.0 191.9 143.9 193.3 144.9 C 173.0 131.0 152.2 116.2 135.9 105.3 C 145.5 111.9 160.1 121.9 164.0 124.8 C 161.2 122.8 157.1 120.0 156.5 119.6 C 161.3 123.1 177.9 134.4 182.6 137.9 C 159.0 121.6 127.0 99.3 109.5 87.4 C 135.9 105.6 171.2 130.2 193.8 145.7 C 189.9 143.0 189.9 142.9 192.0 144.3 C 199.0 149.1 206.0 153.9 213.2 158.9 C 214.6 159.9 214.1 159.6 210.6 157.2 C 207.8 155.3 206.1 154.1 205.1 153.5 C 207.1 154.9 229.3 170.3 211.6 158.1 C 194.0 145.9 163.4 124.8 181.2 137.2 C 199.1 149.6 206.1 154.5 196.3 147.8 C 186.5 141.1 155.6 119.8 165.9 127.0 C 176.2 134.1 197.9 149.3 210.2 157.8 C 222.5 166.3 202.1 151.7 220.2 164.2 C 238.3 176.8 223.1 166.4 226.6 168.8 C 232.1 172.6 242.2 179.6 251.7 186.2 C 258.4 190.9 267.1 196.9 271.4 200.0 C 271.0 199.8 250.6 185.6 258.7 191.2 C 278.5 205.0 300.7 220.4 291.7 214.0 C 303.9 222.5 313.0 228.7 320.7 234.0 C 332.5 242.4 346.4 252.0 347.9 253.1 C 349.7 254.4 382.4 276.7 394.4 285.5 C 395.3 286.2 417.3 301.3 419.2 302.5 C 440.0 317.1 437.0 315.1 457.6 329.3 C 474.8 341.2 480.1 344.8 483.0 346.8 C 501.2 359.3 501.0 359.3 510.2 365.0 C 512.9 366.7 517.0 369.6 518.6 370.3 C 521.7 371.8 523.4 372.2 523.1 370.8 C 523.1 370.8 523.1 370.8 523.1 370.8 Z M 71.0 56.7 C 67.8 54.4 62.0 50.4 58.6 48.0 C 62.5 50.6 67.3 54.0 72.1 57.4 C 71.8 57.1 71.4 56.9 71.0 56.7 C 71.0 56.7 71.0 56.7 71.0 56.7 Z M 94.7 75.2 C 92.6 73.7 90.0 71.8 87.6 70.2 C 85.3 68.6 83.0 66.9 79.5 64.6 C 79.8 64.8 85.4 68.8 89.9 71.9 C 89.8 71.9 89.8 72.0 89.8 72.0 C 87.6 70.5 85.1 68.8 82.0 66.7 C 81.0 66.0 80.0 65.3 78.9 64.5 C 78.9 64.4 80.5 65.5 81.1 65.9 C 80.4 65.3 77.7 63.4 74.3 61.0 C 73.9 60.7 73.5 60.4 73.1 60.1 C 72.6 59.7 75.3 61.5 72.3 59.4 C 74.4 60.8 79.8 64.6 83.1 66.9 C 79.3 64.4 93.4 74.1 96.8 76.6 C 96.1 76.1 95.4 75.7 94.7 75.2 Z M 123.9 90.7 C 125.7 92.0 127.6 93.3 129.6 94.7 C 126.8 92.7 124.6 91.3 122.6 89.9 C 123.0 90.2 123.4 90.4 123.9 90.7 Z M 282.1 199.4 C 270.5 191.6 246.5 174.7 244.8 173.7 C 242.4 172.0 239.9 170.3 237.4 168.5 C 253.4 179.6 270.6 191.4 282.1 199.4 C 282.1 199.4 282.1 199.4 282.1 199.4 Z M 238.1 176.3 C 237.1 175.6 237.5 175.8 239.9 177.4 C 252.3 186.0 259.6 191.0 251.8 185.6 C 245.2 180.9 230.7 170.9 234.9 173.8 C 240.6 177.7 246.3 181.6 252.1 185.6 C 256.6 188.7 260.8 191.8 265.2 195.0 C 255.6 188.4 246.5 182.1 238.1 176.3 C 238.1 176.3 238.1 176.3 238.1 176.3 Z M 270.5 198.9 C 267.0 196.5 263.0 193.6 258.9 190.8 C 262.4 193.2 266.0 195.7 269.7 198.3 C 270.0 198.5 270.2 198.7 270.5 198.9 Z M 274.8 202.0 C 267.8 197.2 260.8 192.3 267.9 197.2 C 269.5 198.2 271.0 199.3 272.7 200.4 C 273.4 201.0 274.1 201.5 274.8 202.0 Z M 279.0 205.0 C 279.0 204.9 277.8 204.1 275.5 202.5 C 280.2 205.7 289.7 212.3 289.2 212.1 C 286.1 209.9 282.6 207.5 279.0 205.0 C 279.0 205.0 279.0 205.0 279.0 205.0 Z M 289.8 204.5 C 286.8 202.4 284.1 200.5 289.0 203.9 C 290.9 205.1 292.7 206.4 294.6 207.7 C 293.0 206.7 291.5 205.6 289.8 204.5 Z M 125.5 98.2 C 126.8 99.1 131.8 102.5 134.7 104.5 C 135.2 104.5 123.7 96.8 125.5 98.2 C 125.5 98.2 125.5 98.2 125.5 98.2 Z M 106.7 85.3 C 108.0 86.2 113.0 89.6 115.9 91.6 C 116.4 91.6 104.9 83.9 106.7 85.3 C 106.7 85.3 106.7 85.3 106.7 85.3 Z M 394.4 285.6 C 394.4 285.6 394.4 285.6 394.4 285.5 C 394.4 285.6 394.4 285.6 394.4 285.6 C 394.4 285.6 394.4 285.6 394.4 285.6 Z M 394.4 285.6 " fill="#000000"></path><path d="M 46.8 21.2 C 46.5 20.5 46.0 20.4 45.8 20.4 C 45.8 20.4 45.8 20.4 45.8 20.4 L 45.8 20.4 L 45.8 20.4 L 45.7 20.4 L 45.6 20.4 L 45.4 20.4 L 45.0 20.3 C 44.9 20.3 44.7 20.2 44.6 20.1 C 44.5 19.8 45.8 20.1 45.7 19.8 C 45.5 19.6 41.0 18.9 40.9 18.9 C 40.5 19.0 39.4 19.0 39.1 18.9 C 39.8 19.0 40.4 18.9 40.7 18.9 C 40.7 18.9 41.8 18.8 40.7 18.4 C 40.9 18.4 41.0 18.4 40.9 18.3 L 40.9 18.3 C 40.9 18.3 42.1 18.6 42.1 18.3 C 42.3 17.8 38.4 18.0 38.1 17.7 C 38.6 17.8 38.9 17.8 39.1 17.7 C 38.2 17.8 33.9 17.1 33.0 17.0 C 30.0 16.7 26.7 16.8 23.6 16.6 C 22.2 16.5 20.6 16.5 18.9 16.3 L 16.3 16.2 L 16.1 16.2 L 16.1 16.2 L 16.0 16.2 C 15.8 16.2 16.5 16.2 15.5 16.2 C 14.6 15.8 12.9 18.5 13.6 19.1 C 13.9 19.8 13.7 19.3 13.7 19.5 L 13.8 19.5 L 13.9 19.8 L 14.2 20.4 L 14.9 21.5 C 16.6 24.7 18.3 27.9 19.5 30.5 C 20.3 32.2 24.1 38.9 24.2 39.4 C 24.3 39.6 25.4 41.6 26.5 43.6 L 27.3 45.1 L 27.7 45.7 L 27.7 45.9 L 27.8 46.0 L 27.8 46.0 L 27.8 46.0 L 27.8 46.0 C 27.8 45.8 27.6 46.6 29.2 46.9 C 31.7 45.9 30.2 46.3 30.6 46.2 L 30.6 46.2 L 30.8 45.9 C 31.3 45.2 31.6 44.7 31.7 44.7 C 31.8 44.5 31.8 45.1 31.9 45.2 L 32.6 44.2 C 32.6 44.3 32.5 44.5 32.4 44.8 C 33.8 43.2 35.8 39.1 36.7 37.8 C 36.5 37.9 36.6 37.5 36.6 37.5 C 36.7 37.5 43.9 27.5 44.6 26.4 C 45.3 25.4 46.3 22.4 45.4 23.4 C 44.7 24.0 45.1 23.3 45.3 22.8 C 43.5 23.5 47.5 20.4 44.2 22.6 C 44.1 22.6 44.4 21.3 44.8 21.1 C 44.1 22.6 44.4 21.3 44.8 21.1 C 44.1 22.6 44.4 21.3 44.8 21.1 " fill="#000000"></path></g></svg>