<?xml version="1.0" encoding="UTF-8" standalone="no"?><svg xmlns="http://www.w3.org/2000/svg" xmlns:xlink="http://www.w3.org/1999/xlink" clip-rule="evenodd" stroke-miterlimit="4.00" viewBox="0 0 1024 768"><desc>SVG generated by Keynote</desc><defs></defs><g transform="matrix(1.00, 0.00, -0.00, -1.00, 0.0, 768.0)"><path d="M 0.0 768.0 L 1024.0 768.0 L 1024.0 0.0 L 0.0 0.0 Z M 0.0 768.0 " fill="#FEFFFF"></path><text xml:space="preserve" font-family="Verdana-Bold" font-weight="bold" font-size="38.0" fill="#000000" transform="matrix(1.00, 0.00, -0.00, -1.00, 111.0, 391.0)">A</text><text xml:space="preserve" font-family="Verdana-Bold" font-weight="bold" font-size="38.0" fill="#000000" transform="matrix(1.00, 0.00, -0.00, -1.00, 140.5, 391.0)">p</text><text xml:space="preserve" font-family="Verdana-Bold" font-weight="bold" font-size="38.0" fill="#000000" transform="matrix(1.00, 0.00, -0.00, -1.00, 167.1, 391.0)">p</text><text xml:space="preserve" font-family="Verdana-Bold" font-weight="bold" font-size="38.0" fill="#000000" transform="matrix(1.00, 0.00, -0.00, -1.00, 193.7, 391.0)">e</text><text xml:space="preserve" font-family="Verdana-Bold" font-weight="bold" font-size="38.0" fill="#000000" transform="matrix(1.00, 0.00, -0.00, -1.00, 218.9, 391.0)">n</text><text xml:space="preserve" font-family="Verdana-Bold" font-weight="bold" font-size="38.0" fill="#000000" transform="matrix(1.00, 0.00, -0.00, -1.00, 246.0, 391.0)">d</text><text xml:space="preserve" font-family="Verdana-Bold" font-weight="bold" font-size="38.0" fill="#000000" transform="matrix(1.00, 0.00, -0.00, -1.00, 272.6, 391.0)">-</text><text xml:space="preserve" font-family="Verdana-Bold" font-weight="bold" font-size="38.0" fill="#000000" transform="matrix(1.00, 0.00, -0.00, -1.00, 290.8, 391.0)">o</text><text xml:space="preserve" font-family="Verdana-Bold" font-weight="bold" font-size="38.0" fill="#000000" transform="matrix(1.00, 0.00, -0.00, -1.00, 316.9, 391.0)">n</text><text xml:space="preserve" font-family="Verdana-Bold" font-weight="bold" font-size="38.0" fill="#000000" transform="matrix(1.00, 0.00, -0.00, -1.00, 344.0, 391.0)">l</text><text xml:space="preserve" font-family="Verdana-Bold" font-weight="bold" font-size="38.0" fill="#000000" transform="matrix(1.00, 0.00, -0.00, -1.00, 357.0, 391.0)">y</text><text xml:space="preserve" font-family="Verdana-Bold" font-weight="bold" font-size="38.0" fill="#000000" transform="matrix(1.00, 0.00, -0.00, -1.00, 381.7, 391.0)"> </text><text xml:space="preserve" font-family="Verdana-Bold" font-weight="bold" font-size="38.0" fill="#000000" transform="matrix(1.00, 0.00, -0.00, -1.00, 394.7, 391.0)">d</text><text xml:space="preserve" font-family="Verdana-Bold" font-weight="bold" font-size="38.0" fill="#000000" transform="matrix(1.00, 0.00, -0.00, -1.00, 421.2, 391.0)">e</text><text xml:space="preserve" font-family="Verdana-Bold" font-weight="bold" font-size="38.0" fill="#000000" transform="matrix(1.00, 0.00, -0.00, -1.00, 446.5, 391.0)">v</text><text xml:space="preserve" font-family="Verdana-Bold" font-weight="bold" font-size="38.0" fill="#000000" transform="matrix(1.00, 0.00, -0.00, -1.00, 471.2, 391.0)">e</text><text xml:space="preserve" font-family="Verdana-Bold" font-weight="bold" font-size="38.0" fill="#000000" transform="matrix(1.00, 0.00, -0.00, -1.00, 496.4, 391.0)">l</text><text xml:space="preserve" font-family="Verdana-Bold" font-weight="bold" font-size="38.0" fill="#000000" transform="matrix(1.00, 0.00, -0.00, -1.00, 509.4, 391.0)">o</text><text xml:space="preserve" font-family="Verdana-Bold" font-weight="bold" font-size="38.0" fill="#000000" transform="matrix(1.00, 0.00, -0.00, -1.00, 535.5, 391.0)">p</text><text xml:space="preserve" font-family="Verdana-Bold" font-weight="bold" font-size="38.0" fill="#000000" transform="matrix(1.00, 0.00, -0.00, -1.00, 562.0, 391.0)">m</text><text xml:space="preserve" font-family="Verdana-Bold" font-weight="bold" font-size="38.0" fill="#000000" transform="matrix(1.00, 0.00, -0.00, -1.00, 602.2, 391.0)">e</text><text xml:space="preserve" font-family="Verdana-Bold" font-weight="bold" font-size="38.0" fill="#000000" transform="matrix(1.00, 0.00, -0.00, -1.00, 627.5, 391.0)">n</text><text xml:space="preserve" font-family="Verdana-Bold" font-weight="bold" font-size="38.0" fill="#000000" transform="matrix(1.00, 0.00, -0.00, -1.00, 654.6, 391.0)">t</text><text xml:space="preserve" font-family="Verdana-Bold" font-weight="bold" font-size="38.0" fill="#000000" transform="matrix(1.00, 0.00, -0.00, -1.00, 671.9, 391.0)"> </text><text xml:space="preserve" font-family="Verdana-Bold" font-weight="bold" font-size="38.0" fill="#000000" transform="matrix(1.00, 0.00, -0.00, -1.00, 684.8, 391.0)">w</text><text xml:space="preserve" font-family="Verdana-Bold" font-weight="bold" font-size="38.0" fill="#000000" transform="matrix(1.00, 0.00, -0.00, -1.00, 722.1, 391.0)">i</text><text xml:space="preserve" font-family="Verdana-Bold" font-weight="bold" font-size="38.0" fill="#000000" transform="matrix(1.00, 0.00, -0.00, -1.00, 735.1, 391.0)">t</text><text xml:space="preserve" font-family="Verdana-Bold" font-weight="bold" font-size="38.0" fill="#000000" transform="matrix(1.00, 0.00, -0.00, -1.00, 752.4, 391.0)">h</text><text xml:space="preserve" font-family="Verdana-Bold" font-weight="bold" font-size="38.0" fill="#000000" transform="matrix(1.00, 0.00, -0.00, -1.00, 779.5, 391.0)"> </text><text xml:space="preserve" font-family="Verdana-Bold" font-weight="bold" font-size="38.0" fill="#000000" transform="matrix(1.00, 0.00, -0.00, -1.00, 792.4, 391.0)">R</text><text xml:space="preserve" font-family="Verdana-Bold" font-weight="bold" font-size="38.0" fill="#000000" transform="matrix(1.00, 0.00, -0.00, -1.00, 822.2, 391.0)">e</text><text xml:space="preserve" font-family="Verdana-Bold" font-weight="bold" font-size="38.0" fill="#000000" transform="matrix(1.00, 0.00, -0.00, -1.00, 847.4, 391.0)">a</text><text xml:space="preserve" font-family="Verdana-Bold" font-weight="bold" font-size="38.0" fill="#000000" transform="matrix(1.00, 0.00, -0.00, -1.00, 872.8, 391.0)">c</text><text xml:space="preserve" font-family="Verdana-Bold" font-weight="bold" font-size="38.0" fill="#000000" transform="matrix(1.00, 0.00, -0.00, -1.00, 895.2, 391.0)">t</text><text xml:space="preserve" font-family="Verdana-Bold" font-weight="bold" font-size="38.0" fill="#000000" transform="matrix(1.00, 0.00, -0.00, -1.00, 912.5, 391.0)"> </text><text xml:space="preserve" font-family="Verdana" font-size="32.0" fill="#000000" transform="matrix(1.00, 0.00, -0.00, -1.00, 223.0, 336.0)">A</text><text xml:space="preserve" font-family="Verdana" font-size="32.0" fill="#000000" transform="matrix(1.00, 0.00, -0.00, -1.00, 244.9, 336.0)">n</text><text xml:space="preserve" font-family="Verdana" font-size="32.0" fill="#000000" transform="matrix(1.00, 0.00, -0.00, -1.00, 265.1, 336.0)"> </text><text xml:space="preserve" font-family="Verdana" font-size="32.0" fill="#000000" transform="matrix(1.00, 0.00, -0.00, -1.00, 276.3, 336.0)">i</text><text xml:space="preserve" font-family="Verdana" font-size="32.0" fill="#000000" transform="matrix(1.00, 0.00, -0.00, -1.00, 285.1, 336.0)">n</text><text xml:space="preserve" font-family="Verdana" font-size="32.0" fill="#000000" transform="matrix(1.00, 0.00, -0.00, -1.00, 305.4, 336.0)">t</text><text xml:space="preserve" font-family="Verdana" font-size="32.0" fill="#000000" transform="matrix(1.00, 0.00, -0.00, -1.00, 318.0, 336.0)">r</text><text xml:space="preserve" font-family="Verdana" font-size="32.0" fill="#000000" transform="matrix(1.00, 0.00, -0.00, -1.00, 331.6, 336.0)">o</text><text xml:space="preserve" font-family="Verdana" font-size="32.0" fill="#000000" transform="matrix(1.00, 0.00, -0.00, -1.00, 351.1, 336.0)"> </text><text xml:space="preserve" font-family="Verdana" font-size="32.0" fill="#000000" transform="matrix(1.00, 0.00, -0.00, -1.00, 362.3, 336.0)">t</text><text xml:space="preserve" font-family="Verdana" font-size="32.0" fill="#000000" transform="matrix(1.00, 0.00, -0.00, -1.00, 374.9, 336.0)">o</text><text xml:space="preserve" font-family="Verdana" font-size="32.0" fill="#000000" transform="matrix(1.00, 0.00, -0.00, -1.00, 394.3, 336.0)"> </text><text xml:space="preserve" font-family="Verdana" font-size="32.0" fill="#007AFF" transform="matrix(1.00, 0.00, -0.00, -1.00, 405.6, 336.0)">B</text><text xml:space="preserve" font-family="Verdana" font-size="32.0" fill="#007AFF" transform="matrix(1.00, 0.00, -0.00, -1.00, 427.5, 336.0)">e</text><text xml:space="preserve" font-family="Verdana" font-size="32.0" fill="#007AFF" transform="matrix(1.00, 0.00, -0.00, -1.00, 446.6, 336.0)">h</text><text xml:space="preserve" font-family="Verdana" font-size="32.0" fill="#007AFF" transform="matrix(1.00, 0.00, -0.00, -1.00, 466.8, 336.0)">a</text><text xml:space="preserve" font-family="Verdana" font-size="32.0" fill="#007AFF" transform="matrix(1.00, 0.00, -0.00, -1.00, 485.8, 336.0)">v</text><text xml:space="preserve" font-family="Verdana" font-size="32.0" fill="#007AFF" transform="matrix(1.00, 0.00, -0.00, -1.00, 504.7, 336.0)">i</text><text xml:space="preserve" font-family="Verdana" font-size="32.0" fill="#007AFF" transform="matrix(1.00, 0.00, -0.00, -1.00, 513.5, 336.0)">o</text><text xml:space="preserve" font-family="Verdana" font-size="32.0" fill="#007AFF" transform="matrix(1.00, 0.00, -0.00, -1.00, 532.9, 336.0)">r</text><text xml:space="preserve" font-family="Verdana" font-size="32.0" fill="#007AFF" transform="matrix(1.00, 0.00, -0.00, -1.00, 546.0, 336.0)">a</text><text xml:space="preserve" font-family="Verdana" font-size="32.0" fill="#007AFF" transform="matrix(1.00, 0.00, -0.00, -1.00, 565.2, 336.0)">l</text><text xml:space="preserve" font-family="Verdana" font-size="32.0" fill="#007AFF" transform="matrix(1.00, 0.00, -0.00, -1.00, 574.0, 336.0)"> </text><text xml:space="preserve" font-family="Verdana" font-size="32.0" fill="#007AFF" transform="matrix(1.00, 0.00, -0.00, -1.00, 585.3, 336.0)">P</text><text xml:space="preserve" font-family="Verdana" font-size="32.0" fill="#007AFF" transform="matrix(1.00, 0.00, -0.00, -1.00, 604.6, 336.0)">r</text><text xml:space="preserve" font-family="Verdana" font-size="32.0" fill="#007AFF" transform="matrix(1.00, 0.00, -0.00, -1.00, 618.2, 336.0)">o</text><text xml:space="preserve" font-family="Verdana" font-size="32.0" fill="#007AFF" transform="matrix(1.00, 0.00, -0.00, -1.00, 637.6, 336.0)">g</text><text xml:space="preserve" font-family="Verdana" font-size="32.0" fill="#007AFF" transform="matrix(1.00, 0.00, -0.00, -1.00, 657.6, 336.0)">r</text><text xml:space="preserve" font-family="Verdana" font-size="32.0" fill="#007AFF" transform="matrix(1.00, 0.00, -0.00, -1.00, 670.7, 336.0)">a</text><text xml:space="preserve" font-family="Verdana" font-size="32.0" fill="#007AFF" transform="matrix(1.00, 0.00, -0.00, -1.00, 689.9, 336.0)">m</text><text xml:space="preserve" font-family="Verdana" font-size="32.0" fill="#007AFF" transform="matrix(1.00, 0.00, -0.00, -1.00, 721.0, 336.0)">m</text><text xml:space="preserve" font-family="Verdana" font-size="32.0" fill="#007AFF" transform="matrix(1.00, 0.00, -0.00, -1.00, 752.1, 336.0)">i</text><text xml:space="preserve" font-family="Verdana" font-size="32.0" fill="#007AFF" transform="matrix(1.00, 0.00, -0.00, -1.00, 760.9, 336.0)">n</text><text xml:space="preserve" font-family="Verdana" font-size="32.0" fill="#007AFF" transform="matrix(1.00, 0.00, -0.00, -1.00, 781.1, 336.0)">g</text><text xml:space="preserve" font-family="Verdana" font-size="32.0" fill="#000000" transform="matrix(1.00, 0.00, -0.00, -1.00, 36.0, 175.0)">L</text><text xml:space="preserve" font-family="Verdana" font-size="32.0" fill="#000000" transform="matrix(1.00, 0.00, -0.00, -1.00, 53.8, 175.0)">u</text><text xml:space="preserve" font-family="Verdana" font-size="32.0" fill="#000000" transform="matrix(1.00, 0.00, -0.00, -1.00, 74.0, 175.0)">c</text><text xml:space="preserve" font-family="Verdana" font-size="32.0" fill="#000000" transform="matrix(1.00, 0.00, -0.00, -1.00, 90.7, 175.0)">a</text><text xml:space="preserve" font-family="Verdana" font-size="32.0" fill="#000000" transform="matrix(1.00, 0.00, -0.00, -1.00, 109.9, 175.0)"> </text><text xml:space="preserve" font-family="Verdana" font-size="32.0" fill="#000000" transform="matrix(1.00, 0.00, -0.00, -1.00, 121.2, 175.0)">M</text><text xml:space="preserve" font-family="Verdana" font-size="32.0" fill="#000000" transform="matrix(1.00, 0.00, -0.00, -1.00, 148.1, 175.0)">a</text><text xml:space="preserve" font-family="Verdana" font-size="32.0" fill="#000000" transform="matrix(1.00, 0.00, -0.00, -1.00, 167.3, 175.0)">t</text><text xml:space="preserve" font-family="Verdana" font-size="32.0" fill="#000000" transform="matrix(1.00, 0.00, -0.00, -1.00, 179.9, 175.0)">t</text><text xml:space="preserve" font-family="Verdana" font-size="32.0" fill="#000000" transform="matrix(1.00, 0.00, -0.00, -1.00, 192.5, 175.0)">e</text><text xml:space="preserve" font-family="Verdana" font-size="32.0" fill="#000000" transform="matrix(1.00, 0.00, -0.00, -1.00, 211.6, 175.0)">i</text><text xml:space="preserve" font-family="Verdana" font-size="32.0" fill="#000000" transform="matrix(1.00, 0.00, -0.00, -1.00, 220.4, 175.0)">s</text><text xml:space="preserve" font-family="Verdana" font-size="32.0" fill="#000000" transform="matrix(1.00, 0.00, -0.00, -1.00, 237.1, 175.0)"> </text><text xml:space="preserve" font-family="Verdana" font-size="32.0" fill="#2150FF" transform="matrix(1.00, 0.00, -0.00, -1.00, 30.0, 136.0)">@</text><text xml:space="preserve" font-family="Verdana" font-size="32.0" fill="#2150FF" transform="matrix(1.00, 0.00, -0.00, -1.00, 62.0, 136.0)">l</text><text xml:space="preserve" font-family="Verdana" font-size="32.0" fill="#2150FF" transform="matrix(1.00, 0.00, -0.00, -1.00, 70.8, 136.0)">m</text><text xml:space="preserve" font-family="Verdana" font-size="32.0" fill="#2150FF" transform="matrix(1.00, 0.00, -0.00, -1.00, 101.9, 136.0)">a</text><text xml:space="preserve" font-family="Verdana" font-size="32.0" fill="#2150FF" transform="matrix(1.00, 0.00, -0.00, -1.00, 121.1, 136.0)">t</text><text xml:space="preserve" font-family="Verdana" font-size="32.0" fill="#2150FF" transform="matrix(1.00, 0.00, -0.00, -1.00, 133.7, 136.0)">t</text><text xml:space="preserve" font-family="Verdana" font-size="32.0" fill="#2150FF" transform="matrix(1.00, 0.00, -0.00, -1.00, 146.3, 136.0)">e</text><text xml:space="preserve" font-family="Verdana" font-size="32.0" fill="#2150FF" transform="matrix(1.00, 0.00, -0.00, -1.00, 165.4, 136.0)">i</text><text xml:space="preserve" font-family="Verdana" font-size="32.0" fill="#2150FF" transform="matrix(1.00, 0.00, -0.00, -1.00, 174.2, 136.0)">s</text><image xlink:href="8AB2D9B47217EF55F9003AA2F9A0ACB6.jpeg" width="72.00" height="72.00" transform="matrix(0.99, 0.00, -0.00, -1.00, 34.0, 110.0)"></image></g></svg>