<?xml version="1.0" encoding="UTF-8" standalone="no"?><svg xmlns="http://www.w3.org/2000/svg" xmlns:xlink="http://www.w3.org/1999/xlink" clip-rule="evenodd" stroke-miterlimit="4.00" viewBox="0 0 1024 768"><desc>SVG generated by Keynote</desc><defs></defs><g transform="matrix(1.00, 0.00, -0.00, -1.00, 0.0, 768.0)"><path d="M 0.0 768.0 L 1024.0 768.0 L 1024.0 0.0 L 0.0 0.0 Z M 0.0 768.0 " fill="#FEFFFF"></path><text xml:space="preserve" font-family="Verdana" font-size="27.0" fill="#000000" transform="matrix(1.00, 0.00, -0.00, -1.00, 200.0, 437.0)">W</text><text xml:space="preserve" font-family="Verdana" font-size="27.0" fill="#000000" transform="matrix(1.00, 0.00, -0.00, -1.00, 226.7, 437.0)">h</text><text xml:space="preserve" font-family="Verdana" font-size="27.0" fill="#000000" transform="matrix(1.00, 0.00, -0.00, -1.00, 243.8, 437.0)">a</text><text xml:space="preserve" font-family="Verdana" font-size="27.0" fill="#000000" transform="matrix(1.00, 0.00, -0.00, -1.00, 260.0, 437.0)">t</text><text xml:space="preserve" font-family="Verdana" font-size="27.0" fill="#000000" transform="matrix(1.00, 0.00, -0.00, -1.00, 270.6, 437.0)"> </text><text xml:space="preserve" font-family="Verdana" font-size="27.0" fill="#000000" transform="matrix(1.00, 0.00, -0.00, -1.00, 280.1, 437.0)">h</text><text xml:space="preserve" font-family="Verdana" font-size="27.0" fill="#000000" transform="matrix(1.00, 0.00, -0.00, -1.00, 297.2, 437.0)">a</text><text xml:space="preserve" font-family="Verdana" font-size="27.0" fill="#000000" transform="matrix(1.00, 0.00, -0.00, -1.00, 313.4, 437.0)">p</text><text xml:space="preserve" font-family="Verdana" font-size="27.0" fill="#000000" transform="matrix(1.00, 0.00, -0.00, -1.00, 330.2, 437.0)">p</text><text xml:space="preserve" font-family="Verdana" font-size="27.0" fill="#000000" transform="matrix(1.00, 0.00, -0.00, -1.00, 347.0, 437.0)">e</text><text xml:space="preserve" font-family="Verdana" font-size="27.0" fill="#000000" transform="matrix(1.00, 0.00, -0.00, -1.00, 363.1, 437.0)">n</text><text xml:space="preserve" font-family="Verdana" font-size="27.0" fill="#000000" transform="matrix(1.00, 0.00, -0.00, -1.00, 380.2, 437.0)">s</text><image xlink:href="../../932358D8-109B-4CFA-A4EC-EFEB852560D7/assets/97FF1EF74B8DDDBED726A1FE086EE845.png" width="364.00" height="71.00" transform="matrix(1.00, 0.06, 0.06, -1.01, 328.4, 733.2)" opacity="0.50"></image><path d="M 357.1 731.9 L 663.3 749.5 C 670.1 749.9 673.5 750.1 677.2 749.1 C 681.2 747.9 684.5 745.0 686.2 741.1 C 687.6 737.5 687.8 734.1 688.2 727.3 L 689.0 713.0 C 689.4 706.2 689.6 702.8 688.6 699.1 C 687.4 695.0 684.5 691.7 680.6 690.1 C 677.0 688.7 673.6 688.5 666.7 688.1 L 360.7 670.5 C 353.9 670.1 350.5 669.9 346.8 670.9 C 342.8 672.1 339.5 675.0 337.8 678.9 C 336.4 682.5 336.2 685.9 335.8 692.8 L 335.0 707.1 C 334.6 713.8 334.4 717.2 335.4 720.9 C 336.6 725.0 339.5 728.3 343.4 729.9 C 347.0 731.3 350.4 731.5 357.3 731.9 Z M 357.1 731.9 " fill="#FFFFFF"></path><path d="M 23.5 0.0 L 330.2 0.0 C 336.9 0.0 340.4 0.0 344.0 1.2 C 348.0 2.6 351.1 5.7 352.6 9.7 C 353.7 13.4 353.7 16.8 353.7 23.6 L 353.7 38.0 C 353.7 44.7 353.7 48.1 352.6 51.8 C 351.1 55.7 348.0 58.9 344.0 60.3 C 340.4 61.5 336.9 61.5 330.1 61.5 L 23.5 61.5 C 16.8 61.5 13.4 61.5 9.7 60.3 C 5.7 58.9 2.6 55.7 1.2 51.8 C 0.0 48.1 0.0 44.7 0.0 37.9 L 0.0 23.5 C 0.0 16.8 0.0 13.4 1.2 9.7 C 2.6 5.7 5.7 2.6 9.7 1.2 C 13.4 0.0 16.8 0.0 23.6 0.0 Z M 23.5 0.0 " fill="none" stroke="#FF9500" stroke-width="4.00" transform="matrix(1.00, 0.06, 0.06, -1.00, 333.7, 730.5)"></path><g><clipPath id="clip-245"><path d="M 333.7 730.5 L 686.8 750.8 L 690.3 689.5 L 337.2 669.2 Z M 333.7 730.5 "></path></clipPath><g clip-path="url(#clip-245)"><text xml:space="preserve" font-family="Verdana-Bold" font-weight="bold" font-size="18.0" fill="#000000" transform="matrix(1.00, 0.06, 0.06, -1.00, 344.3, 704.5)">S</text><text xml:space="preserve" font-family="Verdana-Bold" font-weight="bold" font-size="18.0" fill="#000000" transform="matrix(1.00, 0.06, 0.06, -1.00, 357.1, 705.2)">h</text><text xml:space="preserve" font-family="Verdana-Bold" font-weight="bold" font-size="18.0" fill="#000000" transform="matrix(1.00, 0.06, 0.06, -1.00, 369.9, 706.0)">o</text><text xml:space="preserve" font-family="Verdana-Bold" font-weight="bold" font-size="18.0" fill="#000000" transform="matrix(1.00, 0.06, 0.06, -1.00, 382.2, 706.7)">w</text><text xml:space="preserve" font-family="Verdana-Bold" font-weight="bold" font-size="18.0" fill="#000000" transform="matrix(1.00, 0.06, 0.06, -1.00, 399.8, 707.7)"> </text><text xml:space="preserve" font-family="Verdana-Bold" font-weight="bold" font-size="18.0" fill="#000000" transform="matrix(1.00, 0.06, 0.06, -1.00, 406.0, 708.0)">a</text><text xml:space="preserve" font-family="Verdana-Bold" font-weight="bold" font-size="18.0" fill="#000000" transform="matrix(1.00, 0.06, 0.06, -1.00, 418.0, 708.7)">d</text><text xml:space="preserve" font-family="Verdana-Bold" font-weight="bold" font-size="18.0" fill="#000000" transform="matrix(1.00, 0.06, 0.06, -1.00, 430.5, 709.5)">v</text><text xml:space="preserve" font-family="Verdana-Bold" font-weight="bold" font-size="18.0" fill="#000000" transform="matrix(1.00, 0.06, 0.06, -1.00, 442.2, 710.1)">e</text><text xml:space="preserve" font-family="Verdana-Bold" font-weight="bold" font-size="18.0" fill="#000000" transform="matrix(1.00, 0.06, 0.06, -1.00, 454.1, 710.8)">r</text><text xml:space="preserve" font-family="Verdana-Bold" font-weight="bold" font-size="18.0" fill="#000000" transform="matrix(1.00, 0.06, 0.06, -1.00, 463.1, 711.3)">t</text><text xml:space="preserve" font-family="Verdana-Bold" font-weight="bold" font-size="18.0" fill="#000000" transform="matrix(1.00, 0.06, 0.06, -1.00, 471.3, 711.8)">i</text><text xml:space="preserve" font-family="Verdana-Bold" font-weight="bold" font-size="18.0" fill="#000000" transform="matrix(1.00, 0.06, 0.06, -1.00, 477.4, 712.2)">s</text><text xml:space="preserve" font-family="Verdana-Bold" font-weight="bold" font-size="18.0" fill="#000000" transform="matrix(1.00, 0.06, 0.06, -1.00, 488.1, 712.8)">e</text><text xml:space="preserve" font-family="Verdana-Bold" font-weight="bold" font-size="18.0" fill="#000000" transform="matrix(1.00, 0.06, 0.06, -1.00, 500.0, 713.5)">m</text><text xml:space="preserve" font-family="Verdana-Bold" font-weight="bold" font-size="18.0" fill="#000000" transform="matrix(1.00, 0.06, 0.06, -1.00, 519.0, 714.5)">e</text><text xml:space="preserve" font-family="Verdana-Bold" font-weight="bold" font-size="18.0" fill="#000000" transform="matrix(1.00, 0.06, 0.06, -1.00, 531.0, 715.2)">n</text><text xml:space="preserve" font-family="Verdana-Bold" font-weight="bold" font-size="18.0" fill="#000000" transform="matrix(1.00, 0.06, 0.06, -1.00, 543.8, 716.0)">t</text><text xml:space="preserve" font-family="Verdana-Bold" font-weight="bold" font-size="18.0" fill="#000000" transform="matrix(1.00, 0.06, 0.06, -1.00, 551.9, 716.4)"> </text><text xml:space="preserve" font-family="Verdana-Bold" font-weight="bold" font-size="18.0" fill="#000000" transform="matrix(1.00, 0.06, 0.06, -1.00, 558.1, 716.8)">b</text><text xml:space="preserve" font-family="Verdana-Bold" font-weight="bold" font-size="18.0" fill="#000000" transform="matrix(1.00, 0.06, 0.06, -1.00, 570.6, 717.5)">e</text><text xml:space="preserve" font-family="Verdana-Bold" font-weight="bold" font-size="18.0" fill="#000000" transform="matrix(1.00, 0.06, 0.06, -1.00, 582.6, 718.2)">f</text><text xml:space="preserve" font-family="Verdana-Bold" font-weight="bold" font-size="18.0" fill="#000000" transform="matrix(1.00, 0.06, 0.06, -1.00, 590.2, 718.6)">o</text><text xml:space="preserve" font-family="Verdana-Bold" font-weight="bold" font-size="18.0" fill="#000000" transform="matrix(1.00, 0.06, 0.06, -1.00, 602.5, 719.3)">r</text><text xml:space="preserve" font-family="Verdana-Bold" font-weight="bold" font-size="18.0" fill="#000000" transform="matrix(1.00, 0.06, 0.06, -1.00, 611.4, 719.9)">e</text><text xml:space="preserve" font-family="Verdana-Bold" font-weight="bold" font-size="18.0" fill="#000000" transform="matrix(1.00, 0.06, 0.06, -1.00, 623.4, 720.5)"> </text><text xml:space="preserve" font-family="Verdana-Bold" font-weight="bold" font-size="18.0" fill="#000000" transform="matrix(1.00, 0.06, 0.06, -1.00, 629.5, 720.9)">t</text><text xml:space="preserve" font-family="Verdana-Bold" font-weight="bold" font-size="18.0" fill="#000000" transform="matrix(1.00, 0.06, 0.06, -1.00, 637.7, 721.4)">h</text><text xml:space="preserve" font-family="Verdana-Bold" font-weight="bold" font-size="18.0" fill="#000000" transform="matrix(1.00, 0.06, 0.06, -1.00, 650.5, 722.1)">e</text><text xml:space="preserve" font-family="Verdana-Bold" font-weight="bold" font-size="18.0" fill="#000000" transform="matrix(1.00, 0.06, 0.06, -1.00, 662.4, 722.8)"> </text><text xml:space="preserve" font-family="Verdana-Bold" font-weight="bold" font-size="18.0" fill="#000000" transform="matrix(1.00, 0.06, 0.06, -1.00, 344.8, 682.5)">a</text><text xml:space="preserve" font-family="Verdana-Bold" font-weight="bold" font-size="18.0" fill="#000000" transform="matrix(1.00, 0.06, 0.06, -1.00, 356.9, 683.2)">c</text><text xml:space="preserve" font-family="Verdana-Bold" font-weight="bold" font-size="18.0" fill="#000000" transform="matrix(1.00, 0.06, 0.06, -1.00, 367.4, 683.8)">c</text><text xml:space="preserve" font-family="Verdana-Bold" font-weight="bold" font-size="18.0" fill="#000000" transform="matrix(1.00, 0.06, 0.06, -1.00, 378.0, 684.4)">o</text><text xml:space="preserve" font-family="Verdana-Bold" font-weight="bold" font-size="18.0" fill="#000000" transform="matrix(1.00, 0.06, 0.06, -1.00, 390.3, 685.1)">u</text><text xml:space="preserve" font-family="Verdana-Bold" font-weight="bold" font-size="18.0" fill="#000000" transform="matrix(1.00, 0.06, 0.06, -1.00, 403.2, 685.8)">n</text><text xml:space="preserve" font-family="Verdana-Bold" font-weight="bold" font-size="18.0" fill="#000000" transform="matrix(1.00, 0.06, 0.06, -1.00, 416.0, 686.6)">t</text><text xml:space="preserve" font-family="Verdana-Bold" font-weight="bold" font-size="18.0" fill="#000000" transform="matrix(1.00, 0.06, 0.06, -1.00, 424.1, 687.1)"> </text><text xml:space="preserve" font-family="Verdana-Bold" font-weight="bold" font-size="18.0" fill="#000000" transform="matrix(1.00, 0.06, 0.06, -1.00, 430.3, 687.4)">i</text><text xml:space="preserve" font-family="Verdana-Bold" font-weight="bold" font-size="18.0" fill="#000000" transform="matrix(1.00, 0.06, 0.06, -1.00, 436.4, 687.8)">s</text><text xml:space="preserve" font-family="Verdana-Bold" font-weight="bold" font-size="18.0" fill="#000000" transform="matrix(1.00, 0.06, 0.06, -1.00, 447.1, 688.4)"> </text><text xml:space="preserve" font-family="Verdana-Bold" font-weight="bold" font-size="18.0" fill="#000000" transform="matrix(1.00, 0.06, 0.06, -1.00, 453.2, 688.7)">l</text><text xml:space="preserve" font-family="Verdana-Bold" font-weight="bold" font-size="18.0" fill="#000000" transform="matrix(1.00, 0.06, 0.06, -1.00, 459.4, 689.1)">o</text><text xml:space="preserve" font-family="Verdana-Bold" font-weight="bold" font-size="18.0" fill="#000000" transform="matrix(1.00, 0.06, 0.06, -1.00, 471.7, 689.8)">a</text><text xml:space="preserve" font-family="Verdana-Bold" font-weight="bold" font-size="18.0" fill="#000000" transform="matrix(1.00, 0.06, 0.06, -1.00, 483.7, 690.5)">d</text><text xml:space="preserve" font-family="Verdana-Bold" font-weight="bold" font-size="18.0" fill="#000000" transform="matrix(1.00, 0.06, 0.06, -1.00, 496.3, 691.2)">e</text><text xml:space="preserve" font-family="Verdana-Bold" font-weight="bold" font-size="18.0" fill="#000000" transform="matrix(1.00, 0.06, 0.06, -1.00, 508.2, 691.9)">d</text></g></g><image xlink:href="../../932358D8-109B-4CFA-A4EC-EFEB852560D7/assets/97FF1EF74B8DDDBED726A1FE086EE845.png" width="364.00" height="71.00" transform="matrix(0.99, -0.09, -0.09, -1.00, 369.6, 760.5)" opacity="0.50"></image><path d="M 397.5 754.9 L 702.9 726.4 C 709.6 725.7 713.0 725.4 716.5 723.9 C 720.3 722.1 723.2 718.7 724.2 714.6 C 725.0 710.9 724.7 707.5 724.1 700.6 L 722.8 686.4 C 722.1 679.7 721.8 676.3 720.3 672.7 C 718.5 668.9 715.1 666.1 711.0 665.0 C 707.3 664.2 703.9 664.5 697.0 665.2 L 391.8 693.7 C 385.1 694.3 381.7 694.6 378.2 696.1 C 374.3 697.9 371.5 701.3 370.4 705.4 C 369.6 709.1 369.9 712.5 370.6 719.4 L 371.9 733.6 C 372.5 740.3 372.9 743.8 374.3 747.3 C 376.1 751.1 379.6 753.9 383.7 755.0 C 387.4 755.8 390.8 755.5 397.6 754.9 Z M 397.5 754.9 " fill="#FFFFFF"></path><path d="M 23.5 0.0 L 330.2 0.0 C 336.9 0.0 340.4 0.0 344.0 1.2 C 348.0 2.6 351.1 5.7 352.6 9.7 C 353.7 13.4 353.7 16.8 353.7 23.6 L 353.7 38.0 C 353.7 44.7 353.7 48.1 352.6 51.8 C 351.1 55.7 348.0 58.9 344.0 60.3 C 340.4 61.5 336.9 61.5 330.1 61.5 L 23.5 61.5 C 16.8 61.5 13.4 61.5 9.7 60.3 C 5.7 58.9 2.6 55.7 1.2 51.8 C 0.0 48.1 0.0 44.7 0.0 37.9 L 0.0 23.5 C 0.0 16.8 0.0 13.4 1.2 9.7 C 2.6 5.7 5.7 2.6 9.7 1.2 C 13.4 0.0 16.8 0.0 23.6 0.0 Z M 23.5 0.0 " fill="none" stroke="#AE51DD" stroke-width="4.00" transform="matrix(1.00, -0.09, -0.09, -1.00, 374.1, 757.1)"></path><g><clipPath id="clip-246"><path d="M 374.1 757.1 L 726.3 724.2 L 720.6 663.0 L 368.4 695.8 Z M 374.1 757.1 "></path></clipPath><g clip-path="url(#clip-246)"><text xml:space="preserve" font-family="Verdana-Bold" font-weight="bold" font-size="18.0" fill="#000000" transform="matrix(1.00, -0.09, -0.09, -1.00, 380.7, 729.7)">D</text><text xml:space="preserve" font-family="Verdana-Bold" font-weight="bold" font-size="18.0" fill="#000000" transform="matrix(1.00, -0.09, -0.09, -1.00, 395.6, 728.3)">o</text><text xml:space="preserve" font-family="Verdana-Bold" font-weight="bold" font-size="18.0" fill="#000000" transform="matrix(1.00, -0.09, -0.09, -1.00, 407.9, 727.2)">n</text><text xml:space="preserve" font-family="Verdana-Bold" font-weight="bold" font-size="18.0" fill="#000000" transform="matrix(1.00, -0.09, -0.09, -1.00, 420.7, 726.0)">'</text><text xml:space="preserve" font-family="Verdana-Bold" font-weight="bold" font-size="18.0" fill="#000000" transform="matrix(1.00, -0.09, -0.09, -1.00, 426.6, 725.4)">t</text><text xml:space="preserve" font-family="Verdana-Bold" font-weight="bold" font-size="18.0" fill="#000000" transform="matrix(1.00, -0.09, -0.09, -1.00, 434.8, 724.7)"> </text><text xml:space="preserve" font-family="Verdana-Bold" font-weight="bold" font-size="18.0" fill="#000000" transform="matrix(1.00, -0.09, -0.09, -1.00, 440.9, 724.1)">s</text><text xml:space="preserve" font-family="Verdana-Bold" font-weight="bold" font-size="18.0" fill="#000000" transform="matrix(1.00, -0.09, -0.09, -1.00, 451.5, 723.1)">h</text><text xml:space="preserve" font-family="Verdana-Bold" font-weight="bold" font-size="18.0" fill="#000000" transform="matrix(1.00, -0.09, -0.09, -1.00, 464.3, 721.9)">o</text><text xml:space="preserve" font-family="Verdana-Bold" font-weight="bold" font-size="18.0" fill="#000000" transform="matrix(1.00, -0.09, -0.09, -1.00, 476.6, 720.8)">w</text><text xml:space="preserve" font-family="Verdana-Bold" font-weight="bold" font-size="18.0" fill="#000000" transform="matrix(1.00, -0.09, -0.09, -1.00, 494.2, 719.1)"> </text><text xml:space="preserve" font-family="Verdana-Bold" font-weight="bold" font-size="18.0" fill="#000000" transform="matrix(1.00, -0.09, -0.09, -1.00, 500.3, 718.5)">a</text><text xml:space="preserve" font-family="Verdana-Bold" font-weight="bold" font-size="18.0" fill="#000000" transform="matrix(1.00, -0.09, -0.09, -1.00, 512.2, 717.4)">d</text><text xml:space="preserve" font-family="Verdana-Bold" font-weight="bold" font-size="18.0" fill="#000000" transform="matrix(1.00, -0.09, -0.09, -1.00, 524.8, 716.3)">v</text><text xml:space="preserve" font-family="Verdana-Bold" font-weight="bold" font-size="18.0" fill="#000000" transform="matrix(1.00, -0.09, -0.09, -1.00, 536.4, 715.2)">e</text><text xml:space="preserve" font-family="Verdana-Bold" font-weight="bold" font-size="18.0" fill="#000000" transform="matrix(1.00, -0.09, -0.09, -1.00, 548.3, 714.1)">r</text><text xml:space="preserve" font-family="Verdana-Bold" font-weight="bold" font-size="18.0" fill="#000000" transform="matrix(1.00, -0.09, -0.09, -1.00, 557.2, 713.2)">t</text><text xml:space="preserve" font-family="Verdana-Bold" font-weight="bold" font-size="18.0" fill="#000000" transform="matrix(1.00, -0.09, -0.09, -1.00, 565.4, 712.5)">i</text><text xml:space="preserve" font-family="Verdana-Bold" font-weight="bold" font-size="18.0" fill="#000000" transform="matrix(1.00, -0.09, -0.09, -1.00, 571.5, 711.9)">s</text><text xml:space="preserve" font-family="Verdana-Bold" font-weight="bold" font-size="18.0" fill="#000000" transform="matrix(1.00, -0.09, -0.09, -1.00, 582.2, 710.9)">e</text><text xml:space="preserve" font-family="Verdana-Bold" font-weight="bold" font-size="18.0" fill="#000000" transform="matrix(1.00, -0.09, -0.09, -1.00, 594.1, 709.8)">m</text><text xml:space="preserve" font-family="Verdana-Bold" font-weight="bold" font-size="18.0" fill="#000000" transform="matrix(1.00, -0.09, -0.09, -1.00, 613.0, 708.0)">e</text><text xml:space="preserve" font-family="Verdana-Bold" font-weight="bold" font-size="18.0" fill="#000000" transform="matrix(1.00, -0.09, -0.09, -1.00, 624.9, 706.9)">n</text><text xml:space="preserve" font-family="Verdana-Bold" font-weight="bold" font-size="18.0" fill="#000000" transform="matrix(1.00, -0.09, -0.09, -1.00, 637.7, 705.7)">t</text><text xml:space="preserve" font-family="Verdana-Bold" font-weight="bold" font-size="18.0" fill="#000000" transform="matrix(1.00, -0.09, -0.09, -1.00, 645.9, 705.0)"> </text><text xml:space="preserve" font-family="Verdana-Bold" font-weight="bold" font-size="18.0" fill="#000000" transform="matrix(1.00, -0.09, -0.09, -1.00, 652.0, 704.4)">i</text><text xml:space="preserve" font-family="Verdana-Bold" font-weight="bold" font-size="18.0" fill="#000000" transform="matrix(1.00, -0.09, -0.09, -1.00, 658.1, 703.8)">f</text><text xml:space="preserve" font-family="Verdana-Bold" font-weight="bold" font-size="18.0" fill="#000000" transform="matrix(1.00, -0.09, -0.09, -1.00, 665.7, 703.1)"> </text><text xml:space="preserve" font-family="Verdana-Bold" font-weight="bold" font-size="18.0" fill="#000000" transform="matrix(1.00, -0.09, -0.09, -1.00, 671.8, 702.5)">i</text><text xml:space="preserve" font-family="Verdana-Bold" font-weight="bold" font-size="18.0" fill="#000000" transform="matrix(1.00, -0.09, -0.09, -1.00, 677.9, 702.0)">t</text><text xml:space="preserve" font-family="Verdana-Bold" font-weight="bold" font-size="18.0" fill="#000000" transform="matrix(1.00, -0.09, -0.09, -1.00, 686.1, 701.2)">'</text><text xml:space="preserve" font-family="Verdana-Bold" font-weight="bold" font-size="18.0" fill="#000000" transform="matrix(1.00, -0.09, -0.09, -1.00, 692.0, 700.6)">s</text><text xml:space="preserve" font-family="Verdana-Bold" font-weight="bold" font-size="18.0" fill="#000000" transform="matrix(1.00, -0.09, -0.09, -1.00, 702.7, 699.6)"> </text><text xml:space="preserve" font-family="Verdana-Bold" font-weight="bold" font-size="18.0" fill="#000000" transform="matrix(1.00, -0.09, -0.09, -1.00, 377.9, 707.9)">a</text><text xml:space="preserve" font-family="Verdana-Bold" font-weight="bold" font-size="18.0" fill="#000000" transform="matrix(1.00, -0.09, -0.09, -1.00, 389.9, 706.8)">n</text><text xml:space="preserve" font-family="Verdana-Bold" font-weight="bold" font-size="18.0" fill="#000000" transform="matrix(1.00, -0.09, -0.09, -1.00, 402.7, 705.6)"> </text><text xml:space="preserve" font-family="Verdana-Bold" font-weight="bold" font-size="18.0" fill="#000000" transform="matrix(1.00, -0.09, -0.09, -1.00, 408.8, 705.0)">e</text><text xml:space="preserve" font-family="Verdana-Bold" font-weight="bold" font-size="18.0" fill="#000000" transform="matrix(1.00, -0.09, -0.09, -1.00, 420.7, 703.9)">n</text><text xml:space="preserve" font-family="Verdana-Bold" font-weight="bold" font-size="18.0" fill="#000000" transform="matrix(1.00, -0.09, -0.09, -1.00, 433.5, 702.7)">t</text><text xml:space="preserve" font-family="Verdana-Bold" font-weight="bold" font-size="18.0" fill="#000000" transform="matrix(1.00, -0.09, -0.09, -1.00, 441.7, 701.9)">e</text><text xml:space="preserve" font-family="Verdana-Bold" font-weight="bold" font-size="18.0" fill="#000000" transform="matrix(1.00, -0.09, -0.09, -1.00, 453.6, 700.8)">r</text><text xml:space="preserve" font-family="Verdana-Bold" font-weight="bold" font-size="18.0" fill="#000000" transform="matrix(1.00, -0.09, -0.09, -1.00, 462.5, 700.0)">p</text><text xml:space="preserve" font-family="Verdana-Bold" font-weight="bold" font-size="18.0" fill="#000000" transform="matrix(1.00, -0.09, -0.09, -1.00, 475.0, 698.8)">r</text><text xml:space="preserve" font-family="Verdana-Bold" font-weight="bold" font-size="18.0" fill="#000000" transform="matrix(1.00, -0.09, -0.09, -1.00, 483.9, 698.0)">i</text><text xml:space="preserve" font-family="Verdana-Bold" font-weight="bold" font-size="18.0" fill="#000000" transform="matrix(1.00, -0.09, -0.09, -1.00, 490.0, 697.4)">s</text><text xml:space="preserve" font-family="Verdana-Bold" font-weight="bold" font-size="18.0" fill="#000000" transform="matrix(1.00, -0.09, -0.09, -1.00, 500.7, 696.4)">e</text><text xml:space="preserve" font-family="Verdana-Bold" font-weight="bold" font-size="18.0" fill="#000000" transform="matrix(1.00, -0.09, -0.09, -1.00, 512.6, 695.3)"> </text><text xml:space="preserve" font-family="Verdana-Bold" font-weight="bold" font-size="18.0" fill="#000000" transform="matrix(1.00, -0.09, -0.09, -1.00, 518.7, 694.7)">u</text><text xml:space="preserve" font-family="Verdana-Bold" font-weight="bold" font-size="18.0" fill="#000000" transform="matrix(1.00, -0.09, -0.09, -1.00, 531.5, 693.5)">s</text><text xml:space="preserve" font-family="Verdana-Bold" font-weight="bold" font-size="18.0" fill="#000000" transform="matrix(1.00, -0.09, -0.09, -1.00, 542.1, 692.5)">e</text><text xml:space="preserve" font-family="Verdana-Bold" font-weight="bold" font-size="18.0" fill="#000000" transform="matrix(1.00, -0.09, -0.09, -1.00, 554.0, 691.4)">r</text></g></g><text xml:space="preserve" font-family="Verdana" font-size="28.0" fill="#000000" transform="matrix(1.00, 0.00, -0.00, -1.00, 694.0, 442.0)">W</text><text xml:space="preserve" font-family="Verdana" font-size="28.0" fill="#000000" transform="matrix(1.00, 0.00, -0.00, -1.00, 721.7, 442.0)">h</text><text xml:space="preserve" font-family="Verdana" font-size="28.0" fill="#000000" transform="matrix(1.00, 0.00, -0.00, -1.00, 739.4, 442.0)">a</text><text xml:space="preserve" font-family="Verdana" font-size="28.0" fill="#000000" transform="matrix(1.00, 0.00, -0.00, -1.00, 756.2, 442.0)">t</text><text xml:space="preserve" font-family="Verdana" font-size="28.0" fill="#000000" transform="matrix(1.00, 0.00, -0.00, -1.00, 767.2, 442.0)"> </text><text xml:space="preserve" font-family="Verdana" font-size="28.0" fill="#000000" transform="matrix(1.00, 0.00, -0.00, -1.00, 777.1, 442.0)">w</text><text xml:space="preserve" font-family="Verdana" font-size="28.0" fill="#000000" transform="matrix(1.00, 0.00, -0.00, -1.00, 800.0, 442.0)">e</text><text xml:space="preserve" font-family="Verdana" font-size="28.0" fill="#000000" transform="matrix(1.00, 0.00, -0.00, -1.00, 816.7, 442.0)"> </text><text xml:space="preserve" font-family="Verdana" font-size="28.0" fill="#000000" transform="matrix(1.00, 0.00, -0.00, -1.00, 826.5, 442.0)">w</text><text xml:space="preserve" font-family="Verdana" font-size="28.0" fill="#000000" transform="matrix(1.00, 0.00, -0.00, -1.00, 849.1, 442.0)">a</text><text xml:space="preserve" font-family="Verdana" font-size="28.0" fill="#000000" transform="matrix(1.00, 0.00, -0.00, -1.00, 865.9, 442.0)">n</text><text xml:space="preserve" font-family="Verdana" font-size="28.0" fill="#000000" transform="matrix(1.00, 0.00, -0.00, -1.00, 883.7, 442.0)">t</text><text xml:space="preserve" font-family="Verdana" font-size="32.0" fill="#000000" transform="matrix(1.00, 0.00, -0.00, -1.00, 617.0, 375.0)">-</text><text xml:space="preserve" font-family="Verdana" font-size="32.0" fill="#000000" transform="matrix(1.00, 0.00, -0.00, -1.00, 631.5, 375.0)"> </text><text xml:space="preserve" font-family="Verdana" font-size="32.0" fill="#000000" transform="matrix(1.00, 0.00, -0.00, -1.00, 642.8, 375.0)">c</text><text xml:space="preserve" font-family="Verdana" font-size="32.0" fill="#000000" transform="matrix(1.00, 0.00, -0.00, -1.00, 659.4, 375.0)">a</text><text xml:space="preserve" font-family="Verdana" font-size="32.0" fill="#000000" transform="matrix(1.00, 0.00, -0.00, -1.00, 678.6, 375.0)">r</text><text xml:space="preserve" font-family="Verdana" font-size="32.0" fill="#000000" transform="matrix(1.00, 0.00, -0.00, -1.00, 692.3, 375.0)">d</text><text xml:space="preserve" font-family="Verdana" font-size="32.0" fill="#000000" transform="matrix(1.00, 0.00, -0.00, -1.00, 712.2, 375.0)">I</text><text xml:space="preserve" font-family="Verdana" font-size="32.0" fill="#000000" transform="matrix(1.00, 0.00, -0.00, -1.00, 725.7, 375.0)">n</text><text xml:space="preserve" font-family="Verdana" font-size="32.0" fill="#000000" transform="matrix(1.00, 0.00, -0.00, -1.00, 745.9, 375.0)">s</text><text xml:space="preserve" font-family="Verdana" font-size="32.0" fill="#000000" transform="matrix(1.00, 0.00, -0.00, -1.00, 762.6, 375.0)">e</text><text xml:space="preserve" font-family="Verdana" font-size="32.0" fill="#000000" transform="matrix(1.00, 0.00, -0.00, -1.00, 781.7, 375.0)">r</text><text xml:space="preserve" font-family="Verdana" font-size="32.0" fill="#000000" transform="matrix(1.00, 0.00, -0.00, -1.00, 795.3, 375.0)">t</text><text xml:space="preserve" font-family="Verdana" font-size="32.0" fill="#000000" transform="matrix(1.00, 0.00, -0.00, -1.00, 807.9, 375.0)">e</text><text xml:space="preserve" font-family="Verdana" font-size="32.0" fill="#000000" transform="matrix(1.00, 0.00, -0.00, -1.00, 827.0, 375.0)">d</text><text xml:space="preserve" font-family="Verdana" font-size="32.0" fill="#000000" transform="matrix(1.00, 0.00, -0.00, -1.00, 617.0, 325.0)">-</text><text xml:space="preserve" font-family="Verdana" font-size="32.0" fill="#000000" transform="matrix(1.00, 0.00, -0.00, -1.00, 631.5, 325.0)"> </text><text xml:space="preserve" font-family="Verdana" font-size="32.0" fill="#000000" transform="matrix(1.00, 0.00, -0.00, -1.00, 642.8, 325.0)">c</text><text xml:space="preserve" font-family="Verdana" font-size="32.0" fill="#000000" transform="matrix(1.00, 0.00, -0.00, -1.00, 659.4, 325.0)">a</text><text xml:space="preserve" font-family="Verdana" font-size="32.0" fill="#000000" transform="matrix(1.00, 0.00, -0.00, -1.00, 678.6, 325.0)">r</text><text xml:space="preserve" font-family="Verdana" font-size="32.0" fill="#000000" transform="matrix(1.00, 0.00, -0.00, -1.00, 692.3, 325.0)">d</text><text xml:space="preserve" font-family="Verdana" font-size="32.0" fill="#000000" transform="matrix(1.00, 0.00, -0.00, -1.00, 712.2, 325.0)">I</text><text xml:space="preserve" font-family="Verdana" font-size="32.0" fill="#000000" transform="matrix(1.00, 0.00, -0.00, -1.00, 725.7, 325.0)">s</text><text xml:space="preserve" font-family="Verdana" font-size="32.0" fill="#000000" transform="matrix(1.00, 0.00, -0.00, -1.00, 742.4, 325.0)">V</text><text xml:space="preserve" font-family="Verdana" font-size="32.0" fill="#000000" transform="matrix(1.00, 0.00, -0.00, -1.00, 762.7, 325.0)">a</text><text xml:space="preserve" font-family="Verdana" font-size="32.0" fill="#000000" transform="matrix(1.00, 0.00, -0.00, -1.00, 781.9, 325.0)">l</text><text xml:space="preserve" font-family="Verdana" font-size="32.0" fill="#000000" transform="matrix(1.00, 0.00, -0.00, -1.00, 790.7, 325.0)">i</text><text xml:space="preserve" font-family="Verdana" font-size="32.0" fill="#000000" transform="matrix(1.00, 0.00, -0.00, -1.00, 799.5, 325.0)">d</text><text xml:space="preserve" font-family="Verdana" font-size="32.0" fill="#AE51DD" transform="matrix(1.00, 0.00, -0.00, -1.00, 617.0, 275.0)">-</text><text xml:space="preserve" font-family="Verdana" font-size="32.0" fill="#AE51DD" transform="matrix(1.00, 0.00, -0.00, -1.00, 631.5, 275.0)"> </text><text xml:space="preserve" font-family="Verdana" font-size="32.0" fill="#AE51DD" transform="matrix(1.00, 0.00, -0.00, -1.00, 642.8, 275.0)">i</text><text xml:space="preserve" font-family="Verdana" font-size="32.0" fill="#AE51DD" transform="matrix(1.00, 0.00, -0.00, -1.00, 651.6, 275.0)">s</text><text xml:space="preserve" font-family="Verdana" font-size="32.0" fill="#AE51DD" transform="matrix(1.00, 0.00, -0.00, -1.00, 668.2, 275.0)">E</text><text xml:space="preserve" font-family="Verdana" font-size="32.0" fill="#AE51DD" transform="matrix(1.00, 0.00, -0.00, -1.00, 688.5, 275.0)">n</text><text xml:space="preserve" font-family="Verdana" font-size="32.0" fill="#AE51DD" transform="matrix(1.00, 0.00, -0.00, -1.00, 708.7, 275.0)">t</text><text xml:space="preserve" font-family="Verdana" font-size="32.0" fill="#AE51DD" transform="matrix(1.00, 0.00, -0.00, -1.00, 721.3, 275.0)">e</text><text xml:space="preserve" font-family="Verdana" font-size="32.0" fill="#AE51DD" transform="matrix(1.00, 0.00, -0.00, -1.00, 740.4, 275.0)">r</text><text xml:space="preserve" font-family="Verdana" font-size="32.0" fill="#AE51DD" transform="matrix(1.00, 0.00, -0.00, -1.00, 754.0, 275.0)">p</text><text xml:space="preserve" font-family="Verdana" font-size="32.0" fill="#AE51DD" transform="matrix(1.00, 0.00, -0.00, -1.00, 774.0, 275.0)">r</text><text xml:space="preserve" font-family="Verdana" font-size="32.0" fill="#AE51DD" transform="matrix(1.00, 0.00, -0.00, -1.00, 787.6, 275.0)">i</text><text xml:space="preserve" font-family="Verdana" font-size="32.0" fill="#AE51DD" transform="matrix(1.00, 0.00, -0.00, -1.00, 796.4, 275.0)">s</text><text xml:space="preserve" font-family="Verdana" font-size="32.0" fill="#AE51DD" transform="matrix(1.00, 0.00, -0.00, -1.00, 813.1, 275.0)">e</text><text xml:space="preserve" font-family="Verdana" font-size="32.0" fill="#000000" transform="matrix(1.00, 0.00, -0.00, -1.00, 617.0, 223.0)">-</text><text xml:space="preserve" font-family="Verdana" font-size="32.0" fill="#000000" transform="matrix(1.00, 0.00, -0.00, -1.00, 631.5, 223.0)"> </text><text xml:space="preserve" font-family="Verdana" font-size="32.0" fill="#000000" transform="matrix(1.00, 0.00, -0.00, -1.00, 642.8, 223.0)">l</text><text xml:space="preserve" font-family="Verdana" font-size="32.0" fill="#000000" transform="matrix(1.00, 0.00, -0.00, -1.00, 651.6, 223.0)">o</text><text xml:space="preserve" font-family="Verdana" font-size="32.0" fill="#000000" transform="matrix(1.00, 0.00, -0.00, -1.00, 671.0, 223.0)">a</text><text xml:space="preserve" font-family="Verdana" font-size="32.0" fill="#000000" transform="matrix(1.00, 0.00, -0.00, -1.00, 690.2, 223.0)">d</text><text xml:space="preserve" font-family="Verdana" font-size="32.0" fill="#000000" transform="matrix(1.00, 0.00, -0.00, -1.00, 710.1, 223.0)">i</text><text xml:space="preserve" font-family="Verdana" font-size="32.0" fill="#000000" transform="matrix(1.00, 0.00, -0.00, -1.00, 718.9, 223.0)">n</text><text xml:space="preserve" font-family="Verdana" font-size="32.0" fill="#000000" transform="matrix(1.00, 0.00, -0.00, -1.00, 739.2, 223.0)">g</text><text xml:space="preserve" font-family="Verdana" font-size="32.0" fill="#000000" transform="matrix(1.00, 0.00, -0.00, -1.00, 759.1, 223.0)">A</text><text xml:space="preserve" font-family="Verdana" font-size="32.0" fill="#000000" transform="matrix(1.00, 0.00, -0.00, -1.00, 781.0, 223.0)">c</text><text xml:space="preserve" font-family="Verdana" font-size="32.0" fill="#000000" transform="matrix(1.00, 0.00, -0.00, -1.00, 797.6, 223.0)">c</text><text xml:space="preserve" font-family="Verdana" font-size="32.0" fill="#000000" transform="matrix(1.00, 0.00, -0.00, -1.00, 814.3, 223.0)">o</text><text xml:space="preserve" font-family="Verdana" font-size="32.0" fill="#000000" transform="matrix(1.00, 0.00, -0.00, -1.00, 833.7, 223.0)">u</text><text xml:space="preserve" font-family="Verdana" font-size="32.0" fill="#000000" transform="matrix(1.00, 0.00, -0.00, -1.00, 854.0, 223.0)">n</text><text xml:space="preserve" font-family="Verdana" font-size="32.0" fill="#000000" transform="matrix(1.00, 0.00, -0.00, -1.00, 874.2, 223.0)">t</text><text xml:space="preserve" font-family="Verdana" font-size="32.0" fill="#000000" transform="matrix(1.00, 0.00, -0.00, -1.00, 617.0, 174.0)">-</text><text xml:space="preserve" font-family="Verdana" font-size="32.0" fill="#000000" transform="matrix(1.00, 0.00, -0.00, -1.00, 631.5, 174.0)"> </text><text xml:space="preserve" font-family="Verdana" font-size="32.0" fill="#000000" transform="matrix(1.00, 0.00, -0.00, -1.00, 642.8, 174.0)">a</text><text xml:space="preserve" font-family="Verdana" font-size="32.0" fill="#000000" transform="matrix(1.00, 0.00, -0.00, -1.00, 662.0, 174.0)">c</text><text xml:space="preserve" font-family="Verdana" font-size="32.0" fill="#000000" transform="matrix(1.00, 0.00, -0.00, -1.00, 678.6, 174.0)">c</text><text xml:space="preserve" font-family="Verdana" font-size="32.0" fill="#000000" transform="matrix(1.00, 0.00, -0.00, -1.00, 695.3, 174.0)">o</text><text xml:space="preserve" font-family="Verdana" font-size="32.0" fill="#000000" transform="matrix(1.00, 0.00, -0.00, -1.00, 714.7, 174.0)">u</text><text xml:space="preserve" font-family="Verdana" font-size="32.0" fill="#000000" transform="matrix(1.00, 0.00, -0.00, -1.00, 735.0, 174.0)">n</text><text xml:space="preserve" font-family="Verdana" font-size="32.0" fill="#000000" transform="matrix(1.00, 0.00, -0.00, -1.00, 755.2, 174.0)">t</text><text xml:space="preserve" font-family="Verdana" font-size="32.0" fill="#000000" transform="matrix(1.00, 0.00, -0.00, -1.00, 767.8, 174.0)">L</text><text xml:space="preserve" font-family="Verdana" font-size="32.0" fill="#000000" transform="matrix(1.00, 0.00, -0.00, -1.00, 785.6, 174.0)">o</text><text xml:space="preserve" font-family="Verdana" font-size="32.0" fill="#000000" transform="matrix(1.00, 0.00, -0.00, -1.00, 805.1, 174.0)">a</text><text xml:space="preserve" font-family="Verdana" font-size="32.0" fill="#000000" transform="matrix(1.00, 0.00, -0.00, -1.00, 824.3, 174.0)">d</text><text xml:space="preserve" font-family="Verdana" font-size="32.0" fill="#000000" transform="matrix(1.00, 0.00, -0.00, -1.00, 844.2, 174.0)">e</text><text xml:space="preserve" font-family="Verdana" font-size="32.0" fill="#000000" transform="matrix(1.00, 0.00, -0.00, -1.00, 863.3, 174.0)">d</text><text xml:space="preserve" font-family="Verdana" font-size="32.0" fill="#000000" transform="matrix(1.00, 0.00, -0.00, -1.00, 620.0, 127.0)">-</text><text xml:space="preserve" font-family="Verdana" font-size="32.0" fill="#000000" transform="matrix(1.00, 0.00, -0.00, -1.00, 634.5, 127.0)"> </text><text xml:space="preserve" font-family="Verdana" font-size="32.0" fill="#000000" transform="matrix(1.00, 0.00, -0.00, -1.00, 645.8, 127.0)">w</text><text xml:space="preserve" font-family="Verdana" font-size="32.0" fill="#000000" transform="matrix(1.00, 0.00, -0.00, -1.00, 671.7, 127.0)">a</text><text xml:space="preserve" font-family="Verdana" font-size="32.0" fill="#000000" transform="matrix(1.00, 0.00, -0.00, -1.00, 690.9, 127.0)">i</text><text xml:space="preserve" font-family="Verdana" font-size="32.0" fill="#000000" transform="matrix(1.00, 0.00, -0.00, -1.00, 699.7, 127.0)">t</text><text xml:space="preserve" font-family="Verdana" font-size="32.0" fill="#000000" transform="matrix(1.00, 0.00, -0.00, -1.00, 712.3, 127.0)">i</text><text xml:space="preserve" font-family="Verdana" font-size="32.0" fill="#000000" transform="matrix(1.00, 0.00, -0.00, -1.00, 721.1, 127.0)">n</text><text xml:space="preserve" font-family="Verdana" font-size="32.0" fill="#000000" transform="matrix(1.00, 0.00, -0.00, -1.00, 741.3, 127.0)">g</text><text xml:space="preserve" font-family="Verdana" font-size="32.0" fill="#000000" transform="matrix(1.00, 0.00, -0.00, -1.00, 761.2, 127.0)">F</text><text xml:space="preserve" font-family="Verdana" font-size="32.0" fill="#000000" transform="matrix(1.00, 0.00, -0.00, -1.00, 778.8, 127.0)">o</text><text xml:space="preserve" font-family="Verdana" font-size="32.0" fill="#000000" transform="matrix(1.00, 0.00, -0.00, -1.00, 798.3, 127.0)">r</text><text xml:space="preserve" font-family="Verdana" font-size="32.0" fill="#000000" transform="matrix(1.00, 0.00, -0.00, -1.00, 811.9, 127.0)">P</text><text xml:space="preserve" font-family="Verdana" font-size="32.0" fill="#000000" transform="matrix(1.00, 0.00, -0.00, -1.00, 831.2, 127.0)">i</text><text xml:space="preserve" font-family="Verdana" font-size="32.0" fill="#000000" transform="matrix(1.00, 0.00, -0.00, -1.00, 840.0, 127.0)">n</text></g></svg>