<?xml version="1.0" encoding="UTF-8" standalone="no"?><svg xmlns="http://www.w3.org/2000/svg" xmlns:xlink="http://www.w3.org/1999/xlink" clip-rule="evenodd" stroke-miterlimit="4.00" viewBox="0 0 178 69"><desc>SVG generated by Keynote</desc><defs></defs><g transform="matrix(1.00, 0.00, -0.00, -1.00, 0.0, 69.0)"><text xml:space="preserve" font-family="Verdana-Bold" font-weight="bold" font-size="24.0" fill="#C97F2D" transform="matrix(1.00, 0.00, -0.00, -1.00, 0.2, 45.0)">-</text><text xml:space="preserve" font-family="Verdana" font-size="32.0" fill="#C97F2D" transform="matrix(1.00, 0.00, -0.00, -1.00, 31.0, 42.0)">s</text><text xml:space="preserve" font-family="Verdana" font-size="32.0" fill="#C97F2D" transform="matrix(1.00, 0.00, -0.00, -1.00, 47.7, 42.0)">h</text><text xml:space="preserve" font-family="Verdana" font-size="32.0" fill="#C97F2D" transform="matrix(1.00, 0.00, -0.00, -1.00, 67.9, 42.0)">o</text><text xml:space="preserve" font-family="Verdana" font-size="32.0" fill="#C97F2D" transform="matrix(1.00, 0.00, -0.00, -1.00, 87.3, 42.0)">w</text><text xml:space="preserve" font-family="Verdana" font-size="32.0" fill="#C97F2D" transform="matrix(1.00, 0.00, -0.00, -1.00, 113.5, 42.0)">A</text><text xml:space="preserve" font-family="Verdana" font-size="32.0" fill="#C97F2D" transform="matrix(1.00, 0.00, -0.00, -1.00, 135.4, 42.0)">d</text><text xml:space="preserve" font-family="Verdana" font-size="32.0" fill="#C97F2D" transform="matrix(1.00, 0.00, -0.00, -1.00, 155.3, 42.0)"> </text><text xml:space="preserve" font-family="Verdana" font-size="32.0" fill="#C97F2D" transform="matrix(1.00, 0.00, -0.00, -1.00, 166.6, 42.0)"> </text><text xml:space="preserve" font-family="Verdana-Bold" font-weight="bold" font-size="24.0" fill="#C97F2D" transform="matrix(1.00, 0.00, -0.00, -1.00, 0.2, 6.0)">-</text><text xml:space="preserve" font-family="Verdana" font-size="32.0" fill="#C97F2D" transform="matrix(1.00, 0.00, -0.00, -1.00, 31.0, 3.0)">a</text><text xml:space="preserve" font-family="Verdana" font-size="32.0" fill="#C97F2D" transform="matrix(1.00, 0.00, -0.00, -1.00, 50.2, 3.0)">d</text><text xml:space="preserve" font-family="Verdana" font-size="32.0" fill="#C97F2D" transform="matrix(1.00, 0.00, -0.00, -1.00, 70.1, 3.0)">S</text><text xml:space="preserve" font-family="Verdana" font-size="32.0" fill="#C97F2D" transform="matrix(1.00, 0.00, -0.00, -1.00, 92.0, 3.0)">h</text><text xml:space="preserve" font-family="Verdana" font-size="32.0" fill="#C97F2D" transform="matrix(1.00, 0.00, -0.00, -1.00, 112.2, 3.0)">o</text><text xml:space="preserve" font-family="Verdana" font-size="32.0" fill="#C97F2D" transform="matrix(1.00, 0.00, -0.00, -1.00, 131.7, 3.0)">w</text><text xml:space="preserve" font-family="Verdana" font-size="32.0" fill="#C97F2D" transform="matrix(1.00, 0.00, -0.00, -1.00, 157.9, 3.0)">n</text></g></svg>