<?xml version="1.0" encoding="UTF-8" standalone="no"?><svg xmlns="http://www.w3.org/2000/svg" xmlns:xlink="http://www.w3.org/1999/xlink" clip-rule="evenodd" stroke-miterlimit="4.00" viewBox="0 0 216 34"><desc>SVG generated by Keynote</desc><defs></defs><g transform="matrix(1.00, 0.00, -0.00, -1.00, 0.0, 34.0)"><text xml:space="preserve" font-family="Verdana" font-size="32.0" fill="#AE51DD" transform="matrix(1.00, 0.00, -0.00, -1.00, 0.0, 9.0)">-</text><text xml:space="preserve" font-family="Verdana" font-size="32.0" fill="#AE51DD" transform="matrix(1.00, 0.00, -0.00, -1.00, 14.5, 9.0)"> </text><text xml:space="preserve" font-family="Verdana" font-size="32.0" fill="#AE51DD" transform="matrix(1.00, 0.00, -0.00, -1.00, 25.8, 9.0)">i</text><text xml:space="preserve" font-family="Verdana" font-size="32.0" fill="#AE51DD" transform="matrix(1.00, 0.00, -0.00, -1.00, 34.6, 9.0)">s</text><text xml:space="preserve" font-family="Verdana" font-size="32.0" fill="#AE51DD" transform="matrix(1.00, 0.00, -0.00, -1.00, 51.2, 9.0)">E</text><text xml:space="preserve" font-family="Verdana" font-size="32.0" fill="#AE51DD" transform="matrix(1.00, 0.00, -0.00, -1.00, 71.5, 9.0)">n</text><text xml:space="preserve" font-family="Verdana" font-size="32.0" fill="#AE51DD" transform="matrix(1.00, 0.00, -0.00, -1.00, 91.7, 9.0)">t</text><text xml:space="preserve" font-family="Verdana" font-size="32.0" fill="#AE51DD" transform="matrix(1.00, 0.00, -0.00, -1.00, 104.3, 9.0)">e</text><text xml:space="preserve" font-family="Verdana" font-size="32.0" fill="#AE51DD" transform="matrix(1.00, 0.00, -0.00, -1.00, 123.4, 9.0)">r</text><text xml:space="preserve" font-family="Verdana" font-size="32.0" fill="#AE51DD" transform="matrix(1.00, 0.00, -0.00, -1.00, 137.0, 9.0)">p</text><text xml:space="preserve" font-family="Verdana" font-size="32.0" fill="#AE51DD" transform="matrix(1.00, 0.00, -0.00, -1.00, 157.0, 9.0)">r</text><text xml:space="preserve" font-family="Verdana" font-size="32.0" fill="#AE51DD" transform="matrix(1.00, 0.00, -0.00, -1.00, 170.6, 9.0)">i</text><text xml:space="preserve" font-family="Verdana" font-size="32.0" fill="#AE51DD" transform="matrix(1.00, 0.00, -0.00, -1.00, 179.4, 9.0)">s</text><text xml:space="preserve" font-family="Verdana" font-size="32.0" fill="#AE51DD" transform="matrix(1.00, 0.00, -0.00, -1.00, 196.1, 9.0)">e</text></g></svg>