<?xml version="1.0" encoding="UTF-8" standalone="no"?><svg xmlns="http://www.w3.org/2000/svg" xmlns:xlink="http://www.w3.org/1999/xlink" clip-rule="evenodd" stroke-miterlimit="4.00" viewBox="0 0 229 29"><desc>SVG generated by Keynote</desc><defs></defs><g transform="matrix(1.00, 0.00, -0.00, -1.00, 0.0, 29.0)"><text xml:space="preserve" font-family="Verdana" font-size="32.0" fill="#000000" transform="matrix(1.00, 0.00, -0.00, -1.00, 0.0, 2.0)">-</text><text xml:space="preserve" font-family="Verdana" font-size="32.0" fill="#000000" transform="matrix(1.00, 0.00, -0.00, -1.00, 14.5, 2.0)"> </text><text xml:space="preserve" font-family="Verdana" font-size="32.0" fill="#000000" transform="matrix(1.00, 0.00, -0.00, -1.00, 25.8, 2.0)">c</text><text xml:space="preserve" font-family="Verdana" font-size="32.0" fill="#000000" transform="matrix(1.00, 0.00, -0.00, -1.00, 42.4, 2.0)">a</text><text xml:space="preserve" font-family="Verdana" font-size="32.0" fill="#000000" transform="matrix(1.00, 0.00, -0.00, -1.00, 61.6, 2.0)">r</text><text xml:space="preserve" font-family="Verdana" font-size="32.0" fill="#000000" transform="matrix(1.00, 0.00, -0.00, -1.00, 75.3, 2.0)">d</text><text xml:space="preserve" font-family="Verdana" font-size="32.0" fill="#000000" transform="matrix(1.00, 0.00, -0.00, -1.00, 95.2, 2.0)">I</text><text xml:space="preserve" font-family="Verdana" font-size="32.0" fill="#000000" transform="matrix(1.00, 0.00, -0.00, -1.00, 108.7, 2.0)">n</text><text xml:space="preserve" font-family="Verdana" font-size="32.0" fill="#000000" transform="matrix(1.00, 0.00, -0.00, -1.00, 128.9, 2.0)">s</text><text xml:space="preserve" font-family="Verdana" font-size="32.0" fill="#000000" transform="matrix(1.00, 0.00, -0.00, -1.00, 145.6, 2.0)">e</text><text xml:space="preserve" font-family="Verdana" font-size="32.0" fill="#000000" transform="matrix(1.00, 0.00, -0.00, -1.00, 164.7, 2.0)">r</text><text xml:space="preserve" font-family="Verdana" font-size="32.0" fill="#000000" transform="matrix(1.00, 0.00, -0.00, -1.00, 178.3, 2.0)">t</text><text xml:space="preserve" font-family="Verdana" font-size="32.0" fill="#000000" transform="matrix(1.00, 0.00, -0.00, -1.00, 190.9, 2.0)">e</text><text xml:space="preserve" font-family="Verdana" font-size="32.0" fill="#000000" transform="matrix(1.00, 0.00, -0.00, -1.00, 210.0, 2.0)">d</text></g></svg>