<?xml version="1.0" encoding="UTF-8" standalone="no"?><svg xmlns="http://www.w3.org/2000/svg" xmlns:xlink="http://www.w3.org/1999/xlink" clip-rule="evenodd" stroke-miterlimit="4.00" viewBox="0 0 1024 768"><desc>SVG generated by Keynote</desc><defs></defs><g transform="matrix(1.00, 0.00, -0.00, -1.00, 0.0, 768.0)"><path d="M 0.0 768.0 L 1024.0 768.0 L 1024.0 0.0 L 0.0 0.0 Z M 0.0 768.0 " fill="#FEFFFF"></path><image xlink:href="418E8D9291ECD2AFEBB8EFFF91A6378A.png" width="216.00" height="161.00" transform="matrix(1.00, 0.00, -0.00, -1.00, 394.0, 377.0)"></image><image xlink:href="FAD78A05375CB9E5D7876F24742D826F.png" width="812.00" height="202.00" transform="matrix(1.00, 0.00, -0.00, -1.00, 118.0, 567.0)"></image><text xml:space="preserve" font-family="Verdana" font-size="32.0" fill="#2150FF" transform="matrix(1.00, 0.00, -0.00, -1.00, 153.0, 571.0)">D</text><text xml:space="preserve" font-family="Verdana" font-size="32.0" fill="#2150FF" transform="matrix(1.00, 0.00, -0.00, -1.00, 177.6, 571.0)">r</text><text xml:space="preserve" font-family="Verdana" font-size="32.0" fill="#2150FF" transform="matrix(1.00, 0.00, -0.00, -1.00, 191.3, 571.0)">i</text><text xml:space="preserve" font-family="Verdana" font-size="32.0" fill="#2150FF" transform="matrix(1.00, 0.00, -0.00, -1.00, 200.1, 571.0)">v</text><text xml:space="preserve" font-family="Verdana" font-size="32.0" fill="#2150FF" transform="matrix(1.00, 0.00, -0.00, -1.00, 219.0, 571.0)">i</text><text xml:space="preserve" font-family="Verdana" font-size="32.0" fill="#2150FF" transform="matrix(1.00, 0.00, -0.00, -1.00, 227.8, 571.0)">n</text><text xml:space="preserve" font-family="Verdana" font-size="32.0" fill="#2150FF" transform="matrix(1.00, 0.00, -0.00, -1.00, 248.1, 571.0)">g</text><text xml:space="preserve" font-family="Verdana" font-size="32.0" fill="#2150FF" transform="matrix(1.00, 0.00, -0.00, -1.00, 268.0, 571.0)"> </text><text xml:space="preserve" font-family="Verdana" font-size="32.0" fill="#2150FF" transform="matrix(1.00, 0.00, -0.00, -1.00, 279.2, 571.0)">d</text><text xml:space="preserve" font-family="Verdana" font-size="32.0" fill="#2150FF" transform="matrix(1.00, 0.00, -0.00, -1.00, 299.2, 571.0)">i</text><text xml:space="preserve" font-family="Verdana" font-size="32.0" fill="#2150FF" transform="matrix(1.00, 0.00, -0.00, -1.00, 308.0, 571.0)">r</text><text xml:space="preserve" font-family="Verdana" font-size="32.0" fill="#2150FF" transform="matrix(1.00, 0.00, -0.00, -1.00, 321.6, 571.0)">e</text><text xml:space="preserve" font-family="Verdana" font-size="32.0" fill="#2150FF" transform="matrix(1.00, 0.00, -0.00, -1.00, 340.7, 571.0)">c</text><text xml:space="preserve" font-family="Verdana" font-size="32.0" fill="#2150FF" transform="matrix(1.00, 0.00, -0.00, -1.00, 357.3, 571.0)">t</text><text xml:space="preserve" font-family="Verdana" font-size="32.0" fill="#2150FF" transform="matrix(1.00, 0.00, -0.00, -1.00, 369.9, 571.0)">i</text><text xml:space="preserve" font-family="Verdana" font-size="32.0" fill="#2150FF" transform="matrix(1.00, 0.00, -0.00, -1.00, 378.7, 571.0)">o</text><text xml:space="preserve" font-family="Verdana" font-size="32.0" fill="#2150FF" transform="matrix(1.00, 0.00, -0.00, -1.00, 398.2, 571.0)">n</text><text xml:space="preserve" font-family="Verdana" font-size="32.0" fill="#2150FF" transform="matrix(1.00, 0.00, -0.00, -1.00, 418.4, 571.0)">s</text><text xml:space="preserve" font-family="Verdana" font-size="32.0" fill="#2150FF" transform="matrix(1.00, 0.00, -0.00, -1.00, 581.0, 571.0)">D</text><text xml:space="preserve" font-family="Verdana" font-size="32.0" fill="#2150FF" transform="matrix(1.00, 0.00, -0.00, -1.00, 605.6, 571.0)">a</text><text xml:space="preserve" font-family="Verdana" font-size="32.0" fill="#2150FF" transform="matrix(1.00, 0.00, -0.00, -1.00, 624.8, 571.0)">i</text><text xml:space="preserve" font-family="Verdana" font-size="32.0" fill="#2150FF" transform="matrix(1.00, 0.00, -0.00, -1.00, 633.6, 571.0)">l</text><text xml:space="preserve" font-family="Verdana" font-size="32.0" fill="#2150FF" transform="matrix(1.00, 0.00, -0.00, -1.00, 642.4, 571.0)">y</text><text xml:space="preserve" font-family="Verdana" font-size="32.0" fill="#2150FF" transform="matrix(1.00, 0.00, -0.00, -1.00, 661.4, 571.0)"> </text><text xml:space="preserve" font-family="Verdana" font-size="32.0" fill="#2150FF" transform="matrix(1.00, 0.00, -0.00, -1.00, 672.6, 571.0)">s</text><text xml:space="preserve" font-family="Verdana" font-size="32.0" fill="#2150FF" transform="matrix(1.00, 0.00, -0.00, -1.00, 689.3, 571.0)">c</text><text xml:space="preserve" font-family="Verdana" font-size="32.0" fill="#2150FF" transform="matrix(1.00, 0.00, -0.00, -1.00, 705.9, 571.0)">h</text><text xml:space="preserve" font-family="Verdana" font-size="32.0" fill="#2150FF" transform="matrix(1.00, 0.00, -0.00, -1.00, 726.2, 571.0)">e</text><text xml:space="preserve" font-family="Verdana" font-size="32.0" fill="#2150FF" transform="matrix(1.00, 0.00, -0.00, -1.00, 745.2, 571.0)">d</text><text xml:space="preserve" font-family="Verdana" font-size="32.0" fill="#2150FF" transform="matrix(1.00, 0.00, -0.00, -1.00, 765.2, 571.0)">u</text><text xml:space="preserve" font-family="Verdana" font-size="32.0" fill="#2150FF" transform="matrix(1.00, 0.00, -0.00, -1.00, 785.4, 571.0)">l</text><text xml:space="preserve" font-family="Verdana" font-size="32.0" fill="#2150FF" transform="matrix(1.00, 0.00, -0.00, -1.00, 794.2, 571.0)">e</text><text xml:space="preserve" font-family="Verdana" font-size="25.3" fill="#2150FF" transform="matrix(1.00, 0.00, -0.00, -1.00, 323.0, 179.0)">A</text><text xml:space="preserve" font-family="Verdana" font-size="25.3" fill="#2150FF" transform="matrix(1.00, 0.00, -0.00, -1.00, 340.3, 179.0)"> </text><text xml:space="preserve" font-family="Verdana" font-size="25.3" fill="#2150FF" transform="matrix(1.00, 0.00, -0.00, -1.00, 349.1, 179.0)">6</text><text xml:space="preserve" font-family="Verdana" font-size="25.3" fill="#2150FF" transform="matrix(1.00, 0.00, -0.00, -1.00, 365.2, 179.0)">-</text><text xml:space="preserve" font-family="Verdana" font-size="25.3" fill="#2150FF" transform="matrix(1.00, 0.00, -0.00, -1.00, 376.7, 179.0)">d</text><text xml:space="preserve" font-family="Verdana" font-size="25.3" fill="#2150FF" transform="matrix(1.00, 0.00, -0.00, -1.00, 392.4, 179.0)">a</text><text xml:space="preserve" font-family="Verdana" font-size="25.3" fill="#2150FF" transform="matrix(1.00, 0.00, -0.00, -1.00, 407.4, 179.0)">y</text><text xml:space="preserve" font-family="Verdana" font-size="25.3" fill="#2150FF" transform="matrix(1.00, 0.00, -0.00, -1.00, 422.4, 179.0)"> </text><text xml:space="preserve" font-family="Verdana" font-size="25.3" fill="#2150FF" transform="matrix(1.00, 0.00, -0.00, -1.00, 431.3, 179.0)">t</text><text xml:space="preserve" font-family="Verdana" font-size="25.3" fill="#2150FF" transform="matrix(1.00, 0.00, -0.00, -1.00, 441.2, 179.0)">r</text><text xml:space="preserve" font-family="Verdana" font-size="25.3" fill="#2150FF" transform="matrix(1.00, 0.00, -0.00, -1.00, 452.0, 179.0)">i</text><text xml:space="preserve" font-family="Verdana" font-size="25.3" fill="#2150FF" transform="matrix(1.00, 0.00, -0.00, -1.00, 458.9, 179.0)">p</text><text xml:space="preserve" font-family="Verdana" font-size="25.3" fill="#2150FF" transform="matrix(1.00, 0.00, -0.00, -1.00, 474.7, 179.0)"> </text><text xml:space="preserve" font-family="Verdana" font-size="25.3" fill="#2150FF" transform="matrix(1.00, 0.00, -0.00, -1.00, 483.6, 179.0)">f</text><text xml:space="preserve" font-family="Verdana" font-size="25.3" fill="#2150FF" transform="matrix(1.00, 0.00, -0.00, -1.00, 492.5, 179.0)">r</text><text xml:space="preserve" font-family="Verdana" font-size="25.3" fill="#2150FF" transform="matrix(1.00, 0.00, -0.00, -1.00, 503.2, 179.0)">o</text><text xml:space="preserve" font-family="Verdana" font-size="25.3" fill="#2150FF" transform="matrix(1.00, 0.00, -0.00, -1.00, 518.6, 179.0)">m</text><text xml:space="preserve" font-family="Verdana" font-size="25.3" fill="#2150FF" transform="matrix(1.00, 0.00, -0.00, -1.00, 543.2, 179.0)"> </text><text xml:space="preserve" font-family="Verdana" font-size="25.3" fill="#2150FF" transform="matrix(1.00, 0.00, -0.00, -1.00, 552.0, 179.0)">N</text><text xml:space="preserve" font-family="Verdana" font-size="25.3" fill="#2150FF" transform="matrix(1.00, 0.00, -0.00, -1.00, 570.9, 179.0)">Y</text><text xml:space="preserve" font-family="Verdana" font-size="25.3" fill="#2150FF" transform="matrix(1.00, 0.00, -0.00, -1.00, 586.5, 179.0)"> </text><text xml:space="preserve" font-family="Verdana" font-size="25.3" fill="#2150FF" transform="matrix(1.00, 0.00, -0.00, -1.00, 595.4, 179.0)">t</text><text xml:space="preserve" font-family="Verdana" font-size="25.3" fill="#2150FF" transform="matrix(1.00, 0.00, -0.00, -1.00, 605.3, 179.0)">o</text><text xml:space="preserve" font-family="Verdana" font-size="25.3" fill="#2150FF" transform="matrix(1.00, 0.00, -0.00, -1.00, 620.7, 179.0)"> </text><text xml:space="preserve" font-family="Verdana" font-size="25.3" fill="#2150FF" transform="matrix(1.00, 0.00, -0.00, -1.00, 629.6, 179.0)">L</text><text xml:space="preserve" font-family="Verdana" font-size="25.3" fill="#2150FF" transform="matrix(1.00, 0.00, -0.00, -1.00, 643.6, 179.0)">A</text></g></svg>