<?xml version="1.0" encoding="UTF-8" standalone="no"?><svg xmlns="http://www.w3.org/2000/svg" xmlns:xlink="http://www.w3.org/1999/xlink" clip-rule="evenodd" stroke-miterlimit="4.00" viewBox="0 0 1024 768"><desc>SVG generated by Keynote</desc><defs></defs><g transform="matrix(1.00, 0.00, -0.00, -1.00, 0.0, 768.0)"><path d="M 0.0 768.0 L 1024.0 768.0 L 1024.0 0.0 L 0.0 0.0 Z M 0.0 768.0 " fill="#FEFFFF"></path><text xml:space="preserve" font-family="Verdana" font-size="32.0" fill="#000000" transform="matrix(1.00, 0.00, -0.00, -1.00, 634.0, 349.0)">-</text><text xml:space="preserve" font-family="Verdana" font-size="32.0" fill="#000000" transform="matrix(1.00, 0.00, -0.00, -1.00, 648.5, 349.0)"> </text><text xml:space="preserve" font-family="Verdana" font-size="32.0" fill="#000000" transform="matrix(1.00, 0.00, -0.00, -1.00, 659.8, 349.0)">c</text><text xml:space="preserve" font-family="Verdana" font-size="32.0" fill="#000000" transform="matrix(1.00, 0.00, -0.00, -1.00, 676.4, 349.0)">a</text><text xml:space="preserve" font-family="Verdana" font-size="32.0" fill="#000000" transform="matrix(1.00, 0.00, -0.00, -1.00, 695.6, 349.0)">r</text><text xml:space="preserve" font-family="Verdana" font-size="32.0" fill="#000000" transform="matrix(1.00, 0.00, -0.00, -1.00, 709.3, 349.0)">d</text><text xml:space="preserve" font-family="Verdana" font-size="32.0" fill="#000000" transform="matrix(1.00, 0.00, -0.00, -1.00, 729.2, 349.0)">I</text><text xml:space="preserve" font-family="Verdana" font-size="32.0" fill="#000000" transform="matrix(1.00, 0.00, -0.00, -1.00, 742.7, 349.0)">n</text><text xml:space="preserve" font-family="Verdana" font-size="32.0" fill="#000000" transform="matrix(1.00, 0.00, -0.00, -1.00, 762.9, 349.0)">s</text><text xml:space="preserve" font-family="Verdana" font-size="32.0" fill="#000000" transform="matrix(1.00, 0.00, -0.00, -1.00, 779.6, 349.0)">e</text><text xml:space="preserve" font-family="Verdana" font-size="32.0" fill="#000000" transform="matrix(1.00, 0.00, -0.00, -1.00, 798.7, 349.0)">r</text><text xml:space="preserve" font-family="Verdana" font-size="32.0" fill="#000000" transform="matrix(1.00, 0.00, -0.00, -1.00, 812.3, 349.0)">t</text><text xml:space="preserve" font-family="Verdana" font-size="32.0" fill="#000000" transform="matrix(1.00, 0.00, -0.00, -1.00, 824.9, 349.0)">e</text><text xml:space="preserve" font-family="Verdana" font-size="32.0" fill="#000000" transform="matrix(1.00, 0.00, -0.00, -1.00, 844.0, 349.0)">d</text><text xml:space="preserve" font-family="Verdana" font-size="32.0" fill="#000000" transform="matrix(1.00, 0.00, -0.00, -1.00, 633.0, 299.0)">-</text><text xml:space="preserve" font-family="Verdana" font-size="32.0" fill="#000000" transform="matrix(1.00, 0.00, -0.00, -1.00, 647.5, 299.0)"> </text><text xml:space="preserve" font-family="Verdana" font-size="32.0" fill="#000000" transform="matrix(1.00, 0.00, -0.00, -1.00, 658.8, 299.0)">c</text><text xml:space="preserve" font-family="Verdana" font-size="32.0" fill="#000000" transform="matrix(1.00, 0.00, -0.00, -1.00, 675.4, 299.0)">a</text><text xml:space="preserve" font-family="Verdana" font-size="32.0" fill="#000000" transform="matrix(1.00, 0.00, -0.00, -1.00, 694.6, 299.0)">r</text><text xml:space="preserve" font-family="Verdana" font-size="32.0" fill="#000000" transform="matrix(1.00, 0.00, -0.00, -1.00, 708.3, 299.0)">d</text><text xml:space="preserve" font-family="Verdana" font-size="32.0" fill="#000000" transform="matrix(1.00, 0.00, -0.00, -1.00, 728.2, 299.0)">I</text><text xml:space="preserve" font-family="Verdana" font-size="32.0" fill="#000000" transform="matrix(1.00, 0.00, -0.00, -1.00, 741.7, 299.0)">s</text><text xml:space="preserve" font-family="Verdana" font-size="32.0" fill="#000000" transform="matrix(1.00, 0.00, -0.00, -1.00, 758.4, 299.0)">V</text><text xml:space="preserve" font-family="Verdana" font-size="32.0" fill="#000000" transform="matrix(1.00, 0.00, -0.00, -1.00, 778.7, 299.0)">a</text><text xml:space="preserve" font-family="Verdana" font-size="32.0" fill="#000000" transform="matrix(1.00, 0.00, -0.00, -1.00, 797.9, 299.0)">l</text><text xml:space="preserve" font-family="Verdana" font-size="32.0" fill="#000000" transform="matrix(1.00, 0.00, -0.00, -1.00, 806.7, 299.0)">i</text><text xml:space="preserve" font-family="Verdana" font-size="32.0" fill="#000000" transform="matrix(1.00, 0.00, -0.00, -1.00, 815.5, 299.0)">d</text><text xml:space="preserve" font-family="Verdana" font-size="32.0" fill="#000000" transform="matrix(1.00, 0.00, -0.00, -1.00, 633.0, 173.0)">-</text><text xml:space="preserve" font-family="Verdana" font-size="32.0" fill="#000000" transform="matrix(1.00, 0.00, -0.00, -1.00, 647.5, 173.0)"> </text><text xml:space="preserve" font-family="Verdana" font-size="32.0" fill="#000000" transform="matrix(1.00, 0.00, -0.00, -1.00, 658.8, 173.0)">l</text><text xml:space="preserve" font-family="Verdana" font-size="32.0" fill="#000000" transform="matrix(1.00, 0.00, -0.00, -1.00, 667.6, 173.0)">o</text><text xml:space="preserve" font-family="Verdana" font-size="32.0" fill="#000000" transform="matrix(1.00, 0.00, -0.00, -1.00, 687.0, 173.0)">a</text><text xml:space="preserve" font-family="Verdana" font-size="32.0" fill="#000000" transform="matrix(1.00, 0.00, -0.00, -1.00, 706.2, 173.0)">d</text><text xml:space="preserve" font-family="Verdana" font-size="32.0" fill="#000000" transform="matrix(1.00, 0.00, -0.00, -1.00, 726.1, 173.0)">i</text><text xml:space="preserve" font-family="Verdana" font-size="32.0" fill="#000000" transform="matrix(1.00, 0.00, -0.00, -1.00, 734.9, 173.0)">n</text><text xml:space="preserve" font-family="Verdana" font-size="32.0" fill="#000000" transform="matrix(1.00, 0.00, -0.00, -1.00, 755.2, 173.0)">g</text><text xml:space="preserve" font-family="Verdana" font-size="32.0" fill="#000000" transform="matrix(1.00, 0.00, -0.00, -1.00, 775.1, 173.0)">A</text><text xml:space="preserve" font-family="Verdana" font-size="32.0" fill="#000000" transform="matrix(1.00, 0.00, -0.00, -1.00, 797.0, 173.0)">c</text><text xml:space="preserve" font-family="Verdana" font-size="32.0" fill="#000000" transform="matrix(1.00, 0.00, -0.00, -1.00, 813.6, 173.0)">c</text><text xml:space="preserve" font-family="Verdana" font-size="32.0" fill="#000000" transform="matrix(1.00, 0.00, -0.00, -1.00, 830.3, 173.0)">o</text><text xml:space="preserve" font-family="Verdana" font-size="32.0" fill="#000000" transform="matrix(1.00, 0.00, -0.00, -1.00, 849.7, 173.0)">u</text><text xml:space="preserve" font-family="Verdana" font-size="32.0" fill="#000000" transform="matrix(1.00, 0.00, -0.00, -1.00, 870.0, 173.0)">n</text><text xml:space="preserve" font-family="Verdana" font-size="32.0" fill="#000000" transform="matrix(1.00, 0.00, -0.00, -1.00, 890.2, 173.0)">t</text><text xml:space="preserve" font-family="Verdana" font-size="32.0" fill="#000000" transform="matrix(1.00, 0.00, -0.00, -1.00, 633.0, 123.0)">-</text><text xml:space="preserve" font-family="Verdana" font-size="32.0" fill="#000000" transform="matrix(1.00, 0.00, -0.00, -1.00, 647.5, 123.0)"> </text><text xml:space="preserve" font-family="Verdana" font-size="32.0" fill="#000000" transform="matrix(1.00, 0.00, -0.00, -1.00, 658.8, 123.0)">a</text><text xml:space="preserve" font-family="Verdana" font-size="32.0" fill="#000000" transform="matrix(1.00, 0.00, -0.00, -1.00, 678.0, 123.0)">c</text><text xml:space="preserve" font-family="Verdana" font-size="32.0" fill="#000000" transform="matrix(1.00, 0.00, -0.00, -1.00, 694.6, 123.0)">c</text><text xml:space="preserve" font-family="Verdana" font-size="32.0" fill="#000000" transform="matrix(1.00, 0.00, -0.00, -1.00, 711.3, 123.0)">o</text><text xml:space="preserve" font-family="Verdana" font-size="32.0" fill="#000000" transform="matrix(1.00, 0.00, -0.00, -1.00, 730.7, 123.0)">u</text><text xml:space="preserve" font-family="Verdana" font-size="32.0" fill="#000000" transform="matrix(1.00, 0.00, -0.00, -1.00, 751.0, 123.0)">n</text><text xml:space="preserve" font-family="Verdana" font-size="32.0" fill="#000000" transform="matrix(1.00, 0.00, -0.00, -1.00, 771.2, 123.0)">t</text><text xml:space="preserve" font-family="Verdana" font-size="32.0" fill="#000000" transform="matrix(1.00, 0.00, -0.00, -1.00, 783.8, 123.0)">L</text><text xml:space="preserve" font-family="Verdana" font-size="32.0" fill="#000000" transform="matrix(1.00, 0.00, -0.00, -1.00, 801.6, 123.0)">o</text><text xml:space="preserve" font-family="Verdana" font-size="32.0" fill="#000000" transform="matrix(1.00, 0.00, -0.00, -1.00, 821.1, 123.0)">a</text><text xml:space="preserve" font-family="Verdana" font-size="32.0" fill="#000000" transform="matrix(1.00, 0.00, -0.00, -1.00, 840.3, 123.0)">d</text><text xml:space="preserve" font-family="Verdana" font-size="32.0" fill="#000000" transform="matrix(1.00, 0.00, -0.00, -1.00, 860.2, 123.0)">e</text><text xml:space="preserve" font-family="Verdana" font-size="32.0" fill="#000000" transform="matrix(1.00, 0.00, -0.00, -1.00, 879.3, 123.0)">d</text><text xml:space="preserve" font-family="Verdana" font-size="32.0" fill="#000000" transform="matrix(1.00, 0.00, -0.00, -1.00, 635.0, 76.0)">-</text><text xml:space="preserve" font-family="Verdana" font-size="32.0" fill="#000000" transform="matrix(1.00, 0.00, -0.00, -1.00, 649.5, 76.0)"> </text><text xml:space="preserve" font-family="Verdana" font-size="32.0" fill="#000000" transform="matrix(1.00, 0.00, -0.00, -1.00, 660.8, 76.0)">w</text><text xml:space="preserve" font-family="Verdana" font-size="32.0" fill="#000000" transform="matrix(1.00, 0.00, -0.00, -1.00, 686.7, 76.0)">a</text><text xml:space="preserve" font-family="Verdana" font-size="32.0" fill="#000000" transform="matrix(1.00, 0.00, -0.00, -1.00, 705.9, 76.0)">i</text><text xml:space="preserve" font-family="Verdana" font-size="32.0" fill="#000000" transform="matrix(1.00, 0.00, -0.00, -1.00, 714.7, 76.0)">t</text><text xml:space="preserve" font-family="Verdana" font-size="32.0" fill="#000000" transform="matrix(1.00, 0.00, -0.00, -1.00, 727.3, 76.0)">i</text><text xml:space="preserve" font-family="Verdana" font-size="32.0" fill="#000000" transform="matrix(1.00, 0.00, -0.00, -1.00, 736.1, 76.0)">n</text><text xml:space="preserve" font-family="Verdana" font-size="32.0" fill="#000000" transform="matrix(1.00, 0.00, -0.00, -1.00, 756.3, 76.0)">g</text><text xml:space="preserve" font-family="Verdana" font-size="32.0" fill="#000000" transform="matrix(1.00, 0.00, -0.00, -1.00, 776.2, 76.0)">F</text><text xml:space="preserve" font-family="Verdana" font-size="32.0" fill="#000000" transform="matrix(1.00, 0.00, -0.00, -1.00, 793.8, 76.0)">o</text><text xml:space="preserve" font-family="Verdana" font-size="32.0" fill="#000000" transform="matrix(1.00, 0.00, -0.00, -1.00, 813.3, 76.0)">r</text><text xml:space="preserve" font-family="Verdana" font-size="32.0" fill="#000000" transform="matrix(1.00, 0.00, -0.00, -1.00, 826.9, 76.0)">P</text><text xml:space="preserve" font-family="Verdana" font-size="32.0" fill="#000000" transform="matrix(1.00, 0.00, -0.00, -1.00, 846.2, 76.0)">i</text><text xml:space="preserve" font-family="Verdana" font-size="32.0" fill="#000000" transform="matrix(1.00, 0.00, -0.00, -1.00, 855.0, 76.0)">n</text><text xml:space="preserve" font-family="Verdana-Bold" font-weight="bold" font-size="24.0" fill="#C97F2D" transform="matrix(1.00, 0.00, -0.00, -1.00, 631.2, 257.7)">-</text><text xml:space="preserve" font-family="Verdana" font-size="32.0" fill="#C97F2D" transform="matrix(1.00, 0.00, -0.00, -1.00, 662.0, 254.0)">s</text><text xml:space="preserve" font-family="Verdana" font-size="32.0" fill="#C97F2D" transform="matrix(1.00, 0.00, -0.00, -1.00, 678.7, 254.0)">h</text><text xml:space="preserve" font-family="Verdana" font-size="32.0" fill="#C97F2D" transform="matrix(1.00, 0.00, -0.00, -1.00, 698.9, 254.0)">o</text><text xml:space="preserve" font-family="Verdana" font-size="32.0" fill="#C97F2D" transform="matrix(1.00, 0.00, -0.00, -1.00, 718.3, 254.0)">w</text><text xml:space="preserve" font-family="Verdana" font-size="32.0" fill="#C97F2D" transform="matrix(1.00, 0.00, -0.00, -1.00, 744.5, 254.0)">A</text><text xml:space="preserve" font-family="Verdana" font-size="32.0" fill="#C97F2D" transform="matrix(1.00, 0.00, -0.00, -1.00, 766.4, 254.0)">d</text><text xml:space="preserve" font-family="Verdana" font-size="32.0" fill="#C97F2D" transform="matrix(1.00, 0.00, -0.00, -1.00, 786.3, 254.0)"> </text><text xml:space="preserve" font-family="Verdana" font-size="32.0" fill="#C97F2D" transform="matrix(1.00, 0.00, -0.00, -1.00, 797.6, 254.0)"> </text><text xml:space="preserve" font-family="Verdana-Bold" font-weight="bold" font-size="24.0" fill="#C97F2D" transform="matrix(1.00, 0.00, -0.00, -1.00, 631.2, 218.7)">-</text><text xml:space="preserve" font-family="Verdana" font-size="32.0" fill="#C97F2D" transform="matrix(1.00, 0.00, -0.00, -1.00, 662.0, 215.0)">a</text><text xml:space="preserve" font-family="Verdana" font-size="32.0" fill="#C97F2D" transform="matrix(1.00, 0.00, -0.00, -1.00, 681.2, 215.0)">d</text><text xml:space="preserve" font-family="Verdana" font-size="32.0" fill="#C97F2D" transform="matrix(1.00, 0.00, -0.00, -1.00, 701.1, 215.0)">S</text><text xml:space="preserve" font-family="Verdana" font-size="32.0" fill="#C97F2D" transform="matrix(1.00, 0.00, -0.00, -1.00, 723.0, 215.0)">h</text><text xml:space="preserve" font-family="Verdana" font-size="32.0" fill="#C97F2D" transform="matrix(1.00, 0.00, -0.00, -1.00, 743.2, 215.0)">o</text><text xml:space="preserve" font-family="Verdana" font-size="32.0" fill="#C97F2D" transform="matrix(1.00, 0.00, -0.00, -1.00, 762.7, 215.0)">w</text><text xml:space="preserve" font-family="Verdana" font-size="32.0" fill="#C97F2D" transform="matrix(1.00, 0.00, -0.00, -1.00, 788.9, 215.0)">n</text><image xlink:href="../../932358D8-109B-4CFA-A4EC-EFEB852560D7/assets/97FF1EF74B8DDDBED726A1FE086EE845.png" width="364.00" height="71.00" transform="matrix(1.00, 0.06, 0.06, -1.01, 328.4, 733.2)" opacity="0.50"></image><path d="M 357.1 731.9 L 663.3 749.5 C 670.1 749.9 673.5 750.1 677.2 749.1 C 681.2 747.9 684.5 745.0 686.2 741.1 C 687.6 737.5 687.8 734.1 688.2 727.3 L 689.0 713.0 C 689.4 706.2 689.6 702.8 688.6 699.1 C 687.4 695.0 684.5 691.7 680.6 690.1 C 677.0 688.7 673.6 688.5 666.7 688.1 L 360.7 670.5 C 353.9 670.1 350.5 669.9 346.8 670.9 C 342.8 672.1 339.5 675.0 337.8 678.9 C 336.4 682.5 336.2 685.9 335.8 692.8 L 335.0 707.1 C 334.6 713.8 334.4 717.2 335.4 720.9 C 336.6 725.0 339.5 728.3 343.4 729.9 C 347.0 731.3 350.4 731.5 357.3 731.9 Z M 357.1 731.9 " fill="#FFFFFF"></path><path d="M 23.5 0.0 L 330.2 0.0 C 336.9 0.0 340.4 0.0 344.0 1.2 C 348.0 2.6 351.1 5.7 352.6 9.7 C 353.7 13.4 353.7 16.8 353.7 23.6 L 353.7 38.0 C 353.7 44.7 353.7 48.1 352.6 51.8 C 351.1 55.7 348.0 58.9 344.0 60.3 C 340.4 61.5 336.9 61.5 330.1 61.5 L 23.5 61.5 C 16.8 61.5 13.4 61.5 9.7 60.3 C 5.7 58.9 2.6 55.7 1.2 51.8 C 0.0 48.1 0.0 44.7 0.0 37.9 L 0.0 23.5 C 0.0 16.8 0.0 13.4 1.2 9.7 C 2.6 5.7 5.7 2.6 9.7 1.2 C 13.4 0.0 16.8 0.0 23.6 0.0 Z M 23.5 0.0 " fill="none" stroke="#FF9500" stroke-width="4.00" transform="matrix(1.00, 0.06, 0.06, -1.00, 333.7, 730.5)"></path><g><clipPath id="clip-212"><path d="M 333.7 730.5 L 686.8 750.8 L 690.3 689.5 L 337.2 669.2 Z M 333.7 730.5 "></path></clipPath><g clip-path="url(#clip-212)"><text xml:space="preserve" font-family="Verdana-Bold" font-weight="bold" font-size="18.0" fill="#000000" transform="matrix(1.00, 0.06, 0.06, -1.00, 344.3, 704.5)">S</text><text xml:space="preserve" font-family="Verdana-Bold" font-weight="bold" font-size="18.0" fill="#000000" transform="matrix(1.00, 0.06, 0.06, -1.00, 357.1, 705.2)">h</text><text xml:space="preserve" font-family="Verdana-Bold" font-weight="bold" font-size="18.0" fill="#000000" transform="matrix(1.00, 0.06, 0.06, -1.00, 369.9, 706.0)">o</text><text xml:space="preserve" font-family="Verdana-Bold" font-weight="bold" font-size="18.0" fill="#000000" transform="matrix(1.00, 0.06, 0.06, -1.00, 382.2, 706.7)">w</text><text xml:space="preserve" font-family="Verdana-Bold" font-weight="bold" font-size="18.0" fill="#000000" transform="matrix(1.00, 0.06, 0.06, -1.00, 399.8, 707.7)"> </text><text xml:space="preserve" font-family="Verdana-Bold" font-weight="bold" font-size="18.0" fill="#000000" transform="matrix(1.00, 0.06, 0.06, -1.00, 406.0, 708.0)">a</text><text xml:space="preserve" font-family="Verdana-Bold" font-weight="bold" font-size="18.0" fill="#000000" transform="matrix(1.00, 0.06, 0.06, -1.00, 418.0, 708.7)">d</text><text xml:space="preserve" font-family="Verdana-Bold" font-weight="bold" font-size="18.0" fill="#000000" transform="matrix(1.00, 0.06, 0.06, -1.00, 430.5, 709.5)">v</text><text xml:space="preserve" font-family="Verdana-Bold" font-weight="bold" font-size="18.0" fill="#000000" transform="matrix(1.00, 0.06, 0.06, -1.00, 442.2, 710.1)">e</text><text xml:space="preserve" font-family="Verdana-Bold" font-weight="bold" font-size="18.0" fill="#000000" transform="matrix(1.00, 0.06, 0.06, -1.00, 454.1, 710.8)">r</text><text xml:space="preserve" font-family="Verdana-Bold" font-weight="bold" font-size="18.0" fill="#000000" transform="matrix(1.00, 0.06, 0.06, -1.00, 463.1, 711.3)">t</text><text xml:space="preserve" font-family="Verdana-Bold" font-weight="bold" font-size="18.0" fill="#000000" transform="matrix(1.00, 0.06, 0.06, -1.00, 471.3, 711.8)">i</text><text xml:space="preserve" font-family="Verdana-Bold" font-weight="bold" font-size="18.0" fill="#000000" transform="matrix(1.00, 0.06, 0.06, -1.00, 477.4, 712.2)">s</text><text xml:space="preserve" font-family="Verdana-Bold" font-weight="bold" font-size="18.0" fill="#000000" transform="matrix(1.00, 0.06, 0.06, -1.00, 488.1, 712.8)">e</text><text xml:space="preserve" font-family="Verdana-Bold" font-weight="bold" font-size="18.0" fill="#000000" transform="matrix(1.00, 0.06, 0.06, -1.00, 500.0, 713.5)">m</text><text xml:space="preserve" font-family="Verdana-Bold" font-weight="bold" font-size="18.0" fill="#000000" transform="matrix(1.00, 0.06, 0.06, -1.00, 519.0, 714.5)">e</text><text xml:space="preserve" font-family="Verdana-Bold" font-weight="bold" font-size="18.0" fill="#000000" transform="matrix(1.00, 0.06, 0.06, -1.00, 531.0, 715.2)">n</text><text xml:space="preserve" font-family="Verdana-Bold" font-weight="bold" font-size="18.0" fill="#000000" transform="matrix(1.00, 0.06, 0.06, -1.00, 543.8, 716.0)">t</text><text xml:space="preserve" font-family="Verdana-Bold" font-weight="bold" font-size="18.0" fill="#000000" transform="matrix(1.00, 0.06, 0.06, -1.00, 551.9, 716.4)"> </text><text xml:space="preserve" font-family="Verdana-Bold" font-weight="bold" font-size="18.0" fill="#000000" transform="matrix(1.00, 0.06, 0.06, -1.00, 558.1, 716.8)">b</text><text xml:space="preserve" font-family="Verdana-Bold" font-weight="bold" font-size="18.0" fill="#000000" transform="matrix(1.00, 0.06, 0.06, -1.00, 570.6, 717.5)">e</text><text xml:space="preserve" font-family="Verdana-Bold" font-weight="bold" font-size="18.0" fill="#000000" transform="matrix(1.00, 0.06, 0.06, -1.00, 582.6, 718.2)">f</text><text xml:space="preserve" font-family="Verdana-Bold" font-weight="bold" font-size="18.0" fill="#000000" transform="matrix(1.00, 0.06, 0.06, -1.00, 590.2, 718.6)">o</text><text xml:space="preserve" font-family="Verdana-Bold" font-weight="bold" font-size="18.0" fill="#000000" transform="matrix(1.00, 0.06, 0.06, -1.00, 602.5, 719.3)">r</text><text xml:space="preserve" font-family="Verdana-Bold" font-weight="bold" font-size="18.0" fill="#000000" transform="matrix(1.00, 0.06, 0.06, -1.00, 611.4, 719.9)">e</text><text xml:space="preserve" font-family="Verdana-Bold" font-weight="bold" font-size="18.0" fill="#000000" transform="matrix(1.00, 0.06, 0.06, -1.00, 623.4, 720.5)"> </text><text xml:space="preserve" font-family="Verdana-Bold" font-weight="bold" font-size="18.0" fill="#000000" transform="matrix(1.00, 0.06, 0.06, -1.00, 629.5, 720.9)">t</text><text xml:space="preserve" font-family="Verdana-Bold" font-weight="bold" font-size="18.0" fill="#000000" transform="matrix(1.00, 0.06, 0.06, -1.00, 637.7, 721.4)">h</text><text xml:space="preserve" font-family="Verdana-Bold" font-weight="bold" font-size="18.0" fill="#000000" transform="matrix(1.00, 0.06, 0.06, -1.00, 650.5, 722.1)">e</text><text xml:space="preserve" font-family="Verdana-Bold" font-weight="bold" font-size="18.0" fill="#000000" transform="matrix(1.00, 0.06, 0.06, -1.00, 662.4, 722.8)"> </text><text xml:space="preserve" font-family="Verdana-Bold" font-weight="bold" font-size="18.0" fill="#000000" transform="matrix(1.00, 0.06, 0.06, -1.00, 344.8, 682.5)">a</text><text xml:space="preserve" font-family="Verdana-Bold" font-weight="bold" font-size="18.0" fill="#000000" transform="matrix(1.00, 0.06, 0.06, -1.00, 356.9, 683.2)">c</text><text xml:space="preserve" font-family="Verdana-Bold" font-weight="bold" font-size="18.0" fill="#000000" transform="matrix(1.00, 0.06, 0.06, -1.00, 367.4, 683.8)">c</text><text xml:space="preserve" font-family="Verdana-Bold" font-weight="bold" font-size="18.0" fill="#000000" transform="matrix(1.00, 0.06, 0.06, -1.00, 378.0, 684.4)">o</text><text xml:space="preserve" font-family="Verdana-Bold" font-weight="bold" font-size="18.0" fill="#000000" transform="matrix(1.00, 0.06, 0.06, -1.00, 390.3, 685.1)">u</text><text xml:space="preserve" font-family="Verdana-Bold" font-weight="bold" font-size="18.0" fill="#000000" transform="matrix(1.00, 0.06, 0.06, -1.00, 403.2, 685.8)">n</text><text xml:space="preserve" font-family="Verdana-Bold" font-weight="bold" font-size="18.0" fill="#000000" transform="matrix(1.00, 0.06, 0.06, -1.00, 416.0, 686.6)">t</text><text xml:space="preserve" font-family="Verdana-Bold" font-weight="bold" font-size="18.0" fill="#000000" transform="matrix(1.00, 0.06, 0.06, -1.00, 424.1, 687.1)"> </text><text xml:space="preserve" font-family="Verdana-Bold" font-weight="bold" font-size="18.0" fill="#000000" transform="matrix(1.00, 0.06, 0.06, -1.00, 430.3, 687.4)">i</text><text xml:space="preserve" font-family="Verdana-Bold" font-weight="bold" font-size="18.0" fill="#000000" transform="matrix(1.00, 0.06, 0.06, -1.00, 436.4, 687.8)">s</text><text xml:space="preserve" font-family="Verdana-Bold" font-weight="bold" font-size="18.0" fill="#000000" transform="matrix(1.00, 0.06, 0.06, -1.00, 447.1, 688.4)"> </text><text xml:space="preserve" font-family="Verdana-Bold" font-weight="bold" font-size="18.0" fill="#000000" transform="matrix(1.00, 0.06, 0.06, -1.00, 453.2, 688.7)">l</text><text xml:space="preserve" font-family="Verdana-Bold" font-weight="bold" font-size="18.0" fill="#000000" transform="matrix(1.00, 0.06, 0.06, -1.00, 459.4, 689.1)">o</text><text xml:space="preserve" font-family="Verdana-Bold" font-weight="bold" font-size="18.0" fill="#000000" transform="matrix(1.00, 0.06, 0.06, -1.00, 471.7, 689.8)">a</text><text xml:space="preserve" font-family="Verdana-Bold" font-weight="bold" font-size="18.0" fill="#000000" transform="matrix(1.00, 0.06, 0.06, -1.00, 483.7, 690.5)">d</text><text xml:space="preserve" font-family="Verdana-Bold" font-weight="bold" font-size="18.0" fill="#000000" transform="matrix(1.00, 0.06, 0.06, -1.00, 496.3, 691.2)">e</text><text xml:space="preserve" font-family="Verdana-Bold" font-weight="bold" font-size="18.0" fill="#000000" transform="matrix(1.00, 0.06, 0.06, -1.00, 508.2, 691.9)">d</text></g></g><text xml:space="preserve" font-family="Verdana" font-size="28.0" fill="#2150FF" transform="matrix(1.00, 0.00, -0.00, -1.00, 692.0, 411.0)">W</text><text xml:space="preserve" font-family="Verdana" font-size="28.0" fill="#2150FF" transform="matrix(1.00, 0.00, -0.00, -1.00, 719.7, 411.0)">h</text><text xml:space="preserve" font-family="Verdana" font-size="28.0" fill="#2150FF" transform="matrix(1.00, 0.00, -0.00, -1.00, 737.4, 411.0)">a</text><text xml:space="preserve" font-family="Verdana" font-size="28.0" fill="#2150FF" transform="matrix(1.00, 0.00, -0.00, -1.00, 754.2, 411.0)">t</text><text xml:space="preserve" font-family="Verdana" font-size="28.0" fill="#2150FF" transform="matrix(1.00, 0.00, -0.00, -1.00, 765.2, 411.0)"> </text><text xml:space="preserve" font-family="Verdana" font-size="28.0" fill="#2150FF" transform="matrix(1.00, 0.00, -0.00, -1.00, 775.1, 411.0)">w</text><text xml:space="preserve" font-family="Verdana" font-size="28.0" fill="#2150FF" transform="matrix(1.00, 0.00, -0.00, -1.00, 798.0, 411.0)">e</text><text xml:space="preserve" font-family="Verdana" font-size="28.0" fill="#2150FF" transform="matrix(1.00, 0.00, -0.00, -1.00, 814.7, 411.0)"> </text><text xml:space="preserve" font-family="Verdana" font-size="28.0" fill="#2150FF" transform="matrix(1.00, 0.00, -0.00, -1.00, 824.5, 411.0)">w</text><text xml:space="preserve" font-family="Verdana" font-size="28.0" fill="#2150FF" transform="matrix(1.00, 0.00, -0.00, -1.00, 847.1, 411.0)">a</text><text xml:space="preserve" font-family="Verdana" font-size="28.0" fill="#2150FF" transform="matrix(1.00, 0.00, -0.00, -1.00, 863.9, 411.0)">n</text><text xml:space="preserve" font-family="Verdana" font-size="28.0" fill="#2150FF" transform="matrix(1.00, 0.00, -0.00, -1.00, 881.7, 411.0)">t</text><text xml:space="preserve" font-family="Verdana" font-size="28.0" fill="#2150FF" transform="matrix(1.00, 0.00, -0.00, -1.00, 115.0, 411.0)">W</text><text xml:space="preserve" font-family="Verdana" font-size="28.0" fill="#2150FF" transform="matrix(1.00, 0.00, -0.00, -1.00, 142.7, 411.0)">h</text><text xml:space="preserve" font-family="Verdana" font-size="28.0" fill="#2150FF" transform="matrix(1.00, 0.00, -0.00, -1.00, 160.4, 411.0)">a</text><text xml:space="preserve" font-family="Verdana" font-size="28.0" fill="#2150FF" transform="matrix(1.00, 0.00, -0.00, -1.00, 177.2, 411.0)">t</text><text xml:space="preserve" font-family="Verdana" font-size="28.0" fill="#2150FF" transform="matrix(1.00, 0.00, -0.00, -1.00, 188.2, 411.0)"> </text><text xml:space="preserve" font-family="Verdana" font-size="28.0" fill="#2150FF" transform="matrix(1.00, 0.00, -0.00, -1.00, 198.1, 411.0)">c</text><text xml:space="preserve" font-family="Verdana" font-size="28.0" fill="#2150FF" transform="matrix(1.00, 0.00, -0.00, -1.00, 212.7, 411.0)">u</text><text xml:space="preserve" font-family="Verdana" font-size="28.0" fill="#2150FF" transform="matrix(1.00, 0.00, -0.00, -1.00, 230.4, 411.0)">r</text><text xml:space="preserve" font-family="Verdana" font-size="28.0" fill="#2150FF" transform="matrix(1.00, 0.00, -0.00, -1.00, 242.3, 411.0)">r</text><text xml:space="preserve" font-family="Verdana" font-size="28.0" fill="#2150FF" transform="matrix(1.00, 0.00, -0.00, -1.00, 254.3, 411.0)">e</text><text xml:space="preserve" font-family="Verdana" font-size="28.0" fill="#2150FF" transform="matrix(1.00, 0.00, -0.00, -1.00, 270.9, 411.0)">n</text><text xml:space="preserve" font-family="Verdana" font-size="28.0" fill="#2150FF" transform="matrix(1.00, 0.00, -0.00, -1.00, 288.6, 411.0)">t</text><text xml:space="preserve" font-family="Verdana" font-size="28.0" fill="#2150FF" transform="matrix(1.00, 0.00, -0.00, -1.00, 299.7, 411.0)">l</text><text xml:space="preserve" font-family="Verdana" font-size="28.0" fill="#2150FF" transform="matrix(1.00, 0.00, -0.00, -1.00, 307.4, 411.0)">y</text><text xml:space="preserve" font-family="Verdana" font-size="28.0" fill="#2150FF" transform="matrix(1.00, 0.00, -0.00, -1.00, 323.9, 411.0)"> </text><text xml:space="preserve" font-family="Verdana" font-size="28.0" fill="#2150FF" transform="matrix(1.00, 0.00, -0.00, -1.00, 333.8, 411.0)">h</text><text xml:space="preserve" font-family="Verdana" font-size="28.0" fill="#2150FF" transform="matrix(1.00, 0.00, -0.00, -1.00, 351.5, 411.0)">a</text><text xml:space="preserve" font-family="Verdana" font-size="28.0" fill="#2150FF" transform="matrix(1.00, 0.00, -0.00, -1.00, 368.3, 411.0)">p</text><text xml:space="preserve" font-family="Verdana" font-size="28.0" fill="#2150FF" transform="matrix(1.00, 0.00, -0.00, -1.00, 385.7, 411.0)">p</text><text xml:space="preserve" font-family="Verdana" font-size="28.0" fill="#2150FF" transform="matrix(1.00, 0.00, -0.00, -1.00, 403.2, 411.0)">e</text><text xml:space="preserve" font-family="Verdana" font-size="28.0" fill="#2150FF" transform="matrix(1.00, 0.00, -0.00, -1.00, 419.8, 411.0)">n</text><text xml:space="preserve" font-family="Verdana" font-size="28.0" fill="#2150FF" transform="matrix(1.00, 0.00, -0.00, -1.00, 437.6, 411.0)">s</text><image xlink:href="../../83605C26-01C5-4B93-9452-379B2AD77C68/assets/77F16851A756DB8B7A51A09B437339C6.png" width="373.00" height="194.00" transform="matrix(1.00, 0.00, -0.00, -1.00, 92.5, 713.6)" opacity="0.50"></image><path d="M 120.5 711.1 L 437.6 711.1 C 444.4 711.1 447.8 711.1 451.4 710.0 C 455.4 708.5 458.6 705.4 460.0 701.4 C 461.2 697.8 461.2 694.3 461.2 687.5 L 461.2 549.3 C 461.2 542.5 461.2 539.1 460.0 535.5 C 458.6 531.5 455.4 528.4 451.4 526.9 C 447.8 525.8 444.4 525.8 437.5 525.8 L 120.5 525.8 C 113.8 525.8 110.4 525.8 106.7 526.9 C 102.8 528.4 99.6 531.5 98.2 535.5 C 97.0 539.1 97.0 542.5 97.0 549.4 L 97.0 687.6 C 97.0 694.3 97.0 697.8 98.2 701.4 C 99.6 705.4 102.8 708.5 106.7 710.0 C 110.4 711.1 113.8 711.1 120.6 711.1 Z M 120.5 711.1 " fill="#FFFFFF"></path><path d="M 23.5 0.0 L 340.6 0.0 C 347.4 0.0 350.8 0.0 354.4 1.2 C 358.4 2.6 361.5 5.7 363.0 9.7 C 364.1 13.4 364.1 16.8 364.1 23.6 L 364.1 161.8 C 364.1 168.6 364.1 172.0 363.0 175.6 C 361.5 179.6 358.4 182.8 354.4 184.2 C 350.8 185.4 347.4 185.4 340.5 185.4 L 23.5 185.4 C 16.8 185.4 13.4 185.4 9.7 184.2 C 5.7 182.8 2.6 179.6 1.2 175.6 C 0.0 172.0 0.0 168.6 0.0 161.7 L 0.0 23.5 C 0.0 16.8 0.0 13.4 1.2 9.7 C 2.6 5.7 5.7 2.6 9.7 1.2 C 13.4 0.0 16.8 0.0 23.6 0.0 Z M 23.5 0.0 " fill="none" stroke="#F09A36" stroke-width="3.00" transform="matrix(1.00, 0.00, 0.00, -1.00, 97.0, 711.1)"></path><g><clipPath id="clip-213"><path d="M 97.0 711.1 L 461.2 711.1 L 461.2 525.8 L 97.0 525.8 Z M 97.0 711.1 "></path></clipPath><g clip-path="url(#clip-213)"><text xml:space="preserve" font-family="Consolas" font-size="20.0" fill="#000000" transform="matrix(1.00, 0.00, -0.00, -1.00, 109.9, 690.7)">w</text><text xml:space="preserve" font-family="Consolas" font-size="20.0" fill="#000000" transform="matrix(1.00, 0.00, -0.00, -1.00, 120.9, 690.7)">h</text><text xml:space="preserve" font-family="Consolas" font-size="20.0" fill="#000000" transform="matrix(1.00, 0.00, -0.00, -1.00, 131.9, 690.7)">i</text><text xml:space="preserve" font-family="Consolas" font-size="20.0" fill="#000000" transform="matrix(1.00, 0.00, -0.00, -1.00, 142.9, 690.7)">l</text><text xml:space="preserve" font-family="Consolas" font-size="20.0" fill="#000000" transform="matrix(1.00, 0.00, -0.00, -1.00, 153.9, 690.7)">e</text><text xml:space="preserve" font-family="Consolas" font-size="20.0" fill="#000000" transform="matrix(1.00, 0.00, -0.00, -1.00, 164.9, 690.7)"> </text><text xml:space="preserve" font-family="Consolas" font-size="20.0" fill="#000000" transform="matrix(1.00, 0.00, -0.00, -1.00, 175.9, 690.7)">(</text><text xml:space="preserve" font-family="Consolas" font-size="20.0" fill="#000000" transform="matrix(1.00, 0.00, -0.00, -1.00, 186.9, 690.7)">t</text><text xml:space="preserve" font-family="Consolas" font-size="20.0" fill="#000000" transform="matrix(1.00, 0.00, -0.00, -1.00, 197.9, 690.7)">r</text><text xml:space="preserve" font-family="Consolas" font-size="20.0" fill="#000000" transform="matrix(1.00, 0.00, -0.00, -1.00, 208.9, 690.7)">u</text><text xml:space="preserve" font-family="Consolas" font-size="20.0" fill="#000000" transform="matrix(1.00, 0.00, -0.00, -1.00, 219.8, 690.7)">e</text><text xml:space="preserve" font-family="Consolas" font-size="20.0" fill="#000000" transform="matrix(1.00, 0.00, -0.00, -1.00, 230.8, 690.7)">)</text><text xml:space="preserve" font-family="Consolas" font-size="20.0" fill="#000000" transform="matrix(1.00, 0.00, -0.00, -1.00, 241.8, 690.7)"> </text><text xml:space="preserve" font-family="Consolas" font-size="20.0" fill="#000000" transform="matrix(1.00, 0.00, -0.00, -1.00, 252.8, 690.7)">{</text><text xml:space="preserve" font-family="Consolas" font-size="20.0" fill="#000000" transform="matrix(1.00, 0.00, -0.00, -1.00, 263.8, 690.7)"> </text><text xml:space="preserve" font-family="Consolas" font-size="20.0" fill="#000000" transform="matrix(1.00, 0.00, -0.00, -1.00, 102.5, 667.7)"> </text><text xml:space="preserve" font-family="Consolas" font-size="20.0" fill="#000000" transform="matrix(1.00, 0.00, -0.00, -1.00, 113.5, 667.7)"> </text><text xml:space="preserve" font-family="Consolas" font-size="20.0" fill="#000000" transform="matrix(1.00, 0.00, -0.00, -1.00, 124.5, 667.7)">y</text><text xml:space="preserve" font-family="Consolas" font-size="20.0" fill="#000000" transform="matrix(1.00, 0.00, -0.00, -1.00, 135.5, 667.7)">i</text><text xml:space="preserve" font-family="Consolas" font-size="20.0" fill="#000000" transform="matrix(1.00, 0.00, -0.00, -1.00, 146.5, 667.7)">e</text><text xml:space="preserve" font-family="Consolas" font-size="20.0" fill="#000000" transform="matrix(1.00, 0.00, -0.00, -1.00, 157.5, 667.7)">l</text><text xml:space="preserve" font-family="Consolas" font-size="20.0" fill="#000000" transform="matrix(1.00, 0.00, -0.00, -1.00, 168.5, 667.7)">d</text><text xml:space="preserve" font-family="Consolas" font-size="20.0" fill="#000000" transform="matrix(1.00, 0.00, -0.00, -1.00, 179.5, 667.7)"> </text><text xml:space="preserve" font-family="Consolas" font-size="20.0" fill="#000000" transform="matrix(1.00, 0.00, -0.00, -1.00, 190.5, 667.7)">{</text><text xml:space="preserve" font-family="Consolas" font-size="20.0" fill="#000000" transform="matrix(1.00, 0.00, -0.00, -1.00, 201.4, 667.7)"> </text><text xml:space="preserve" font-family="Consolas" font-size="20.0" fill="#00872A" transform="matrix(1.00, 0.00, -0.00, -1.00, 212.5, 667.7)">w</text><text xml:space="preserve" font-family="Consolas" font-size="20.0" fill="#00872A" transform="matrix(1.00, 0.00, -0.00, -1.00, 223.5, 667.7)">a</text><text xml:space="preserve" font-family="Consolas" font-size="20.0" fill="#00872A" transform="matrix(1.00, 0.00, -0.00, -1.00, 234.5, 667.7)">i</text><text xml:space="preserve" font-family="Consolas" font-size="20.0" fill="#00872A" transform="matrix(1.00, 0.00, -0.00, -1.00, 245.5, 667.7)">t</text><text xml:space="preserve" font-family="Consolas" font-size="20.0" fill="#000000" transform="matrix(1.00, 0.00, -0.00, -1.00, 256.5, 667.7)">:</text><text xml:space="preserve" font-family="Consolas" font-size="20.0" fill="#000000" transform="matrix(1.00, 0.00, -0.00, -1.00, 267.5, 667.7)"> </text><text xml:space="preserve" font-family="Consolas" font-size="20.0" fill="#000000" transform="matrix(1.00, 0.00, -0.00, -1.00, 278.4, 667.7)">'</text><text xml:space="preserve" font-family="Consolas" font-size="20.0" fill="#000000" transform="matrix(1.00, 0.00, -0.00, -1.00, 289.4, 667.7)">c</text><text xml:space="preserve" font-family="Consolas" font-size="20.0" fill="#000000" transform="matrix(1.00, 0.00, -0.00, -1.00, 300.4, 667.7)">a</text><text xml:space="preserve" font-family="Consolas" font-size="20.0" fill="#000000" transform="matrix(1.00, 0.00, -0.00, -1.00, 311.4, 667.7)">r</text><text xml:space="preserve" font-family="Consolas" font-size="20.0" fill="#000000" transform="matrix(1.00, 0.00, -0.00, -1.00, 322.4, 667.7)">d</text><text xml:space="preserve" font-family="Consolas" font-size="20.0" fill="#000000" transform="matrix(1.00, 0.00, -0.00, -1.00, 333.4, 667.7)">I</text><text xml:space="preserve" font-family="Consolas" font-size="20.0" fill="#000000" transform="matrix(1.00, 0.00, -0.00, -1.00, 344.4, 667.7)">s</text><text xml:space="preserve" font-family="Consolas" font-size="20.0" fill="#000000" transform="matrix(1.00, 0.00, -0.00, -1.00, 355.4, 667.7)">V</text><text xml:space="preserve" font-family="Consolas" font-size="20.0" fill="#000000" transform="matrix(1.00, 0.00, -0.00, -1.00, 366.4, 667.7)">a</text><text xml:space="preserve" font-family="Consolas" font-size="20.0" fill="#000000" transform="matrix(1.00, 0.00, -0.00, -1.00, 377.4, 667.7)">l</text><text xml:space="preserve" font-family="Consolas" font-size="20.0" fill="#000000" transform="matrix(1.00, 0.00, -0.00, -1.00, 388.4, 667.7)">i</text><text xml:space="preserve" font-family="Consolas" font-size="20.0" fill="#000000" transform="matrix(1.00, 0.00, -0.00, -1.00, 399.4, 667.7)">d</text><text xml:space="preserve" font-family="Consolas" font-size="20.0" fill="#000000" transform="matrix(1.00, 0.00, -0.00, -1.00, 410.4, 667.7)">'</text><text xml:space="preserve" font-family="Consolas" font-size="20.0" fill="#000000" transform="matrix(1.00, 0.00, -0.00, -1.00, 421.3, 667.7)"> </text><text xml:space="preserve" font-family="Consolas" font-size="20.0" fill="#000000" transform="matrix(1.00, 0.00, -0.00, -1.00, 432.4, 667.7)">}</text><text xml:space="preserve" font-family="Consolas" font-size="20.0" fill="#000000" transform="matrix(1.00, 0.00, -0.00, -1.00, 443.4, 667.7)"> </text><text xml:space="preserve" font-family="Consolas" font-size="20.0" fill="#000000" transform="matrix(1.00, 0.00, -0.00, -1.00, 102.5, 644.7)"> </text><text xml:space="preserve" font-family="Consolas" font-size="20.0" fill="#000000" transform="matrix(1.00, 0.00, -0.00, -1.00, 113.5, 644.7)"> </text><text xml:space="preserve" font-family="Consolas" font-size="20.0" fill="#000000" transform="matrix(1.00, 0.00, -0.00, -1.00, 124.5, 644.7)">y</text><text xml:space="preserve" font-family="Consolas" font-size="20.0" fill="#000000" transform="matrix(1.00, 0.00, -0.00, -1.00, 135.5, 644.7)">i</text><text xml:space="preserve" font-family="Consolas" font-size="20.0" fill="#000000" transform="matrix(1.00, 0.00, -0.00, -1.00, 146.5, 644.7)">e</text><text xml:space="preserve" font-family="Consolas" font-size="20.0" fill="#000000" transform="matrix(1.00, 0.00, -0.00, -1.00, 157.5, 644.7)">l</text><text xml:space="preserve" font-family="Consolas" font-size="20.0" fill="#000000" transform="matrix(1.00, 0.00, -0.00, -1.00, 168.5, 644.7)">d</text><text xml:space="preserve" font-family="Consolas" font-size="20.0" fill="#000000" transform="matrix(1.00, 0.00, -0.00, -1.00, 179.5, 644.7)"> </text><text xml:space="preserve" font-family="Consolas" font-size="20.0" fill="#000000" transform="matrix(1.00, 0.00, -0.00, -1.00, 190.5, 644.7)">{</text><text xml:space="preserve" font-family="Consolas" font-size="20.0" fill="#000000" transform="matrix(1.00, 0.00, -0.00, -1.00, 201.4, 644.7)"> </text><text xml:space="preserve" font-family="Consolas" font-size="20.0" fill="#000000" transform="matrix(1.00, 0.00, -0.00, -1.00, 102.5, 621.7)"> </text><text xml:space="preserve" font-family="Consolas" font-size="20.0" fill="#000000" transform="matrix(1.00, 0.00, -0.00, -1.00, 113.5, 621.7)"> </text><text xml:space="preserve" font-family="Consolas" font-size="20.0" fill="#000000" transform="matrix(1.00, 0.00, -0.00, -1.00, 124.5, 621.7)"> </text><text xml:space="preserve" font-family="Consolas" font-size="20.0" fill="#000000" transform="matrix(1.00, 0.00, -0.00, -1.00, 135.5, 621.7)"> </text><text xml:space="preserve" font-family="Consolas" font-size="20.0" fill="#00872A" transform="matrix(1.00, 0.00, -0.00, -1.00, 146.5, 621.7)">w</text><text xml:space="preserve" font-family="Consolas" font-size="20.0" fill="#00872A" transform="matrix(1.00, 0.00, -0.00, -1.00, 157.5, 621.7)">a</text><text xml:space="preserve" font-family="Consolas" font-size="20.0" fill="#00872A" transform="matrix(1.00, 0.00, -0.00, -1.00, 168.5, 621.7)">i</text><text xml:space="preserve" font-family="Consolas" font-size="20.0" fill="#00872A" transform="matrix(1.00, 0.00, -0.00, -1.00, 179.5, 621.7)">t</text><text xml:space="preserve" font-family="Consolas" font-size="20.0" fill="#000000" transform="matrix(1.00, 0.00, -0.00, -1.00, 190.5, 621.7)">:</text><text xml:space="preserve" font-family="Consolas" font-size="20.0" fill="#000000" transform="matrix(1.00, 0.00, -0.00, -1.00, 201.5, 621.7)"> </text><text xml:space="preserve" font-family="Consolas" font-size="20.0" fill="#000000" transform="matrix(1.00, 0.00, -0.00, -1.00, 212.5, 621.7)">'</text><text xml:space="preserve" font-family="Consolas" font-size="20.0" fill="#000000" transform="matrix(1.00, 0.00, -0.00, -1.00, 223.5, 621.7)">a</text><text xml:space="preserve" font-family="Consolas" font-size="20.0" fill="#000000" transform="matrix(1.00, 0.00, -0.00, -1.00, 234.5, 621.7)">d</text><text xml:space="preserve" font-family="Consolas" font-size="20.0" fill="#000000" transform="matrix(1.00, 0.00, -0.00, -1.00, 245.4, 621.7)">S</text><text xml:space="preserve" font-family="Consolas" font-size="20.0" fill="#000000" transform="matrix(1.00, 0.00, -0.00, -1.00, 256.4, 621.7)">h</text><text xml:space="preserve" font-family="Consolas" font-size="20.0" fill="#000000" transform="matrix(1.00, 0.00, -0.00, -1.00, 267.4, 621.7)">o</text><text xml:space="preserve" font-family="Consolas" font-size="20.0" fill="#000000" transform="matrix(1.00, 0.00, -0.00, -1.00, 278.4, 621.7)">w</text><text xml:space="preserve" font-family="Consolas" font-size="20.0" fill="#000000" transform="matrix(1.00, 0.00, -0.00, -1.00, 289.4, 621.7)">n</text><text xml:space="preserve" font-family="Consolas" font-size="20.0" fill="#000000" transform="matrix(1.00, 0.00, -0.00, -1.00, 300.4, 621.7)">'</text><text xml:space="preserve" font-family="Consolas" font-size="20.0" fill="#000000" transform="matrix(1.00, 0.00, -0.00, -1.00, 311.4, 621.7)">,</text><text xml:space="preserve" font-family="Consolas" font-size="20.0" fill="#000000" transform="matrix(1.00, 0.00, -0.00, -1.00, 322.4, 621.7)"> </text><text xml:space="preserve" font-family="Consolas" font-size="20.0" fill="#000000" transform="matrix(1.00, 0.00, -0.00, -1.00, 102.5, 598.7)"> </text><text xml:space="preserve" font-family="Consolas" font-size="20.0" fill="#000000" transform="matrix(1.00, 0.00, -0.00, -1.00, 113.5, 598.7)"> </text><text xml:space="preserve" font-family="Consolas" font-size="20.0" fill="#000000" transform="matrix(1.00, 0.00, -0.00, -1.00, 124.5, 598.7)"> </text><text xml:space="preserve" font-family="Consolas" font-size="20.0" fill="#000000" transform="matrix(1.00, 0.00, -0.00, -1.00, 135.5, 598.7)"> </text><text xml:space="preserve" font-family="Consolas" font-size="20.0" fill="#FF4C41" transform="matrix(1.00, 0.00, -0.00, -1.00, 146.5, 598.7)">b</text><text xml:space="preserve" font-family="Consolas" font-size="20.0" fill="#FF4C41" transform="matrix(1.00, 0.00, -0.00, -1.00, 157.5, 598.7)">l</text><text xml:space="preserve" font-family="Consolas" font-size="20.0" fill="#FF4C41" transform="matrix(1.00, 0.00, -0.00, -1.00, 168.5, 598.7)">o</text><text xml:space="preserve" font-family="Consolas" font-size="20.0" fill="#FF4C41" transform="matrix(1.00, 0.00, -0.00, -1.00, 179.5, 598.7)">c</text><text xml:space="preserve" font-family="Consolas" font-size="20.0" fill="#FF4C41" transform="matrix(1.00, 0.00, -0.00, -1.00, 190.5, 598.7)">k</text><text xml:space="preserve" font-family="Consolas" font-size="20.0" fill="#000000" transform="matrix(1.00, 0.00, -0.00, -1.00, 201.5, 598.7)">:</text><text xml:space="preserve" font-family="Consolas" font-size="20.0" fill="#000000" transform="matrix(1.00, 0.00, -0.00, -1.00, 212.5, 598.7)"> </text><text xml:space="preserve" font-family="Consolas" font-size="20.0" fill="#000000" transform="matrix(1.00, 0.00, -0.00, -1.00, 223.5, 598.7)">'</text><text xml:space="preserve" font-family="Consolas" font-size="20.0" fill="#000000" transform="matrix(1.00, 0.00, -0.00, -1.00, 234.5, 598.7)">l</text><text xml:space="preserve" font-family="Consolas" font-size="20.0" fill="#000000" transform="matrix(1.00, 0.00, -0.00, -1.00, 245.4, 598.7)">o</text><text xml:space="preserve" font-family="Consolas" font-size="20.0" fill="#000000" transform="matrix(1.00, 0.00, -0.00, -1.00, 256.4, 598.7)">a</text><text xml:space="preserve" font-family="Consolas" font-size="20.0" fill="#000000" transform="matrix(1.00, 0.00, -0.00, -1.00, 267.4, 598.7)">d</text><text xml:space="preserve" font-family="Consolas" font-size="20.0" fill="#000000" transform="matrix(1.00, 0.00, -0.00, -1.00, 278.4, 598.7)">i</text><text xml:space="preserve" font-family="Consolas" font-size="20.0" fill="#000000" transform="matrix(1.00, 0.00, -0.00, -1.00, 289.4, 598.7)">n</text><text xml:space="preserve" font-family="Consolas" font-size="20.0" fill="#000000" transform="matrix(1.00, 0.00, -0.00, -1.00, 300.4, 598.7)">g</text><text xml:space="preserve" font-family="Consolas" font-size="20.0" fill="#000000" transform="matrix(1.00, 0.00, -0.00, -1.00, 311.4, 598.7)">A</text><text xml:space="preserve" font-family="Consolas" font-size="20.0" fill="#000000" transform="matrix(1.00, 0.00, -0.00, -1.00, 322.4, 598.7)">c</text><text xml:space="preserve" font-family="Consolas" font-size="20.0" fill="#000000" transform="matrix(1.00, 0.00, -0.00, -1.00, 333.4, 598.7)">c</text><text xml:space="preserve" font-family="Consolas" font-size="20.0" fill="#000000" transform="matrix(1.00, 0.00, -0.00, -1.00, 344.4, 598.7)">o</text><text xml:space="preserve" font-family="Consolas" font-size="20.0" fill="#000000" transform="matrix(1.00, 0.00, -0.00, -1.00, 355.4, 598.7)">u</text><text xml:space="preserve" font-family="Consolas" font-size="20.0" fill="#000000" transform="matrix(1.00, 0.00, -0.00, -1.00, 366.4, 598.7)">n</text><text xml:space="preserve" font-family="Consolas" font-size="20.0" fill="#000000" transform="matrix(1.00, 0.00, -0.00, -1.00, 377.4, 598.7)">t</text><text xml:space="preserve" font-family="Consolas" font-size="20.0" fill="#000000" transform="matrix(1.00, 0.00, -0.00, -1.00, 388.4, 598.7)">'</text><text xml:space="preserve" font-family="Consolas" font-size="20.0" fill="#000000" transform="matrix(1.00, 0.00, -0.00, -1.00, 399.4, 598.7)"> </text><text xml:space="preserve" font-family="Consolas" font-size="20.0" fill="#000000" transform="matrix(1.00, 0.00, -0.00, -1.00, 102.5, 575.7)"> </text><text xml:space="preserve" font-family="Consolas" font-size="20.0" fill="#000000" transform="matrix(1.00, 0.00, -0.00, -1.00, 113.5, 575.7)"> </text><text xml:space="preserve" font-family="Consolas" font-size="20.0" fill="#000000" transform="matrix(1.00, 0.00, -0.00, -1.00, 124.5, 575.7)">}</text><text xml:space="preserve" font-family="Consolas" font-size="20.0" fill="#000000" transform="matrix(1.00, 0.00, -0.00, -1.00, 135.5, 575.7)"> </text><text xml:space="preserve" font-family="Consolas" font-size="20.0" fill="#000000" transform="matrix(1.00, 0.00, -0.00, -1.00, 102.5, 552.7)">}</text></g></g><image xlink:href="../../83605C26-01C5-4B93-9452-379B2AD77C68/assets/B493E41C90B15A4551C5EA416BC02B4D.png" width="489.00" height="169.00" transform="matrix(1.00, 0.00, -0.00, -1.00, 476.5, 712.0)" opacity="0.50"></image><path d="M 504.5 709.5 L 937.3 709.5 C 944.0 709.5 947.4 709.5 951.1 708.4 C 955.0 706.9 958.2 703.8 959.6 699.8 C 960.8 696.2 960.8 692.8 960.8 685.9 L 960.8 572.9 C 960.8 566.1 960.8 562.7 959.6 559.1 C 958.2 555.1 955.0 551.9 951.1 550.5 C 947.4 549.3 944.0 549.3 937.1 549.3 L 504.5 549.3 C 497.7 549.3 494.3 549.3 490.7 550.5 C 486.7 551.9 483.6 555.1 482.1 559.1 C 481.0 562.7 481.0 566.1 481.0 573.0 L 481.0 686.0 C 481.0 692.8 481.0 696.2 482.1 699.8 C 483.6 703.8 486.7 706.9 490.7 708.4 C 494.3 709.5 497.7 709.5 504.6 709.5 Z M 504.5 709.5 " fill="#FFFFFF"></path><path d="M 23.5 0.0 L 456.3 0.0 C 463.0 0.0 466.5 0.0 470.1 1.2 C 474.1 2.6 477.2 5.7 478.7 9.7 C 479.8 13.4 479.8 16.8 479.8 23.6 L 479.8 136.7 C 479.8 143.4 479.8 146.8 478.7 150.5 C 477.2 154.5 474.1 157.6 470.1 159.0 C 466.5 160.2 463.0 160.2 456.2 160.2 L 23.5 160.2 C 16.8 160.2 13.4 160.2 9.7 159.0 C 5.7 157.6 2.6 154.5 1.2 150.5 C 0.0 146.8 0.0 143.4 0.0 136.6 L 0.0 23.5 C 0.0 16.8 0.0 13.4 1.2 9.7 C 2.6 5.7 5.7 2.6 9.7 1.2 C 13.4 0.0 16.8 0.0 23.6 0.0 Z M 23.5 0.0 " fill="none" stroke="#F09A36" stroke-width="3.00" transform="matrix(1.00, 0.00, 0.00, -1.00, 481.0, 709.5)"></path><g><clipPath id="clip-214"><path d="M 481.0 709.5 L 960.8 709.5 L 960.8 549.3 L 481.0 549.3 Z M 481.0 709.5 "></path></clipPath><g clip-path="url(#clip-214)"><text xml:space="preserve" font-family="Consolas" font-size="20.0" fill="#000000" transform="matrix(1.00, 0.00, -0.00, -1.00, 493.9, 689.1)">w</text><text xml:space="preserve" font-family="Consolas" font-size="20.0" fill="#000000" transform="matrix(1.00, 0.00, -0.00, -1.00, 504.9, 689.1)">h</text><text xml:space="preserve" font-family="Consolas" font-size="20.0" fill="#000000" transform="matrix(1.00, 0.00, -0.00, -1.00, 515.9, 689.1)">i</text><text xml:space="preserve" font-family="Consolas" font-size="20.0" fill="#000000" transform="matrix(1.00, 0.00, -0.00, -1.00, 526.9, 689.1)">l</text><text xml:space="preserve" font-family="Consolas" font-size="20.0" fill="#000000" transform="matrix(1.00, 0.00, -0.00, -1.00, 537.8, 689.1)">e</text><text xml:space="preserve" font-family="Consolas" font-size="20.0" fill="#000000" transform="matrix(1.00, 0.00, -0.00, -1.00, 548.8, 689.1)"> </text><text xml:space="preserve" font-family="Consolas" font-size="20.0" fill="#000000" transform="matrix(1.00, 0.00, -0.00, -1.00, 559.8, 689.1)">(</text><text xml:space="preserve" font-family="Consolas" font-size="20.0" fill="#000000" transform="matrix(1.00, 0.00, -0.00, -1.00, 570.8, 689.1)">t</text><text xml:space="preserve" font-family="Consolas" font-size="20.0" fill="#000000" transform="matrix(1.00, 0.00, -0.00, -1.00, 581.8, 689.1)">r</text><text xml:space="preserve" font-family="Consolas" font-size="20.0" fill="#000000" transform="matrix(1.00, 0.00, -0.00, -1.00, 592.8, 689.1)">u</text><text xml:space="preserve" font-family="Consolas" font-size="20.0" fill="#000000" transform="matrix(1.00, 0.00, -0.00, -1.00, 603.8, 689.1)">e</text><text xml:space="preserve" font-family="Consolas" font-size="20.0" fill="#000000" transform="matrix(1.00, 0.00, -0.00, -1.00, 614.8, 689.1)">)</text><text xml:space="preserve" font-family="Consolas" font-size="20.0" fill="#000000" transform="matrix(1.00, 0.00, -0.00, -1.00, 625.8, 689.1)"> </text><text xml:space="preserve" font-family="Consolas" font-size="20.0" fill="#000000" transform="matrix(1.00, 0.00, -0.00, -1.00, 636.8, 689.1)">{</text><text xml:space="preserve" font-family="Consolas" font-size="20.0" fill="#000000" transform="matrix(1.00, 0.00, -0.00, -1.00, 647.8, 689.1)"> </text><text xml:space="preserve" font-family="Consolas" font-size="20.0" fill="#000000" transform="matrix(1.00, 0.00, -0.00, -1.00, 486.5, 666.1)"> </text><text xml:space="preserve" font-family="Consolas" font-size="20.0" fill="#000000" transform="matrix(1.00, 0.00, -0.00, -1.00, 497.5, 666.1)"> </text><text xml:space="preserve" font-family="Consolas" font-size="20.0" fill="#000000" transform="matrix(1.00, 0.00, -0.00, -1.00, 508.5, 666.1)">y</text><text xml:space="preserve" font-family="Consolas" font-size="20.0" fill="#000000" transform="matrix(1.00, 0.00, -0.00, -1.00, 519.4, 666.1)">i</text><text xml:space="preserve" font-family="Consolas" font-size="20.0" fill="#000000" transform="matrix(1.00, 0.00, -0.00, -1.00, 530.4, 666.1)">e</text><text xml:space="preserve" font-family="Consolas" font-size="20.0" fill="#000000" transform="matrix(1.00, 0.00, -0.00, -1.00, 541.4, 666.1)">l</text><text xml:space="preserve" font-family="Consolas" font-size="20.0" fill="#000000" transform="matrix(1.00, 0.00, -0.00, -1.00, 552.4, 666.1)">d</text><text xml:space="preserve" font-family="Consolas" font-size="20.0" fill="#000000" transform="matrix(1.00, 0.00, -0.00, -1.00, 563.4, 666.1)"> </text><text xml:space="preserve" font-family="Consolas" font-size="20.0" fill="#000000" transform="matrix(1.00, 0.00, -0.00, -1.00, 574.4, 666.1)">{</text><text xml:space="preserve" font-family="Consolas" font-size="20.0" fill="#000000" transform="matrix(1.00, 0.00, -0.00, -1.00, 585.4, 666.1)"> </text><text xml:space="preserve" font-family="Consolas" font-size="20.0" fill="#00872A" transform="matrix(1.00, 0.00, -0.00, -1.00, 596.4, 666.1)">w</text><text xml:space="preserve" font-family="Consolas" font-size="20.0" fill="#00872A" transform="matrix(1.00, 0.00, -0.00, -1.00, 607.4, 666.1)">a</text><text xml:space="preserve" font-family="Consolas" font-size="20.0" fill="#00872A" transform="matrix(1.00, 0.00, -0.00, -1.00, 618.4, 666.1)">i</text><text xml:space="preserve" font-family="Consolas" font-size="20.0" fill="#00872A" transform="matrix(1.00, 0.00, -0.00, -1.00, 629.4, 666.1)">t</text><text xml:space="preserve" font-family="Consolas" font-size="20.0" fill="#000000" transform="matrix(1.00, 0.00, -0.00, -1.00, 640.4, 666.1)">:</text><text xml:space="preserve" font-family="Consolas" font-size="20.0" fill="#000000" transform="matrix(1.00, 0.00, -0.00, -1.00, 651.4, 666.1)"> </text><text xml:space="preserve" font-family="Consolas" font-size="20.0" fill="#000000" transform="matrix(1.00, 0.00, -0.00, -1.00, 662.4, 666.1)">'</text><text xml:space="preserve" font-family="Consolas" font-size="20.0" fill="#000000" transform="matrix(1.00, 0.00, -0.00, -1.00, 673.4, 666.1)">c</text><text xml:space="preserve" font-family="Consolas" font-size="20.0" fill="#000000" transform="matrix(1.00, 0.00, -0.00, -1.00, 684.4, 666.1)">a</text><text xml:space="preserve" font-family="Consolas" font-size="20.0" fill="#000000" transform="matrix(1.00, 0.00, -0.00, -1.00, 695.4, 666.1)">r</text><text xml:space="preserve" font-family="Consolas" font-size="20.0" fill="#000000" transform="matrix(1.00, 0.00, -0.00, -1.00, 706.4, 666.1)">d</text><text xml:space="preserve" font-family="Consolas" font-size="20.0" fill="#000000" transform="matrix(1.00, 0.00, -0.00, -1.00, 717.4, 666.1)">I</text><text xml:space="preserve" font-family="Consolas" font-size="20.0" fill="#000000" transform="matrix(1.00, 0.00, -0.00, -1.00, 728.3, 666.1)">s</text><text xml:space="preserve" font-family="Consolas" font-size="20.0" fill="#000000" transform="matrix(1.00, 0.00, -0.00, -1.00, 739.3, 666.1)">V</text><text xml:space="preserve" font-family="Consolas" font-size="20.0" fill="#000000" transform="matrix(1.00, 0.00, -0.00, -1.00, 750.3, 666.1)">a</text><text xml:space="preserve" font-family="Consolas" font-size="20.0" fill="#000000" transform="matrix(1.00, 0.00, -0.00, -1.00, 761.3, 666.1)">l</text><text xml:space="preserve" font-family="Consolas" font-size="20.0" fill="#000000" transform="matrix(1.00, 0.00, -0.00, -1.00, 772.3, 666.1)">i</text><text xml:space="preserve" font-family="Consolas" font-size="20.0" fill="#000000" transform="matrix(1.00, 0.00, -0.00, -1.00, 783.3, 666.1)">d</text><text xml:space="preserve" font-family="Consolas" font-size="20.0" fill="#000000" transform="matrix(1.00, 0.00, -0.00, -1.00, 794.3, 666.1)">'</text><text xml:space="preserve" font-family="Consolas" font-size="20.0" fill="#000000" transform="matrix(1.00, 0.00, -0.00, -1.00, 805.3, 666.1)"> </text><text xml:space="preserve" font-family="Consolas" font-size="20.0" fill="#000000" transform="matrix(1.00, 0.00, -0.00, -1.00, 816.3, 666.1)">}</text><text xml:space="preserve" font-family="Consolas" font-size="20.0" fill="#000000" transform="matrix(1.00, 0.00, -0.00, -1.00, 827.3, 666.1)"> </text><text xml:space="preserve" font-family="Consolas" font-size="20.0" fill="#000000" transform="matrix(1.00, 0.00, -0.00, -1.00, 486.5, 643.1)"> </text><text xml:space="preserve" font-family="Consolas" font-size="20.0" fill="#000000" transform="matrix(1.00, 0.00, -0.00, -1.00, 497.5, 643.1)"> </text><text xml:space="preserve" font-family="Consolas" font-size="20.0" fill="#000000" transform="matrix(1.00, 0.00, -0.00, -1.00, 508.5, 643.1)">y</text><text xml:space="preserve" font-family="Consolas" font-size="20.0" fill="#000000" transform="matrix(1.00, 0.00, -0.00, -1.00, 519.4, 643.1)">i</text><text xml:space="preserve" font-family="Consolas" font-size="20.0" fill="#000000" transform="matrix(1.00, 0.00, -0.00, -1.00, 530.4, 643.1)">e</text><text xml:space="preserve" font-family="Consolas" font-size="20.0" fill="#000000" transform="matrix(1.00, 0.00, -0.00, -1.00, 541.4, 643.1)">l</text><text xml:space="preserve" font-family="Consolas" font-size="20.0" fill="#000000" transform="matrix(1.00, 0.00, -0.00, -1.00, 552.4, 643.1)">d</text><text xml:space="preserve" font-family="Consolas" font-size="20.0" fill="#000000" transform="matrix(1.00, 0.00, -0.00, -1.00, 563.4, 643.1)"> </text><text xml:space="preserve" font-family="Consolas" font-size="20.0" fill="#000000" transform="matrix(1.00, 0.00, -0.00, -1.00, 574.4, 643.1)">{</text><text xml:space="preserve" font-family="Consolas" font-size="20.0" fill="#000000" transform="matrix(1.00, 0.00, -0.00, -1.00, 585.4, 643.1)"> </text><text xml:space="preserve" font-family="Consolas" font-size="20.0" fill="#0264C0" transform="matrix(1.00, 0.00, -0.00, -1.00, 596.4, 643.1)">r</text><text xml:space="preserve" font-family="Consolas" font-size="20.0" fill="#0264C0" transform="matrix(1.00, 0.00, -0.00, -1.00, 607.4, 643.1)">e</text><text xml:space="preserve" font-family="Consolas" font-size="20.0" fill="#0264C0" transform="matrix(1.00, 0.00, -0.00, -1.00, 618.4, 643.1)">q</text><text xml:space="preserve" font-family="Consolas" font-size="20.0" fill="#0264C0" transform="matrix(1.00, 0.00, -0.00, -1.00, 629.4, 643.1)">u</text><text xml:space="preserve" font-family="Consolas" font-size="20.0" fill="#0264C0" transform="matrix(1.00, 0.00, -0.00, -1.00, 640.4, 643.1)">e</text><text xml:space="preserve" font-family="Consolas" font-size="20.0" fill="#0264C0" transform="matrix(1.00, 0.00, -0.00, -1.00, 651.4, 643.1)">s</text><text xml:space="preserve" font-family="Consolas" font-size="20.0" fill="#0264C0" transform="matrix(1.00, 0.00, -0.00, -1.00, 662.4, 643.1)">t</text><text xml:space="preserve" font-family="Consolas" font-size="20.0" fill="#000000" transform="matrix(1.00, 0.00, -0.00, -1.00, 673.4, 643.1)">:</text><text xml:space="preserve" font-family="Consolas" font-size="20.0" fill="#000000" transform="matrix(1.00, 0.00, -0.00, -1.00, 684.4, 643.1)"> </text><text xml:space="preserve" font-family="Consolas" font-size="20.0" fill="#000000" transform="matrix(1.00, 0.00, -0.00, -1.00, 695.4, 643.1)">'</text><text xml:space="preserve" font-family="Consolas" font-size="20.0" fill="#000000" transform="matrix(1.00, 0.00, -0.00, -1.00, 706.4, 643.1)">s</text><text xml:space="preserve" font-family="Consolas" font-size="20.0" fill="#000000" transform="matrix(1.00, 0.00, -0.00, -1.00, 717.4, 643.1)">h</text><text xml:space="preserve" font-family="Consolas" font-size="20.0" fill="#000000" transform="matrix(1.00, 0.00, -0.00, -1.00, 728.4, 643.1)">o</text><text xml:space="preserve" font-family="Consolas" font-size="20.0" fill="#000000" transform="matrix(1.00, 0.00, -0.00, -1.00, 739.4, 643.1)">w</text><text xml:space="preserve" font-family="Consolas" font-size="20.0" fill="#000000" transform="matrix(1.00, 0.00, -0.00, -1.00, 750.3, 643.1)">A</text><text xml:space="preserve" font-family="Consolas" font-size="20.0" fill="#000000" transform="matrix(1.00, 0.00, -0.00, -1.00, 761.3, 643.1)">d</text><text xml:space="preserve" font-family="Consolas" font-size="20.0" fill="#000000" transform="matrix(1.00, 0.00, -0.00, -1.00, 772.3, 643.1)">'</text><text xml:space="preserve" font-family="Consolas" font-size="20.0" fill="#000000" transform="matrix(1.00, 0.00, -0.00, -1.00, 783.3, 643.1)"> </text><text xml:space="preserve" font-family="Consolas" font-size="20.0" fill="#000000" transform="matrix(1.00, 0.00, -0.00, -1.00, 794.3, 643.1)">}</text><text xml:space="preserve" font-family="Consolas" font-size="20.0" fill="#000000" transform="matrix(1.00, 0.00, -0.00, -1.00, 805.4, 643.1)"> </text><text xml:space="preserve" font-family="Consolas" font-size="20.0" fill="#000000" transform="matrix(1.00, 0.00, -0.00, -1.00, 486.5, 620.1)"> </text><text xml:space="preserve" font-family="Consolas" font-size="20.0" fill="#000000" transform="matrix(1.00, 0.00, -0.00, -1.00, 497.5, 620.1)"> </text><text xml:space="preserve" font-family="Consolas" font-size="20.0" fill="#000000" transform="matrix(1.00, 0.00, -0.00, -1.00, 508.5, 620.1)">y</text><text xml:space="preserve" font-family="Consolas" font-size="20.0" fill="#000000" transform="matrix(1.00, 0.00, -0.00, -1.00, 519.4, 620.1)">i</text><text xml:space="preserve" font-family="Consolas" font-size="20.0" fill="#000000" transform="matrix(1.00, 0.00, -0.00, -1.00, 530.4, 620.1)">e</text><text xml:space="preserve" font-family="Consolas" font-size="20.0" fill="#000000" transform="matrix(1.00, 0.00, -0.00, -1.00, 541.4, 620.1)">l</text><text xml:space="preserve" font-family="Consolas" font-size="20.0" fill="#000000" transform="matrix(1.00, 0.00, -0.00, -1.00, 552.4, 620.1)">d</text><text xml:space="preserve" font-family="Consolas" font-size="20.0" fill="#000000" transform="matrix(1.00, 0.00, -0.00, -1.00, 563.4, 620.1)"> </text><text xml:space="preserve" font-family="Consolas" font-size="20.0" fill="#000000" transform="matrix(1.00, 0.00, -0.00, -1.00, 574.4, 620.1)">s</text><text xml:space="preserve" font-family="Consolas" font-size="20.0" fill="#000000" transform="matrix(1.00, 0.00, -0.00, -1.00, 585.4, 620.1)">h</text><text xml:space="preserve" font-family="Consolas" font-size="20.0" fill="#000000" transform="matrix(1.00, 0.00, -0.00, -1.00, 596.4, 620.1)">o</text><text xml:space="preserve" font-family="Consolas" font-size="20.0" fill="#000000" transform="matrix(1.00, 0.00, -0.00, -1.00, 607.4, 620.1)">w</text><text xml:space="preserve" font-family="Consolas" font-size="20.0" fill="#000000" transform="matrix(1.00, 0.00, -0.00, -1.00, 618.4, 620.1)">A</text><text xml:space="preserve" font-family="Consolas" font-size="20.0" fill="#000000" transform="matrix(1.00, 0.00, -0.00, -1.00, 629.4, 620.1)">d</text><text xml:space="preserve" font-family="Consolas" font-size="20.0" fill="#000000" transform="matrix(1.00, 0.00, -0.00, -1.00, 640.4, 620.1)">v</text><text xml:space="preserve" font-family="Consolas" font-size="20.0" fill="#000000" transform="matrix(1.00, 0.00, -0.00, -1.00, 651.3, 620.1)">e</text><text xml:space="preserve" font-family="Consolas" font-size="20.0" fill="#000000" transform="matrix(1.00, 0.00, -0.00, -1.00, 662.3, 620.1)">r</text><text xml:space="preserve" font-family="Consolas" font-size="20.0" fill="#000000" transform="matrix(1.00, 0.00, -0.00, -1.00, 673.3, 620.1)">t</text><text xml:space="preserve" font-family="Consolas" font-size="20.0" fill="#000000" transform="matrix(1.00, 0.00, -0.00, -1.00, 684.3, 620.1)">i</text><text xml:space="preserve" font-family="Consolas" font-size="20.0" fill="#000000" transform="matrix(1.00, 0.00, -0.00, -1.00, 695.3, 620.1)">s</text><text xml:space="preserve" font-family="Consolas" font-size="20.0" fill="#000000" transform="matrix(1.00, 0.00, -0.00, -1.00, 706.3, 620.1)">m</text><text xml:space="preserve" font-family="Consolas" font-size="20.0" fill="#000000" transform="matrix(1.00, 0.00, -0.00, -1.00, 717.3, 620.1)">e</text><text xml:space="preserve" font-family="Consolas" font-size="20.0" fill="#000000" transform="matrix(1.00, 0.00, -0.00, -1.00, 728.3, 620.1)">n</text><text xml:space="preserve" font-family="Consolas" font-size="20.0" fill="#000000" transform="matrix(1.00, 0.00, -0.00, -1.00, 739.3, 620.1)">t</text><text xml:space="preserve" font-family="Consolas" font-size="20.0" fill="#000000" transform="matrix(1.00, 0.00, -0.00, -1.00, 750.3, 620.1)">(</text><text xml:space="preserve" font-family="Consolas" font-size="20.0" fill="#000000" transform="matrix(1.00, 0.00, -0.00, -1.00, 761.3, 620.1)">)</text><text xml:space="preserve" font-family="Consolas" font-size="20.0" fill="#000000" transform="matrix(1.00, 0.00, -0.00, -1.00, 772.3, 620.1)"> </text><text xml:space="preserve" font-family="Consolas" font-size="20.0" fill="#000000" transform="matrix(1.00, 0.00, -0.00, -1.00, 486.5, 597.1)"> </text><text xml:space="preserve" font-family="Consolas" font-size="20.0" fill="#000000" transform="matrix(1.00, 0.00, -0.00, -1.00, 497.5, 597.1)"> </text><text xml:space="preserve" font-family="Consolas" font-size="20.0" fill="#000000" transform="matrix(1.00, 0.00, -0.00, -1.00, 508.5, 597.1)">y</text><text xml:space="preserve" font-family="Consolas" font-size="20.0" fill="#000000" transform="matrix(1.00, 0.00, -0.00, -1.00, 519.4, 597.1)">i</text><text xml:space="preserve" font-family="Consolas" font-size="20.0" fill="#000000" transform="matrix(1.00, 0.00, -0.00, -1.00, 530.4, 597.1)">e</text><text xml:space="preserve" font-family="Consolas" font-size="20.0" fill="#000000" transform="matrix(1.00, 0.00, -0.00, -1.00, 541.4, 597.1)">l</text><text xml:space="preserve" font-family="Consolas" font-size="20.0" fill="#000000" transform="matrix(1.00, 0.00, -0.00, -1.00, 552.4, 597.1)">d</text><text xml:space="preserve" font-family="Consolas" font-size="20.0" fill="#000000" transform="matrix(1.00, 0.00, -0.00, -1.00, 563.4, 597.1)"> </text><text xml:space="preserve" font-family="Consolas" font-size="20.0" fill="#000000" transform="matrix(1.00, 0.00, -0.00, -1.00, 574.4, 597.1)">{</text><text xml:space="preserve" font-family="Consolas" font-size="20.0" fill="#000000" transform="matrix(1.00, 0.00, -0.00, -1.00, 585.4, 597.1)"> </text><text xml:space="preserve" font-family="Consolas" font-size="20.0" fill="#0264C0" transform="matrix(1.00, 0.00, -0.00, -1.00, 596.4, 597.1)">r</text><text xml:space="preserve" font-family="Consolas" font-size="20.0" fill="#0264C0" transform="matrix(1.00, 0.00, -0.00, -1.00, 607.4, 597.1)">e</text><text xml:space="preserve" font-family="Consolas" font-size="20.0" fill="#0264C0" transform="matrix(1.00, 0.00, -0.00, -1.00, 618.4, 597.1)">q</text><text xml:space="preserve" font-family="Consolas" font-size="20.0" fill="#0264C0" transform="matrix(1.00, 0.00, -0.00, -1.00, 629.4, 597.1)">u</text><text xml:space="preserve" font-family="Consolas" font-size="20.0" fill="#0264C0" transform="matrix(1.00, 0.00, -0.00, -1.00, 640.4, 597.1)">e</text><text xml:space="preserve" font-family="Consolas" font-size="20.0" fill="#0264C0" transform="matrix(1.00, 0.00, -0.00, -1.00, 651.4, 597.1)">s</text><text xml:space="preserve" font-family="Consolas" font-size="20.0" fill="#0264C0" transform="matrix(1.00, 0.00, -0.00, -1.00, 662.4, 597.1)">t</text><text xml:space="preserve" font-family="Consolas" font-size="20.0" fill="#000000" transform="matrix(1.00, 0.00, -0.00, -1.00, 673.4, 597.1)">:</text><text xml:space="preserve" font-family="Consolas" font-size="20.0" fill="#000000" transform="matrix(1.00, 0.00, -0.00, -1.00, 684.4, 597.1)"> </text><text xml:space="preserve" font-family="Consolas" font-size="20.0" fill="#000000" transform="matrix(1.00, 0.00, -0.00, -1.00, 695.4, 597.1)">'</text><text xml:space="preserve" font-family="Consolas" font-size="20.0" fill="#000000" transform="matrix(1.00, 0.00, -0.00, -1.00, 706.4, 597.1)">a</text><text xml:space="preserve" font-family="Consolas" font-size="20.0" fill="#000000" transform="matrix(1.00, 0.00, -0.00, -1.00, 717.4, 597.1)">d</text><text xml:space="preserve" font-family="Consolas" font-size="20.0" fill="#000000" transform="matrix(1.00, 0.00, -0.00, -1.00, 728.4, 597.1)">S</text><text xml:space="preserve" font-family="Consolas" font-size="20.0" fill="#000000" transform="matrix(1.00, 0.00, -0.00, -1.00, 739.4, 597.1)">h</text><text xml:space="preserve" font-family="Consolas" font-size="20.0" fill="#000000" transform="matrix(1.00, 0.00, -0.00, -1.00, 750.3, 597.1)">o</text><text xml:space="preserve" font-family="Consolas" font-size="20.0" fill="#000000" transform="matrix(1.00, 0.00, -0.00, -1.00, 761.3, 597.1)">w</text><text xml:space="preserve" font-family="Consolas" font-size="20.0" fill="#000000" transform="matrix(1.00, 0.00, -0.00, -1.00, 772.3, 597.1)">n</text><text xml:space="preserve" font-family="Consolas" font-size="20.0" fill="#000000" transform="matrix(1.00, 0.00, -0.00, -1.00, 783.3, 597.1)">'</text><text xml:space="preserve" font-family="Consolas" font-size="20.0" fill="#000000" transform="matrix(1.00, 0.00, -0.00, -1.00, 794.3, 597.1)"> </text><text xml:space="preserve" font-family="Consolas" font-size="20.0" fill="#000000" transform="matrix(1.00, 0.00, -0.00, -1.00, 805.3, 597.1)">}</text><text xml:space="preserve" font-family="Consolas" font-size="20.0" fill="#000000" transform="matrix(1.00, 0.00, -0.00, -1.00, 816.3, 597.1)"> </text><text xml:space="preserve" font-family="Consolas" font-size="20.0" fill="#000000" transform="matrix(1.00, 0.00, -0.00, -1.00, 486.5, 574.1)">}</text></g></g><image xlink:href="../../83211B79-DDB6-4BB8-9155-F60170EA57B1/assets/1271E241B1BED0FBD577C1A8ACF92EA9.png" width="719.00" height="99.00" transform="matrix(1.00, 0.02, 0.02, -1.00, 116.0, 653.2)" opacity="0.50"></image><path d="M 0.0 84.9 L 326.4 91.7 L 386.9 0.0 L 716.5 6.6 " fill="none" stroke="#E5D20F" stroke-width="5.00" transform="matrix(1.00, 0.02, 0.02, -1.00, 117.1, 650.7)"></path><text xml:space="preserve" font-family="Verdana" font-size="32.0" fill="#000000" transform="matrix(1.00, 0.00, -0.00, -1.00, 121.0, 345.0)">-</text><text xml:space="preserve" font-family="Verdana" font-size="32.0" fill="#000000" transform="matrix(1.00, 0.00, -0.00, -1.00, 135.5, 345.0)"> </text><text xml:space="preserve" font-family="Verdana" font-size="32.0" fill="#000000" transform="matrix(1.00, 0.00, -0.00, -1.00, 146.8, 345.0)">c</text><text xml:space="preserve" font-family="Verdana" font-size="32.0" fill="#000000" transform="matrix(1.00, 0.00, -0.00, -1.00, 163.4, 345.0)">a</text><text xml:space="preserve" font-family="Verdana" font-size="32.0" fill="#000000" transform="matrix(1.00, 0.00, -0.00, -1.00, 182.6, 345.0)">r</text><text xml:space="preserve" font-family="Verdana" font-size="32.0" fill="#000000" transform="matrix(1.00, 0.00, -0.00, -1.00, 196.3, 345.0)">d</text><text xml:space="preserve" font-family="Verdana" font-size="32.0" fill="#000000" transform="matrix(1.00, 0.00, -0.00, -1.00, 216.2, 345.0)">I</text><text xml:space="preserve" font-family="Verdana" font-size="32.0" fill="#000000" transform="matrix(1.00, 0.00, -0.00, -1.00, 229.7, 345.0)">n</text><text xml:space="preserve" font-family="Verdana" font-size="32.0" fill="#000000" transform="matrix(1.00, 0.00, -0.00, -1.00, 249.9, 345.0)">s</text><text xml:space="preserve" font-family="Verdana" font-size="32.0" fill="#000000" transform="matrix(1.00, 0.00, -0.00, -1.00, 266.6, 345.0)">e</text><text xml:space="preserve" font-family="Verdana" font-size="32.0" fill="#000000" transform="matrix(1.00, 0.00, -0.00, -1.00, 285.7, 345.0)">r</text><text xml:space="preserve" font-family="Verdana" font-size="32.0" fill="#000000" transform="matrix(1.00, 0.00, -0.00, -1.00, 299.3, 345.0)">t</text><text xml:space="preserve" font-family="Verdana" font-size="32.0" fill="#000000" transform="matrix(1.00, 0.00, -0.00, -1.00, 311.9, 345.0)">e</text><text xml:space="preserve" font-family="Verdana" font-size="32.0" fill="#000000" transform="matrix(1.00, 0.00, -0.00, -1.00, 331.0, 345.0)">d</text><text xml:space="preserve" font-family="Verdana" font-size="32.0" fill="#000000" transform="matrix(1.00, 0.00, -0.00, -1.00, 121.0, 295.0)">-</text><text xml:space="preserve" font-family="Verdana" font-size="32.0" fill="#000000" transform="matrix(1.00, 0.00, -0.00, -1.00, 135.5, 295.0)"> </text><text xml:space="preserve" font-family="Verdana" font-size="32.0" fill="#000000" transform="matrix(1.00, 0.00, -0.00, -1.00, 146.8, 295.0)">c</text><text xml:space="preserve" font-family="Verdana" font-size="32.0" fill="#000000" transform="matrix(1.00, 0.00, -0.00, -1.00, 163.4, 295.0)">a</text><text xml:space="preserve" font-family="Verdana" font-size="32.0" fill="#000000" transform="matrix(1.00, 0.00, -0.00, -1.00, 182.6, 295.0)">r</text><text xml:space="preserve" font-family="Verdana" font-size="32.0" fill="#000000" transform="matrix(1.00, 0.00, -0.00, -1.00, 196.3, 295.0)">d</text><text xml:space="preserve" font-family="Verdana" font-size="32.0" fill="#000000" transform="matrix(1.00, 0.00, -0.00, -1.00, 216.2, 295.0)">I</text><text xml:space="preserve" font-family="Verdana" font-size="32.0" fill="#000000" transform="matrix(1.00, 0.00, -0.00, -1.00, 229.7, 295.0)">s</text><text xml:space="preserve" font-family="Verdana" font-size="32.0" fill="#000000" transform="matrix(1.00, 0.00, -0.00, -1.00, 246.4, 295.0)">V</text><text xml:space="preserve" font-family="Verdana" font-size="32.0" fill="#000000" transform="matrix(1.00, 0.00, -0.00, -1.00, 266.7, 295.0)">a</text><text xml:space="preserve" font-family="Verdana" font-size="32.0" fill="#000000" transform="matrix(1.00, 0.00, -0.00, -1.00, 285.9, 295.0)">l</text><text xml:space="preserve" font-family="Verdana" font-size="32.0" fill="#000000" transform="matrix(1.00, 0.00, -0.00, -1.00, 294.7, 295.0)">i</text><text xml:space="preserve" font-family="Verdana" font-size="32.0" fill="#000000" transform="matrix(1.00, 0.00, -0.00, -1.00, 303.5, 295.0)">d</text><text xml:space="preserve" font-family="Verdana-Bold" font-weight="bold" font-size="24.0" fill="#C97F2D" transform="matrix(1.00, 0.00, -0.00, -1.00, 123.9, 247.5)">-</text><text xml:space="preserve" font-family="Verdana" font-size="32.0" fill="#C97F2D" transform="matrix(1.00, 0.00, -0.00, -1.00, 155.0, 244.0)">s</text><text xml:space="preserve" font-family="Verdana" font-size="32.0" fill="#C97F2D" transform="matrix(1.00, 0.00, -0.00, -1.00, 171.7, 244.0)">h</text><text xml:space="preserve" font-family="Verdana" font-size="32.0" fill="#C97F2D" transform="matrix(1.00, 0.00, -0.00, -1.00, 191.9, 244.0)">o</text><text xml:space="preserve" font-family="Verdana" font-size="32.0" fill="#C97F2D" transform="matrix(1.00, 0.00, -0.00, -1.00, 211.3, 244.0)">w</text><text xml:space="preserve" font-family="Verdana" font-size="32.0" fill="#C97F2D" transform="matrix(1.00, 0.00, -0.00, -1.00, 237.5, 244.0)">A</text><text xml:space="preserve" font-family="Verdana" font-size="32.0" fill="#C97F2D" transform="matrix(1.00, 0.00, -0.00, -1.00, 259.4, 244.0)">d</text><text xml:space="preserve" font-family="Verdana" font-size="32.0" fill="#C97F2D" transform="matrix(1.00, 0.00, -0.00, -1.00, 279.3, 244.0)"> </text><image xlink:href="../../2B5AB87D-E53E-431B-8B59-462CFCD96BF3/assets/8A0F49AB64DB3166C602D3C4E2A7219C.png" width="201.00" height="39.00" transform="matrix(1.00, 0.00, -0.00, -0.99, 214.4, 622.1)" opacity="0.50"></image><path d="M 0.0 0.0 L 191.1 0.0 L 191.1 28.7 L 0.0 28.7 Z M 0.0 0.0 " fill="none" stroke="#FF4C41" stroke-width="4.00" transform="matrix(1.00, 0.00, 0.00, -1.00, 219.4, 619.1)"></path><text xml:space="preserve" font-family="Verdana-Bold" font-weight="bold" font-size="24.0" fill="#C97F2D" transform="matrix(1.00, 0.00, -0.00, -1.00, 123.7, 199.9)">-</text><text xml:space="preserve" font-family="Verdana" font-size="32.0" fill="#C97F2D" transform="matrix(1.00, 0.00, -0.00, -1.00, 155.0, 197.0)">a</text><text xml:space="preserve" font-family="Verdana" font-size="32.0" fill="#C97F2D" transform="matrix(1.00, 0.00, -0.00, -1.00, 174.2, 197.0)">d</text><text xml:space="preserve" font-family="Verdana" font-size="32.0" fill="#C97F2D" transform="matrix(1.00, 0.00, -0.00, -1.00, 194.1, 197.0)">S</text><text xml:space="preserve" font-family="Verdana" font-size="32.0" fill="#C97F2D" transform="matrix(1.00, 0.00, -0.00, -1.00, 216.0, 197.0)">h</text><text xml:space="preserve" font-family="Verdana" font-size="32.0" fill="#C97F2D" transform="matrix(1.00, 0.00, -0.00, -1.00, 236.2, 197.0)">o</text><text xml:space="preserve" font-family="Verdana" font-size="32.0" fill="#C97F2D" transform="matrix(1.00, 0.00, -0.00, -1.00, 255.7, 197.0)">w</text><text xml:space="preserve" font-family="Verdana" font-size="32.0" fill="#C97F2D" transform="matrix(1.00, 0.00, -0.00, -1.00, 281.9, 197.0)">n</text><path d="M 258.2 564.6 C 258.1 565.3 258.1 568.6 258.2 568.6 C 258.2 567.4 258.2 564.8 258.2 564.6 C 258.2 564.6 258.2 564.6 258.2 564.6 Z M 258.1 558.0 C 258.0 559.2 258.1 561.8 258.2 562.6 C 258.1 561.3 258.2 558.5 258.1 558.0 C 258.1 558.0 258.1 558.0 258.1 558.0 Z M 258.4 568.1 C 258.4 569.8 258.4 573.1 258.5 573.8 C 258.4 572.1 258.5 568.9 258.4 568.1 C 258.4 568.1 258.4 568.1 258.4 568.1 Z M 256.6 475.9 C 256.6 476.6 256.5 479.9 256.6 479.9 C 256.6 478.7 256.7 476.1 256.6 475.9 C 256.6 475.9 256.6 475.9 256.6 475.9 Z M 256.9 494.1 C 256.8 495.3 256.8 497.9 256.9 498.7 C 256.9 497.3 256.9 494.5 256.9 494.1 C 256.9 494.1 256.9 494.1 256.9 494.1 Z M 256.8 504.7 C 256.8 507.2 256.8 509.8 256.9 509.3 C 256.8 508.5 256.9 504.9 256.8 504.7 C 256.8 504.7 256.8 504.7 256.8 504.7 Z M 262.7 566.0 C 262.7 563.3 262.8 561.4 262.8 559.6 C 262.8 550.7 262.6 564.2 262.7 566.0 C 262.7 566.0 262.7 566.0 262.7 566.0 Z M 257.2 523.3 C 257.2 521.6 257.1 520.1 257.1 519.3 C 257.1 520.9 257.0 523.2 257.2 523.3 C 257.2 523.3 257.2 523.3 257.2 523.3 Z M 257.3 538.7 C 257.2 539.1 257.2 548.1 257.3 553.2 C 257.3 548.9 257.3 538.3 257.3 538.7 C 257.3 538.7 257.3 538.7 257.3 538.7 Z M 262.8 544.7 C 262.7 538.8 262.7 529.3 262.7 525.0 C 262.6 520.8 262.6 532.6 262.6 543.5 C 262.6 554.4 262.8 545.4 262.9 549.9 C 262.9 554.3 263.0 545.6 262.9 541.2 C 262.8 536.8 262.9 544.1 262.8 544.7 C 262.8 544.7 262.8 544.7 262.8 544.7 Z M 263.2 544.9 C 263.2 547.1 263.2 548.9 263.2 550.1 C 263.3 547.9 263.3 545.8 263.2 544.9 C 263.2 544.9 263.2 544.9 263.2 544.9 Z M 260.4 228.9 C 259.4 229.7 258.5 234.8 257.9 240.4 C 257.7 241.8 257.6 243.2 257.4 244.7 C 257.0 255.0 256.7 265.4 256.6 275.8 C 256.6 277.8 256.6 279.9 256.6 282.0 C 256.5 288.3 256.4 294.7 256.4 301.2 C 256.4 303.3 256.4 305.4 256.4 307.6 C 256.3 315.3 256.4 322.7 256.4 330.3 C 256.4 334.1 256.3 337.9 256.2 341.9 C 256.1 343.9 256.1 352.3 256.2 355.3 C 256.0 352.4 256.1 366.3 256.1 365.7 C 256.2 367.3 256.2 368.9 256.3 370.5 C 256.3 372.1 256.3 370.1 256.4 368.0 C 256.4 369.8 256.4 371.6 256.4 373.5 C 256.4 375.4 256.4 377.4 256.4 379.3 C 256.3 385.8 256.4 392.8 256.5 398.9 C 256.5 415.3 256.6 460.5 256.6 452.4 C 256.7 443.1 256.8 447.9 256.8 450.4 C 256.8 451.8 256.8 453.7 256.8 455.9 C 256.8 455.9 256.7 455.7 256.7 455.4 C 256.7 459.5 256.6 465.3 256.7 470.9 C 256.7 469.9 256.7 468.5 256.7 468.0 C 256.7 470.9 256.9 468.6 256.9 470.5 C 256.9 475.8 257.0 478.3 256.9 472.2 C 257.1 477.8 257.2 481.4 257.4 487.0 C 257.4 489.1 257.4 487.9 257.3 487.3 C 257.2 491.0 257.3 499.5 257.2 500.3 C 257.1 501.1 257.2 477.3 257.1 481.6 C 257.1 483.3 257.1 486.8 257.1 488.2 C 257.0 485.2 257.0 481.5 257.0 479.6 C 257.0 481.7 257.0 484.6 256.9 486.2 C 256.9 484.2 256.9 482.8 256.9 482.2 C 256.9 485.1 256.9 487.4 256.9 490.8 C 256.9 492.4 257.0 489.5 257.0 492.8 C 257.0 493.4 257.0 490.6 257.0 490.8 C 257.1 493.5 257.1 498.8 257.1 500.1 C 257.1 501.4 257.1 496.9 257.1 496.8 C 257.2 507.1 257.2 518.9 257.2 522.5 C 257.2 526.1 257.2 522.7 257.3 521.2 C 257.3 525.4 257.3 528.6 257.3 533.6 C 257.3 536.9 257.4 535.6 257.4 534.4 C 257.4 535.2 257.4 536.0 257.4 536.5 C 257.4 536.8 257.4 537.8 257.5 538.4 C 257.5 536.4 257.5 532.7 257.5 531.1 C 257.6 534.1 257.5 541.1 257.6 543.7 C 257.6 539.6 257.6 535.2 257.7 530.7 C 257.7 539.6 257.5 548.7 257.7 555.9 C 257.7 554.6 257.8 554.1 257.8 553.0 C 257.7 555.8 257.7 559.8 257.8 562.2 C 257.8 563.6 257.9 566.3 257.9 568.9 C 257.9 564.3 257.9 561.1 257.9 557.9 C 257.9 557.9 257.9 558.2 257.9 558.8 C 258.1 551.5 257.8 547.3 257.7 542.1 C 257.8 541.7 257.8 541.3 257.8 540.9 C 257.9 539.2 257.8 545.1 257.9 545.7 C 257.9 538.0 257.9 529.6 258.0 525.8 C 258.0 535.0 258.0 543.0 258.1 549.9 C 258.2 548.1 258.1 541.2 258.2 537.9 C 258.3 552.9 258.3 554.4 258.3 555.7 C 258.3 554.5 258.3 553.4 258.3 552.2 C 258.4 552.5 258.4 552.8 258.4 553.1 C 258.4 559.6 258.4 567.4 258.4 567.0 C 258.5 566.7 258.5 560.7 258.5 554.3 C 258.5 555.0 258.6 555.6 258.6 556.3 C 258.7 563.8 258.9 572.2 258.8 579.6 C 258.9 578.4 258.9 579.1 258.9 580.6 C 259.0 578.3 259.0 574.9 259.0 572.4 C 259.1 573.3 259.1 574.8 259.1 575.3 C 259.1 574.1 259.1 572.1 259.2 571.5 C 259.2 575.0 259.2 578.8 259.3 582.5 C 259.4 583.3 259.3 580.9 259.4 581.1 C 259.4 584.6 259.3 589.6 259.4 592.1 C 259.5 589.2 259.5 583.4 259.5 581.6 C 259.5 582.7 259.6 583.9 259.6 585.1 C 259.6 587.5 259.6 588.7 259.7 586.0 C 259.7 584.5 259.7 584.6 259.7 584.9 C 259.8 586.6 259.8 592.3 259.9 592.1 C 259.9 590.7 259.9 585.0 260.0 583.5 C 260.1 584.6 260.1 587.5 260.2 587.8 C 260.1 581.5 260.2 581.7 260.1 580.1 C 260.1 580.8 260.1 582.6 260.0 582.5 C 260.0 578.6 260.0 574.7 260.0 570.7 C 260.0 570.7 260.0 570.7 260.0 570.7 C 260.0 570.7 260.0 570.7 260.0 570.7 C 260.0 570.7 260.0 570.7 260.0 570.7 C 260.1 571.0 260.2 570.9 260.3 570.6 C 260.3 572.3 260.3 574.0 260.3 577.2 C 260.4 576.4 260.4 573.5 260.4 570.7 C 260.4 570.8 260.4 570.8 260.4 570.8 C 260.4 575.2 260.5 581.9 260.5 586.4 C 260.6 584.3 260.6 576.8 260.6 571.6 C 260.6 571.8 260.6 572.0 260.6 572.1 C 260.6 565.7 260.7 558.1 260.7 550.8 C 260.9 554.3 260.7 558.4 260.7 562.9 C 260.8 565.0 260.8 566.9 260.9 568.9 C 260.8 574.7 260.8 591.7 260.9 593.6 C 261.0 595.8 261.0 578.5 261.0 578.4 C 261.0 578.3 261.1 586.4 261.1 582.6 C 261.1 580.6 261.1 576.3 261.0 573.2 C 261.1 573.0 261.2 572.9 261.3 572.8 C 261.3 575.6 261.3 578.8 261.2 578.9 C 261.2 580.3 261.1 583.1 261.2 583.5 C 261.2 583.1 261.2 582.4 261.3 582.4 C 261.3 583.0 261.2 584.0 261.3 584.1 C 261.3 580.8 261.4 576.3 261.4 572.7 C 261.4 572.4 261.4 572.1 261.5 571.7 C 261.5 571.8 261.5 574.6 261.5 577.0 C 261.6 579.5 261.6 574.3 261.6 570.1 C 261.6 569.4 261.7 568.8 261.7 568.1 C 261.7 569.5 261.7 571.2 261.7 573.2 C 261.8 575.5 261.9 575.4 261.9 577.7 C 262.0 573.5 262.0 568.3 261.9 564.2 C 262.0 562.7 262.1 561.2 262.2 559.7 C 262.2 563.1 262.3 566.3 262.3 568.1 C 262.3 569.7 262.3 571.2 262.4 571.8 C 262.4 570.4 262.4 574.1 262.5 573.5 C 262.4 571.5 262.5 567.5 262.3 566.0 C 262.3 562.9 262.3 559.4 262.3 556.4 C 262.3 556.0 262.4 555.6 262.4 555.2 C 262.4 557.8 262.4 560.2 262.5 563.0 C 262.6 561.8 262.6 554.1 262.5 548.6 C 262.6 537.3 262.1 525.9 262.0 514.6 C 262.0 514.2 262.0 513.5 262.1 512.8 C 262.1 512.0 262.1 511.2 262.2 510.3 C 262.2 513.0 262.2 515.4 262.2 517.4 C 262.3 509.4 262.3 528.8 262.4 530.1 C 262.6 517.1 262.5 493.0 262.6 478.0 C 262.6 481.6 262.6 482.8 262.7 478.9 C 262.7 477.9 262.7 476.8 262.7 475.8 C 262.8 490.9 262.6 506.7 262.8 518.8 C 262.8 511.6 262.7 500.7 262.8 497.7 C 262.9 499.8 262.8 502.9 262.9 503.3 C 263.0 499.6 262.9 487.3 263.0 483.7 C 263.0 501.4 262.9 525.4 263.2 538.5 C 263.1 518.8 263.2 492.1 263.0 475.2 C 263.0 478.2 263.0 478.2 262.9 476.6 C 262.9 471.4 262.9 466.2 262.8 460.8 C 262.9 459.7 262.9 460.0 262.9 462.6 C 262.9 464.8 262.9 466.0 263.0 466.7 C 263.0 465.3 263.0 448.6 263.0 461.9 C 263.1 475.1 263.1 498.0 263.2 484.6 C 263.2 471.2 263.3 465.9 263.3 473.2 C 263.4 480.6 263.5 503.8 263.5 496.0 C 263.5 488.2 263.6 471.9 263.6 462.7 C 263.6 453.4 263.2 468.9 263.2 455.3 C 263.2 441.7 263.3 453.1 263.3 450.5 C 263.3 446.3 263.3 438.8 263.3 431.6 C 263.4 426.5 263.4 420.0 263.4 416.8 C 263.5 417.0 263.4 432.4 263.5 426.3 C 263.5 411.4 263.5 394.7 263.4 401.6 C 263.4 392.3 263.4 385.5 263.4 379.8 C 263.5 370.8 263.5 360.4 263.5 359.2 C 263.6 357.9 263.3 333.4 263.7 324.3 C 263.7 323.6 263.6 307.1 263.4 305.7 C 263.6 290.0 263.7 292.2 263.6 276.7 C 263.6 263.8 263.5 259.9 263.5 257.7 C 263.4 244.1 263.6 244.2 263.0 237.5 C 262.9 235.5 262.9 232.4 262.6 231.4 C 262.0 229.3 261.3 228.3 260.4 228.9 C 260.4 228.9 260.4 228.9 260.4 228.9 Z M 259.9 568.9 C 259.8 571.3 259.8 575.7 259.8 578.2 C 259.7 575.3 259.7 571.7 259.8 568.0 C 259.8 568.3 259.8 568.6 259.9 568.9 C 259.9 568.9 259.9 568.9 259.9 568.9 Z M 261.5 550.3 C 261.5 551.9 261.4 553.9 261.5 555.7 C 261.5 557.4 261.5 559.2 261.5 561.8 C 261.6 561.6 261.6 557.3 261.6 553.9 C 261.6 553.9 261.7 553.9 261.7 553.9 C 261.8 555.6 261.8 557.5 261.8 559.7 C 261.8 560.5 261.8 561.3 261.8 562.1 C 261.7 562.1 261.7 560.9 261.7 560.5 C 261.6 561.1 261.6 563.1 261.5 565.7 C 261.5 566.0 261.5 566.3 261.5 566.6 C 261.4 567.0 261.4 565.0 261.4 567.2 C 261.3 565.7 261.3 561.7 261.3 559.2 C 261.5 562.0 261.4 551.4 261.5 548.8 C 261.5 549.3 261.5 549.8 261.5 550.3 Z M 257.7 530.1 C 257.7 528.7 257.7 527.2 257.7 525.8 C 257.7 527.9 257.7 529.5 257.7 531.0 C 257.7 530.7 257.7 530.4 257.7 530.1 Z M 256.8 411.5 C 257.1 420.2 256.8 438.3 257.0 439.5 C 256.9 441.3 256.9 443.2 256.9 445.1 C 256.9 433.1 256.9 420.2 256.8 411.5 C 256.8 411.5 256.8 411.5 256.8 411.5 Z M 262.9 442.0 C 262.9 442.7 262.9 442.4 262.9 440.7 C 262.8 431.4 262.7 425.9 262.7 431.8 C 262.7 436.8 262.7 447.7 262.7 444.5 C 262.7 440.2 262.6 436.0 262.6 431.6 C 262.7 428.2 262.7 425.0 262.9 421.7 C 262.9 428.8 262.9 435.7 262.9 442.0 C 262.9 442.0 262.9 442.0 262.9 442.0 Z M 263.0 417.6 C 263.0 420.2 263.0 423.3 263.0 426.4 C 263.0 423.7 263.0 421.0 263.0 418.2 C 263.0 418.0 263.0 417.8 263.0 417.6 Z M 263.2 414.3 C 263.2 419.6 263.1 424.8 263.1 419.5 C 263.1 418.4 263.1 417.2 263.1 416.0 C 263.1 415.4 263.1 414.9 263.2 414.3 Z M 263.2 411.1 C 263.2 411.2 263.2 412.1 263.1 413.8 C 263.1 410.3 263.1 403.1 263.2 403.5 C 263.2 405.8 263.2 408.4 263.2 411.1 C 263.2 411.1 263.2 411.1 263.2 411.1 Z M 256.6 405.8 C 256.6 408.1 256.6 410.1 256.6 406.5 C 256.6 405.1 256.6 403.7 256.6 402.2 C 256.6 403.4 256.6 404.6 256.6 405.8 Z M 262.9 526.6 C 262.9 525.6 262.9 521.9 262.9 519.7 C 262.6 519.5 262.8 528.0 262.9 526.6 C 262.9 526.6 262.9 526.6 262.9 526.6 Z M 263.0 540.7 C 263.0 539.7 263.0 536.0 263.0 533.8 C 262.7 533.5 262.9 542.1 263.0 540.7 C 263.0 540.7 263.0 540.7 263.0 540.7 Z M 263.7 324.2 C 263.7 324.2 263.7 324.2 263.7 324.3 C 263.7 324.2 263.7 324.2 263.7 324.2 C 263.7 324.2 263.7 324.2 263.7 324.2 Z M 263.7 324.2 " fill="#000000"></path><path d="M 244.5 591.7 C 244.1 592.4 244.3 592.9 244.4 593.0 C 244.4 593.0 244.4 593.0 244.4 593.0 L 244.4 593.0 L 244.4 593.1 L 244.5 593.1 L 244.5 593.2 L 244.6 593.4 L 244.8 593.7 C 244.8 593.9 244.9 594.0 244.8 594.2 C 244.6 594.4 244.1 593.2 244.0 593.5 C 243.9 593.7 245.9 597.8 246.0 597.9 C 246.3 598.1 246.9 599.1 247.0 599.4 C 246.7 598.7 246.2 598.3 246.0 598.1 C 246.0 598.1 245.4 597.2 245.7 598.4 C 245.6 598.2 245.5 598.2 245.4 598.2 L 245.4 598.3 C 245.4 598.3 245.0 597.1 244.8 597.2 C 244.3 597.4 246.7 600.5 246.6 600.9 C 246.4 600.5 246.2 600.2 246.0 600.1 C 246.6 600.8 248.4 604.7 248.9 605.5 C 250.4 608.1 252.3 610.8 253.9 613.4 C 254.7 614.6 255.5 616.0 256.4 617.4 L 257.7 619.7 L 257.8 619.8 L 257.9 619.9 L 257.9 619.9 C 258.0 620.1 257.6 619.5 258.2 620.3 C 258.4 621.3 261.6 621.2 261.6 620.3 C 262.1 619.6 261.8 620.1 261.9 619.9 L 261.9 619.9 L 262.0 619.6 L 262.3 619.0 L 262.9 617.8 C 264.5 614.6 266.2 611.4 267.7 608.9 C 268.7 607.3 272.0 600.3 272.3 600.0 C 272.4 599.8 273.4 597.7 274.5 595.7 L 275.2 594.2 L 275.6 593.5 L 275.6 593.3 L 275.7 593.3 L 275.7 593.2 L 275.7 593.2 L 275.7 593.2 C 275.5 593.4 276.3 593.0 275.6 591.5 C 273.4 590.1 274.6 591.1 274.3 590.8 L 274.3 590.8 L 273.9 590.8 C 273.0 590.8 272.4 590.8 272.4 590.8 C 272.2 590.8 272.7 590.4 272.7 590.3 L 271.5 590.3 C 271.6 590.3 271.8 590.2 272.1 590.2 C 270.0 590.0 265.4 590.6 263.9 590.6 C 264.0 590.7 263.7 590.9 263.7 590.9 C 263.7 590.8 251.3 590.6 250.0 590.6 C 248.7 590.6 245.8 591.4 247.1 591.7 C 248.0 591.9 247.2 592.0 246.6 592.1 C 248.2 593.1 243.4 591.6 247.1 593.1 C 247.2 593.1 245.9 593.6 245.5 593.4 C 247.2 593.1 245.9 593.6 245.5 593.4 C 247.2 593.1 245.9 593.6 245.5 593.4 " fill="#000000"></path></g></svg>