<?xml version="1.0" encoding="UTF-8" standalone="no"?><svg xmlns="http://www.w3.org/2000/svg" xmlns:xlink="http://www.w3.org/1999/xlink" clip-rule="evenodd" stroke-miterlimit="4.00" viewBox="0 0 1024 768"><desc>SVG generated by Keynote</desc><defs></defs><g transform="matrix(1.00, 0.00, -0.00, -1.00, 0.0, 768.0)"><path d="M 0.0 768.0 L 1024.0 768.0 L 1024.0 0.0 L 0.0 0.0 Z M 0.0 768.0 " fill="#FEFFFF"></path><text xml:space="preserve" font-family="Verdana" font-size="32.0" fill="#000000" transform="matrix(1.00, 0.00, -0.00, -1.00, 634.0, 349.0)">-</text><text xml:space="preserve" font-family="Verdana" font-size="32.0" fill="#000000" transform="matrix(1.00, 0.00, -0.00, -1.00, 648.5, 349.0)"> </text><text xml:space="preserve" font-family="Verdana" font-size="32.0" fill="#000000" transform="matrix(1.00, 0.00, -0.00, -1.00, 659.8, 349.0)">c</text><text xml:space="preserve" font-family="Verdana" font-size="32.0" fill="#000000" transform="matrix(1.00, 0.00, -0.00, -1.00, 676.4, 349.0)">a</text><text xml:space="preserve" font-family="Verdana" font-size="32.0" fill="#000000" transform="matrix(1.00, 0.00, -0.00, -1.00, 695.6, 349.0)">r</text><text xml:space="preserve" font-family="Verdana" font-size="32.0" fill="#000000" transform="matrix(1.00, 0.00, -0.00, -1.00, 709.3, 349.0)">d</text><text xml:space="preserve" font-family="Verdana" font-size="32.0" fill="#000000" transform="matrix(1.00, 0.00, -0.00, -1.00, 729.2, 349.0)">I</text><text xml:space="preserve" font-family="Verdana" font-size="32.0" fill="#000000" transform="matrix(1.00, 0.00, -0.00, -1.00, 742.7, 349.0)">n</text><text xml:space="preserve" font-family="Verdana" font-size="32.0" fill="#000000" transform="matrix(1.00, 0.00, -0.00, -1.00, 762.9, 349.0)">s</text><text xml:space="preserve" font-family="Verdana" font-size="32.0" fill="#000000" transform="matrix(1.00, 0.00, -0.00, -1.00, 779.6, 349.0)">e</text><text xml:space="preserve" font-family="Verdana" font-size="32.0" fill="#000000" transform="matrix(1.00, 0.00, -0.00, -1.00, 798.7, 349.0)">r</text><text xml:space="preserve" font-family="Verdana" font-size="32.0" fill="#000000" transform="matrix(1.00, 0.00, -0.00, -1.00, 812.3, 349.0)">t</text><text xml:space="preserve" font-family="Verdana" font-size="32.0" fill="#000000" transform="matrix(1.00, 0.00, -0.00, -1.00, 824.9, 349.0)">e</text><text xml:space="preserve" font-family="Verdana" font-size="32.0" fill="#000000" transform="matrix(1.00, 0.00, -0.00, -1.00, 844.0, 349.0)">d</text><text xml:space="preserve" font-family="Verdana" font-size="32.0" fill="#000000" transform="matrix(1.00, 0.00, -0.00, -1.00, 633.0, 299.0)">-</text><text xml:space="preserve" font-family="Verdana" font-size="32.0" fill="#000000" transform="matrix(1.00, 0.00, -0.00, -1.00, 647.5, 299.0)"> </text><text xml:space="preserve" font-family="Verdana" font-size="32.0" fill="#000000" transform="matrix(1.00, 0.00, -0.00, -1.00, 658.8, 299.0)">c</text><text xml:space="preserve" font-family="Verdana" font-size="32.0" fill="#000000" transform="matrix(1.00, 0.00, -0.00, -1.00, 675.4, 299.0)">a</text><text xml:space="preserve" font-family="Verdana" font-size="32.0" fill="#000000" transform="matrix(1.00, 0.00, -0.00, -1.00, 694.6, 299.0)">r</text><text xml:space="preserve" font-family="Verdana" font-size="32.0" fill="#000000" transform="matrix(1.00, 0.00, -0.00, -1.00, 708.3, 299.0)">d</text><text xml:space="preserve" font-family="Verdana" font-size="32.0" fill="#000000" transform="matrix(1.00, 0.00, -0.00, -1.00, 728.2, 299.0)">I</text><text xml:space="preserve" font-family="Verdana" font-size="32.0" fill="#000000" transform="matrix(1.00, 0.00, -0.00, -1.00, 741.7, 299.0)">s</text><text xml:space="preserve" font-family="Verdana" font-size="32.0" fill="#000000" transform="matrix(1.00, 0.00, -0.00, -1.00, 758.4, 299.0)">V</text><text xml:space="preserve" font-family="Verdana" font-size="32.0" fill="#000000" transform="matrix(1.00, 0.00, -0.00, -1.00, 778.7, 299.0)">a</text><text xml:space="preserve" font-family="Verdana" font-size="32.0" fill="#000000" transform="matrix(1.00, 0.00, -0.00, -1.00, 797.9, 299.0)">l</text><text xml:space="preserve" font-family="Verdana" font-size="32.0" fill="#000000" transform="matrix(1.00, 0.00, -0.00, -1.00, 806.7, 299.0)">i</text><text xml:space="preserve" font-family="Verdana" font-size="32.0" fill="#000000" transform="matrix(1.00, 0.00, -0.00, -1.00, 815.5, 299.0)">d</text><text xml:space="preserve" font-family="Verdana" font-size="32.0" fill="#000000" transform="matrix(1.00, 0.00, -0.00, -1.00, 633.0, 173.0)">-</text><text xml:space="preserve" font-family="Verdana" font-size="32.0" fill="#000000" transform="matrix(1.00, 0.00, -0.00, -1.00, 647.5, 173.0)"> </text><text xml:space="preserve" font-family="Verdana" font-size="32.0" fill="#000000" transform="matrix(1.00, 0.00, -0.00, -1.00, 658.8, 173.0)">l</text><text xml:space="preserve" font-family="Verdana" font-size="32.0" fill="#000000" transform="matrix(1.00, 0.00, -0.00, -1.00, 667.6, 173.0)">o</text><text xml:space="preserve" font-family="Verdana" font-size="32.0" fill="#000000" transform="matrix(1.00, 0.00, -0.00, -1.00, 687.0, 173.0)">a</text><text xml:space="preserve" font-family="Verdana" font-size="32.0" fill="#000000" transform="matrix(1.00, 0.00, -0.00, -1.00, 706.2, 173.0)">d</text><text xml:space="preserve" font-family="Verdana" font-size="32.0" fill="#000000" transform="matrix(1.00, 0.00, -0.00, -1.00, 726.1, 173.0)">i</text><text xml:space="preserve" font-family="Verdana" font-size="32.0" fill="#000000" transform="matrix(1.00, 0.00, -0.00, -1.00, 734.9, 173.0)">n</text><text xml:space="preserve" font-family="Verdana" font-size="32.0" fill="#000000" transform="matrix(1.00, 0.00, -0.00, -1.00, 755.2, 173.0)">g</text><text xml:space="preserve" font-family="Verdana" font-size="32.0" fill="#000000" transform="matrix(1.00, 0.00, -0.00, -1.00, 775.1, 173.0)">A</text><text xml:space="preserve" font-family="Verdana" font-size="32.0" fill="#000000" transform="matrix(1.00, 0.00, -0.00, -1.00, 797.0, 173.0)">c</text><text xml:space="preserve" font-family="Verdana" font-size="32.0" fill="#000000" transform="matrix(1.00, 0.00, -0.00, -1.00, 813.6, 173.0)">c</text><text xml:space="preserve" font-family="Verdana" font-size="32.0" fill="#000000" transform="matrix(1.00, 0.00, -0.00, -1.00, 830.3, 173.0)">o</text><text xml:space="preserve" font-family="Verdana" font-size="32.0" fill="#000000" transform="matrix(1.00, 0.00, -0.00, -1.00, 849.7, 173.0)">u</text><text xml:space="preserve" font-family="Verdana" font-size="32.0" fill="#000000" transform="matrix(1.00, 0.00, -0.00, -1.00, 870.0, 173.0)">n</text><text xml:space="preserve" font-family="Verdana" font-size="32.0" fill="#000000" transform="matrix(1.00, 0.00, -0.00, -1.00, 890.2, 173.0)">t</text><text xml:space="preserve" font-family="Verdana" font-size="32.0" fill="#000000" transform="matrix(1.00, 0.00, -0.00, -1.00, 633.0, 123.0)">-</text><text xml:space="preserve" font-family="Verdana" font-size="32.0" fill="#000000" transform="matrix(1.00, 0.00, -0.00, -1.00, 647.5, 123.0)"> </text><text xml:space="preserve" font-family="Verdana" font-size="32.0" fill="#000000" transform="matrix(1.00, 0.00, -0.00, -1.00, 658.8, 123.0)">a</text><text xml:space="preserve" font-family="Verdana" font-size="32.0" fill="#000000" transform="matrix(1.00, 0.00, -0.00, -1.00, 678.0, 123.0)">c</text><text xml:space="preserve" font-family="Verdana" font-size="32.0" fill="#000000" transform="matrix(1.00, 0.00, -0.00, -1.00, 694.6, 123.0)">c</text><text xml:space="preserve" font-family="Verdana" font-size="32.0" fill="#000000" transform="matrix(1.00, 0.00, -0.00, -1.00, 711.3, 123.0)">o</text><text xml:space="preserve" font-family="Verdana" font-size="32.0" fill="#000000" transform="matrix(1.00, 0.00, -0.00, -1.00, 730.7, 123.0)">u</text><text xml:space="preserve" font-family="Verdana" font-size="32.0" fill="#000000" transform="matrix(1.00, 0.00, -0.00, -1.00, 751.0, 123.0)">n</text><text xml:space="preserve" font-family="Verdana" font-size="32.0" fill="#000000" transform="matrix(1.00, 0.00, -0.00, -1.00, 771.2, 123.0)">t</text><text xml:space="preserve" font-family="Verdana" font-size="32.0" fill="#000000" transform="matrix(1.00, 0.00, -0.00, -1.00, 783.8, 123.0)">L</text><text xml:space="preserve" font-family="Verdana" font-size="32.0" fill="#000000" transform="matrix(1.00, 0.00, -0.00, -1.00, 801.6, 123.0)">o</text><text xml:space="preserve" font-family="Verdana" font-size="32.0" fill="#000000" transform="matrix(1.00, 0.00, -0.00, -1.00, 821.1, 123.0)">a</text><text xml:space="preserve" font-family="Verdana" font-size="32.0" fill="#000000" transform="matrix(1.00, 0.00, -0.00, -1.00, 840.3, 123.0)">d</text><text xml:space="preserve" font-family="Verdana" font-size="32.0" fill="#000000" transform="matrix(1.00, 0.00, -0.00, -1.00, 860.2, 123.0)">e</text><text xml:space="preserve" font-family="Verdana" font-size="32.0" fill="#000000" transform="matrix(1.00, 0.00, -0.00, -1.00, 879.3, 123.0)">d</text><text xml:space="preserve" font-family="Verdana" font-size="32.0" fill="#000000" transform="matrix(1.00, 0.00, -0.00, -1.00, 635.0, 76.0)">-</text><text xml:space="preserve" font-family="Verdana" font-size="32.0" fill="#000000" transform="matrix(1.00, 0.00, -0.00, -1.00, 649.5, 76.0)"> </text><text xml:space="preserve" font-family="Verdana" font-size="32.0" fill="#000000" transform="matrix(1.00, 0.00, -0.00, -1.00, 660.8, 76.0)">w</text><text xml:space="preserve" font-family="Verdana" font-size="32.0" fill="#000000" transform="matrix(1.00, 0.00, -0.00, -1.00, 686.7, 76.0)">a</text><text xml:space="preserve" font-family="Verdana" font-size="32.0" fill="#000000" transform="matrix(1.00, 0.00, -0.00, -1.00, 705.9, 76.0)">i</text><text xml:space="preserve" font-family="Verdana" font-size="32.0" fill="#000000" transform="matrix(1.00, 0.00, -0.00, -1.00, 714.7, 76.0)">t</text><text xml:space="preserve" font-family="Verdana" font-size="32.0" fill="#000000" transform="matrix(1.00, 0.00, -0.00, -1.00, 727.3, 76.0)">i</text><text xml:space="preserve" font-family="Verdana" font-size="32.0" fill="#000000" transform="matrix(1.00, 0.00, -0.00, -1.00, 736.1, 76.0)">n</text><text xml:space="preserve" font-family="Verdana" font-size="32.0" fill="#000000" transform="matrix(1.00, 0.00, -0.00, -1.00, 756.3, 76.0)">g</text><text xml:space="preserve" font-family="Verdana" font-size="32.0" fill="#000000" transform="matrix(1.00, 0.00, -0.00, -1.00, 776.2, 76.0)">F</text><text xml:space="preserve" font-family="Verdana" font-size="32.0" fill="#000000" transform="matrix(1.00, 0.00, -0.00, -1.00, 793.8, 76.0)">o</text><text xml:space="preserve" font-family="Verdana" font-size="32.0" fill="#000000" transform="matrix(1.00, 0.00, -0.00, -1.00, 813.3, 76.0)">r</text><text xml:space="preserve" font-family="Verdana" font-size="32.0" fill="#000000" transform="matrix(1.00, 0.00, -0.00, -1.00, 826.9, 76.0)">P</text><text xml:space="preserve" font-family="Verdana" font-size="32.0" fill="#000000" transform="matrix(1.00, 0.00, -0.00, -1.00, 846.2, 76.0)">i</text><text xml:space="preserve" font-family="Verdana" font-size="32.0" fill="#000000" transform="matrix(1.00, 0.00, -0.00, -1.00, 855.0, 76.0)">n</text><text xml:space="preserve" font-family="Verdana-Bold" font-weight="bold" font-size="24.0" fill="#C97F2D" transform="matrix(1.00, 0.00, -0.00, -1.00, 631.2, 257.7)">-</text><text xml:space="preserve" font-family="Verdana" font-size="32.0" fill="#C97F2D" transform="matrix(1.00, 0.00, -0.00, -1.00, 662.0, 254.0)">s</text><text xml:space="preserve" font-family="Verdana" font-size="32.0" fill="#C97F2D" transform="matrix(1.00, 0.00, -0.00, -1.00, 678.7, 254.0)">h</text><text xml:space="preserve" font-family="Verdana" font-size="32.0" fill="#C97F2D" transform="matrix(1.00, 0.00, -0.00, -1.00, 698.9, 254.0)">o</text><text xml:space="preserve" font-family="Verdana" font-size="32.0" fill="#C97F2D" transform="matrix(1.00, 0.00, -0.00, -1.00, 718.3, 254.0)">w</text><text xml:space="preserve" font-family="Verdana" font-size="32.0" fill="#C97F2D" transform="matrix(1.00, 0.00, -0.00, -1.00, 744.5, 254.0)">A</text><text xml:space="preserve" font-family="Verdana" font-size="32.0" fill="#C97F2D" transform="matrix(1.00, 0.00, -0.00, -1.00, 766.4, 254.0)">d</text><text xml:space="preserve" font-family="Verdana" font-size="32.0" fill="#C97F2D" transform="matrix(1.00, 0.00, -0.00, -1.00, 786.3, 254.0)"> </text><text xml:space="preserve" font-family="Verdana" font-size="32.0" fill="#C97F2D" transform="matrix(1.00, 0.00, -0.00, -1.00, 797.6, 254.0)"> </text><text xml:space="preserve" font-family="Verdana-Bold" font-weight="bold" font-size="24.0" fill="#C97F2D" transform="matrix(1.00, 0.00, -0.00, -1.00, 631.2, 218.7)">-</text><text xml:space="preserve" font-family="Verdana" font-size="32.0" fill="#C97F2D" transform="matrix(1.00, 0.00, -0.00, -1.00, 662.0, 215.0)">a</text><text xml:space="preserve" font-family="Verdana" font-size="32.0" fill="#C97F2D" transform="matrix(1.00, 0.00, -0.00, -1.00, 681.2, 215.0)">d</text><text xml:space="preserve" font-family="Verdana" font-size="32.0" fill="#C97F2D" transform="matrix(1.00, 0.00, -0.00, -1.00, 701.1, 215.0)">S</text><text xml:space="preserve" font-family="Verdana" font-size="32.0" fill="#C97F2D" transform="matrix(1.00, 0.00, -0.00, -1.00, 723.0, 215.0)">h</text><text xml:space="preserve" font-family="Verdana" font-size="32.0" fill="#C97F2D" transform="matrix(1.00, 0.00, -0.00, -1.00, 743.2, 215.0)">o</text><text xml:space="preserve" font-family="Verdana" font-size="32.0" fill="#C97F2D" transform="matrix(1.00, 0.00, -0.00, -1.00, 762.7, 215.0)">w</text><text xml:space="preserve" font-family="Verdana" font-size="32.0" fill="#C97F2D" transform="matrix(1.00, 0.00, -0.00, -1.00, 788.9, 215.0)">n</text><image xlink:href="../../932358D8-109B-4CFA-A4EC-EFEB852560D7/assets/97FF1EF74B8DDDBED726A1FE086EE845.png" width="364.00" height="71.00" transform="matrix(1.00, 0.06, 0.06, -1.01, 328.4, 733.2)" opacity="0.50"></image><path d="M 357.1 731.9 L 663.3 749.5 C 670.1 749.9 673.5 750.1 677.2 749.1 C 681.2 747.9 684.5 745.0 686.2 741.1 C 687.6 737.5 687.8 734.1 688.2 727.3 L 689.0 713.0 C 689.4 706.2 689.6 702.8 688.6 699.1 C 687.4 695.0 684.5 691.7 680.6 690.1 C 677.0 688.7 673.6 688.5 666.7 688.1 L 360.7 670.5 C 353.9 670.1 350.5 669.9 346.8 670.9 C 342.8 672.1 339.5 675.0 337.8 678.9 C 336.4 682.5 336.2 685.9 335.8 692.8 L 335.0 707.1 C 334.6 713.8 334.4 717.2 335.4 720.9 C 336.6 725.0 339.5 728.3 343.4 729.9 C 347.0 731.3 350.4 731.5 357.3 731.9 Z M 357.1 731.9 " fill="#FFFFFF"></path><path d="M 23.5 0.0 L 330.2 0.0 C 336.9 0.0 340.4 0.0 344.0 1.2 C 348.0 2.6 351.1 5.7 352.6 9.7 C 353.7 13.4 353.7 16.8 353.7 23.6 L 353.7 38.0 C 353.7 44.7 353.7 48.1 352.6 51.8 C 351.1 55.7 348.0 58.9 344.0 60.3 C 340.4 61.5 336.9 61.5 330.1 61.5 L 23.5 61.5 C 16.8 61.5 13.4 61.5 9.7 60.3 C 5.7 58.9 2.6 55.7 1.2 51.8 C 0.0 48.1 0.0 44.7 0.0 37.9 L 0.0 23.5 C 0.0 16.8 0.0 13.4 1.2 9.7 C 2.6 5.7 5.7 2.6 9.7 1.2 C 13.4 0.0 16.8 0.0 23.6 0.0 Z M 23.5 0.0 " fill="none" stroke="#FF9500" stroke-width="4.00" transform="matrix(1.00, 0.06, 0.06, -1.00, 333.7, 730.5)"></path><g><clipPath id="clip-136"><path d="M 333.7 730.5 L 686.8 750.8 L 690.3 689.5 L 337.2 669.2 Z M 333.7 730.5 "></path></clipPath><g clip-path="url(#clip-136)"><text xml:space="preserve" font-family="Verdana-Bold" font-weight="bold" font-size="18.0" fill="#000000" transform="matrix(1.00, 0.06, 0.06, -1.00, 344.3, 704.5)">S</text><text xml:space="preserve" font-family="Verdana-Bold" font-weight="bold" font-size="18.0" fill="#000000" transform="matrix(1.00, 0.06, 0.06, -1.00, 357.1, 705.2)">h</text><text xml:space="preserve" font-family="Verdana-Bold" font-weight="bold" font-size="18.0" fill="#000000" transform="matrix(1.00, 0.06, 0.06, -1.00, 369.9, 706.0)">o</text><text xml:space="preserve" font-family="Verdana-Bold" font-weight="bold" font-size="18.0" fill="#000000" transform="matrix(1.00, 0.06, 0.06, -1.00, 382.2, 706.7)">w</text><text xml:space="preserve" font-family="Verdana-Bold" font-weight="bold" font-size="18.0" fill="#000000" transform="matrix(1.00, 0.06, 0.06, -1.00, 399.8, 707.7)"> </text><text xml:space="preserve" font-family="Verdana-Bold" font-weight="bold" font-size="18.0" fill="#000000" transform="matrix(1.00, 0.06, 0.06, -1.00, 406.0, 708.0)">a</text><text xml:space="preserve" font-family="Verdana-Bold" font-weight="bold" font-size="18.0" fill="#000000" transform="matrix(1.00, 0.06, 0.06, -1.00, 418.0, 708.7)">d</text><text xml:space="preserve" font-family="Verdana-Bold" font-weight="bold" font-size="18.0" fill="#000000" transform="matrix(1.00, 0.06, 0.06, -1.00, 430.5, 709.5)">v</text><text xml:space="preserve" font-family="Verdana-Bold" font-weight="bold" font-size="18.0" fill="#000000" transform="matrix(1.00, 0.06, 0.06, -1.00, 442.2, 710.1)">e</text><text xml:space="preserve" font-family="Verdana-Bold" font-weight="bold" font-size="18.0" fill="#000000" transform="matrix(1.00, 0.06, 0.06, -1.00, 454.1, 710.8)">r</text><text xml:space="preserve" font-family="Verdana-Bold" font-weight="bold" font-size="18.0" fill="#000000" transform="matrix(1.00, 0.06, 0.06, -1.00, 463.1, 711.3)">t</text><text xml:space="preserve" font-family="Verdana-Bold" font-weight="bold" font-size="18.0" fill="#000000" transform="matrix(1.00, 0.06, 0.06, -1.00, 471.3, 711.8)">i</text><text xml:space="preserve" font-family="Verdana-Bold" font-weight="bold" font-size="18.0" fill="#000000" transform="matrix(1.00, 0.06, 0.06, -1.00, 477.4, 712.2)">s</text><text xml:space="preserve" font-family="Verdana-Bold" font-weight="bold" font-size="18.0" fill="#000000" transform="matrix(1.00, 0.06, 0.06, -1.00, 488.1, 712.8)">e</text><text xml:space="preserve" font-family="Verdana-Bold" font-weight="bold" font-size="18.0" fill="#000000" transform="matrix(1.00, 0.06, 0.06, -1.00, 500.0, 713.5)">m</text><text xml:space="preserve" font-family="Verdana-Bold" font-weight="bold" font-size="18.0" fill="#000000" transform="matrix(1.00, 0.06, 0.06, -1.00, 519.0, 714.5)">e</text><text xml:space="preserve" font-family="Verdana-Bold" font-weight="bold" font-size="18.0" fill="#000000" transform="matrix(1.00, 0.06, 0.06, -1.00, 531.0, 715.2)">n</text><text xml:space="preserve" font-family="Verdana-Bold" font-weight="bold" font-size="18.0" fill="#000000" transform="matrix(1.00, 0.06, 0.06, -1.00, 543.8, 716.0)">t</text><text xml:space="preserve" font-family="Verdana-Bold" font-weight="bold" font-size="18.0" fill="#000000" transform="matrix(1.00, 0.06, 0.06, -1.00, 551.9, 716.4)"> </text><text xml:space="preserve" font-family="Verdana-Bold" font-weight="bold" font-size="18.0" fill="#000000" transform="matrix(1.00, 0.06, 0.06, -1.00, 558.1, 716.8)">b</text><text xml:space="preserve" font-family="Verdana-Bold" font-weight="bold" font-size="18.0" fill="#000000" transform="matrix(1.00, 0.06, 0.06, -1.00, 570.6, 717.5)">e</text><text xml:space="preserve" font-family="Verdana-Bold" font-weight="bold" font-size="18.0" fill="#000000" transform="matrix(1.00, 0.06, 0.06, -1.00, 582.6, 718.2)">f</text><text xml:space="preserve" font-family="Verdana-Bold" font-weight="bold" font-size="18.0" fill="#000000" transform="matrix(1.00, 0.06, 0.06, -1.00, 590.2, 718.6)">o</text><text xml:space="preserve" font-family="Verdana-Bold" font-weight="bold" font-size="18.0" fill="#000000" transform="matrix(1.00, 0.06, 0.06, -1.00, 602.5, 719.3)">r</text><text xml:space="preserve" font-family="Verdana-Bold" font-weight="bold" font-size="18.0" fill="#000000" transform="matrix(1.00, 0.06, 0.06, -1.00, 611.4, 719.9)">e</text><text xml:space="preserve" font-family="Verdana-Bold" font-weight="bold" font-size="18.0" fill="#000000" transform="matrix(1.00, 0.06, 0.06, -1.00, 623.4, 720.5)"> </text><text xml:space="preserve" font-family="Verdana-Bold" font-weight="bold" font-size="18.0" fill="#000000" transform="matrix(1.00, 0.06, 0.06, -1.00, 629.5, 720.9)">t</text><text xml:space="preserve" font-family="Verdana-Bold" font-weight="bold" font-size="18.0" fill="#000000" transform="matrix(1.00, 0.06, 0.06, -1.00, 637.7, 721.4)">h</text><text xml:space="preserve" font-family="Verdana-Bold" font-weight="bold" font-size="18.0" fill="#000000" transform="matrix(1.00, 0.06, 0.06, -1.00, 650.5, 722.1)">e</text><text xml:space="preserve" font-family="Verdana-Bold" font-weight="bold" font-size="18.0" fill="#000000" transform="matrix(1.00, 0.06, 0.06, -1.00, 662.4, 722.8)"> </text><text xml:space="preserve" font-family="Verdana-Bold" font-weight="bold" font-size="18.0" fill="#000000" transform="matrix(1.00, 0.06, 0.06, -1.00, 344.8, 682.5)">a</text><text xml:space="preserve" font-family="Verdana-Bold" font-weight="bold" font-size="18.0" fill="#000000" transform="matrix(1.00, 0.06, 0.06, -1.00, 356.9, 683.2)">c</text><text xml:space="preserve" font-family="Verdana-Bold" font-weight="bold" font-size="18.0" fill="#000000" transform="matrix(1.00, 0.06, 0.06, -1.00, 367.4, 683.8)">c</text><text xml:space="preserve" font-family="Verdana-Bold" font-weight="bold" font-size="18.0" fill="#000000" transform="matrix(1.00, 0.06, 0.06, -1.00, 378.0, 684.4)">o</text><text xml:space="preserve" font-family="Verdana-Bold" font-weight="bold" font-size="18.0" fill="#000000" transform="matrix(1.00, 0.06, 0.06, -1.00, 390.3, 685.1)">u</text><text xml:space="preserve" font-family="Verdana-Bold" font-weight="bold" font-size="18.0" fill="#000000" transform="matrix(1.00, 0.06, 0.06, -1.00, 403.2, 685.8)">n</text><text xml:space="preserve" font-family="Verdana-Bold" font-weight="bold" font-size="18.0" fill="#000000" transform="matrix(1.00, 0.06, 0.06, -1.00, 416.0, 686.6)">t</text><text xml:space="preserve" font-family="Verdana-Bold" font-weight="bold" font-size="18.0" fill="#000000" transform="matrix(1.00, 0.06, 0.06, -1.00, 424.1, 687.1)"> </text><text xml:space="preserve" font-family="Verdana-Bold" font-weight="bold" font-size="18.0" fill="#000000" transform="matrix(1.00, 0.06, 0.06, -1.00, 430.3, 687.4)">i</text><text xml:space="preserve" font-family="Verdana-Bold" font-weight="bold" font-size="18.0" fill="#000000" transform="matrix(1.00, 0.06, 0.06, -1.00, 436.4, 687.8)">s</text><text xml:space="preserve" font-family="Verdana-Bold" font-weight="bold" font-size="18.0" fill="#000000" transform="matrix(1.00, 0.06, 0.06, -1.00, 447.1, 688.4)"> </text><text xml:space="preserve" font-family="Verdana-Bold" font-weight="bold" font-size="18.0" fill="#000000" transform="matrix(1.00, 0.06, 0.06, -1.00, 453.2, 688.7)">l</text><text xml:space="preserve" font-family="Verdana-Bold" font-weight="bold" font-size="18.0" fill="#000000" transform="matrix(1.00, 0.06, 0.06, -1.00, 459.4, 689.1)">o</text><text xml:space="preserve" font-family="Verdana-Bold" font-weight="bold" font-size="18.0" fill="#000000" transform="matrix(1.00, 0.06, 0.06, -1.00, 471.7, 689.8)">a</text><text xml:space="preserve" font-family="Verdana-Bold" font-weight="bold" font-size="18.0" fill="#000000" transform="matrix(1.00, 0.06, 0.06, -1.00, 483.7, 690.5)">d</text><text xml:space="preserve" font-family="Verdana-Bold" font-weight="bold" font-size="18.0" fill="#000000" transform="matrix(1.00, 0.06, 0.06, -1.00, 496.3, 691.2)">e</text><text xml:space="preserve" font-family="Verdana-Bold" font-weight="bold" font-size="18.0" fill="#000000" transform="matrix(1.00, 0.06, 0.06, -1.00, 508.2, 691.9)">d</text></g></g><text xml:space="preserve" font-family="Verdana" font-size="28.0" fill="#2150FF" transform="matrix(1.00, 0.00, -0.00, -1.00, 692.0, 411.0)">W</text><text xml:space="preserve" font-family="Verdana" font-size="28.0" fill="#2150FF" transform="matrix(1.00, 0.00, -0.00, -1.00, 719.7, 411.0)">h</text><text xml:space="preserve" font-family="Verdana" font-size="28.0" fill="#2150FF" transform="matrix(1.00, 0.00, -0.00, -1.00, 737.4, 411.0)">a</text><text xml:space="preserve" font-family="Verdana" font-size="28.0" fill="#2150FF" transform="matrix(1.00, 0.00, -0.00, -1.00, 754.2, 411.0)">t</text><text xml:space="preserve" font-family="Verdana" font-size="28.0" fill="#2150FF" transform="matrix(1.00, 0.00, -0.00, -1.00, 765.2, 411.0)"> </text><text xml:space="preserve" font-family="Verdana" font-size="28.0" fill="#2150FF" transform="matrix(1.00, 0.00, -0.00, -1.00, 775.1, 411.0)">w</text><text xml:space="preserve" font-family="Verdana" font-size="28.0" fill="#2150FF" transform="matrix(1.00, 0.00, -0.00, -1.00, 798.0, 411.0)">e</text><text xml:space="preserve" font-family="Verdana" font-size="28.0" fill="#2150FF" transform="matrix(1.00, 0.00, -0.00, -1.00, 814.7, 411.0)"> </text><text xml:space="preserve" font-family="Verdana" font-size="28.0" fill="#2150FF" transform="matrix(1.00, 0.00, -0.00, -1.00, 824.5, 411.0)">w</text><text xml:space="preserve" font-family="Verdana" font-size="28.0" fill="#2150FF" transform="matrix(1.00, 0.00, -0.00, -1.00, 847.1, 411.0)">a</text><text xml:space="preserve" font-family="Verdana" font-size="28.0" fill="#2150FF" transform="matrix(1.00, 0.00, -0.00, -1.00, 863.9, 411.0)">n</text><text xml:space="preserve" font-family="Verdana" font-size="28.0" fill="#2150FF" transform="matrix(1.00, 0.00, -0.00, -1.00, 881.7, 411.0)">t</text><text xml:space="preserve" font-family="Verdana" font-size="28.0" fill="#2150FF" transform="matrix(1.00, 0.00, -0.00, -1.00, 115.0, 411.0)">W</text><text xml:space="preserve" font-family="Verdana" font-size="28.0" fill="#2150FF" transform="matrix(1.00, 0.00, -0.00, -1.00, 142.7, 411.0)">h</text><text xml:space="preserve" font-family="Verdana" font-size="28.0" fill="#2150FF" transform="matrix(1.00, 0.00, -0.00, -1.00, 160.4, 411.0)">a</text><text xml:space="preserve" font-family="Verdana" font-size="28.0" fill="#2150FF" transform="matrix(1.00, 0.00, -0.00, -1.00, 177.2, 411.0)">t</text><text xml:space="preserve" font-family="Verdana" font-size="28.0" fill="#2150FF" transform="matrix(1.00, 0.00, -0.00, -1.00, 188.2, 411.0)"> </text><text xml:space="preserve" font-family="Verdana" font-size="28.0" fill="#2150FF" transform="matrix(1.00, 0.00, -0.00, -1.00, 198.1, 411.0)">c</text><text xml:space="preserve" font-family="Verdana" font-size="28.0" fill="#2150FF" transform="matrix(1.00, 0.00, -0.00, -1.00, 212.7, 411.0)">u</text><text xml:space="preserve" font-family="Verdana" font-size="28.0" fill="#2150FF" transform="matrix(1.00, 0.00, -0.00, -1.00, 230.4, 411.0)">r</text><text xml:space="preserve" font-family="Verdana" font-size="28.0" fill="#2150FF" transform="matrix(1.00, 0.00, -0.00, -1.00, 242.3, 411.0)">r</text><text xml:space="preserve" font-family="Verdana" font-size="28.0" fill="#2150FF" transform="matrix(1.00, 0.00, -0.00, -1.00, 254.3, 411.0)">e</text><text xml:space="preserve" font-family="Verdana" font-size="28.0" fill="#2150FF" transform="matrix(1.00, 0.00, -0.00, -1.00, 270.9, 411.0)">n</text><text xml:space="preserve" font-family="Verdana" font-size="28.0" fill="#2150FF" transform="matrix(1.00, 0.00, -0.00, -1.00, 288.6, 411.0)">t</text><text xml:space="preserve" font-family="Verdana" font-size="28.0" fill="#2150FF" transform="matrix(1.00, 0.00, -0.00, -1.00, 299.7, 411.0)">l</text><text xml:space="preserve" font-family="Verdana" font-size="28.0" fill="#2150FF" transform="matrix(1.00, 0.00, -0.00, -1.00, 307.4, 411.0)">y</text><text xml:space="preserve" font-family="Verdana" font-size="28.0" fill="#2150FF" transform="matrix(1.00, 0.00, -0.00, -1.00, 323.9, 411.0)"> </text><text xml:space="preserve" font-family="Verdana" font-size="28.0" fill="#2150FF" transform="matrix(1.00, 0.00, -0.00, -1.00, 333.8, 411.0)">h</text><text xml:space="preserve" font-family="Verdana" font-size="28.0" fill="#2150FF" transform="matrix(1.00, 0.00, -0.00, -1.00, 351.5, 411.0)">a</text><text xml:space="preserve" font-family="Verdana" font-size="28.0" fill="#2150FF" transform="matrix(1.00, 0.00, -0.00, -1.00, 368.3, 411.0)">p</text><text xml:space="preserve" font-family="Verdana" font-size="28.0" fill="#2150FF" transform="matrix(1.00, 0.00, -0.00, -1.00, 385.7, 411.0)">p</text><text xml:space="preserve" font-family="Verdana" font-size="28.0" fill="#2150FF" transform="matrix(1.00, 0.00, -0.00, -1.00, 403.2, 411.0)">e</text><text xml:space="preserve" font-family="Verdana" font-size="28.0" fill="#2150FF" transform="matrix(1.00, 0.00, -0.00, -1.00, 419.8, 411.0)">n</text><text xml:space="preserve" font-family="Verdana" font-size="28.0" fill="#2150FF" transform="matrix(1.00, 0.00, -0.00, -1.00, 437.6, 411.0)">s</text><text xml:space="preserve" font-family="Verdana" font-size="32.0" fill="#000000" transform="matrix(1.00, 0.00, -0.00, -1.00, 121.0, 345.0)">-</text><text xml:space="preserve" font-family="Verdana" font-size="32.0" fill="#000000" transform="matrix(1.00, 0.00, -0.00, -1.00, 135.5, 345.0)"> </text><text xml:space="preserve" font-family="Verdana" font-size="32.0" fill="#000000" transform="matrix(1.00, 0.00, -0.00, -1.00, 146.8, 345.0)">c</text><text xml:space="preserve" font-family="Verdana" font-size="32.0" fill="#000000" transform="matrix(1.00, 0.00, -0.00, -1.00, 163.4, 345.0)">a</text><text xml:space="preserve" font-family="Verdana" font-size="32.0" fill="#000000" transform="matrix(1.00, 0.00, -0.00, -1.00, 182.6, 345.0)">r</text><text xml:space="preserve" font-family="Verdana" font-size="32.0" fill="#000000" transform="matrix(1.00, 0.00, -0.00, -1.00, 196.3, 345.0)">d</text><text xml:space="preserve" font-family="Verdana" font-size="32.0" fill="#000000" transform="matrix(1.00, 0.00, -0.00, -1.00, 216.2, 345.0)">I</text><text xml:space="preserve" font-family="Verdana" font-size="32.0" fill="#000000" transform="matrix(1.00, 0.00, -0.00, -1.00, 229.7, 345.0)">n</text><text xml:space="preserve" font-family="Verdana" font-size="32.0" fill="#000000" transform="matrix(1.00, 0.00, -0.00, -1.00, 249.9, 345.0)">s</text><text xml:space="preserve" font-family="Verdana" font-size="32.0" fill="#000000" transform="matrix(1.00, 0.00, -0.00, -1.00, 266.6, 345.0)">e</text><text xml:space="preserve" font-family="Verdana" font-size="32.0" fill="#000000" transform="matrix(1.00, 0.00, -0.00, -1.00, 285.7, 345.0)">r</text><text xml:space="preserve" font-family="Verdana" font-size="32.0" fill="#000000" transform="matrix(1.00, 0.00, -0.00, -1.00, 299.3, 345.0)">t</text><text xml:space="preserve" font-family="Verdana" font-size="32.0" fill="#000000" transform="matrix(1.00, 0.00, -0.00, -1.00, 311.9, 345.0)">e</text><text xml:space="preserve" font-family="Verdana" font-size="32.0" fill="#000000" transform="matrix(1.00, 0.00, -0.00, -1.00, 331.0, 345.0)">d</text><text xml:space="preserve" font-family="Verdana" font-size="32.0" fill="#000000" transform="matrix(1.00, 0.00, -0.00, -1.00, 121.0, 295.0)">-</text><text xml:space="preserve" font-family="Verdana" font-size="32.0" fill="#000000" transform="matrix(1.00, 0.00, -0.00, -1.00, 135.5, 295.0)"> </text><text xml:space="preserve" font-family="Verdana" font-size="32.0" fill="#000000" transform="matrix(1.00, 0.00, -0.00, -1.00, 146.8, 295.0)">c</text><text xml:space="preserve" font-family="Verdana" font-size="32.0" fill="#000000" transform="matrix(1.00, 0.00, -0.00, -1.00, 163.4, 295.0)">a</text><text xml:space="preserve" font-family="Verdana" font-size="32.0" fill="#000000" transform="matrix(1.00, 0.00, -0.00, -1.00, 182.6, 295.0)">r</text><text xml:space="preserve" font-family="Verdana" font-size="32.0" fill="#000000" transform="matrix(1.00, 0.00, -0.00, -1.00, 196.3, 295.0)">d</text><text xml:space="preserve" font-family="Verdana" font-size="32.0" fill="#000000" transform="matrix(1.00, 0.00, -0.00, -1.00, 216.2, 295.0)">I</text><text xml:space="preserve" font-family="Verdana" font-size="32.0" fill="#000000" transform="matrix(1.00, 0.00, -0.00, -1.00, 229.7, 295.0)">s</text><text xml:space="preserve" font-family="Verdana" font-size="32.0" fill="#000000" transform="matrix(1.00, 0.00, -0.00, -1.00, 246.4, 295.0)">V</text><text xml:space="preserve" font-family="Verdana" font-size="32.0" fill="#000000" transform="matrix(1.00, 0.00, -0.00, -1.00, 266.7, 295.0)">a</text><text xml:space="preserve" font-family="Verdana" font-size="32.0" fill="#000000" transform="matrix(1.00, 0.00, -0.00, -1.00, 285.9, 295.0)">l</text><text xml:space="preserve" font-family="Verdana" font-size="32.0" fill="#000000" transform="matrix(1.00, 0.00, -0.00, -1.00, 294.7, 295.0)">i</text><text xml:space="preserve" font-family="Verdana" font-size="32.0" fill="#000000" transform="matrix(1.00, 0.00, -0.00, -1.00, 303.5, 295.0)">d</text><text xml:space="preserve" font-family="Verdana" font-size="32.0" fill="#000000" transform="matrix(1.00, 0.00, -0.00, -1.00, 121.0, 246.0)">-</text><text xml:space="preserve" font-family="Verdana" font-size="32.0" fill="#000000" transform="matrix(1.00, 0.00, -0.00, -1.00, 135.5, 246.0)"> </text><text xml:space="preserve" font-family="Verdana" font-size="32.0" fill="#000000" transform="matrix(1.00, 0.00, -0.00, -1.00, 146.8, 246.0)">l</text><text xml:space="preserve" font-family="Verdana" font-size="32.0" fill="#000000" transform="matrix(1.00, 0.00, -0.00, -1.00, 155.6, 246.0)">o</text><text xml:space="preserve" font-family="Verdana" font-size="32.0" fill="#000000" transform="matrix(1.00, 0.00, -0.00, -1.00, 175.0, 246.0)">a</text><text xml:space="preserve" font-family="Verdana" font-size="32.0" fill="#000000" transform="matrix(1.00, 0.00, -0.00, -1.00, 194.2, 246.0)">d</text><text xml:space="preserve" font-family="Verdana" font-size="32.0" fill="#000000" transform="matrix(1.00, 0.00, -0.00, -1.00, 214.1, 246.0)">i</text><text xml:space="preserve" font-family="Verdana" font-size="32.0" fill="#000000" transform="matrix(1.00, 0.00, -0.00, -1.00, 222.9, 246.0)">n</text><text xml:space="preserve" font-family="Verdana" font-size="32.0" fill="#000000" transform="matrix(1.00, 0.00, -0.00, -1.00, 243.2, 246.0)">g</text><text xml:space="preserve" font-family="Verdana" font-size="32.0" fill="#000000" transform="matrix(1.00, 0.00, -0.00, -1.00, 263.1, 246.0)">A</text><text xml:space="preserve" font-family="Verdana" font-size="32.0" fill="#000000" transform="matrix(1.00, 0.00, -0.00, -1.00, 285.0, 246.0)">c</text><text xml:space="preserve" font-family="Verdana" font-size="32.0" fill="#000000" transform="matrix(1.00, 0.00, -0.00, -1.00, 301.6, 246.0)">c</text><text xml:space="preserve" font-family="Verdana" font-size="32.0" fill="#000000" transform="matrix(1.00, 0.00, -0.00, -1.00, 318.3, 246.0)">o</text><text xml:space="preserve" font-family="Verdana" font-size="32.0" fill="#000000" transform="matrix(1.00, 0.00, -0.00, -1.00, 337.7, 246.0)">u</text><text xml:space="preserve" font-family="Verdana" font-size="32.0" fill="#000000" transform="matrix(1.00, 0.00, -0.00, -1.00, 358.0, 246.0)">n</text><text xml:space="preserve" font-family="Verdana" font-size="32.0" fill="#000000" transform="matrix(1.00, 0.00, -0.00, -1.00, 378.2, 246.0)">t</text><text xml:space="preserve" font-family="Verdana" font-size="32.0" fill="#000000" transform="matrix(1.00, 0.00, -0.00, -1.00, 121.0, 196.0)">-</text><text xml:space="preserve" font-family="Verdana" font-size="32.0" fill="#000000" transform="matrix(1.00, 0.00, -0.00, -1.00, 135.5, 196.0)"> </text><text xml:space="preserve" font-family="Verdana" font-size="32.0" fill="#000000" transform="matrix(1.00, 0.00, -0.00, -1.00, 146.8, 196.0)">a</text><text xml:space="preserve" font-family="Verdana" font-size="32.0" fill="#000000" transform="matrix(1.00, 0.00, -0.00, -1.00, 166.0, 196.0)">c</text><text xml:space="preserve" font-family="Verdana" font-size="32.0" fill="#000000" transform="matrix(1.00, 0.00, -0.00, -1.00, 182.6, 196.0)">c</text><text xml:space="preserve" font-family="Verdana" font-size="32.0" fill="#000000" transform="matrix(1.00, 0.00, -0.00, -1.00, 199.3, 196.0)">o</text><text xml:space="preserve" font-family="Verdana" font-size="32.0" fill="#000000" transform="matrix(1.00, 0.00, -0.00, -1.00, 218.7, 196.0)">u</text><text xml:space="preserve" font-family="Verdana" font-size="32.0" fill="#000000" transform="matrix(1.00, 0.00, -0.00, -1.00, 239.0, 196.0)">n</text><text xml:space="preserve" font-family="Verdana" font-size="32.0" fill="#000000" transform="matrix(1.00, 0.00, -0.00, -1.00, 259.2, 196.0)">t</text><text xml:space="preserve" font-family="Verdana" font-size="32.0" fill="#000000" transform="matrix(1.00, 0.00, -0.00, -1.00, 271.8, 196.0)">L</text><text xml:space="preserve" font-family="Verdana" font-size="32.0" fill="#000000" transform="matrix(1.00, 0.00, -0.00, -1.00, 289.6, 196.0)">o</text><text xml:space="preserve" font-family="Verdana" font-size="32.0" fill="#000000" transform="matrix(1.00, 0.00, -0.00, -1.00, 309.1, 196.0)">a</text><text xml:space="preserve" font-family="Verdana" font-size="32.0" fill="#000000" transform="matrix(1.00, 0.00, -0.00, -1.00, 328.3, 196.0)">d</text><text xml:space="preserve" font-family="Verdana" font-size="32.0" fill="#000000" transform="matrix(1.00, 0.00, -0.00, -1.00, 348.2, 196.0)">e</text><text xml:space="preserve" font-family="Verdana" font-size="32.0" fill="#000000" transform="matrix(1.00, 0.00, -0.00, -1.00, 367.3, 196.0)">d</text><text xml:space="preserve" font-family="Verdana" font-size="32.0" fill="#000000" transform="matrix(1.00, 0.00, -0.00, -1.00, 123.0, 149.0)">-</text><text xml:space="preserve" font-family="Verdana" font-size="32.0" fill="#000000" transform="matrix(1.00, 0.00, -0.00, -1.00, 137.5, 149.0)"> </text><text xml:space="preserve" font-family="Verdana" font-size="32.0" fill="#000000" transform="matrix(1.00, 0.00, -0.00, -1.00, 148.8, 149.0)">w</text><text xml:space="preserve" font-family="Verdana" font-size="32.0" fill="#000000" transform="matrix(1.00, 0.00, -0.00, -1.00, 174.7, 149.0)">a</text><text xml:space="preserve" font-family="Verdana" font-size="32.0" fill="#000000" transform="matrix(1.00, 0.00, -0.00, -1.00, 193.9, 149.0)">i</text><text xml:space="preserve" font-family="Verdana" font-size="32.0" fill="#000000" transform="matrix(1.00, 0.00, -0.00, -1.00, 202.7, 149.0)">t</text><text xml:space="preserve" font-family="Verdana" font-size="32.0" fill="#000000" transform="matrix(1.00, 0.00, -0.00, -1.00, 215.3, 149.0)">i</text><text xml:space="preserve" font-family="Verdana" font-size="32.0" fill="#000000" transform="matrix(1.00, 0.00, -0.00, -1.00, 224.1, 149.0)">n</text><text xml:space="preserve" font-family="Verdana" font-size="32.0" fill="#000000" transform="matrix(1.00, 0.00, -0.00, -1.00, 244.3, 149.0)">g</text><text xml:space="preserve" font-family="Verdana" font-size="32.0" fill="#000000" transform="matrix(1.00, 0.00, -0.00, -1.00, 264.2, 149.0)">F</text><text xml:space="preserve" font-family="Verdana" font-size="32.0" fill="#000000" transform="matrix(1.00, 0.00, -0.00, -1.00, 281.8, 149.0)">o</text><text xml:space="preserve" font-family="Verdana" font-size="32.0" fill="#000000" transform="matrix(1.00, 0.00, -0.00, -1.00, 301.3, 149.0)">r</text><text xml:space="preserve" font-family="Verdana" font-size="32.0" fill="#000000" transform="matrix(1.00, 0.00, -0.00, -1.00, 314.9, 149.0)">P</text><text xml:space="preserve" font-family="Verdana" font-size="32.0" fill="#000000" transform="matrix(1.00, 0.00, -0.00, -1.00, 334.2, 149.0)">i</text><text xml:space="preserve" font-family="Verdana" font-size="32.0" fill="#000000" transform="matrix(1.00, 0.00, -0.00, -1.00, 343.0, 149.0)">n</text></g></svg>