<?xml version="1.0" encoding="UTF-8" standalone="no"?><svg xmlns="http://www.w3.org/2000/svg" xmlns:xlink="http://www.w3.org/1999/xlink" clip-rule="evenodd" stroke-miterlimit="4.00" viewBox="0 0 43 31"><desc>SVG generated by Keynote</desc><defs></defs><g transform="matrix(1.00, 0.00, -0.00, -1.00, 0.0, 31.0)"><g><clipPath id="clip-288"><path d="M 9.5 20.5 L 37.9 20.5 L 37.9 31.0 L 9.5 31.0 Z M 9.5 20.5 "></path></clipPath><g clip-path="url(#clip-288)"><path d="M 10.5 30.0 L 36.9 30.0 L 36.9 21.5 L 10.5 21.5 Z M 10.5 30.0 " fill="#FEA46F"></path></g></g><g><clipPath id="clip-289"><path d="M 0.6 10.8 L 42.3 10.8 L 42.3 21.3 L 0.6 21.3 Z M 0.6 10.8 "></path></clipPath><g clip-path="url(#clip-289)"><path d="M 1.6 20.3 L 41.3 20.3 L 41.3 11.8 L 1.6 11.8 Z M 1.6 20.3 " fill="#FEA46F"></path></g></g><g><clipPath id="clip-290"><path d="M 11.6 0.7 L 36.5 0.7 L 36.5 11.2 L 11.6 11.2 Z M 11.6 0.7 "></path></clipPath><g clip-path="url(#clip-290)"><path d="M 12.6 10.2 L 35.5 10.2 L 35.5 1.7 L 12.6 1.7 Z M 12.6 10.2 " fill="#FEA46F"></path></g></g></g></svg>