<?xml version="1.0" encoding="UTF-8" standalone="no"?><svg xmlns="http://www.w3.org/2000/svg" xmlns:xlink="http://www.w3.org/1999/xlink" clip-rule="evenodd" stroke-miterlimit="4.00" viewBox="0 0 53 50"><desc>SVG generated by Keynote</desc><defs></defs><g transform="matrix(1.00, 0.00, -0.00, -1.00, 0.0, 50.0)"><g><clipPath id="clip-279"><path d="M 0.4 34.3 L 49.7 34.3 L 49.7 49.3 L 0.4 49.3 Z M 0.4 34.3 "></path></clipPath><g clip-path="url(#clip-279)"><path d="M 1.4 48.3 L 48.7 48.3 L 48.7 35.3 L 1.4 35.3 Z M 1.4 48.3 " fill="#00A0FD"></path></g></g><g><clipPath id="clip-280"><path d="M 11.1 15.8 L 39.1 15.8 L 39.1 30.9 L 11.1 30.9 Z M 11.1 15.8 "></path></clipPath><g clip-path="url(#clip-280)"><path d="M 12.1 29.9 L 38.1 29.9 L 38.1 16.8 L 12.1 16.8 Z M 12.1 29.9 " fill="#00A0FD"></path></g></g><g><clipPath id="clip-281"><path d="M 6.3 0.3 L 42.0 0.3 L 42.0 15.4 L 6.3 15.4 Z M 6.3 0.3 "></path></clipPath><g clip-path="url(#clip-281)"><path d="M 7.3 14.4 L 41.0 14.4 L 41.0 1.3 L 7.3 1.3 Z M 7.3 14.4 " fill="#00A0FD"></path></g></g><g><clipPath id="clip-282"><path d="M 40.6 15.8 L 52.0 15.8 L 52.0 30.9 L 40.6 30.9 Z M 40.6 15.8 "></path></clipPath><g clip-path="url(#clip-282)"><path d="M 41.6 29.9 L 51.0 29.9 L 51.0 16.8 L 41.6 16.8 Z M 41.6 29.9 " fill="#00A0FD"></path></g></g></g></svg>