<?xml version="1.0" encoding="UTF-8" standalone="no"?><svg xmlns="http://www.w3.org/2000/svg" xmlns:xlink="http://www.w3.org/1999/xlink" clip-rule="evenodd" stroke-miterlimit="4.00" viewBox="0 0 43 39"><desc>SVG generated by Keynote</desc><defs></defs><g transform="matrix(1.00, 0.00, -0.00, -1.00, 0.0, 39.0)"><g><clipPath id="clip-283"><path d="M 5.2 1.0 L 28.5 1.0 L 28.5 12.6 L 5.2 12.6 Z M 5.2 1.0 "></path></clipPath><g clip-path="url(#clip-283)"><path d="M 6.2 11.6 L 27.5 11.6 L 27.5 2.0 L 6.2 2.0 Z M 6.2 11.6 " fill="#FB90FD"></path></g></g><g><clipPath id="clip-284"><path d="M 28.2 1.0 L 42.6 1.0 L 42.6 12.6 L 28.2 12.6 Z M 28.2 1.0 "></path></clipPath><g clip-path="url(#clip-284)"><path d="M 29.2 11.6 L 41.6 11.6 L 41.6 2.0 L 29.2 2.0 Z M 29.2 11.6 " fill="#FB90FD"></path></g></g><g><clipPath id="clip-285"><path d="M 2.3 13.9 L 40.1 13.9 L 40.1 25.6 L 2.3 25.6 Z M 2.3 13.9 "></path></clipPath><g clip-path="url(#clip-285)"><path d="M 3.3 24.6 L 39.1 24.6 L 39.1 14.9 L 3.3 14.9 Z M 3.3 24.6 " fill="#FB90FD"></path></g></g><g><clipPath id="clip-286"><path d="M 0.9 26.9 L 24.3 26.9 L 24.3 38.6 L 0.9 38.6 Z M 0.9 26.9 "></path></clipPath><g clip-path="url(#clip-286)"><path d="M 1.9 37.6 L 23.3 37.6 L 23.3 27.9 L 1.9 27.9 Z M 1.9 37.6 " fill="#FB90FD"></path></g></g><g><clipPath id="clip-287"><path d="M 26.5 26.9 L 40.8 26.9 L 40.8 38.6 L 26.5 38.6 Z M 26.5 26.9 "></path></clipPath><g clip-path="url(#clip-287)"><path d="M 27.5 37.6 L 39.8 37.6 L 39.8 27.9 L 27.5 27.9 Z M 27.5 37.6 " fill="#FB90FD"></path></g></g></g></svg>