<?xml version="1.0" encoding="UTF-8" standalone="no"?><svg xmlns="http://www.w3.org/2000/svg" xmlns:xlink="http://www.w3.org/1999/xlink" clip-rule="evenodd" stroke-miterlimit="4.00" viewBox="0 0 175 20"><desc>SVG generated by Keynote</desc><defs></defs><g transform="matrix(1.00, 0.00, -0.00, -1.00, 0.0, 20.0)"><text xml:space="preserve" font-family="Consolas" font-size="24.0" fill="#000000" transform="matrix(1.00, 0.00, -0.00, -1.00, 2.0, 2.0)">w</text><text xml:space="preserve" font-family="Consolas" font-size="24.0" fill="#000000" transform="matrix(1.00, 0.00, -0.00, -1.00, 15.2, 2.0)">a</text><text xml:space="preserve" font-family="Consolas" font-size="24.0" fill="#000000" transform="matrix(1.00, 0.00, -0.00, -1.00, 28.4, 2.0)">t</text><text xml:space="preserve" font-family="Consolas" font-size="24.0" fill="#000000" transform="matrix(1.00, 0.00, -0.00, -1.00, 41.6, 2.0)">e</text><text xml:space="preserve" font-family="Consolas" font-size="24.0" fill="#000000" transform="matrix(1.00, 0.00, -0.00, -1.00, 54.8, 2.0)">r</text><text xml:space="preserve" font-family="Consolas" font-size="24.0" fill="#000000" transform="matrix(1.00, 0.00, -0.00, -1.00, 68.0, 2.0)">L</text><text xml:space="preserve" font-family="Consolas" font-size="24.0" fill="#000000" transform="matrix(1.00, 0.00, -0.00, -1.00, 81.1, 2.0)">e</text><text xml:space="preserve" font-family="Consolas" font-size="24.0" fill="#000000" transform="matrix(1.00, 0.00, -0.00, -1.00, 94.3, 2.0)">v</text><text xml:space="preserve" font-family="Consolas" font-size="24.0" fill="#000000" transform="matrix(1.00, 0.00, -0.00, -1.00, 107.5, 2.0)">e</text><text xml:space="preserve" font-family="Consolas" font-size="24.0" fill="#000000" transform="matrix(1.00, 0.00, -0.00, -1.00, 120.7, 2.0)">l</text><text xml:space="preserve" font-family="Consolas" font-size="24.0" fill="#000000" transform="matrix(1.00, 0.00, -0.00, -1.00, 133.9, 2.0)">L</text><text xml:space="preserve" font-family="Consolas" font-size="24.0" fill="#000000" transform="matrix(1.00, 0.00, -0.00, -1.00, 147.1, 2.0)">o</text><text xml:space="preserve" font-family="Consolas" font-size="24.0" fill="#000000" transform="matrix(1.00, 0.00, -0.00, -1.00, 160.3, 2.0)">w</text></g></svg>