<?xml version="1.0" encoding="UTF-8" standalone="no"?><svg xmlns="http://www.w3.org/2000/svg" xmlns:xlink="http://www.w3.org/1999/xlink" clip-rule="evenodd" stroke-miterlimit="4.00" viewBox="0 0 252 66"><desc>SVG generated by Keynote</desc><defs></defs><g transform="matrix(1.00, 0.00, -0.00, -1.00, 0.0, 66.0)"><path d="M 201.3 44.2 C 201.8 44.3 203.6 44.6 203.7 44.4 C 203.0 44.4 201.5 44.1 201.3 44.2 C 201.3 44.2 201.3 44.2 201.3 44.2 Z M 197.5 43.8 C 198.2 43.9 199.7 44.1 200.2 44.1 C 199.4 44.0 197.8 43.7 197.5 43.8 C 197.5 43.8 197.5 43.8 197.5 43.8 Z M 203.4 44.2 C 204.4 44.3 206.2 44.6 206.7 44.6 C 205.7 44.5 203.8 44.2 203.4 44.2 C 203.4 44.2 203.4 44.2 203.4 44.2 Z M 150.0 39.3 C 150.4 39.4 152.3 39.7 152.3 39.6 C 151.6 39.5 150.1 39.2 150.0 39.3 C 150.0 39.3 150.0 39.3 150.0 39.3 Z M 160.5 40.4 C 161.2 40.5 162.7 40.7 163.2 40.7 C 162.4 40.6 160.8 40.3 160.5 40.4 C 160.5 40.4 160.5 40.4 160.5 40.4 Z M 166.6 41.2 C 168.0 41.4 169.5 41.5 169.3 41.4 C 168.8 41.4 166.8 41.1 166.6 41.2 C 166.6 41.2 166.6 41.2 166.6 41.2 Z M 202.7 39.7 C 201.2 39.6 200.1 39.4 199.1 39.2 C 193.9 38.6 201.7 39.8 202.7 39.7 C 202.7 39.7 202.7 39.7 202.7 39.7 Z M 177.4 42.2 C 176.4 42.1 175.6 42.0 175.1 42.0 C 176.0 42.1 177.3 42.3 177.4 42.2 C 177.4 42.2 177.4 42.2 177.4 42.2 Z M 186.3 43.2 C 186.5 43.3 191.7 43.9 194.6 44.2 C 192.2 43.9 186.0 43.1 186.3 43.2 C 186.3 43.2 186.3 43.2 186.3 43.2 Z M 190.4 38.1 C 187.0 37.8 181.6 37.1 179.1 36.8 C 176.6 36.6 183.4 37.5 189.7 38.3 C 196.0 39.0 190.8 38.2 193.4 38.5 C 196.0 38.7 191.0 38.0 188.4 37.8 C 185.9 37.5 190.1 38.0 190.4 38.1 C 190.4 38.1 190.4 38.1 190.4 38.1 Z M 190.6 37.8 C 191.8 38.0 192.9 38.1 193.6 38.1 C 192.3 37.9 191.1 37.7 190.6 37.8 C 190.6 37.8 190.6 37.8 190.6 37.8 Z M 8.0 17.6 C 8.2 18.7 11.1 20.0 14.3 21.0 C 15.1 21.2 15.8 21.5 16.7 21.7 C 22.6 22.9 28.5 23.9 34.5 24.8 C 35.7 25.0 36.9 25.1 38.1 25.3 C 41.7 25.8 45.4 26.3 49.1 26.8 C 50.4 27.0 51.6 27.1 52.8 27.3 C 57.3 28.0 61.6 28.4 65.9 29.0 C 68.1 29.2 70.3 29.6 72.6 30.0 C 73.7 30.2 78.6 30.8 80.4 30.9 C 78.7 30.9 86.7 31.9 86.3 31.8 C 87.2 31.8 88.2 31.9 89.1 32.0 C 90.0 32.1 88.9 31.9 87.7 31.7 C 88.7 31.8 89.8 31.9 90.9 32.1 C 92.0 32.2 93.1 32.4 94.2 32.5 C 98.0 33.1 102.0 33.5 105.5 33.8 C 115.0 35.0 141.1 38.2 136.4 37.6 C 131.1 36.9 133.8 37.1 135.2 37.3 C 136.1 37.4 137.2 37.5 138.5 37.7 C 138.4 37.7 138.3 37.7 138.1 37.7 C 140.5 38.0 143.8 38.6 147.1 38.9 C 146.5 38.8 145.7 38.7 145.5 38.6 C 147.1 38.8 145.8 38.5 146.9 38.6 C 149.9 39.0 151.4 39.1 147.9 38.7 C 151.1 39.0 153.2 39.1 156.5 39.3 C 157.7 39.5 157.0 39.4 156.6 39.4 C 158.8 39.8 163.7 40.4 164.1 40.5 C 164.5 40.6 150.9 38.8 153.3 39.2 C 154.3 39.4 156.3 39.6 157.1 39.7 C 155.4 39.5 153.2 39.3 152.1 39.2 C 153.3 39.4 155.0 39.6 156.0 39.7 C 154.8 39.6 154.0 39.5 153.6 39.5 C 155.3 39.7 156.6 39.9 158.6 40.1 C 159.5 40.2 157.9 39.9 159.8 40.2 C 160.1 40.2 158.5 40.0 158.6 40.0 C 160.2 40.1 163.2 40.5 164.0 40.6 C 164.8 40.6 162.1 40.3 162.1 40.3 C 168.0 41.0 174.8 41.8 176.9 42.1 C 179.0 42.3 177.1 42.1 176.2 41.9 C 178.6 42.2 180.5 42.4 183.4 42.8 C 185.2 43.0 184.5 42.9 183.8 42.8 C 184.3 42.8 184.7 42.9 185.0 42.9 C 185.2 42.9 185.8 43.0 186.1 43.0 C 185.0 42.8 182.9 42.6 181.9 42.4 C 183.6 42.6 187.7 43.2 189.2 43.3 C 186.9 42.9 184.3 42.6 181.7 42.2 C 186.8 42.8 192.1 43.7 196.3 44.0 C 195.5 43.9 195.2 43.8 194.6 43.7 C 196.2 44.0 198.5 44.3 199.9 44.4 C 200.7 44.5 202.3 44.6 203.8 44.8 C 201.1 44.4 199.3 44.2 197.4 44.0 C 197.5 44.0 197.6 44.0 198.0 44.0 C 193.8 43.3 191.3 43.3 188.3 43.0 C 188.1 42.9 187.8 42.9 187.6 42.9 C 186.6 42.6 190.1 43.1 190.4 43.1 C 186.0 42.5 181.1 41.9 178.9 41.6 C 184.2 42.2 188.9 42.8 192.9 43.2 C 191.8 43.0 187.8 42.5 185.9 42.2 C 194.6 43.2 195.5 43.3 196.2 43.4 C 195.5 43.3 194.9 43.2 194.2 43.1 C 194.4 43.1 194.5 43.1 194.7 43.1 C 198.5 43.6 203.0 44.1 202.7 44.1 C 202.6 44.0 199.1 43.6 195.4 43.1 C 195.8 43.1 196.2 43.1 196.6 43.1 C 200.9 43.6 205.8 44.1 210.1 44.7 C 209.4 44.5 209.8 44.5 210.7 44.6 C 209.3 44.4 207.4 44.1 206.0 43.9 C 206.5 43.9 207.4 44.0 207.6 44.0 C 206.9 43.9 205.8 43.8 205.4 43.7 C 207.5 43.9 209.7 44.1 211.8 44.4 C 212.3 44.3 210.9 44.2 211.0 44.2 C 213.0 44.4 215.9 44.8 217.4 44.9 C 215.7 44.6 212.3 44.3 211.3 44.1 C 212.0 44.1 212.6 44.2 213.3 44.2 C 214.7 44.4 215.4 44.5 213.9 44.2 C 213.0 44.1 213.0 44.1 213.2 44.1 C 214.2 44.2 217.5 44.6 217.4 44.4 C 216.6 44.3 213.3 43.9 212.5 43.7 C 213.1 43.7 214.8 44.0 215.0 43.9 C 211.3 43.5 211.4 43.4 210.5 43.4 C 210.9 43.5 212.0 43.6 211.9 43.6 C 209.7 43.3 207.4 43.1 205.1 42.8 C 205.1 42.8 205.1 42.8 205.1 42.8 C 205.1 42.8 205.1 42.8 205.1 42.8 C 205.1 42.8 205.1 42.8 205.1 42.8 C 205.3 42.7 205.2 42.6 205.0 42.5 C 206.0 42.7 207.0 42.8 208.9 43.0 C 208.4 42.8 206.7 42.6 205.2 42.5 C 205.2 42.4 205.2 42.4 205.2 42.4 C 207.7 42.7 211.6 43.2 214.2 43.4 C 213.0 43.2 208.7 42.7 205.7 42.3 C 205.8 42.3 205.9 42.3 206.0 42.3 C 202.3 41.8 197.9 41.2 193.7 40.7 C 195.7 40.8 198.1 41.2 200.7 41.5 C 201.9 41.6 203.0 41.7 204.2 41.8 C 207.5 42.3 217.3 43.5 218.4 43.6 C 219.7 43.7 209.7 42.4 209.7 42.4 C 209.6 42.3 214.3 42.9 212.1 42.6 C 210.9 42.5 208.4 42.2 206.6 42.0 C 206.6 41.9 206.5 41.8 206.5 41.7 C 208.0 41.9 209.9 42.1 210.0 42.2 C 210.8 42.3 212.4 42.6 212.6 42.5 C 212.4 42.5 212.0 42.4 212.0 42.4 C 212.4 42.4 212.9 42.5 213.0 42.5 C 211.1 42.2 208.5 41.9 206.4 41.6 C 206.2 41.5 206.0 41.5 205.9 41.4 C 205.9 41.4 207.5 41.6 208.9 41.7 C 210.4 41.9 207.3 41.5 204.9 41.2 C 204.6 41.1 204.2 41.0 203.8 40.9 C 204.6 41.0 205.6 41.1 206.7 41.3 C 208.1 41.4 208.0 41.3 209.4 41.4 C 206.9 41.1 204.0 40.7 201.6 40.4 C 200.7 40.2 199.9 40.0 199.0 39.9 C 201.0 40.1 202.8 40.2 203.9 40.3 C 204.8 40.4 205.7 40.6 206.0 40.5 C 205.2 40.4 207.3 40.7 207.0 40.5 C 205.9 40.5 203.5 40.1 202.7 40.2 C 200.9 39.9 198.9 39.7 197.1 39.5 C 196.9 39.4 196.6 39.4 196.4 39.3 C 197.9 39.5 199.3 39.7 200.9 39.8 C 200.2 39.6 195.8 39.0 192.6 38.7 C 186.1 37.8 179.5 37.5 173.0 36.7 C 172.7 36.7 172.3 36.6 171.9 36.6 C 171.5 36.5 171.0 36.4 170.5 36.3 C 172.1 36.5 173.5 36.6 174.6 36.7 C 170.0 36.0 181.2 37.5 181.9 37.5 C 174.5 36.3 160.5 34.7 151.9 33.5 C 154.0 33.8 154.7 33.8 152.5 33.5 C 151.9 33.4 151.3 33.4 150.6 33.3 C 159.4 34.3 168.5 35.6 175.5 36.3 C 171.4 35.8 165.1 35.0 163.3 34.7 C 164.6 34.8 166.3 35.1 166.6 35.1 C 164.5 34.7 157.3 33.9 155.2 33.6 C 165.5 34.8 179.3 36.6 186.9 37.3 C 175.5 36.0 160.1 33.9 150.4 32.9 C 152.1 33.1 152.1 33.1 151.2 33.1 C 148.2 32.7 145.1 32.4 142.0 32.0 C 141.4 31.9 141.6 31.9 143.1 32.1 C 144.3 32.2 145.1 32.3 145.5 32.3 C 144.6 32.2 135.0 31.0 142.7 31.9 C 150.3 32.8 163.5 34.4 155.8 33.4 C 148.1 32.4 145.0 31.9 149.3 32.4 C 153.5 32.9 166.9 34.5 162.4 33.9 C 158.0 33.3 148.5 32.0 143.2 31.4 C 137.9 30.8 146.8 32.2 138.9 31.2 C 131.1 30.3 137.6 31.0 136.1 30.8 C 133.7 30.5 129.4 29.9 125.2 29.4 C 122.3 29.0 118.6 28.6 116.7 28.3 C 116.8 28.2 125.7 29.4 122.2 28.9 C 113.6 27.8 104.0 26.6 107.9 27.2 C 102.6 26.5 98.7 26.0 95.3 25.6 C 90.2 24.8 84.2 24.1 83.5 24.0 C 82.7 23.9 68.6 22.4 63.4 21.3 C 63.0 21.3 53.4 20.2 52.6 20.2 C 43.6 18.9 44.9 19.0 35.9 17.9 C 28.5 17.0 26.2 16.8 24.9 16.7 C 17.1 15.7 17.1 15.6 13.2 15.7 C 12.1 15.7 10.3 15.5 9.6 15.7 C 8.3 16.0 7.7 16.7 8.0 17.6 C 8.0 17.6 8.0 17.6 8.0 17.6 Z M 204.0 42.8 C 205.4 43.0 207.9 43.3 209.4 43.6 C 207.7 43.5 205.6 43.2 203.5 42.9 C 203.7 42.8 203.9 42.8 204.0 42.8 C 204.0 42.8 204.0 42.8 204.0 42.8 Z M 193.5 39.8 C 194.4 39.9 195.6 40.1 196.6 40.3 C 197.6 40.4 198.6 40.5 200.1 40.7 C 200.0 40.6 197.5 40.2 195.6 40.0 C 195.6 40.0 195.6 39.9 195.6 39.9 C 196.6 40.0 197.7 40.1 199.0 40.2 C 199.4 40.3 199.9 40.4 200.3 40.4 C 200.4 40.5 199.7 40.4 199.4 40.4 C 199.7 40.5 200.9 40.7 202.4 40.9 C 202.6 41.0 202.7 41.0 202.9 41.0 C 203.1 41.2 202.0 41.1 203.2 41.2 C 202.3 41.2 200.0 40.8 198.6 40.7 C 200.2 40.7 194.1 40.0 192.6 39.8 C 192.9 39.8 193.2 39.8 193.5 39.8 Z M 181.4 42.2 C 180.5 42.1 179.7 42.0 178.9 41.8 C 180.1 42.0 181.0 42.1 181.9 42.2 C 181.7 42.2 181.5 42.2 181.4 42.2 Z M 112.9 34.4 C 117.9 34.8 128.3 36.4 129.0 36.3 C 130.1 36.5 131.1 36.6 132.2 36.8 C 125.3 35.9 117.8 35.0 112.9 34.4 C 112.9 34.4 112.9 34.4 112.9 34.4 Z M 131.2 30.6 C 131.6 30.6 131.4 30.6 130.4 30.5 C 125.1 29.9 121.9 29.6 125.3 30.0 C 128.2 30.4 134.4 31.2 132.6 31.0 C 130.1 30.7 127.7 30.4 125.2 30.1 C 123.2 29.9 121.4 29.5 119.4 29.2 C 123.6 29.7 127.6 30.1 131.2 30.6 C 131.2 30.6 131.2 30.6 131.2 30.6 Z M 117.1 28.7 C 118.6 28.9 120.4 29.1 122.2 29.4 C 120.6 29.2 119.1 29.0 117.5 28.8 C 117.4 28.8 117.3 28.7 117.1 28.7 Z M 115.3 28.3 C 118.3 28.7 121.3 29.1 118.3 28.8 C 117.6 28.7 116.9 28.6 116.2 28.5 C 115.9 28.5 115.6 28.4 115.3 28.3 Z M 113.4 28.0 C 113.4 28.1 113.9 28.2 115.0 28.3 C 112.9 28.1 108.8 27.6 109.0 27.5 C 110.4 27.7 111.9 27.9 113.4 28.0 C 113.4 28.0 113.4 28.0 113.4 28.0 Z M 109.5 34.2 C 110.9 34.4 112.0 34.5 109.9 34.3 C 109.1 34.2 108.3 34.1 107.5 34.0 C 108.1 34.1 108.8 34.1 109.5 34.2 Z M 180.0 36.7 C 179.4 36.7 177.3 36.4 176.0 36.3 C 175.9 36.5 180.8 37.0 180.0 36.7 C 180.0 36.7 180.0 36.7 180.0 36.7 Z M 188.1 37.6 C 187.6 37.6 185.4 37.3 184.2 37.2 C 184.0 37.4 188.9 37.9 188.1 37.6 C 188.1 37.6 188.1 37.6 188.1 37.6 Z M 63.3 21.3 C 63.3 21.3 63.3 21.3 63.4 21.3 C 63.3 21.3 63.3 21.3 63.3 21.3 C 63.3 21.3 63.3 21.3 63.3 21.3 Z M 63.3 21.3 " fill="#000000"></path><path d="M 213.2 59.5 C 213.8 60.0 214.3 59.8 214.5 59.7 C 214.5 59.7 214.5 59.7 214.5 59.7 L 214.5 59.7 L 214.5 59.7 L 214.6 59.7 L 214.7 59.6 L 214.9 59.5 L 215.2 59.4 C 215.4 59.4 215.6 59.4 215.7 59.4 C 215.9 59.7 214.7 60.0 214.9 60.2 C 215.1 60.3 219.4 58.8 219.5 58.8 C 219.8 58.5 220.8 58.0 221.1 57.9 C 220.5 58.2 220.0 58.6 219.7 58.7 C 219.7 58.7 218.8 59.3 220.0 59.1 C 219.8 59.2 219.7 59.3 219.8 59.3 L 219.8 59.4 C 219.8 59.3 218.7 59.6 218.7 59.9 C 218.8 60.4 222.2 58.4 222.6 58.5 C 222.1 58.7 221.8 58.8 221.7 59.0 C 222.5 58.5 226.6 57.2 227.4 56.8 C 230.2 55.7 233.1 54.1 235.9 52.8 C 237.2 52.2 238.7 51.6 240.2 50.9 L 242.6 49.8 L 242.7 49.7 L 242.8 49.7 L 242.9 49.7 C 243.0 49.6 242.4 49.9 243.3 49.5 C 244.3 49.4 244.6 46.2 243.7 46.0 C 243.0 45.4 243.5 45.8 243.4 45.7 L 243.3 45.7 L 243.1 45.5 L 242.5 45.2 L 241.4 44.4 C 238.4 42.4 235.4 40.4 233.2 38.6 C 231.6 37.4 225.1 33.3 224.9 32.9 C 224.7 32.8 222.8 31.5 220.9 30.2 L 219.5 29.3 L 218.9 28.9 L 218.7 28.7 L 218.6 28.7 L 218.6 28.7 L 218.6 28.7 L 218.6 28.7 C 218.7 28.9 218.5 28.1 216.9 28.5 C 215.2 30.6 216.4 29.5 216.0 29.8 L 216.0 29.8 L 216.0 30.1 C 215.9 31.0 215.8 31.6 215.8 31.7 C 215.7 31.9 215.5 31.3 215.4 31.3 L 215.2 32.5 C 215.2 32.4 215.1 32.2 215.1 31.9 C 214.6 34.0 214.8 38.5 214.5 40.1 C 214.6 39.9 214.8 40.3 214.8 40.3 C 214.7 40.3 213.0 52.6 212.8 53.9 C 212.6 55.1 213.1 58.2 213.5 56.9 C 213.8 56.0 213.8 56.8 213.8 57.4 C 215.1 55.9 213.0 60.5 215.0 57.0 C 215.0 57.0 215.3 58.3 215.0 58.7 C 215.0 57.0 215.3 58.3 215.0 58.7 C 215.0 57.0 215.3 58.3 215.0 58.7 " fill="#000000"></path></g></svg>