<?xml version="1.0" encoding="UTF-8" standalone="no"?><svg xmlns="http://www.w3.org/2000/svg" xmlns:xlink="http://www.w3.org/1999/xlink" clip-rule="evenodd" stroke-miterlimit="4.00" viewBox="0 0 1024 768"><desc>SVG generated by Keynote</desc><defs></defs><g transform="matrix(1.00, 0.00, -0.00, -1.00, 0.0, 768.0)"><path d="M 0.0 768.0 L 1024.0 768.0 L 1024.0 0.0 L 0.0 0.0 Z M 0.0 768.0 " fill="#FEFFFF"></path><text xml:space="preserve" font-family="Verdana" font-size="32.0" fill="#000000" transform="matrix(1.00, 0.00, -0.00, -1.00, 634.0, 349.0)">-</text><text xml:space="preserve" font-family="Verdana" font-size="32.0" fill="#000000" transform="matrix(1.00, 0.00, -0.00, -1.00, 648.5, 349.0)"> </text><text xml:space="preserve" font-family="Verdana" font-size="32.0" fill="#000000" transform="matrix(1.00, 0.00, -0.00, -1.00, 659.8, 349.0)">c</text><text xml:space="preserve" font-family="Verdana" font-size="32.0" fill="#000000" transform="matrix(1.00, 0.00, -0.00, -1.00, 676.4, 349.0)">a</text><text xml:space="preserve" font-family="Verdana" font-size="32.0" fill="#000000" transform="matrix(1.00, 0.00, -0.00, -1.00, 695.6, 349.0)">r</text><text xml:space="preserve" font-family="Verdana" font-size="32.0" fill="#000000" transform="matrix(1.00, 0.00, -0.00, -1.00, 709.3, 349.0)">d</text><text xml:space="preserve" font-family="Verdana" font-size="32.0" fill="#000000" transform="matrix(1.00, 0.00, -0.00, -1.00, 729.2, 349.0)">I</text><text xml:space="preserve" font-family="Verdana" font-size="32.0" fill="#000000" transform="matrix(1.00, 0.00, -0.00, -1.00, 742.7, 349.0)">n</text><text xml:space="preserve" font-family="Verdana" font-size="32.0" fill="#000000" transform="matrix(1.00, 0.00, -0.00, -1.00, 762.9, 349.0)">s</text><text xml:space="preserve" font-family="Verdana" font-size="32.0" fill="#000000" transform="matrix(1.00, 0.00, -0.00, -1.00, 779.6, 349.0)">e</text><text xml:space="preserve" font-family="Verdana" font-size="32.0" fill="#000000" transform="matrix(1.00, 0.00, -0.00, -1.00, 798.7, 349.0)">r</text><text xml:space="preserve" font-family="Verdana" font-size="32.0" fill="#000000" transform="matrix(1.00, 0.00, -0.00, -1.00, 812.3, 349.0)">t</text><text xml:space="preserve" font-family="Verdana" font-size="32.0" fill="#000000" transform="matrix(1.00, 0.00, -0.00, -1.00, 824.9, 349.0)">e</text><text xml:space="preserve" font-family="Verdana" font-size="32.0" fill="#000000" transform="matrix(1.00, 0.00, -0.00, -1.00, 844.0, 349.0)">d</text><text xml:space="preserve" font-family="Verdana" font-size="32.0" fill="#000000" transform="matrix(1.00, 0.00, -0.00, -1.00, 633.0, 299.0)">-</text><text xml:space="preserve" font-family="Verdana" font-size="32.0" fill="#000000" transform="matrix(1.00, 0.00, -0.00, -1.00, 647.5, 299.0)"> </text><text xml:space="preserve" font-family="Verdana" font-size="32.0" fill="#000000" transform="matrix(1.00, 0.00, -0.00, -1.00, 658.8, 299.0)">c</text><text xml:space="preserve" font-family="Verdana" font-size="32.0" fill="#000000" transform="matrix(1.00, 0.00, -0.00, -1.00, 675.4, 299.0)">a</text><text xml:space="preserve" font-family="Verdana" font-size="32.0" fill="#000000" transform="matrix(1.00, 0.00, -0.00, -1.00, 694.6, 299.0)">r</text><text xml:space="preserve" font-family="Verdana" font-size="32.0" fill="#000000" transform="matrix(1.00, 0.00, -0.00, -1.00, 708.3, 299.0)">d</text><text xml:space="preserve" font-family="Verdana" font-size="32.0" fill="#000000" transform="matrix(1.00, 0.00, -0.00, -1.00, 728.2, 299.0)">I</text><text xml:space="preserve" font-family="Verdana" font-size="32.0" fill="#000000" transform="matrix(1.00, 0.00, -0.00, -1.00, 741.7, 299.0)">s</text><text xml:space="preserve" font-family="Verdana" font-size="32.0" fill="#000000" transform="matrix(1.00, 0.00, -0.00, -1.00, 758.4, 299.0)">V</text><text xml:space="preserve" font-family="Verdana" font-size="32.0" fill="#000000" transform="matrix(1.00, 0.00, -0.00, -1.00, 778.7, 299.0)">a</text><text xml:space="preserve" font-family="Verdana" font-size="32.0" fill="#000000" transform="matrix(1.00, 0.00, -0.00, -1.00, 797.9, 299.0)">l</text><text xml:space="preserve" font-family="Verdana" font-size="32.0" fill="#000000" transform="matrix(1.00, 0.00, -0.00, -1.00, 806.7, 299.0)">i</text><text xml:space="preserve" font-family="Verdana" font-size="32.0" fill="#000000" transform="matrix(1.00, 0.00, -0.00, -1.00, 815.5, 299.0)">d</text><text xml:space="preserve" font-family="Verdana" font-size="32.0" fill="#000000" transform="matrix(1.00, 0.00, -0.00, -1.00, 633.0, 173.0)">-</text><text xml:space="preserve" font-family="Verdana" font-size="32.0" fill="#000000" transform="matrix(1.00, 0.00, -0.00, -1.00, 647.5, 173.0)"> </text><text xml:space="preserve" font-family="Verdana" font-size="32.0" fill="#000000" transform="matrix(1.00, 0.00, -0.00, -1.00, 658.8, 173.0)">l</text><text xml:space="preserve" font-family="Verdana" font-size="32.0" fill="#000000" transform="matrix(1.00, 0.00, -0.00, -1.00, 667.6, 173.0)">o</text><text xml:space="preserve" font-family="Verdana" font-size="32.0" fill="#000000" transform="matrix(1.00, 0.00, -0.00, -1.00, 687.0, 173.0)">a</text><text xml:space="preserve" font-family="Verdana" font-size="32.0" fill="#000000" transform="matrix(1.00, 0.00, -0.00, -1.00, 706.2, 173.0)">d</text><text xml:space="preserve" font-family="Verdana" font-size="32.0" fill="#000000" transform="matrix(1.00, 0.00, -0.00, -1.00, 726.1, 173.0)">i</text><text xml:space="preserve" font-family="Verdana" font-size="32.0" fill="#000000" transform="matrix(1.00, 0.00, -0.00, -1.00, 734.9, 173.0)">n</text><text xml:space="preserve" font-family="Verdana" font-size="32.0" fill="#000000" transform="matrix(1.00, 0.00, -0.00, -1.00, 755.2, 173.0)">g</text><text xml:space="preserve" font-family="Verdana" font-size="32.0" fill="#000000" transform="matrix(1.00, 0.00, -0.00, -1.00, 775.1, 173.0)">A</text><text xml:space="preserve" font-family="Verdana" font-size="32.0" fill="#000000" transform="matrix(1.00, 0.00, -0.00, -1.00, 797.0, 173.0)">c</text><text xml:space="preserve" font-family="Verdana" font-size="32.0" fill="#000000" transform="matrix(1.00, 0.00, -0.00, -1.00, 813.6, 173.0)">c</text><text xml:space="preserve" font-family="Verdana" font-size="32.0" fill="#000000" transform="matrix(1.00, 0.00, -0.00, -1.00, 830.3, 173.0)">o</text><text xml:space="preserve" font-family="Verdana" font-size="32.0" fill="#000000" transform="matrix(1.00, 0.00, -0.00, -1.00, 849.7, 173.0)">u</text><text xml:space="preserve" font-family="Verdana" font-size="32.0" fill="#000000" transform="matrix(1.00, 0.00, -0.00, -1.00, 870.0, 173.0)">n</text><text xml:space="preserve" font-family="Verdana" font-size="32.0" fill="#000000" transform="matrix(1.00, 0.00, -0.00, -1.00, 890.2, 173.0)">t</text><text xml:space="preserve" font-family="Verdana" font-size="32.0" fill="#000000" transform="matrix(1.00, 0.00, -0.00, -1.00, 633.0, 123.0)">-</text><text xml:space="preserve" font-family="Verdana" font-size="32.0" fill="#000000" transform="matrix(1.00, 0.00, -0.00, -1.00, 647.5, 123.0)"> </text><text xml:space="preserve" font-family="Verdana" font-size="32.0" fill="#000000" transform="matrix(1.00, 0.00, -0.00, -1.00, 658.8, 123.0)">a</text><text xml:space="preserve" font-family="Verdana" font-size="32.0" fill="#000000" transform="matrix(1.00, 0.00, -0.00, -1.00, 678.0, 123.0)">c</text><text xml:space="preserve" font-family="Verdana" font-size="32.0" fill="#000000" transform="matrix(1.00, 0.00, -0.00, -1.00, 694.6, 123.0)">c</text><text xml:space="preserve" font-family="Verdana" font-size="32.0" fill="#000000" transform="matrix(1.00, 0.00, -0.00, -1.00, 711.3, 123.0)">o</text><text xml:space="preserve" font-family="Verdana" font-size="32.0" fill="#000000" transform="matrix(1.00, 0.00, -0.00, -1.00, 730.7, 123.0)">u</text><text xml:space="preserve" font-family="Verdana" font-size="32.0" fill="#000000" transform="matrix(1.00, 0.00, -0.00, -1.00, 751.0, 123.0)">n</text><text xml:space="preserve" font-family="Verdana" font-size="32.0" fill="#000000" transform="matrix(1.00, 0.00, -0.00, -1.00, 771.2, 123.0)">t</text><text xml:space="preserve" font-family="Verdana" font-size="32.0" fill="#000000" transform="matrix(1.00, 0.00, -0.00, -1.00, 783.8, 123.0)">L</text><text xml:space="preserve" font-family="Verdana" font-size="32.0" fill="#000000" transform="matrix(1.00, 0.00, -0.00, -1.00, 801.6, 123.0)">o</text><text xml:space="preserve" font-family="Verdana" font-size="32.0" fill="#000000" transform="matrix(1.00, 0.00, -0.00, -1.00, 821.1, 123.0)">a</text><text xml:space="preserve" font-family="Verdana" font-size="32.0" fill="#000000" transform="matrix(1.00, 0.00, -0.00, -1.00, 840.3, 123.0)">d</text><text xml:space="preserve" font-family="Verdana" font-size="32.0" fill="#000000" transform="matrix(1.00, 0.00, -0.00, -1.00, 860.2, 123.0)">e</text><text xml:space="preserve" font-family="Verdana" font-size="32.0" fill="#000000" transform="matrix(1.00, 0.00, -0.00, -1.00, 879.3, 123.0)">d</text><text xml:space="preserve" font-family="Verdana" font-size="32.0" fill="#000000" transform="matrix(1.00, 0.00, -0.00, -1.00, 635.0, 76.0)">-</text><text xml:space="preserve" font-family="Verdana" font-size="32.0" fill="#000000" transform="matrix(1.00, 0.00, -0.00, -1.00, 649.5, 76.0)"> </text><text xml:space="preserve" font-family="Verdana" font-size="32.0" fill="#000000" transform="matrix(1.00, 0.00, -0.00, -1.00, 660.8, 76.0)">w</text><text xml:space="preserve" font-family="Verdana" font-size="32.0" fill="#000000" transform="matrix(1.00, 0.00, -0.00, -1.00, 686.7, 76.0)">a</text><text xml:space="preserve" font-family="Verdana" font-size="32.0" fill="#000000" transform="matrix(1.00, 0.00, -0.00, -1.00, 705.9, 76.0)">i</text><text xml:space="preserve" font-family="Verdana" font-size="32.0" fill="#000000" transform="matrix(1.00, 0.00, -0.00, -1.00, 714.7, 76.0)">t</text><text xml:space="preserve" font-family="Verdana" font-size="32.0" fill="#000000" transform="matrix(1.00, 0.00, -0.00, -1.00, 727.3, 76.0)">i</text><text xml:space="preserve" font-family="Verdana" font-size="32.0" fill="#000000" transform="matrix(1.00, 0.00, -0.00, -1.00, 736.1, 76.0)">n</text><text xml:space="preserve" font-family="Verdana" font-size="32.0" fill="#000000" transform="matrix(1.00, 0.00, -0.00, -1.00, 756.3, 76.0)">g</text><text xml:space="preserve" font-family="Verdana" font-size="32.0" fill="#000000" transform="matrix(1.00, 0.00, -0.00, -1.00, 776.2, 76.0)">F</text><text xml:space="preserve" font-family="Verdana" font-size="32.0" fill="#000000" transform="matrix(1.00, 0.00, -0.00, -1.00, 793.8, 76.0)">o</text><text xml:space="preserve" font-family="Verdana" font-size="32.0" fill="#000000" transform="matrix(1.00, 0.00, -0.00, -1.00, 813.3, 76.0)">r</text><text xml:space="preserve" font-family="Verdana" font-size="32.0" fill="#000000" transform="matrix(1.00, 0.00, -0.00, -1.00, 826.9, 76.0)">P</text><text xml:space="preserve" font-family="Verdana" font-size="32.0" fill="#000000" transform="matrix(1.00, 0.00, -0.00, -1.00, 846.2, 76.0)">i</text><text xml:space="preserve" font-family="Verdana" font-size="32.0" fill="#000000" transform="matrix(1.00, 0.00, -0.00, -1.00, 855.0, 76.0)">n</text><text xml:space="preserve" font-family="Verdana-Bold" font-weight="bold" font-size="24.0" fill="#C97F2D" transform="matrix(1.00, 0.00, -0.00, -1.00, 631.2, 257.7)">-</text><text xml:space="preserve" font-family="Verdana" font-size="32.0" fill="#C97F2D" transform="matrix(1.00, 0.00, -0.00, -1.00, 662.0, 254.0)">s</text><text xml:space="preserve" font-family="Verdana" font-size="32.0" fill="#C97F2D" transform="matrix(1.00, 0.00, -0.00, -1.00, 678.7, 254.0)">h</text><text xml:space="preserve" font-family="Verdana" font-size="32.0" fill="#C97F2D" transform="matrix(1.00, 0.00, -0.00, -1.00, 698.9, 254.0)">o</text><text xml:space="preserve" font-family="Verdana" font-size="32.0" fill="#C97F2D" transform="matrix(1.00, 0.00, -0.00, -1.00, 718.3, 254.0)">w</text><text xml:space="preserve" font-family="Verdana" font-size="32.0" fill="#C97F2D" transform="matrix(1.00, 0.00, -0.00, -1.00, 744.5, 254.0)">A</text><text xml:space="preserve" font-family="Verdana" font-size="32.0" fill="#C97F2D" transform="matrix(1.00, 0.00, -0.00, -1.00, 766.4, 254.0)">d</text><text xml:space="preserve" font-family="Verdana" font-size="32.0" fill="#C97F2D" transform="matrix(1.00, 0.00, -0.00, -1.00, 786.3, 254.0)"> </text><text xml:space="preserve" font-family="Verdana" font-size="32.0" fill="#C97F2D" transform="matrix(1.00, 0.00, -0.00, -1.00, 797.6, 254.0)"> </text><text xml:space="preserve" font-family="Verdana-Bold" font-weight="bold" font-size="24.0" fill="#C97F2D" transform="matrix(1.00, 0.00, -0.00, -1.00, 631.2, 218.7)">-</text><text xml:space="preserve" font-family="Verdana" font-size="32.0" fill="#C97F2D" transform="matrix(1.00, 0.00, -0.00, -1.00, 662.0, 215.0)">a</text><text xml:space="preserve" font-family="Verdana" font-size="32.0" fill="#C97F2D" transform="matrix(1.00, 0.00, -0.00, -1.00, 681.2, 215.0)">d</text><text xml:space="preserve" font-family="Verdana" font-size="32.0" fill="#C97F2D" transform="matrix(1.00, 0.00, -0.00, -1.00, 701.1, 215.0)">S</text><text xml:space="preserve" font-family="Verdana" font-size="32.0" fill="#C97F2D" transform="matrix(1.00, 0.00, -0.00, -1.00, 723.0, 215.0)">h</text><text xml:space="preserve" font-family="Verdana" font-size="32.0" fill="#C97F2D" transform="matrix(1.00, 0.00, -0.00, -1.00, 743.2, 215.0)">o</text><text xml:space="preserve" font-family="Verdana" font-size="32.0" fill="#C97F2D" transform="matrix(1.00, 0.00, -0.00, -1.00, 762.7, 215.0)">w</text><text xml:space="preserve" font-family="Verdana" font-size="32.0" fill="#C97F2D" transform="matrix(1.00, 0.00, -0.00, -1.00, 788.9, 215.0)">n</text><image xlink:href="../../932358D8-109B-4CFA-A4EC-EFEB852560D7/assets/97FF1EF74B8DDDBED726A1FE086EE845.png" width="364.00" height="71.00" transform="matrix(1.00, 0.06, 0.06, -1.01, 328.4, 733.2)" opacity="0.50"></image><path d="M 357.1 731.9 L 663.3 749.5 C 670.1 749.9 673.5 750.1 677.2 749.1 C 681.2 747.9 684.5 745.0 686.2 741.1 C 687.6 737.5 687.8 734.1 688.2 727.3 L 689.0 713.0 C 689.4 706.2 689.6 702.8 688.6 699.1 C 687.4 695.0 684.5 691.7 680.6 690.1 C 677.0 688.7 673.6 688.5 666.7 688.1 L 360.7 670.5 C 353.9 670.1 350.5 669.9 346.8 670.9 C 342.8 672.1 339.5 675.0 337.8 678.9 C 336.4 682.5 336.2 685.9 335.8 692.8 L 335.0 707.1 C 334.6 713.8 334.4 717.2 335.4 720.9 C 336.6 725.0 339.5 728.3 343.4 729.9 C 347.0 731.3 350.4 731.5 357.3 731.9 Z M 357.1 731.9 " fill="#FFFFFF"></path><path d="M 23.5 0.0 L 330.2 0.0 C 336.9 0.0 340.4 0.0 344.0 1.2 C 348.0 2.6 351.1 5.7 352.6 9.7 C 353.7 13.4 353.7 16.8 353.7 23.6 L 353.7 38.0 C 353.7 44.7 353.7 48.1 352.6 51.8 C 351.1 55.7 348.0 58.9 344.0 60.3 C 340.4 61.5 336.9 61.5 330.1 61.5 L 23.5 61.5 C 16.8 61.5 13.4 61.5 9.7 60.3 C 5.7 58.9 2.6 55.7 1.2 51.8 C 0.0 48.1 0.0 44.7 0.0 37.9 L 0.0 23.5 C 0.0 16.8 0.0 13.4 1.2 9.7 C 2.6 5.7 5.7 2.6 9.7 1.2 C 13.4 0.0 16.8 0.0 23.6 0.0 Z M 23.5 0.0 " fill="none" stroke="#FF9500" stroke-width="4.00" transform="matrix(1.00, 0.06, 0.06, -1.00, 333.7, 730.5)"></path><g><clipPath id="clip-176"><path d="M 333.7 730.5 L 686.8 750.8 L 690.3 689.5 L 337.2 669.2 Z M 333.7 730.5 "></path></clipPath><g clip-path="url(#clip-176)"><text xml:space="preserve" font-family="Verdana-Bold" font-weight="bold" font-size="18.0" fill="#000000" transform="matrix(1.00, 0.06, 0.06, -1.00, 344.3, 704.5)">S</text><text xml:space="preserve" font-family="Verdana-Bold" font-weight="bold" font-size="18.0" fill="#000000" transform="matrix(1.00, 0.06, 0.06, -1.00, 357.1, 705.2)">h</text><text xml:space="preserve" font-family="Verdana-Bold" font-weight="bold" font-size="18.0" fill="#000000" transform="matrix(1.00, 0.06, 0.06, -1.00, 369.9, 706.0)">o</text><text xml:space="preserve" font-family="Verdana-Bold" font-weight="bold" font-size="18.0" fill="#000000" transform="matrix(1.00, 0.06, 0.06, -1.00, 382.2, 706.7)">w</text><text xml:space="preserve" font-family="Verdana-Bold" font-weight="bold" font-size="18.0" fill="#000000" transform="matrix(1.00, 0.06, 0.06, -1.00, 399.8, 707.7)"> </text><text xml:space="preserve" font-family="Verdana-Bold" font-weight="bold" font-size="18.0" fill="#000000" transform="matrix(1.00, 0.06, 0.06, -1.00, 406.0, 708.0)">a</text><text xml:space="preserve" font-family="Verdana-Bold" font-weight="bold" font-size="18.0" fill="#000000" transform="matrix(1.00, 0.06, 0.06, -1.00, 418.0, 708.7)">d</text><text xml:space="preserve" font-family="Verdana-Bold" font-weight="bold" font-size="18.0" fill="#000000" transform="matrix(1.00, 0.06, 0.06, -1.00, 430.5, 709.5)">v</text><text xml:space="preserve" font-family="Verdana-Bold" font-weight="bold" font-size="18.0" fill="#000000" transform="matrix(1.00, 0.06, 0.06, -1.00, 442.2, 710.1)">e</text><text xml:space="preserve" font-family="Verdana-Bold" font-weight="bold" font-size="18.0" fill="#000000" transform="matrix(1.00, 0.06, 0.06, -1.00, 454.1, 710.8)">r</text><text xml:space="preserve" font-family="Verdana-Bold" font-weight="bold" font-size="18.0" fill="#000000" transform="matrix(1.00, 0.06, 0.06, -1.00, 463.1, 711.3)">t</text><text xml:space="preserve" font-family="Verdana-Bold" font-weight="bold" font-size="18.0" fill="#000000" transform="matrix(1.00, 0.06, 0.06, -1.00, 471.3, 711.8)">i</text><text xml:space="preserve" font-family="Verdana-Bold" font-weight="bold" font-size="18.0" fill="#000000" transform="matrix(1.00, 0.06, 0.06, -1.00, 477.4, 712.2)">s</text><text xml:space="preserve" font-family="Verdana-Bold" font-weight="bold" font-size="18.0" fill="#000000" transform="matrix(1.00, 0.06, 0.06, -1.00, 488.1, 712.8)">e</text><text xml:space="preserve" font-family="Verdana-Bold" font-weight="bold" font-size="18.0" fill="#000000" transform="matrix(1.00, 0.06, 0.06, -1.00, 500.0, 713.5)">m</text><text xml:space="preserve" font-family="Verdana-Bold" font-weight="bold" font-size="18.0" fill="#000000" transform="matrix(1.00, 0.06, 0.06, -1.00, 519.0, 714.5)">e</text><text xml:space="preserve" font-family="Verdana-Bold" font-weight="bold" font-size="18.0" fill="#000000" transform="matrix(1.00, 0.06, 0.06, -1.00, 531.0, 715.2)">n</text><text xml:space="preserve" font-family="Verdana-Bold" font-weight="bold" font-size="18.0" fill="#000000" transform="matrix(1.00, 0.06, 0.06, -1.00, 543.8, 716.0)">t</text><text xml:space="preserve" font-family="Verdana-Bold" font-weight="bold" font-size="18.0" fill="#000000" transform="matrix(1.00, 0.06, 0.06, -1.00, 551.9, 716.4)"> </text><text xml:space="preserve" font-family="Verdana-Bold" font-weight="bold" font-size="18.0" fill="#000000" transform="matrix(1.00, 0.06, 0.06, -1.00, 558.1, 716.8)">b</text><text xml:space="preserve" font-family="Verdana-Bold" font-weight="bold" font-size="18.0" fill="#000000" transform="matrix(1.00, 0.06, 0.06, -1.00, 570.6, 717.5)">e</text><text xml:space="preserve" font-family="Verdana-Bold" font-weight="bold" font-size="18.0" fill="#000000" transform="matrix(1.00, 0.06, 0.06, -1.00, 582.6, 718.2)">f</text><text xml:space="preserve" font-family="Verdana-Bold" font-weight="bold" font-size="18.0" fill="#000000" transform="matrix(1.00, 0.06, 0.06, -1.00, 590.2, 718.6)">o</text><text xml:space="preserve" font-family="Verdana-Bold" font-weight="bold" font-size="18.0" fill="#000000" transform="matrix(1.00, 0.06, 0.06, -1.00, 602.5, 719.3)">r</text><text xml:space="preserve" font-family="Verdana-Bold" font-weight="bold" font-size="18.0" fill="#000000" transform="matrix(1.00, 0.06, 0.06, -1.00, 611.4, 719.9)">e</text><text xml:space="preserve" font-family="Verdana-Bold" font-weight="bold" font-size="18.0" fill="#000000" transform="matrix(1.00, 0.06, 0.06, -1.00, 623.4, 720.5)"> </text><text xml:space="preserve" font-family="Verdana-Bold" font-weight="bold" font-size="18.0" fill="#000000" transform="matrix(1.00, 0.06, 0.06, -1.00, 629.5, 720.9)">t</text><text xml:space="preserve" font-family="Verdana-Bold" font-weight="bold" font-size="18.0" fill="#000000" transform="matrix(1.00, 0.06, 0.06, -1.00, 637.7, 721.4)">h</text><text xml:space="preserve" font-family="Verdana-Bold" font-weight="bold" font-size="18.0" fill="#000000" transform="matrix(1.00, 0.06, 0.06, -1.00, 650.5, 722.1)">e</text><text xml:space="preserve" font-family="Verdana-Bold" font-weight="bold" font-size="18.0" fill="#000000" transform="matrix(1.00, 0.06, 0.06, -1.00, 662.4, 722.8)"> </text><text xml:space="preserve" font-family="Verdana-Bold" font-weight="bold" font-size="18.0" fill="#000000" transform="matrix(1.00, 0.06, 0.06, -1.00, 344.8, 682.5)">a</text><text xml:space="preserve" font-family="Verdana-Bold" font-weight="bold" font-size="18.0" fill="#000000" transform="matrix(1.00, 0.06, 0.06, -1.00, 356.9, 683.2)">c</text><text xml:space="preserve" font-family="Verdana-Bold" font-weight="bold" font-size="18.0" fill="#000000" transform="matrix(1.00, 0.06, 0.06, -1.00, 367.4, 683.8)">c</text><text xml:space="preserve" font-family="Verdana-Bold" font-weight="bold" font-size="18.0" fill="#000000" transform="matrix(1.00, 0.06, 0.06, -1.00, 378.0, 684.4)">o</text><text xml:space="preserve" font-family="Verdana-Bold" font-weight="bold" font-size="18.0" fill="#000000" transform="matrix(1.00, 0.06, 0.06, -1.00, 390.3, 685.1)">u</text><text xml:space="preserve" font-family="Verdana-Bold" font-weight="bold" font-size="18.0" fill="#000000" transform="matrix(1.00, 0.06, 0.06, -1.00, 403.2, 685.8)">n</text><text xml:space="preserve" font-family="Verdana-Bold" font-weight="bold" font-size="18.0" fill="#000000" transform="matrix(1.00, 0.06, 0.06, -1.00, 416.0, 686.6)">t</text><text xml:space="preserve" font-family="Verdana-Bold" font-weight="bold" font-size="18.0" fill="#000000" transform="matrix(1.00, 0.06, 0.06, -1.00, 424.1, 687.1)"> </text><text xml:space="preserve" font-family="Verdana-Bold" font-weight="bold" font-size="18.0" fill="#000000" transform="matrix(1.00, 0.06, 0.06, -1.00, 430.3, 687.4)">i</text><text xml:space="preserve" font-family="Verdana-Bold" font-weight="bold" font-size="18.0" fill="#000000" transform="matrix(1.00, 0.06, 0.06, -1.00, 436.4, 687.8)">s</text><text xml:space="preserve" font-family="Verdana-Bold" font-weight="bold" font-size="18.0" fill="#000000" transform="matrix(1.00, 0.06, 0.06, -1.00, 447.1, 688.4)"> </text><text xml:space="preserve" font-family="Verdana-Bold" font-weight="bold" font-size="18.0" fill="#000000" transform="matrix(1.00, 0.06, 0.06, -1.00, 453.2, 688.7)">l</text><text xml:space="preserve" font-family="Verdana-Bold" font-weight="bold" font-size="18.0" fill="#000000" transform="matrix(1.00, 0.06, 0.06, -1.00, 459.4, 689.1)">o</text><text xml:space="preserve" font-family="Verdana-Bold" font-weight="bold" font-size="18.0" fill="#000000" transform="matrix(1.00, 0.06, 0.06, -1.00, 471.7, 689.8)">a</text><text xml:space="preserve" font-family="Verdana-Bold" font-weight="bold" font-size="18.0" fill="#000000" transform="matrix(1.00, 0.06, 0.06, -1.00, 483.7, 690.5)">d</text><text xml:space="preserve" font-family="Verdana-Bold" font-weight="bold" font-size="18.0" fill="#000000" transform="matrix(1.00, 0.06, 0.06, -1.00, 496.3, 691.2)">e</text><text xml:space="preserve" font-family="Verdana-Bold" font-weight="bold" font-size="18.0" fill="#000000" transform="matrix(1.00, 0.06, 0.06, -1.00, 508.2, 691.9)">d</text></g></g><text xml:space="preserve" font-family="Verdana" font-size="28.0" fill="#2150FF" transform="matrix(1.00, 0.00, -0.00, -1.00, 692.0, 411.0)">W</text><text xml:space="preserve" font-family="Verdana" font-size="28.0" fill="#2150FF" transform="matrix(1.00, 0.00, -0.00, -1.00, 719.7, 411.0)">h</text><text xml:space="preserve" font-family="Verdana" font-size="28.0" fill="#2150FF" transform="matrix(1.00, 0.00, -0.00, -1.00, 737.4, 411.0)">a</text><text xml:space="preserve" font-family="Verdana" font-size="28.0" fill="#2150FF" transform="matrix(1.00, 0.00, -0.00, -1.00, 754.2, 411.0)">t</text><text xml:space="preserve" font-family="Verdana" font-size="28.0" fill="#2150FF" transform="matrix(1.00, 0.00, -0.00, -1.00, 765.2, 411.0)"> </text><text xml:space="preserve" font-family="Verdana" font-size="28.0" fill="#2150FF" transform="matrix(1.00, 0.00, -0.00, -1.00, 775.1, 411.0)">w</text><text xml:space="preserve" font-family="Verdana" font-size="28.0" fill="#2150FF" transform="matrix(1.00, 0.00, -0.00, -1.00, 798.0, 411.0)">e</text><text xml:space="preserve" font-family="Verdana" font-size="28.0" fill="#2150FF" transform="matrix(1.00, 0.00, -0.00, -1.00, 814.7, 411.0)"> </text><text xml:space="preserve" font-family="Verdana" font-size="28.0" fill="#2150FF" transform="matrix(1.00, 0.00, -0.00, -1.00, 824.5, 411.0)">w</text><text xml:space="preserve" font-family="Verdana" font-size="28.0" fill="#2150FF" transform="matrix(1.00, 0.00, -0.00, -1.00, 847.1, 411.0)">a</text><text xml:space="preserve" font-family="Verdana" font-size="28.0" fill="#2150FF" transform="matrix(1.00, 0.00, -0.00, -1.00, 863.9, 411.0)">n</text><text xml:space="preserve" font-family="Verdana" font-size="28.0" fill="#2150FF" transform="matrix(1.00, 0.00, -0.00, -1.00, 881.7, 411.0)">t</text><text xml:space="preserve" font-family="Verdana" font-size="28.0" fill="#2150FF" transform="matrix(1.00, 0.00, -0.00, -1.00, 115.0, 411.0)">W</text><text xml:space="preserve" font-family="Verdana" font-size="28.0" fill="#2150FF" transform="matrix(1.00, 0.00, -0.00, -1.00, 142.7, 411.0)">h</text><text xml:space="preserve" font-family="Verdana" font-size="28.0" fill="#2150FF" transform="matrix(1.00, 0.00, -0.00, -1.00, 160.4, 411.0)">a</text><text xml:space="preserve" font-family="Verdana" font-size="28.0" fill="#2150FF" transform="matrix(1.00, 0.00, -0.00, -1.00, 177.2, 411.0)">t</text><text xml:space="preserve" font-family="Verdana" font-size="28.0" fill="#2150FF" transform="matrix(1.00, 0.00, -0.00, -1.00, 188.2, 411.0)"> </text><text xml:space="preserve" font-family="Verdana" font-size="28.0" fill="#2150FF" transform="matrix(1.00, 0.00, -0.00, -1.00, 198.1, 411.0)">c</text><text xml:space="preserve" font-family="Verdana" font-size="28.0" fill="#2150FF" transform="matrix(1.00, 0.00, -0.00, -1.00, 212.7, 411.0)">u</text><text xml:space="preserve" font-family="Verdana" font-size="28.0" fill="#2150FF" transform="matrix(1.00, 0.00, -0.00, -1.00, 230.4, 411.0)">r</text><text xml:space="preserve" font-family="Verdana" font-size="28.0" fill="#2150FF" transform="matrix(1.00, 0.00, -0.00, -1.00, 242.3, 411.0)">r</text><text xml:space="preserve" font-family="Verdana" font-size="28.0" fill="#2150FF" transform="matrix(1.00, 0.00, -0.00, -1.00, 254.3, 411.0)">e</text><text xml:space="preserve" font-family="Verdana" font-size="28.0" fill="#2150FF" transform="matrix(1.00, 0.00, -0.00, -1.00, 270.9, 411.0)">n</text><text xml:space="preserve" font-family="Verdana" font-size="28.0" fill="#2150FF" transform="matrix(1.00, 0.00, -0.00, -1.00, 288.6, 411.0)">t</text><text xml:space="preserve" font-family="Verdana" font-size="28.0" fill="#2150FF" transform="matrix(1.00, 0.00, -0.00, -1.00, 299.7, 411.0)">l</text><text xml:space="preserve" font-family="Verdana" font-size="28.0" fill="#2150FF" transform="matrix(1.00, 0.00, -0.00, -1.00, 307.4, 411.0)">y</text><text xml:space="preserve" font-family="Verdana" font-size="28.0" fill="#2150FF" transform="matrix(1.00, 0.00, -0.00, -1.00, 323.9, 411.0)"> </text><text xml:space="preserve" font-family="Verdana" font-size="28.0" fill="#2150FF" transform="matrix(1.00, 0.00, -0.00, -1.00, 333.8, 411.0)">h</text><text xml:space="preserve" font-family="Verdana" font-size="28.0" fill="#2150FF" transform="matrix(1.00, 0.00, -0.00, -1.00, 351.5, 411.0)">a</text><text xml:space="preserve" font-family="Verdana" font-size="28.0" fill="#2150FF" transform="matrix(1.00, 0.00, -0.00, -1.00, 368.3, 411.0)">p</text><text xml:space="preserve" font-family="Verdana" font-size="28.0" fill="#2150FF" transform="matrix(1.00, 0.00, -0.00, -1.00, 385.7, 411.0)">p</text><text xml:space="preserve" font-family="Verdana" font-size="28.0" fill="#2150FF" transform="matrix(1.00, 0.00, -0.00, -1.00, 403.2, 411.0)">e</text><text xml:space="preserve" font-family="Verdana" font-size="28.0" fill="#2150FF" transform="matrix(1.00, 0.00, -0.00, -1.00, 419.8, 411.0)">n</text><text xml:space="preserve" font-family="Verdana" font-size="28.0" fill="#2150FF" transform="matrix(1.00, 0.00, -0.00, -1.00, 437.6, 411.0)">s</text><image xlink:href="../../83605C26-01C5-4B93-9452-379B2AD77C68/assets/77F16851A756DB8B7A51A09B437339C6.png" width="373.00" height="194.00" transform="matrix(1.00, 0.00, -0.00, -1.00, 92.5, 713.6)" opacity="0.50"></image><path d="M 120.5 711.1 L 437.6 711.1 C 444.4 711.1 447.8 711.1 451.4 710.0 C 455.4 708.5 458.6 705.4 460.0 701.4 C 461.2 697.8 461.2 694.3 461.2 687.5 L 461.2 549.3 C 461.2 542.5 461.2 539.1 460.0 535.5 C 458.6 531.5 455.4 528.4 451.4 526.9 C 447.8 525.8 444.4 525.8 437.5 525.8 L 120.5 525.8 C 113.8 525.8 110.4 525.8 106.7 526.9 C 102.8 528.4 99.6 531.5 98.2 535.5 C 97.0 539.1 97.0 542.5 97.0 549.4 L 97.0 687.6 C 97.0 694.3 97.0 697.8 98.2 701.4 C 99.6 705.4 102.8 708.5 106.7 710.0 C 110.4 711.1 113.8 711.1 120.6 711.1 Z M 120.5 711.1 " fill="#FFFFFF"></path><path d="M 23.5 0.0 L 340.6 0.0 C 347.4 0.0 350.8 0.0 354.4 1.2 C 358.4 2.6 361.5 5.7 363.0 9.7 C 364.1 13.4 364.1 16.8 364.1 23.6 L 364.1 161.8 C 364.1 168.6 364.1 172.0 363.0 175.6 C 361.5 179.6 358.4 182.8 354.4 184.2 C 350.8 185.4 347.4 185.4 340.5 185.4 L 23.5 185.4 C 16.8 185.4 13.4 185.4 9.7 184.2 C 5.7 182.8 2.6 179.6 1.2 175.6 C 0.0 172.0 0.0 168.6 0.0 161.7 L 0.0 23.5 C 0.0 16.8 0.0 13.4 1.2 9.7 C 2.6 5.7 5.7 2.6 9.7 1.2 C 13.4 0.0 16.8 0.0 23.6 0.0 Z M 23.5 0.0 " fill="none" stroke="#F09A36" stroke-width="3.00" transform="matrix(1.00, 0.00, 0.00, -1.00, 97.0, 711.1)"></path><g><clipPath id="clip-177"><path d="M 97.0 711.1 L 461.2 711.1 L 461.2 525.8 L 97.0 525.8 Z M 97.0 711.1 "></path></clipPath><g clip-path="url(#clip-177)"><text xml:space="preserve" font-family="Consolas" font-size="20.0" fill="#000000" transform="matrix(1.00, 0.00, -0.00, -1.00, 109.9, 690.7)">w</text><text xml:space="preserve" font-family="Consolas" font-size="20.0" fill="#000000" transform="matrix(1.00, 0.00, -0.00, -1.00, 120.9, 690.7)">h</text><text xml:space="preserve" font-family="Consolas" font-size="20.0" fill="#000000" transform="matrix(1.00, 0.00, -0.00, -1.00, 131.9, 690.7)">i</text><text xml:space="preserve" font-family="Consolas" font-size="20.0" fill="#000000" transform="matrix(1.00, 0.00, -0.00, -1.00, 142.9, 690.7)">l</text><text xml:space="preserve" font-family="Consolas" font-size="20.0" fill="#000000" transform="matrix(1.00, 0.00, -0.00, -1.00, 153.9, 690.7)">e</text><text xml:space="preserve" font-family="Consolas" font-size="20.0" fill="#000000" transform="matrix(1.00, 0.00, -0.00, -1.00, 164.9, 690.7)"> </text><text xml:space="preserve" font-family="Consolas" font-size="20.0" fill="#000000" transform="matrix(1.00, 0.00, -0.00, -1.00, 175.9, 690.7)">(</text><text xml:space="preserve" font-family="Consolas" font-size="20.0" fill="#000000" transform="matrix(1.00, 0.00, -0.00, -1.00, 186.9, 690.7)">t</text><text xml:space="preserve" font-family="Consolas" font-size="20.0" fill="#000000" transform="matrix(1.00, 0.00, -0.00, -1.00, 197.9, 690.7)">r</text><text xml:space="preserve" font-family="Consolas" font-size="20.0" fill="#000000" transform="matrix(1.00, 0.00, -0.00, -1.00, 208.9, 690.7)">u</text><text xml:space="preserve" font-family="Consolas" font-size="20.0" fill="#000000" transform="matrix(1.00, 0.00, -0.00, -1.00, 219.8, 690.7)">e</text><text xml:space="preserve" font-family="Consolas" font-size="20.0" fill="#000000" transform="matrix(1.00, 0.00, -0.00, -1.00, 230.8, 690.7)">)</text><text xml:space="preserve" font-family="Consolas" font-size="20.0" fill="#000000" transform="matrix(1.00, 0.00, -0.00, -1.00, 241.8, 690.7)"> </text><text xml:space="preserve" font-family="Consolas" font-size="20.0" fill="#000000" transform="matrix(1.00, 0.00, -0.00, -1.00, 252.8, 690.7)">{</text><text xml:space="preserve" font-family="Consolas" font-size="20.0" fill="#000000" transform="matrix(1.00, 0.00, -0.00, -1.00, 263.8, 690.7)"> </text><text xml:space="preserve" font-family="Consolas" font-size="20.0" fill="#000000" transform="matrix(1.00, 0.00, -0.00, -1.00, 102.5, 667.7)"> </text><text xml:space="preserve" font-family="Consolas" font-size="20.0" fill="#000000" transform="matrix(1.00, 0.00, -0.00, -1.00, 113.5, 667.7)"> </text><text xml:space="preserve" font-family="Consolas" font-size="20.0" fill="#000000" transform="matrix(1.00, 0.00, -0.00, -1.00, 124.5, 667.7)">y</text><text xml:space="preserve" font-family="Consolas" font-size="20.0" fill="#000000" transform="matrix(1.00, 0.00, -0.00, -1.00, 135.5, 667.7)">i</text><text xml:space="preserve" font-family="Consolas" font-size="20.0" fill="#000000" transform="matrix(1.00, 0.00, -0.00, -1.00, 146.5, 667.7)">e</text><text xml:space="preserve" font-family="Consolas" font-size="20.0" fill="#000000" transform="matrix(1.00, 0.00, -0.00, -1.00, 157.5, 667.7)">l</text><text xml:space="preserve" font-family="Consolas" font-size="20.0" fill="#000000" transform="matrix(1.00, 0.00, -0.00, -1.00, 168.5, 667.7)">d</text><text xml:space="preserve" font-family="Consolas" font-size="20.0" fill="#000000" transform="matrix(1.00, 0.00, -0.00, -1.00, 179.5, 667.7)"> </text><text xml:space="preserve" font-family="Consolas" font-size="20.0" fill="#000000" transform="matrix(1.00, 0.00, -0.00, -1.00, 190.5, 667.7)">{</text><text xml:space="preserve" font-family="Consolas" font-size="20.0" fill="#000000" transform="matrix(1.00, 0.00, -0.00, -1.00, 201.4, 667.7)"> </text><text xml:space="preserve" font-family="Consolas" font-size="20.0" fill="#00872A" transform="matrix(1.00, 0.00, -0.00, -1.00, 212.5, 667.7)">w</text><text xml:space="preserve" font-family="Consolas" font-size="20.0" fill="#00872A" transform="matrix(1.00, 0.00, -0.00, -1.00, 223.5, 667.7)">a</text><text xml:space="preserve" font-family="Consolas" font-size="20.0" fill="#00872A" transform="matrix(1.00, 0.00, -0.00, -1.00, 234.5, 667.7)">i</text><text xml:space="preserve" font-family="Consolas" font-size="20.0" fill="#00872A" transform="matrix(1.00, 0.00, -0.00, -1.00, 245.5, 667.7)">t</text><text xml:space="preserve" font-family="Consolas" font-size="20.0" fill="#000000" transform="matrix(1.00, 0.00, -0.00, -1.00, 256.5, 667.7)">:</text><text xml:space="preserve" font-family="Consolas" font-size="20.0" fill="#000000" transform="matrix(1.00, 0.00, -0.00, -1.00, 267.5, 667.7)"> </text><text xml:space="preserve" font-family="Consolas" font-size="20.0" fill="#000000" transform="matrix(1.00, 0.00, -0.00, -1.00, 278.4, 667.7)">'</text><text xml:space="preserve" font-family="Consolas" font-size="20.0" fill="#000000" transform="matrix(1.00, 0.00, -0.00, -1.00, 289.4, 667.7)">c</text><text xml:space="preserve" font-family="Consolas" font-size="20.0" fill="#000000" transform="matrix(1.00, 0.00, -0.00, -1.00, 300.4, 667.7)">a</text><text xml:space="preserve" font-family="Consolas" font-size="20.0" fill="#000000" transform="matrix(1.00, 0.00, -0.00, -1.00, 311.4, 667.7)">r</text><text xml:space="preserve" font-family="Consolas" font-size="20.0" fill="#000000" transform="matrix(1.00, 0.00, -0.00, -1.00, 322.4, 667.7)">d</text><text xml:space="preserve" font-family="Consolas" font-size="20.0" fill="#000000" transform="matrix(1.00, 0.00, -0.00, -1.00, 333.4, 667.7)">I</text><text xml:space="preserve" font-family="Consolas" font-size="20.0" fill="#000000" transform="matrix(1.00, 0.00, -0.00, -1.00, 344.4, 667.7)">s</text><text xml:space="preserve" font-family="Consolas" font-size="20.0" fill="#000000" transform="matrix(1.00, 0.00, -0.00, -1.00, 355.4, 667.7)">V</text><text xml:space="preserve" font-family="Consolas" font-size="20.0" fill="#000000" transform="matrix(1.00, 0.00, -0.00, -1.00, 366.4, 667.7)">a</text><text xml:space="preserve" font-family="Consolas" font-size="20.0" fill="#000000" transform="matrix(1.00, 0.00, -0.00, -1.00, 377.4, 667.7)">l</text><text xml:space="preserve" font-family="Consolas" font-size="20.0" fill="#000000" transform="matrix(1.00, 0.00, -0.00, -1.00, 388.4, 667.7)">i</text><text xml:space="preserve" font-family="Consolas" font-size="20.0" fill="#000000" transform="matrix(1.00, 0.00, -0.00, -1.00, 399.4, 667.7)">d</text><text xml:space="preserve" font-family="Consolas" font-size="20.0" fill="#000000" transform="matrix(1.00, 0.00, -0.00, -1.00, 410.4, 667.7)">'</text><text xml:space="preserve" font-family="Consolas" font-size="20.0" fill="#000000" transform="matrix(1.00, 0.00, -0.00, -1.00, 421.3, 667.7)"> </text><text xml:space="preserve" font-family="Consolas" font-size="20.0" fill="#000000" transform="matrix(1.00, 0.00, -0.00, -1.00, 432.4, 667.7)">}</text><text xml:space="preserve" font-family="Consolas" font-size="20.0" fill="#000000" transform="matrix(1.00, 0.00, -0.00, -1.00, 443.4, 667.7)"> </text><text xml:space="preserve" font-family="Consolas" font-size="20.0" fill="#000000" transform="matrix(1.00, 0.00, -0.00, -1.00, 102.5, 644.7)"> </text><text xml:space="preserve" font-family="Consolas" font-size="20.0" fill="#000000" transform="matrix(1.00, 0.00, -0.00, -1.00, 113.5, 644.7)"> </text><text xml:space="preserve" font-family="Consolas" font-size="20.0" fill="#000000" transform="matrix(1.00, 0.00, -0.00, -1.00, 124.5, 644.7)">y</text><text xml:space="preserve" font-family="Consolas" font-size="20.0" fill="#000000" transform="matrix(1.00, 0.00, -0.00, -1.00, 135.5, 644.7)">i</text><text xml:space="preserve" font-family="Consolas" font-size="20.0" fill="#000000" transform="matrix(1.00, 0.00, -0.00, -1.00, 146.5, 644.7)">e</text><text xml:space="preserve" font-family="Consolas" font-size="20.0" fill="#000000" transform="matrix(1.00, 0.00, -0.00, -1.00, 157.5, 644.7)">l</text><text xml:space="preserve" font-family="Consolas" font-size="20.0" fill="#000000" transform="matrix(1.00, 0.00, -0.00, -1.00, 168.5, 644.7)">d</text><text xml:space="preserve" font-family="Consolas" font-size="20.0" fill="#000000" transform="matrix(1.00, 0.00, -0.00, -1.00, 179.5, 644.7)"> </text><text xml:space="preserve" font-family="Consolas" font-size="20.0" fill="#000000" transform="matrix(1.00, 0.00, -0.00, -1.00, 190.5, 644.7)">{</text><text xml:space="preserve" font-family="Consolas" font-size="20.0" fill="#000000" transform="matrix(1.00, 0.00, -0.00, -1.00, 201.4, 644.7)"> </text><text xml:space="preserve" font-family="Consolas" font-size="20.0" fill="#000000" transform="matrix(1.00, 0.00, -0.00, -1.00, 102.5, 621.7)"> </text><text xml:space="preserve" font-family="Consolas" font-size="20.0" fill="#000000" transform="matrix(1.00, 0.00, -0.00, -1.00, 113.5, 621.7)"> </text><text xml:space="preserve" font-family="Consolas" font-size="20.0" fill="#000000" transform="matrix(1.00, 0.00, -0.00, -1.00, 124.5, 621.7)"> </text><text xml:space="preserve" font-family="Consolas" font-size="20.0" fill="#000000" transform="matrix(1.00, 0.00, -0.00, -1.00, 135.5, 621.7)"> </text><text xml:space="preserve" font-family="Consolas" font-size="20.0" fill="#00872A" transform="matrix(1.00, 0.00, -0.00, -1.00, 146.5, 621.7)">w</text><text xml:space="preserve" font-family="Consolas" font-size="20.0" fill="#00872A" transform="matrix(1.00, 0.00, -0.00, -1.00, 157.5, 621.7)">a</text><text xml:space="preserve" font-family="Consolas" font-size="20.0" fill="#00872A" transform="matrix(1.00, 0.00, -0.00, -1.00, 168.5, 621.7)">i</text><text xml:space="preserve" font-family="Consolas" font-size="20.0" fill="#00872A" transform="matrix(1.00, 0.00, -0.00, -1.00, 179.5, 621.7)">t</text><text xml:space="preserve" font-family="Consolas" font-size="20.0" fill="#000000" transform="matrix(1.00, 0.00, -0.00, -1.00, 190.5, 621.7)">:</text><text xml:space="preserve" font-family="Consolas" font-size="20.0" fill="#000000" transform="matrix(1.00, 0.00, -0.00, -1.00, 201.5, 621.7)"> </text><text xml:space="preserve" font-family="Consolas" font-size="20.0" fill="#000000" transform="matrix(1.00, 0.00, -0.00, -1.00, 212.5, 621.7)">'</text><text xml:space="preserve" font-family="Consolas" font-size="20.0" fill="#000000" transform="matrix(1.00, 0.00, -0.00, -1.00, 223.5, 621.7)">a</text><text xml:space="preserve" font-family="Consolas" font-size="20.0" fill="#000000" transform="matrix(1.00, 0.00, -0.00, -1.00, 234.5, 621.7)">d</text><text xml:space="preserve" font-family="Consolas" font-size="20.0" fill="#000000" transform="matrix(1.00, 0.00, -0.00, -1.00, 245.4, 621.7)">S</text><text xml:space="preserve" font-family="Consolas" font-size="20.0" fill="#000000" transform="matrix(1.00, 0.00, -0.00, -1.00, 256.4, 621.7)">h</text><text xml:space="preserve" font-family="Consolas" font-size="20.0" fill="#000000" transform="matrix(1.00, 0.00, -0.00, -1.00, 267.4, 621.7)">o</text><text xml:space="preserve" font-family="Consolas" font-size="20.0" fill="#000000" transform="matrix(1.00, 0.00, -0.00, -1.00, 278.4, 621.7)">w</text><text xml:space="preserve" font-family="Consolas" font-size="20.0" fill="#000000" transform="matrix(1.00, 0.00, -0.00, -1.00, 289.4, 621.7)">n</text><text xml:space="preserve" font-family="Consolas" font-size="20.0" fill="#000000" transform="matrix(1.00, 0.00, -0.00, -1.00, 300.4, 621.7)">'</text><text xml:space="preserve" font-family="Consolas" font-size="20.0" fill="#000000" transform="matrix(1.00, 0.00, -0.00, -1.00, 311.4, 621.7)">,</text><text xml:space="preserve" font-family="Consolas" font-size="20.0" fill="#000000" transform="matrix(1.00, 0.00, -0.00, -1.00, 322.4, 621.7)"> </text><text xml:space="preserve" font-family="Consolas" font-size="20.0" fill="#000000" transform="matrix(1.00, 0.00, -0.00, -1.00, 102.5, 598.7)"> </text><text xml:space="preserve" font-family="Consolas" font-size="20.0" fill="#000000" transform="matrix(1.00, 0.00, -0.00, -1.00, 113.5, 598.7)"> </text><text xml:space="preserve" font-family="Consolas" font-size="20.0" fill="#000000" transform="matrix(1.00, 0.00, -0.00, -1.00, 124.5, 598.7)"> </text><text xml:space="preserve" font-family="Consolas" font-size="20.0" fill="#000000" transform="matrix(1.00, 0.00, -0.00, -1.00, 135.5, 598.7)"> </text><text xml:space="preserve" font-family="Consolas" font-size="20.0" fill="#FF4C41" transform="matrix(1.00, 0.00, -0.00, -1.00, 146.5, 598.7)">b</text><text xml:space="preserve" font-family="Consolas" font-size="20.0" fill="#FF4C41" transform="matrix(1.00, 0.00, -0.00, -1.00, 157.5, 598.7)">l</text><text xml:space="preserve" font-family="Consolas" font-size="20.0" fill="#FF4C41" transform="matrix(1.00, 0.00, -0.00, -1.00, 168.5, 598.7)">o</text><text xml:space="preserve" font-family="Consolas" font-size="20.0" fill="#FF4C41" transform="matrix(1.00, 0.00, -0.00, -1.00, 179.5, 598.7)">c</text><text xml:space="preserve" font-family="Consolas" font-size="20.0" fill="#FF4C41" transform="matrix(1.00, 0.00, -0.00, -1.00, 190.5, 598.7)">k</text><text xml:space="preserve" font-family="Consolas" font-size="20.0" fill="#000000" transform="matrix(1.00, 0.00, -0.00, -1.00, 201.5, 598.7)">:</text><text xml:space="preserve" font-family="Consolas" font-size="20.0" fill="#000000" transform="matrix(1.00, 0.00, -0.00, -1.00, 212.5, 598.7)"> </text><text xml:space="preserve" font-family="Consolas" font-size="20.0" fill="#000000" transform="matrix(1.00, 0.00, -0.00, -1.00, 223.5, 598.7)">'</text><text xml:space="preserve" font-family="Consolas" font-size="20.0" fill="#000000" transform="matrix(1.00, 0.00, -0.00, -1.00, 234.5, 598.7)">l</text><text xml:space="preserve" font-family="Consolas" font-size="20.0" fill="#000000" transform="matrix(1.00, 0.00, -0.00, -1.00, 245.4, 598.7)">o</text><text xml:space="preserve" font-family="Consolas" font-size="20.0" fill="#000000" transform="matrix(1.00, 0.00, -0.00, -1.00, 256.4, 598.7)">a</text><text xml:space="preserve" font-family="Consolas" font-size="20.0" fill="#000000" transform="matrix(1.00, 0.00, -0.00, -1.00, 267.4, 598.7)">d</text><text xml:space="preserve" font-family="Consolas" font-size="20.0" fill="#000000" transform="matrix(1.00, 0.00, -0.00, -1.00, 278.4, 598.7)">i</text><text xml:space="preserve" font-family="Consolas" font-size="20.0" fill="#000000" transform="matrix(1.00, 0.00, -0.00, -1.00, 289.4, 598.7)">n</text><text xml:space="preserve" font-family="Consolas" font-size="20.0" fill="#000000" transform="matrix(1.00, 0.00, -0.00, -1.00, 300.4, 598.7)">g</text><text xml:space="preserve" font-family="Consolas" font-size="20.0" fill="#000000" transform="matrix(1.00, 0.00, -0.00, -1.00, 311.4, 598.7)">A</text><text xml:space="preserve" font-family="Consolas" font-size="20.0" fill="#000000" transform="matrix(1.00, 0.00, -0.00, -1.00, 322.4, 598.7)">c</text><text xml:space="preserve" font-family="Consolas" font-size="20.0" fill="#000000" transform="matrix(1.00, 0.00, -0.00, -1.00, 333.4, 598.7)">c</text><text xml:space="preserve" font-family="Consolas" font-size="20.0" fill="#000000" transform="matrix(1.00, 0.00, -0.00, -1.00, 344.4, 598.7)">o</text><text xml:space="preserve" font-family="Consolas" font-size="20.0" fill="#000000" transform="matrix(1.00, 0.00, -0.00, -1.00, 355.4, 598.7)">u</text><text xml:space="preserve" font-family="Consolas" font-size="20.0" fill="#000000" transform="matrix(1.00, 0.00, -0.00, -1.00, 366.4, 598.7)">n</text><text xml:space="preserve" font-family="Consolas" font-size="20.0" fill="#000000" transform="matrix(1.00, 0.00, -0.00, -1.00, 377.4, 598.7)">t</text><text xml:space="preserve" font-family="Consolas" font-size="20.0" fill="#000000" transform="matrix(1.00, 0.00, -0.00, -1.00, 388.4, 598.7)">'</text><text xml:space="preserve" font-family="Consolas" font-size="20.0" fill="#000000" transform="matrix(1.00, 0.00, -0.00, -1.00, 399.4, 598.7)"> </text><text xml:space="preserve" font-family="Consolas" font-size="20.0" fill="#000000" transform="matrix(1.00, 0.00, -0.00, -1.00, 102.5, 575.7)"> </text><text xml:space="preserve" font-family="Consolas" font-size="20.0" fill="#000000" transform="matrix(1.00, 0.00, -0.00, -1.00, 113.5, 575.7)"> </text><text xml:space="preserve" font-family="Consolas" font-size="20.0" fill="#000000" transform="matrix(1.00, 0.00, -0.00, -1.00, 124.5, 575.7)">}</text><text xml:space="preserve" font-family="Consolas" font-size="20.0" fill="#000000" transform="matrix(1.00, 0.00, -0.00, -1.00, 135.5, 575.7)"> </text><text xml:space="preserve" font-family="Consolas" font-size="20.0" fill="#000000" transform="matrix(1.00, 0.00, -0.00, -1.00, 102.5, 552.7)">}</text></g></g><image xlink:href="../../83605C26-01C5-4B93-9452-379B2AD77C68/assets/B493E41C90B15A4551C5EA416BC02B4D.png" width="489.00" height="169.00" transform="matrix(1.00, 0.00, -0.00, -1.00, 476.5, 712.0)" opacity="0.50"></image><path d="M 504.5 709.5 L 937.3 709.5 C 944.0 709.5 947.4 709.5 951.1 708.4 C 955.0 706.9 958.2 703.8 959.6 699.8 C 960.8 696.2 960.8 692.8 960.8 685.9 L 960.8 572.9 C 960.8 566.1 960.8 562.7 959.6 559.1 C 958.2 555.1 955.0 551.9 951.1 550.5 C 947.4 549.3 944.0 549.3 937.1 549.3 L 504.5 549.3 C 497.7 549.3 494.3 549.3 490.7 550.5 C 486.7 551.9 483.6 555.1 482.1 559.1 C 481.0 562.7 481.0 566.1 481.0 573.0 L 481.0 686.0 C 481.0 692.8 481.0 696.2 482.1 699.8 C 483.6 703.8 486.7 706.9 490.7 708.4 C 494.3 709.5 497.7 709.5 504.6 709.5 Z M 504.5 709.5 " fill="#FFFFFF"></path><path d="M 23.5 0.0 L 456.3 0.0 C 463.0 0.0 466.5 0.0 470.1 1.2 C 474.1 2.6 477.2 5.7 478.7 9.7 C 479.8 13.4 479.8 16.8 479.8 23.6 L 479.8 136.7 C 479.8 143.4 479.8 146.8 478.7 150.5 C 477.2 154.5 474.1 157.6 470.1 159.0 C 466.5 160.2 463.0 160.2 456.2 160.2 L 23.5 160.2 C 16.8 160.2 13.4 160.2 9.7 159.0 C 5.7 157.6 2.6 154.5 1.2 150.5 C 0.0 146.8 0.0 143.4 0.0 136.6 L 0.0 23.5 C 0.0 16.8 0.0 13.4 1.2 9.7 C 2.6 5.7 5.7 2.6 9.7 1.2 C 13.4 0.0 16.8 0.0 23.6 0.0 Z M 23.5 0.0 " fill="none" stroke="#F09A36" stroke-width="3.00" transform="matrix(1.00, 0.00, 0.00, -1.00, 481.0, 709.5)"></path><g><clipPath id="clip-178"><path d="M 481.0 709.5 L 960.8 709.5 L 960.8 549.3 L 481.0 549.3 Z M 481.0 709.5 "></path></clipPath><g clip-path="url(#clip-178)"><text xml:space="preserve" font-family="Consolas" font-size="20.0" fill="#000000" transform="matrix(1.00, 0.00, -0.00, -1.00, 493.9, 689.1)">w</text><text xml:space="preserve" font-family="Consolas" font-size="20.0" fill="#000000" transform="matrix(1.00, 0.00, -0.00, -1.00, 504.9, 689.1)">h</text><text xml:space="preserve" font-family="Consolas" font-size="20.0" fill="#000000" transform="matrix(1.00, 0.00, -0.00, -1.00, 515.9, 689.1)">i</text><text xml:space="preserve" font-family="Consolas" font-size="20.0" fill="#000000" transform="matrix(1.00, 0.00, -0.00, -1.00, 526.9, 689.1)">l</text><text xml:space="preserve" font-family="Consolas" font-size="20.0" fill="#000000" transform="matrix(1.00, 0.00, -0.00, -1.00, 537.8, 689.1)">e</text><text xml:space="preserve" font-family="Consolas" font-size="20.0" fill="#000000" transform="matrix(1.00, 0.00, -0.00, -1.00, 548.8, 689.1)"> </text><text xml:space="preserve" font-family="Consolas" font-size="20.0" fill="#000000" transform="matrix(1.00, 0.00, -0.00, -1.00, 559.8, 689.1)">(</text><text xml:space="preserve" font-family="Consolas" font-size="20.0" fill="#000000" transform="matrix(1.00, 0.00, -0.00, -1.00, 570.8, 689.1)">t</text><text xml:space="preserve" font-family="Consolas" font-size="20.0" fill="#000000" transform="matrix(1.00, 0.00, -0.00, -1.00, 581.8, 689.1)">r</text><text xml:space="preserve" font-family="Consolas" font-size="20.0" fill="#000000" transform="matrix(1.00, 0.00, -0.00, -1.00, 592.8, 689.1)">u</text><text xml:space="preserve" font-family="Consolas" font-size="20.0" fill="#000000" transform="matrix(1.00, 0.00, -0.00, -1.00, 603.8, 689.1)">e</text><text xml:space="preserve" font-family="Consolas" font-size="20.0" fill="#000000" transform="matrix(1.00, 0.00, -0.00, -1.00, 614.8, 689.1)">)</text><text xml:space="preserve" font-family="Consolas" font-size="20.0" fill="#000000" transform="matrix(1.00, 0.00, -0.00, -1.00, 625.8, 689.1)"> </text><text xml:space="preserve" font-family="Consolas" font-size="20.0" fill="#000000" transform="matrix(1.00, 0.00, -0.00, -1.00, 636.8, 689.1)">{</text><text xml:space="preserve" font-family="Consolas" font-size="20.0" fill="#000000" transform="matrix(1.00, 0.00, -0.00, -1.00, 647.8, 689.1)"> </text><text xml:space="preserve" font-family="Consolas" font-size="20.0" fill="#000000" transform="matrix(1.00, 0.00, -0.00, -1.00, 486.5, 666.1)"> </text><text xml:space="preserve" font-family="Consolas" font-size="20.0" fill="#000000" transform="matrix(1.00, 0.00, -0.00, -1.00, 497.5, 666.1)"> </text><text xml:space="preserve" font-family="Consolas" font-size="20.0" fill="#000000" transform="matrix(1.00, 0.00, -0.00, -1.00, 508.5, 666.1)">y</text><text xml:space="preserve" font-family="Consolas" font-size="20.0" fill="#000000" transform="matrix(1.00, 0.00, -0.00, -1.00, 519.4, 666.1)">i</text><text xml:space="preserve" font-family="Consolas" font-size="20.0" fill="#000000" transform="matrix(1.00, 0.00, -0.00, -1.00, 530.4, 666.1)">e</text><text xml:space="preserve" font-family="Consolas" font-size="20.0" fill="#000000" transform="matrix(1.00, 0.00, -0.00, -1.00, 541.4, 666.1)">l</text><text xml:space="preserve" font-family="Consolas" font-size="20.0" fill="#000000" transform="matrix(1.00, 0.00, -0.00, -1.00, 552.4, 666.1)">d</text><text xml:space="preserve" font-family="Consolas" font-size="20.0" fill="#000000" transform="matrix(1.00, 0.00, -0.00, -1.00, 563.4, 666.1)"> </text><text xml:space="preserve" font-family="Consolas" font-size="20.0" fill="#000000" transform="matrix(1.00, 0.00, -0.00, -1.00, 574.4, 666.1)">{</text><text xml:space="preserve" font-family="Consolas" font-size="20.0" fill="#000000" transform="matrix(1.00, 0.00, -0.00, -1.00, 585.4, 666.1)"> </text><text xml:space="preserve" font-family="Consolas" font-size="20.0" fill="#00872A" transform="matrix(1.00, 0.00, -0.00, -1.00, 596.4, 666.1)">w</text><text xml:space="preserve" font-family="Consolas" font-size="20.0" fill="#00872A" transform="matrix(1.00, 0.00, -0.00, -1.00, 607.4, 666.1)">a</text><text xml:space="preserve" font-family="Consolas" font-size="20.0" fill="#00872A" transform="matrix(1.00, 0.00, -0.00, -1.00, 618.4, 666.1)">i</text><text xml:space="preserve" font-family="Consolas" font-size="20.0" fill="#00872A" transform="matrix(1.00, 0.00, -0.00, -1.00, 629.4, 666.1)">t</text><text xml:space="preserve" font-family="Consolas" font-size="20.0" fill="#000000" transform="matrix(1.00, 0.00, -0.00, -1.00, 640.4, 666.1)">:</text><text xml:space="preserve" font-family="Consolas" font-size="20.0" fill="#000000" transform="matrix(1.00, 0.00, -0.00, -1.00, 651.4, 666.1)"> </text><text xml:space="preserve" font-family="Consolas" font-size="20.0" fill="#000000" transform="matrix(1.00, 0.00, -0.00, -1.00, 662.4, 666.1)">'</text><text xml:space="preserve" font-family="Consolas" font-size="20.0" fill="#000000" transform="matrix(1.00, 0.00, -0.00, -1.00, 673.4, 666.1)">c</text><text xml:space="preserve" font-family="Consolas" font-size="20.0" fill="#000000" transform="matrix(1.00, 0.00, -0.00, -1.00, 684.4, 666.1)">a</text><text xml:space="preserve" font-family="Consolas" font-size="20.0" fill="#000000" transform="matrix(1.00, 0.00, -0.00, -1.00, 695.4, 666.1)">r</text><text xml:space="preserve" font-family="Consolas" font-size="20.0" fill="#000000" transform="matrix(1.00, 0.00, -0.00, -1.00, 706.4, 666.1)">d</text><text xml:space="preserve" font-family="Consolas" font-size="20.0" fill="#000000" transform="matrix(1.00, 0.00, -0.00, -1.00, 717.4, 666.1)">I</text><text xml:space="preserve" font-family="Consolas" font-size="20.0" fill="#000000" transform="matrix(1.00, 0.00, -0.00, -1.00, 728.3, 666.1)">s</text><text xml:space="preserve" font-family="Consolas" font-size="20.0" fill="#000000" transform="matrix(1.00, 0.00, -0.00, -1.00, 739.3, 666.1)">V</text><text xml:space="preserve" font-family="Consolas" font-size="20.0" fill="#000000" transform="matrix(1.00, 0.00, -0.00, -1.00, 750.3, 666.1)">a</text><text xml:space="preserve" font-family="Consolas" font-size="20.0" fill="#000000" transform="matrix(1.00, 0.00, -0.00, -1.00, 761.3, 666.1)">l</text><text xml:space="preserve" font-family="Consolas" font-size="20.0" fill="#000000" transform="matrix(1.00, 0.00, -0.00, -1.00, 772.3, 666.1)">i</text><text xml:space="preserve" font-family="Consolas" font-size="20.0" fill="#000000" transform="matrix(1.00, 0.00, -0.00, -1.00, 783.3, 666.1)">d</text><text xml:space="preserve" font-family="Consolas" font-size="20.0" fill="#000000" transform="matrix(1.00, 0.00, -0.00, -1.00, 794.3, 666.1)">'</text><text xml:space="preserve" font-family="Consolas" font-size="20.0" fill="#000000" transform="matrix(1.00, 0.00, -0.00, -1.00, 805.3, 666.1)"> </text><text xml:space="preserve" font-family="Consolas" font-size="20.0" fill="#000000" transform="matrix(1.00, 0.00, -0.00, -1.00, 816.3, 666.1)">}</text><text xml:space="preserve" font-family="Consolas" font-size="20.0" fill="#000000" transform="matrix(1.00, 0.00, -0.00, -1.00, 827.3, 666.1)"> </text><text xml:space="preserve" font-family="Consolas" font-size="20.0" fill="#000000" transform="matrix(1.00, 0.00, -0.00, -1.00, 486.5, 643.1)"> </text><text xml:space="preserve" font-family="Consolas" font-size="20.0" fill="#000000" transform="matrix(1.00, 0.00, -0.00, -1.00, 497.5, 643.1)"> </text><text xml:space="preserve" font-family="Consolas" font-size="20.0" fill="#000000" transform="matrix(1.00, 0.00, -0.00, -1.00, 508.5, 643.1)">y</text><text xml:space="preserve" font-family="Consolas" font-size="20.0" fill="#000000" transform="matrix(1.00, 0.00, -0.00, -1.00, 519.4, 643.1)">i</text><text xml:space="preserve" font-family="Consolas" font-size="20.0" fill="#000000" transform="matrix(1.00, 0.00, -0.00, -1.00, 530.4, 643.1)">e</text><text xml:space="preserve" font-family="Consolas" font-size="20.0" fill="#000000" transform="matrix(1.00, 0.00, -0.00, -1.00, 541.4, 643.1)">l</text><text xml:space="preserve" font-family="Consolas" font-size="20.0" fill="#000000" transform="matrix(1.00, 0.00, -0.00, -1.00, 552.4, 643.1)">d</text><text xml:space="preserve" font-family="Consolas" font-size="20.0" fill="#000000" transform="matrix(1.00, 0.00, -0.00, -1.00, 563.4, 643.1)"> </text><text xml:space="preserve" font-family="Consolas" font-size="20.0" fill="#000000" transform="matrix(1.00, 0.00, -0.00, -1.00, 574.4, 643.1)">{</text><text xml:space="preserve" font-family="Consolas" font-size="20.0" fill="#000000" transform="matrix(1.00, 0.00, -0.00, -1.00, 585.4, 643.1)"> </text><text xml:space="preserve" font-family="Consolas" font-size="20.0" fill="#0264C0" transform="matrix(1.00, 0.00, -0.00, -1.00, 596.4, 643.1)">r</text><text xml:space="preserve" font-family="Consolas" font-size="20.0" fill="#0264C0" transform="matrix(1.00, 0.00, -0.00, -1.00, 607.4, 643.1)">e</text><text xml:space="preserve" font-family="Consolas" font-size="20.0" fill="#0264C0" transform="matrix(1.00, 0.00, -0.00, -1.00, 618.4, 643.1)">q</text><text xml:space="preserve" font-family="Consolas" font-size="20.0" fill="#0264C0" transform="matrix(1.00, 0.00, -0.00, -1.00, 629.4, 643.1)">u</text><text xml:space="preserve" font-family="Consolas" font-size="20.0" fill="#0264C0" transform="matrix(1.00, 0.00, -0.00, -1.00, 640.4, 643.1)">e</text><text xml:space="preserve" font-family="Consolas" font-size="20.0" fill="#0264C0" transform="matrix(1.00, 0.00, -0.00, -1.00, 651.4, 643.1)">s</text><text xml:space="preserve" font-family="Consolas" font-size="20.0" fill="#0264C0" transform="matrix(1.00, 0.00, -0.00, -1.00, 662.4, 643.1)">t</text><text xml:space="preserve" font-family="Consolas" font-size="20.0" fill="#000000" transform="matrix(1.00, 0.00, -0.00, -1.00, 673.4, 643.1)">:</text><text xml:space="preserve" font-family="Consolas" font-size="20.0" fill="#000000" transform="matrix(1.00, 0.00, -0.00, -1.00, 684.4, 643.1)"> </text><text xml:space="preserve" font-family="Consolas" font-size="20.0" fill="#000000" transform="matrix(1.00, 0.00, -0.00, -1.00, 695.4, 643.1)">'</text><text xml:space="preserve" font-family="Consolas" font-size="20.0" fill="#000000" transform="matrix(1.00, 0.00, -0.00, -1.00, 706.4, 643.1)">s</text><text xml:space="preserve" font-family="Consolas" font-size="20.0" fill="#000000" transform="matrix(1.00, 0.00, -0.00, -1.00, 717.4, 643.1)">h</text><text xml:space="preserve" font-family="Consolas" font-size="20.0" fill="#000000" transform="matrix(1.00, 0.00, -0.00, -1.00, 728.4, 643.1)">o</text><text xml:space="preserve" font-family="Consolas" font-size="20.0" fill="#000000" transform="matrix(1.00, 0.00, -0.00, -1.00, 739.4, 643.1)">w</text><text xml:space="preserve" font-family="Consolas" font-size="20.0" fill="#000000" transform="matrix(1.00, 0.00, -0.00, -1.00, 750.3, 643.1)">A</text><text xml:space="preserve" font-family="Consolas" font-size="20.0" fill="#000000" transform="matrix(1.00, 0.00, -0.00, -1.00, 761.3, 643.1)">d</text><text xml:space="preserve" font-family="Consolas" font-size="20.0" fill="#000000" transform="matrix(1.00, 0.00, -0.00, -1.00, 772.3, 643.1)">'</text><text xml:space="preserve" font-family="Consolas" font-size="20.0" fill="#000000" transform="matrix(1.00, 0.00, -0.00, -1.00, 783.3, 643.1)"> </text><text xml:space="preserve" font-family="Consolas" font-size="20.0" fill="#000000" transform="matrix(1.00, 0.00, -0.00, -1.00, 794.3, 643.1)">}</text><text xml:space="preserve" font-family="Consolas" font-size="20.0" fill="#000000" transform="matrix(1.00, 0.00, -0.00, -1.00, 805.4, 643.1)"> </text><text xml:space="preserve" font-family="Consolas" font-size="20.0" fill="#000000" transform="matrix(1.00, 0.00, -0.00, -1.00, 486.5, 620.1)"> </text><text xml:space="preserve" font-family="Consolas" font-size="20.0" fill="#000000" transform="matrix(1.00, 0.00, -0.00, -1.00, 497.5, 620.1)"> </text><text xml:space="preserve" font-family="Consolas" font-size="20.0" fill="#000000" transform="matrix(1.00, 0.00, -0.00, -1.00, 508.5, 620.1)">y</text><text xml:space="preserve" font-family="Consolas" font-size="20.0" fill="#000000" transform="matrix(1.00, 0.00, -0.00, -1.00, 519.4, 620.1)">i</text><text xml:space="preserve" font-family="Consolas" font-size="20.0" fill="#000000" transform="matrix(1.00, 0.00, -0.00, -1.00, 530.4, 620.1)">e</text><text xml:space="preserve" font-family="Consolas" font-size="20.0" fill="#000000" transform="matrix(1.00, 0.00, -0.00, -1.00, 541.4, 620.1)">l</text><text xml:space="preserve" font-family="Consolas" font-size="20.0" fill="#000000" transform="matrix(1.00, 0.00, -0.00, -1.00, 552.4, 620.1)">d</text><text xml:space="preserve" font-family="Consolas" font-size="20.0" fill="#000000" transform="matrix(1.00, 0.00, -0.00, -1.00, 563.4, 620.1)"> </text><text xml:space="preserve" font-family="Consolas" font-size="20.0" fill="#000000" transform="matrix(1.00, 0.00, -0.00, -1.00, 574.4, 620.1)">s</text><text xml:space="preserve" font-family="Consolas" font-size="20.0" fill="#000000" transform="matrix(1.00, 0.00, -0.00, -1.00, 585.4, 620.1)">h</text><text xml:space="preserve" font-family="Consolas" font-size="20.0" fill="#000000" transform="matrix(1.00, 0.00, -0.00, -1.00, 596.4, 620.1)">o</text><text xml:space="preserve" font-family="Consolas" font-size="20.0" fill="#000000" transform="matrix(1.00, 0.00, -0.00, -1.00, 607.4, 620.1)">w</text><text xml:space="preserve" font-family="Consolas" font-size="20.0" fill="#000000" transform="matrix(1.00, 0.00, -0.00, -1.00, 618.4, 620.1)">A</text><text xml:space="preserve" font-family="Consolas" font-size="20.0" fill="#000000" transform="matrix(1.00, 0.00, -0.00, -1.00, 629.4, 620.1)">d</text><text xml:space="preserve" font-family="Consolas" font-size="20.0" fill="#000000" transform="matrix(1.00, 0.00, -0.00, -1.00, 640.4, 620.1)">v</text><text xml:space="preserve" font-family="Consolas" font-size="20.0" fill="#000000" transform="matrix(1.00, 0.00, -0.00, -1.00, 651.3, 620.1)">e</text><text xml:space="preserve" font-family="Consolas" font-size="20.0" fill="#000000" transform="matrix(1.00, 0.00, -0.00, -1.00, 662.3, 620.1)">r</text><text xml:space="preserve" font-family="Consolas" font-size="20.0" fill="#000000" transform="matrix(1.00, 0.00, -0.00, -1.00, 673.3, 620.1)">t</text><text xml:space="preserve" font-family="Consolas" font-size="20.0" fill="#000000" transform="matrix(1.00, 0.00, -0.00, -1.00, 684.3, 620.1)">i</text><text xml:space="preserve" font-family="Consolas" font-size="20.0" fill="#000000" transform="matrix(1.00, 0.00, -0.00, -1.00, 695.3, 620.1)">s</text><text xml:space="preserve" font-family="Consolas" font-size="20.0" fill="#000000" transform="matrix(1.00, 0.00, -0.00, -1.00, 706.3, 620.1)">m</text><text xml:space="preserve" font-family="Consolas" font-size="20.0" fill="#000000" transform="matrix(1.00, 0.00, -0.00, -1.00, 717.3, 620.1)">e</text><text xml:space="preserve" font-family="Consolas" font-size="20.0" fill="#000000" transform="matrix(1.00, 0.00, -0.00, -1.00, 728.3, 620.1)">n</text><text xml:space="preserve" font-family="Consolas" font-size="20.0" fill="#000000" transform="matrix(1.00, 0.00, -0.00, -1.00, 739.3, 620.1)">t</text><text xml:space="preserve" font-family="Consolas" font-size="20.0" fill="#000000" transform="matrix(1.00, 0.00, -0.00, -1.00, 750.3, 620.1)">(</text><text xml:space="preserve" font-family="Consolas" font-size="20.0" fill="#000000" transform="matrix(1.00, 0.00, -0.00, -1.00, 761.3, 620.1)">)</text><text xml:space="preserve" font-family="Consolas" font-size="20.0" fill="#000000" transform="matrix(1.00, 0.00, -0.00, -1.00, 772.3, 620.1)"> </text><text xml:space="preserve" font-family="Consolas" font-size="20.0" fill="#000000" transform="matrix(1.00, 0.00, -0.00, -1.00, 486.5, 597.1)"> </text><text xml:space="preserve" font-family="Consolas" font-size="20.0" fill="#000000" transform="matrix(1.00, 0.00, -0.00, -1.00, 497.5, 597.1)"> </text><text xml:space="preserve" font-family="Consolas" font-size="20.0" fill="#000000" transform="matrix(1.00, 0.00, -0.00, -1.00, 508.5, 597.1)">y</text><text xml:space="preserve" font-family="Consolas" font-size="20.0" fill="#000000" transform="matrix(1.00, 0.00, -0.00, -1.00, 519.4, 597.1)">i</text><text xml:space="preserve" font-family="Consolas" font-size="20.0" fill="#000000" transform="matrix(1.00, 0.00, -0.00, -1.00, 530.4, 597.1)">e</text><text xml:space="preserve" font-family="Consolas" font-size="20.0" fill="#000000" transform="matrix(1.00, 0.00, -0.00, -1.00, 541.4, 597.1)">l</text><text xml:space="preserve" font-family="Consolas" font-size="20.0" fill="#000000" transform="matrix(1.00, 0.00, -0.00, -1.00, 552.4, 597.1)">d</text><text xml:space="preserve" font-family="Consolas" font-size="20.0" fill="#000000" transform="matrix(1.00, 0.00, -0.00, -1.00, 563.4, 597.1)"> </text><text xml:space="preserve" font-family="Consolas" font-size="20.0" fill="#000000" transform="matrix(1.00, 0.00, -0.00, -1.00, 574.4, 597.1)">{</text><text xml:space="preserve" font-family="Consolas" font-size="20.0" fill="#000000" transform="matrix(1.00, 0.00, -0.00, -1.00, 585.4, 597.1)"> </text><text xml:space="preserve" font-family="Consolas" font-size="20.0" fill="#0264C0" transform="matrix(1.00, 0.00, -0.00, -1.00, 596.4, 597.1)">r</text><text xml:space="preserve" font-family="Consolas" font-size="20.0" fill="#0264C0" transform="matrix(1.00, 0.00, -0.00, -1.00, 607.4, 597.1)">e</text><text xml:space="preserve" font-family="Consolas" font-size="20.0" fill="#0264C0" transform="matrix(1.00, 0.00, -0.00, -1.00, 618.4, 597.1)">q</text><text xml:space="preserve" font-family="Consolas" font-size="20.0" fill="#0264C0" transform="matrix(1.00, 0.00, -0.00, -1.00, 629.4, 597.1)">u</text><text xml:space="preserve" font-family="Consolas" font-size="20.0" fill="#0264C0" transform="matrix(1.00, 0.00, -0.00, -1.00, 640.4, 597.1)">e</text><text xml:space="preserve" font-family="Consolas" font-size="20.0" fill="#0264C0" transform="matrix(1.00, 0.00, -0.00, -1.00, 651.4, 597.1)">s</text><text xml:space="preserve" font-family="Consolas" font-size="20.0" fill="#0264C0" transform="matrix(1.00, 0.00, -0.00, -1.00, 662.4, 597.1)">t</text><text xml:space="preserve" font-family="Consolas" font-size="20.0" fill="#000000" transform="matrix(1.00, 0.00, -0.00, -1.00, 673.4, 597.1)">:</text><text xml:space="preserve" font-family="Consolas" font-size="20.0" fill="#000000" transform="matrix(1.00, 0.00, -0.00, -1.00, 684.4, 597.1)"> </text><text xml:space="preserve" font-family="Consolas" font-size="20.0" fill="#000000" transform="matrix(1.00, 0.00, -0.00, -1.00, 695.4, 597.1)">'</text><text xml:space="preserve" font-family="Consolas" font-size="20.0" fill="#000000" transform="matrix(1.00, 0.00, -0.00, -1.00, 706.4, 597.1)">a</text><text xml:space="preserve" font-family="Consolas" font-size="20.0" fill="#000000" transform="matrix(1.00, 0.00, -0.00, -1.00, 717.4, 597.1)">d</text><text xml:space="preserve" font-family="Consolas" font-size="20.0" fill="#000000" transform="matrix(1.00, 0.00, -0.00, -1.00, 728.4, 597.1)">S</text><text xml:space="preserve" font-family="Consolas" font-size="20.0" fill="#000000" transform="matrix(1.00, 0.00, -0.00, -1.00, 739.4, 597.1)">h</text><text xml:space="preserve" font-family="Consolas" font-size="20.0" fill="#000000" transform="matrix(1.00, 0.00, -0.00, -1.00, 750.3, 597.1)">o</text><text xml:space="preserve" font-family="Consolas" font-size="20.0" fill="#000000" transform="matrix(1.00, 0.00, -0.00, -1.00, 761.3, 597.1)">w</text><text xml:space="preserve" font-family="Consolas" font-size="20.0" fill="#000000" transform="matrix(1.00, 0.00, -0.00, -1.00, 772.3, 597.1)">n</text><text xml:space="preserve" font-family="Consolas" font-size="20.0" fill="#000000" transform="matrix(1.00, 0.00, -0.00, -1.00, 783.3, 597.1)">'</text><text xml:space="preserve" font-family="Consolas" font-size="20.0" fill="#000000" transform="matrix(1.00, 0.00, -0.00, -1.00, 794.3, 597.1)"> </text><text xml:space="preserve" font-family="Consolas" font-size="20.0" fill="#000000" transform="matrix(1.00, 0.00, -0.00, -1.00, 805.3, 597.1)">}</text><text xml:space="preserve" font-family="Consolas" font-size="20.0" fill="#000000" transform="matrix(1.00, 0.00, -0.00, -1.00, 816.3, 597.1)"> </text><text xml:space="preserve" font-family="Consolas" font-size="20.0" fill="#000000" transform="matrix(1.00, 0.00, -0.00, -1.00, 486.5, 574.1)">}</text></g></g><image xlink:href="../../CA452695-9AB5-438D-8186-5BA64A20426D/assets/9020F28A27C836F5B0A27152FA19EA88.png" width="685.00" height="73.00" transform="matrix(1.00, 0.02, 0.02, -1.01, 116.5, 627.9)" opacity="0.50"></image><path d="M 0.0 59.6 L 326.4 66.4 L 389.1 0.0 L 683.4 5.0 " fill="none" stroke="#E5D20F" stroke-width="5.00" transform="matrix(1.00, 0.02, 0.02, -1.00, 117.7, 625.4)"></path><text xml:space="preserve" font-family="Verdana" font-size="32.0" fill="#000000" transform="matrix(1.00, 0.00, -0.00, -1.00, 121.0, 345.0)">-</text><text xml:space="preserve" font-family="Verdana" font-size="32.0" fill="#000000" transform="matrix(1.00, 0.00, -0.00, -1.00, 135.5, 345.0)"> </text><text xml:space="preserve" font-family="Verdana" font-size="32.0" fill="#000000" transform="matrix(1.00, 0.00, -0.00, -1.00, 146.8, 345.0)">c</text><text xml:space="preserve" font-family="Verdana" font-size="32.0" fill="#000000" transform="matrix(1.00, 0.00, -0.00, -1.00, 163.4, 345.0)">a</text><text xml:space="preserve" font-family="Verdana" font-size="32.0" fill="#000000" transform="matrix(1.00, 0.00, -0.00, -1.00, 182.6, 345.0)">r</text><text xml:space="preserve" font-family="Verdana" font-size="32.0" fill="#000000" transform="matrix(1.00, 0.00, -0.00, -1.00, 196.3, 345.0)">d</text><text xml:space="preserve" font-family="Verdana" font-size="32.0" fill="#000000" transform="matrix(1.00, 0.00, -0.00, -1.00, 216.2, 345.0)">I</text><text xml:space="preserve" font-family="Verdana" font-size="32.0" fill="#000000" transform="matrix(1.00, 0.00, -0.00, -1.00, 229.7, 345.0)">n</text><text xml:space="preserve" font-family="Verdana" font-size="32.0" fill="#000000" transform="matrix(1.00, 0.00, -0.00, -1.00, 249.9, 345.0)">s</text><text xml:space="preserve" font-family="Verdana" font-size="32.0" fill="#000000" transform="matrix(1.00, 0.00, -0.00, -1.00, 266.6, 345.0)">e</text><text xml:space="preserve" font-family="Verdana" font-size="32.0" fill="#000000" transform="matrix(1.00, 0.00, -0.00, -1.00, 285.7, 345.0)">r</text><text xml:space="preserve" font-family="Verdana" font-size="32.0" fill="#000000" transform="matrix(1.00, 0.00, -0.00, -1.00, 299.3, 345.0)">t</text><text xml:space="preserve" font-family="Verdana" font-size="32.0" fill="#000000" transform="matrix(1.00, 0.00, -0.00, -1.00, 311.9, 345.0)">e</text><text xml:space="preserve" font-family="Verdana" font-size="32.0" fill="#000000" transform="matrix(1.00, 0.00, -0.00, -1.00, 331.0, 345.0)">d</text><text xml:space="preserve" font-family="Verdana" font-size="32.0" fill="#000000" transform="matrix(1.00, 0.00, -0.00, -1.00, 121.0, 295.0)">-</text><text xml:space="preserve" font-family="Verdana" font-size="32.0" fill="#000000" transform="matrix(1.00, 0.00, -0.00, -1.00, 135.5, 295.0)"> </text><text xml:space="preserve" font-family="Verdana" font-size="32.0" fill="#000000" transform="matrix(1.00, 0.00, -0.00, -1.00, 146.8, 295.0)">c</text><text xml:space="preserve" font-family="Verdana" font-size="32.0" fill="#000000" transform="matrix(1.00, 0.00, -0.00, -1.00, 163.4, 295.0)">a</text><text xml:space="preserve" font-family="Verdana" font-size="32.0" fill="#000000" transform="matrix(1.00, 0.00, -0.00, -1.00, 182.6, 295.0)">r</text><text xml:space="preserve" font-family="Verdana" font-size="32.0" fill="#000000" transform="matrix(1.00, 0.00, -0.00, -1.00, 196.3, 295.0)">d</text><text xml:space="preserve" font-family="Verdana" font-size="32.0" fill="#000000" transform="matrix(1.00, 0.00, -0.00, -1.00, 216.2, 295.0)">I</text><text xml:space="preserve" font-family="Verdana" font-size="32.0" fill="#000000" transform="matrix(1.00, 0.00, -0.00, -1.00, 229.7, 295.0)">s</text><text xml:space="preserve" font-family="Verdana" font-size="32.0" fill="#000000" transform="matrix(1.00, 0.00, -0.00, -1.00, 246.4, 295.0)">V</text><text xml:space="preserve" font-family="Verdana" font-size="32.0" fill="#000000" transform="matrix(1.00, 0.00, -0.00, -1.00, 266.7, 295.0)">a</text><text xml:space="preserve" font-family="Verdana" font-size="32.0" fill="#000000" transform="matrix(1.00, 0.00, -0.00, -1.00, 285.9, 295.0)">l</text><text xml:space="preserve" font-family="Verdana" font-size="32.0" fill="#000000" transform="matrix(1.00, 0.00, -0.00, -1.00, 294.7, 295.0)">i</text><text xml:space="preserve" font-family="Verdana" font-size="32.0" fill="#000000" transform="matrix(1.00, 0.00, -0.00, -1.00, 303.5, 295.0)">d</text><image xlink:href="../../2B5AB87D-E53E-431B-8B59-462CFCD96BF3/assets/8A0F49AB64DB3166C602D3C4E2A7219C.png" width="201.00" height="39.00" transform="matrix(1.00, 0.00, -0.00, -0.99, 214.4, 622.1)" opacity="0.50"></image><path d="M 0.0 0.0 L 191.1 0.0 L 191.1 28.7 L 0.0 28.7 Z M 0.0 0.0 " fill="none" stroke="#FF4C41" stroke-width="4.00" transform="matrix(1.00, 0.00, 0.00, -1.00, 219.4, 619.1)"></path><image xlink:href="../../2B5AB87D-E53E-431B-8B59-462CFCD96BF3/assets/E74AB11FF9F07FD13A2A1825792F8F9D.png" width="105.00" height="42.00" transform="matrix(1.00, 0.00, -0.00, -1.00, 687.7, 670.1)" opacity="0.50"></image><path d="M 0.0 0.0 L 94.6 0.0 L 94.6 32.0 L 0.0 32.0 Z M 0.0 0.0 " fill="none" stroke="#1CD836" stroke-width="4.00" transform="matrix(1.00, 0.00, 0.00, -1.00, 692.7, 667.1)"></path><text xml:space="preserve" font-family="Verdana-Bold" font-weight="bold" font-size="24.0" fill="#C97F2D" transform="matrix(1.00, 0.00, -0.00, -1.00, 123.9, 247.5)">-</text><text xml:space="preserve" font-family="Verdana" font-size="32.0" fill="#C97F2D" transform="matrix(1.00, 0.00, -0.00, -1.00, 155.0, 244.0)">s</text><text xml:space="preserve" font-family="Verdana" font-size="32.0" fill="#C97F2D" transform="matrix(1.00, 0.00, -0.00, -1.00, 171.7, 244.0)">h</text><text xml:space="preserve" font-family="Verdana" font-size="32.0" fill="#C97F2D" transform="matrix(1.00, 0.00, -0.00, -1.00, 191.9, 244.0)">o</text><text xml:space="preserve" font-family="Verdana" font-size="32.0" fill="#C97F2D" transform="matrix(1.00, 0.00, -0.00, -1.00, 211.3, 244.0)">w</text><text xml:space="preserve" font-family="Verdana" font-size="32.0" fill="#C97F2D" transform="matrix(1.00, 0.00, -0.00, -1.00, 237.5, 244.0)">A</text><text xml:space="preserve" font-family="Verdana" font-size="32.0" fill="#C97F2D" transform="matrix(1.00, 0.00, -0.00, -1.00, 259.4, 244.0)">d</text><text xml:space="preserve" font-family="Verdana" font-size="32.0" fill="#C97F2D" transform="matrix(1.00, 0.00, -0.00, -1.00, 279.3, 244.0)"> </text><path d="M 350.7 310.9 C 350.0 310.1 346.6 307.0 346.5 307.0 C 347.8 308.2 350.4 310.7 350.7 310.9 C 350.7 310.9 350.7 310.9 350.7 310.9 Z M 357.5 317.1 C 356.3 315.9 353.6 313.5 352.7 312.7 C 354.2 314.0 357.0 316.8 357.5 317.1 C 357.5 317.1 357.5 317.1 357.5 317.1 Z M 347.0 307.7 C 345.1 306.1 341.9 302.9 341.0 302.2 C 342.8 303.9 346.1 307.0 347.0 307.7 C 347.0 307.7 347.0 307.7 347.0 307.7 Z M 443.0 394.8 C 442.2 394.0 438.9 390.9 438.8 391.0 C 440.0 392.1 442.7 394.6 443.0 394.8 C 443.0 394.8 443.0 394.8 443.0 394.8 Z M 424.1 377.5 C 422.9 376.3 420.2 373.8 419.3 373.1 C 420.7 374.4 423.6 377.2 424.1 377.5 C 424.1 377.5 424.1 377.5 424.1 377.5 Z M 413.2 367.3 C 410.7 365.0 408.0 362.4 408.4 363.0 C 409.3 363.7 412.9 367.2 413.2 367.3 C 413.2 367.3 413.2 367.3 413.2 367.3 Z M 346.2 312.9 C 348.9 315.4 350.8 317.3 352.7 319.0 C 361.8 327.5 348.1 314.5 346.2 312.9 C 346.2 312.9 346.2 312.9 346.2 312.9 Z M 393.8 349.7 C 395.6 351.4 397.1 352.7 398.0 353.5 C 396.3 351.9 394.0 349.7 393.8 349.7 C 393.8 349.7 393.8 349.7 393.8 349.7 Z M 378.0 335.1 C 377.6 334.7 368.3 326.0 363.0 321.2 C 367.4 325.3 378.4 335.5 378.0 335.1 C 378.0 335.1 378.0 335.1 378.0 335.1 Z M 368.1 333.4 C 374.2 339.0 383.9 348.0 388.3 352.1 C 392.7 356.1 380.6 344.8 369.4 334.3 C 358.2 323.9 367.3 332.7 362.7 328.4 C 358.1 324.2 367.0 332.6 371.5 336.8 C 376.1 340.9 368.6 333.9 368.1 333.4 C 368.1 333.4 368.1 333.4 368.1 333.4 Z M 367.5 333.4 C 365.3 331.3 363.4 329.6 362.1 328.5 C 364.4 330.6 366.5 332.7 367.5 333.4 C 367.5 333.4 367.5 333.4 367.5 333.4 Z M 694.2 634.4 C 694.2 632.9 689.5 627.3 684.2 621.4 C 682.8 620.0 681.5 618.6 680.1 617.1 C 669.8 606.8 659.3 596.7 648.7 586.7 C 646.6 584.7 644.5 582.7 642.3 580.7 C 635.9 574.5 629.3 568.3 622.7 562.2 C 620.5 560.1 618.3 558.1 616.1 556.0 C 608.3 548.5 600.6 541.5 592.8 534.2 C 588.9 530.6 585.0 526.9 581.0 523.0 C 579.0 521.0 570.3 512.9 567.2 510.1 C 570.3 512.7 555.9 499.5 556.6 500.1 C 554.9 498.6 553.2 497.1 551.6 495.6 C 549.9 494.1 552.0 496.0 554.0 498.0 C 552.1 496.3 550.3 494.6 548.4 492.8 C 546.4 491.0 544.4 489.1 542.4 487.2 C 535.7 480.9 528.5 474.3 522.2 468.6 C 505.3 452.7 458.8 409.5 467.1 417.3 C 476.6 426.2 471.7 421.8 469.1 419.4 C 467.6 418.0 465.6 416.2 463.4 414.1 C 463.5 414.1 463.6 414.2 464.0 414.5 C 459.8 410.6 453.9 404.9 448.0 399.6 C 449.1 400.6 450.5 401.9 450.9 402.4 C 448.0 399.7 450.2 401.9 448.3 400.1 C 442.9 395.1 440.3 392.8 446.5 398.6 C 440.7 393.2 436.9 389.9 431.0 384.7 C 428.9 382.7 430.1 383.8 430.7 384.3 C 427.0 380.7 418.3 372.7 417.5 371.9 C 416.7 371.0 441.1 393.8 436.8 389.7 C 435.1 388.1 431.4 384.7 430.0 383.3 C 433.1 386.2 436.9 389.7 438.9 391.5 C 436.8 389.5 433.8 386.7 432.1 385.1 C 434.2 387.1 435.6 388.4 436.3 388.9 C 433.3 386.1 431.0 384.0 427.4 380.6 C 425.8 379.2 428.7 382.0 425.3 378.8 C 424.7 378.3 427.5 380.9 427.3 380.8 C 424.5 378.2 419.1 373.1 417.7 371.9 C 416.4 370.7 421.0 375.0 421.1 375.1 C 410.5 365.2 398.4 354.0 394.7 350.6 C 390.9 347.1 394.4 350.4 396.0 351.9 C 391.6 347.8 388.3 344.8 383.1 339.9 C 379.8 336.8 381.1 338.1 382.3 339.3 C 381.4 338.5 380.6 337.7 380.1 337.3 C 379.7 336.9 378.8 336.1 378.1 335.5 C 380.2 337.4 384.0 340.9 385.6 342.5 C 382.5 339.7 375.3 332.9 372.6 330.5 C 376.8 334.4 381.3 338.6 386.0 343.0 C 376.7 334.5 367.5 325.6 360.0 318.8 C 361.3 320.1 361.8 320.7 362.9 321.7 C 360.1 319.0 356.0 315.1 353.4 312.9 C 352.0 311.6 349.2 309.0 346.5 306.5 C 351.2 311.0 354.4 314.0 357.8 317.1 C 357.7 317.1 357.4 316.8 356.8 316.3 C 364.2 323.4 368.8 327.2 374.1 332.2 C 374.6 332.5 375.0 332.9 375.4 333.3 C 377.0 335.0 371.0 329.3 370.3 328.8 C 378.2 336.2 386.9 344.2 390.7 347.9 C 381.3 339.2 373.0 331.4 365.9 324.9 C 367.6 326.7 374.8 333.2 378.1 336.4 C 362.6 322.2 361.1 320.7 359.8 319.6 C 361.0 320.7 362.2 321.8 363.4 322.9 C 363.1 322.7 362.7 322.4 362.4 322.1 C 355.6 315.8 347.7 308.4 348.1 308.8 C 348.3 309.1 354.5 314.9 361.1 321.0 C 360.4 320.4 359.6 319.8 358.9 319.2 C 351.2 312.0 342.4 304.1 334.8 296.9 C 336.0 298.1 335.4 297.5 333.7 296.1 C 336.1 298.4 339.5 301.6 342.1 304.0 C 341.2 303.2 339.6 301.7 339.0 301.3 C 340.3 302.5 342.4 304.4 342.9 305.0 C 339.3 301.7 335.4 298.1 331.5 294.5 C 330.7 293.9 333.2 296.1 332.9 295.9 C 329.3 292.6 324.2 287.8 321.5 285.4 C 324.5 288.3 330.5 293.8 332.4 295.6 C 331.1 294.5 329.9 293.4 328.6 292.3 C 326.2 290.0 325.0 288.9 327.7 291.5 C 329.2 292.9 329.1 292.9 328.8 292.5 C 327.0 291.0 321.1 285.5 321.2 285.8 C 322.7 287.1 328.6 292.6 330.0 294.1 C 328.8 293.1 325.9 290.3 325.5 290.1 C 332.1 296.1 331.8 295.9 333.5 297.4 C 332.8 296.7 330.9 295.0 331.0 295.0 C 335.0 298.8 339.0 302.5 343.2 306.4 C 343.2 306.4 343.2 306.4 343.2 306.4 C 343.2 306.4 343.2 306.4 343.2 306.4 C 343.2 306.4 343.2 306.4 343.2 306.4 C 342.8 306.1 342.8 306.3 343.2 306.7 C 341.4 305.1 339.6 303.4 336.3 300.3 C 337.1 301.2 340.1 304.0 342.9 306.6 C 342.9 306.6 342.8 306.6 342.8 306.6 C 338.3 302.4 331.4 296.0 326.7 291.7 C 328.8 293.7 336.5 301.0 341.8 305.9 C 341.7 305.7 341.5 305.6 341.3 305.5 C 347.9 311.6 355.6 319.0 363.1 325.9 C 359.4 322.7 355.3 318.6 350.7 314.4 C 348.5 312.4 346.5 310.6 344.4 308.7 C 338.5 303.2 321.0 286.8 319.0 285.0 C 316.7 283.0 334.5 299.6 334.6 299.7 C 334.6 299.8 326.3 292.1 330.2 295.8 C 332.3 297.7 336.7 301.8 340.0 304.8 C 340.0 304.9 340.1 305.1 340.1 305.3 C 337.3 302.7 334.0 299.6 333.9 299.3 C 332.5 298.1 329.7 295.3 329.2 295.0 C 329.6 295.4 330.4 296.1 330.3 296.1 C 329.6 295.5 328.7 294.5 328.5 294.5 C 331.9 297.6 336.6 302.0 340.3 305.5 C 340.5 305.8 340.8 306.1 341.1 306.4 C 341.0 306.4 338.1 303.7 335.6 301.4 C 333.0 299.0 338.4 304.1 342.7 308.1 C 343.4 308.8 344.0 309.5 344.7 310.1 C 343.2 308.7 341.5 307.1 339.4 305.2 C 337.0 303.1 337.1 303.2 334.6 301.0 C 339.0 305.1 344.3 310.1 348.5 314.0 C 350.0 315.5 351.5 317.0 353.0 318.5 C 349.5 315.3 346.2 312.3 344.2 310.5 C 342.7 309.1 341.1 307.5 340.4 307.0 C 341.9 308.4 338.1 304.9 338.6 305.5 C 340.7 307.4 344.8 311.2 346.4 312.5 C 349.6 315.6 353.2 318.9 356.3 321.8 C 356.7 322.2 357.1 322.6 357.5 323.0 C 354.9 320.5 352.3 318.2 349.4 315.5 C 350.6 316.8 358.5 324.2 364.2 329.4 C 375.7 340.3 387.8 350.8 399.4 361.6 C 399.9 362.0 400.6 362.7 401.3 363.4 C 402.1 364.2 402.9 365.0 403.8 365.8 C 401.0 363.3 398.5 361.0 396.5 359.1 C 404.6 366.8 384.7 348.2 383.3 347.1 C 396.5 359.6 421.4 382.7 436.7 397.1 C 433.0 393.7 431.8 392.6 435.7 396.3 C 436.8 397.3 437.9 398.3 439.0 399.4 C 423.3 384.9 407.2 369.6 394.6 358.1 C 402.0 365.0 413.3 375.4 416.3 378.4 C 414.1 376.4 410.9 373.4 410.5 373.1 C 414.2 376.7 427.0 388.4 430.6 392.0 C 412.4 375.0 387.7 351.9 374.1 339.6 C 394.5 358.4 421.8 384.0 439.3 400.1 C 436.3 397.3 436.3 397.2 437.9 398.7 C 443.3 403.7 448.7 408.7 454.3 413.8 C 455.4 414.9 455.0 414.6 452.3 412.1 C 450.1 410.1 448.8 408.9 448.0 408.2 C 449.5 409.6 466.7 425.7 453.0 412.9 C 439.4 400.3 415.7 378.3 429.5 391.2 C 443.3 404.1 448.7 409.3 441.1 402.3 C 433.5 395.2 409.6 373.1 417.6 380.6 C 425.5 388.0 442.3 403.7 451.8 412.6 C 461.3 421.4 445.6 406.3 459.6 419.3 C 473.6 432.4 461.8 421.6 464.5 424.1 C 468.8 428.0 476.6 435.3 483.9 442.2 C 489.1 447.0 495.8 453.3 499.1 456.4 C 498.8 456.3 483.1 441.5 489.3 447.4 C 504.6 461.7 521.7 477.7 514.8 471.0 C 524.2 479.9 531.2 486.4 537.2 491.9 C 546.3 500.6 557.0 510.5 558.2 511.7 C 559.5 513.0 584.9 536.2 594.0 545.3 C 594.8 546.0 611.8 561.7 613.3 563.0 C 629.3 578.1 627.0 576.1 642.9 590.8 C 656.2 603.2 660.3 606.9 662.6 609.0 C 676.6 622.0 676.4 622.0 683.6 628.0 C 685.8 629.8 689.0 632.8 690.3 633.6 C 692.8 635.2 694.3 635.6 694.2 634.4 C 694.2 634.4 694.2 634.4 694.2 634.4 Z M 345.1 308.0 C 342.7 305.6 338.2 301.5 335.6 299.0 C 338.7 301.7 342.3 305.2 346.1 308.7 C 345.8 308.5 345.5 308.2 345.1 308.0 C 345.1 308.0 345.1 308.0 345.1 308.0 Z M 363.1 327.0 C 361.4 325.5 359.5 323.6 357.6 321.8 C 355.8 320.2 354.0 318.5 351.3 316.0 C 351.5 316.3 355.9 320.4 359.3 323.6 C 359.3 323.6 359.3 323.7 359.2 323.7 C 357.6 322.2 355.6 320.4 353.2 318.2 C 352.4 317.4 351.7 316.7 350.8 315.9 C 350.8 315.8 352.1 317.0 352.6 317.4 C 352.0 316.8 350.0 314.8 347.3 312.3 C 347.0 312.0 346.7 311.7 346.4 311.3 C 346.0 310.9 348.1 312.8 345.8 310.7 C 347.5 312.1 351.6 316.0 354.2 318.4 C 351.1 315.9 362.1 325.9 364.7 328.5 C 364.2 328.0 363.6 327.5 363.1 327.0 Z M 386.5 343.6 C 388.0 345.0 389.4 346.3 391.0 347.7 C 388.8 345.7 387.1 344.2 385.6 342.8 C 385.9 343.0 386.2 343.3 386.5 343.6 Z M 509.0 456.6 C 499.9 448.5 481.5 431.0 480.2 429.9 C 478.3 428.2 476.4 426.4 474.4 424.5 C 486.8 436.1 500.1 448.4 509.0 456.6 C 509.0 456.6 509.0 456.6 509.0 456.6 Z M 473.5 431.9 C 472.7 431.2 473.1 431.4 474.9 433.1 C 484.5 442.0 490.2 447.2 484.2 441.6 C 479.0 436.8 467.8 426.3 471.1 429.3 C 475.5 433.4 479.9 437.4 484.4 441.6 C 487.8 444.9 491.1 448.1 494.5 451.4 C 487.1 444.5 480.0 437.9 473.5 431.9 C 473.5 431.9 473.5 431.9 473.5 431.9 Z M 498.5 455.3 C 495.8 452.9 492.7 449.9 489.5 446.9 C 492.3 449.5 495.1 452.1 497.9 454.7 C 498.1 454.9 498.3 455.1 498.5 455.3 Z M 501.8 458.6 C 496.4 453.6 491.0 448.5 496.5 453.6 C 497.7 454.7 498.9 455.8 500.2 457.0 C 500.7 457.5 501.2 458.0 501.8 458.6 Z M 505.1 461.7 C 505.0 461.6 504.1 460.8 502.3 459.1 C 506.0 462.5 513.3 469.3 512.9 469.0 C 510.5 466.8 507.8 464.3 505.1 461.7 C 505.1 461.7 505.1 461.7 505.1 461.7 Z M 515.0 462.0 C 512.6 459.8 510.6 457.8 514.4 461.3 C 515.8 462.7 517.2 464.0 518.7 465.4 C 517.5 464.2 516.3 463.1 515.0 462.0 Z M 386.5 350.7 C 387.5 351.7 391.4 355.3 393.7 357.3 C 394.1 357.4 385.2 349.3 386.5 350.7 C 386.5 350.7 386.5 350.7 386.5 350.7 Z M 372.0 337.3 C 373.0 338.2 376.8 341.8 379.1 343.9 C 379.5 343.9 370.6 335.9 372.0 337.3 C 372.0 337.3 372.0 337.3 372.0 337.3 Z M 594.1 545.4 C 594.1 545.4 594.0 545.3 594.0 545.3 C 594.0 545.3 594.1 545.4 594.1 545.4 C 594.1 545.4 594.1 545.4 594.1 545.4 Z M 594.1 545.4 " fill="#000000"></path><path d="M 330.7 273.5 C 330.5 272.7 330.0 272.6 329.8 272.5 C 329.8 272.5 329.8 272.5 329.8 272.5 L 329.8 272.5 L 329.8 272.5 L 329.7 272.5 L 329.6 272.5 L 329.4 272.5 L 329.1 272.4 C 328.9 272.3 328.7 272.2 328.7 272.1 C 328.6 271.8 329.8 272.2 329.8 271.9 C 329.6 271.7 325.3 270.4 325.2 270.4 C 324.8 270.4 323.7 270.2 323.4 270.1 C 324.1 270.3 324.7 270.2 325.0 270.3 C 325.0 270.3 326.1 270.4 325.0 269.8 C 325.2 269.9 325.3 269.8 325.3 269.7 L 325.3 269.7 C 325.3 269.7 326.4 270.2 326.5 270.0 C 326.7 269.5 322.8 269.1 322.5 268.8 C 323.0 268.9 323.3 268.9 323.6 268.9 C 322.6 268.8 318.5 267.5 317.6 267.3 C 314.7 266.6 311.4 266.2 308.4 265.6 C 307.0 265.3 305.4 265.0 303.8 264.7 L 301.2 264.1 L 301.1 264.1 L 301.0 264.1 L 300.9 264.1 C 300.7 264.0 301.4 264.1 300.4 264.0 C 299.6 263.4 297.5 265.9 298.1 266.6 C 298.3 267.4 298.2 266.8 298.2 267.0 L 298.2 267.0 L 298.3 267.3 L 298.6 268.0 L 299.0 269.2 C 300.3 272.6 301.5 276.0 302.3 278.7 C 302.8 280.6 305.7 287.8 305.7 288.2 C 305.7 288.4 306.5 290.6 307.3 292.7 L 307.9 294.3 L 308.2 295.0 L 308.3 295.2 L 308.3 295.3 L 308.3 295.3 L 308.3 295.3 L 308.3 295.3 C 308.4 295.0 308.1 295.9 309.6 296.4 C 312.2 295.8 310.6 295.9 311.1 295.9 L 311.1 295.9 L 311.3 295.7 C 311.9 295.0 312.3 294.5 312.3 294.5 C 312.5 294.4 312.4 295.0 312.5 295.1 L 313.3 294.2 C 313.3 294.3 313.2 294.5 313.0 294.7 C 314.6 293.3 317.2 289.6 318.3 288.5 C 318.1 288.5 318.2 288.1 318.2 288.1 C 318.3 288.1 326.9 279.2 327.8 278.3 C 328.6 277.4 330.0 274.6 329.0 275.4 C 328.2 276.0 328.7 275.3 329.0 274.8 C 327.1 275.3 331.5 272.8 327.9 274.4 C 327.8 274.5 328.3 273.3 328.8 273.0 C 327.8 274.5 328.3 273.3 328.8 273.0 C 327.8 274.5 328.3 273.3 328.8 273.0 " fill="#000000"></path></g></svg>