<?xml version="1.0" encoding="UTF-8" standalone="no"?><svg xmlns="http://www.w3.org/2000/svg" xmlns:xlink="http://www.w3.org/1999/xlink" clip-rule="evenodd" stroke-miterlimit="4.00" viewBox="0 0 1024 768"><desc>SVG generated by Keynote</desc><defs></defs><g transform="matrix(1.00, 0.00, -0.00, -1.00, 0.0, 768.0)"><path d="M 0.0 768.0 L 1024.0 768.0 L 1024.0 0.0 L 0.0 0.0 Z M 0.0 768.0 " fill="#FEFFFF"></path><text xml:space="preserve" font-family="Verdana" font-size="32.0" fill="#000000" transform="matrix(1.00, 0.00, -0.00, -1.00, 343.0, 371.0)">L</text><text xml:space="preserve" font-family="Verdana" font-size="32.0" fill="#000000" transform="matrix(1.00, 0.00, -0.00, -1.00, 360.8, 371.0)">e</text><text xml:space="preserve" font-family="Verdana" font-size="32.0" fill="#000000" transform="matrix(1.00, 0.00, -0.00, -1.00, 379.9, 371.0)">t</text><text xml:space="preserve" font-family="Verdana" font-size="32.0" fill="#000000" transform="matrix(1.00, 0.00, -0.00, -1.00, 392.8, 371.0)">’</text><text xml:space="preserve" font-family="Verdana" font-size="32.0" fill="#000000" transform="matrix(1.00, 0.00, -0.00, -1.00, 400.3, 371.0)">s</text><text xml:space="preserve" font-family="Verdana" font-size="32.0" fill="#000000" transform="matrix(1.00, 0.00, -0.00, -1.00, 416.9, 371.0)"> </text><text xml:space="preserve" font-family="Verdana" font-size="32.0" fill="#000000" transform="matrix(1.00, 0.00, -0.00, -1.00, 428.2, 371.0)">p</text><text xml:space="preserve" font-family="Verdana" font-size="32.0" fill="#000000" transform="matrix(1.00, 0.00, -0.00, -1.00, 448.1, 371.0)">l</text><text xml:space="preserve" font-family="Verdana" font-size="32.0" fill="#000000" transform="matrix(1.00, 0.00, -0.00, -1.00, 456.9, 371.0)">a</text><text xml:space="preserve" font-family="Verdana" font-size="32.0" fill="#000000" transform="matrix(1.00, 0.00, -0.00, -1.00, 475.9, 371.0)">y</text><text xml:space="preserve" font-family="Verdana" font-size="32.0" fill="#000000" transform="matrix(1.00, 0.00, -0.00, -1.00, 494.8, 371.0)"> </text><text xml:space="preserve" font-family="Verdana" font-size="32.0" fill="#2150FF" transform="matrix(1.00, 0.00, -0.00, -1.00, 506.1, 371.0)">T</text><text xml:space="preserve" font-family="Verdana" font-size="32.0" fill="#2150FF" transform="matrix(1.00, 0.00, -0.00, -1.00, 525.8, 371.0)">i</text><text xml:space="preserve" font-family="Verdana" font-size="32.0" fill="#2150FF" transform="matrix(1.00, 0.00, -0.00, -1.00, 534.6, 371.0)">c</text><text xml:space="preserve" font-family="Verdana" font-size="32.0" fill="#2150FF" transform="matrix(1.00, 0.00, -0.00, -1.00, 551.3, 371.0)"> </text><text xml:space="preserve" font-family="Verdana" font-size="32.0" fill="#2150FF" transform="matrix(1.00, 0.00, -0.00, -1.00, 562.5, 371.0)">T</text><text xml:space="preserve" font-family="Verdana" font-size="32.0" fill="#2150FF" transform="matrix(1.00, 0.00, -0.00, -1.00, 578.5, 371.0)">a</text><text xml:space="preserve" font-family="Verdana" font-size="32.0" fill="#2150FF" transform="matrix(1.00, 0.00, -0.00, -1.00, 597.7, 371.0)">c</text><text xml:space="preserve" font-family="Verdana" font-size="32.0" fill="#2150FF" transform="matrix(1.00, 0.00, -0.00, -1.00, 614.4, 371.0)"> </text><text xml:space="preserve" font-family="Verdana" font-size="32.0" fill="#2150FF" transform="matrix(1.00, 0.00, -0.00, -1.00, 625.6, 371.0)">T</text><text xml:space="preserve" font-family="Verdana" font-size="32.0" fill="#2150FF" transform="matrix(1.00, 0.00, -0.00, -1.00, 641.9, 371.0)">o</text><text xml:space="preserve" font-family="Verdana" font-size="32.0" fill="#2150FF" transform="matrix(1.00, 0.00, -0.00, -1.00, 661.3, 371.0)">e</text></g></svg>